<?xml version="1.0" encoding="utf-8" standalone="no"?>
<!DOCTYPE svg PUBLIC "-//W3C//DTD SVG 1.1//EN"
  "http://www.w3.org/Graphics/SVG/1.1/DTD/svg11.dtd">
<svg xmlns:xlink="http://www.w3.org/1999/xlink" width="576pt" height="360pt" viewBox="0 0 576 360" xmlns="http://www.w3.org/2000/svg" version="1.1">
 <metadata>
  <rdf:RDF xmlns:dc="http://purl.org/dc/elements/1.1/" xmlns:cc="http://creativecommons.org/ns#" xmlns:rdf="http://www.w3.org/1999/02/22-rdf-syntax-ns#">
   <cc:Work>
    <dc:type rdf:resource="http://purl.org/dc/dcmitype/StillImage"/>
    <dc:date>2026-04-23T21:08:42.752372</dc:date>
    <dc:format>image/svg+xml</dc:format>
    <dc:creator>
     <cc:Agent>
      <dc:title>Matplotlib v3.10.8, https://matplotlib.org/</dc:title>
     </cc:Agent>
    </dc:creator>
   </cc:Work>
  </rdf:RDF>
 </metadata>
 <defs>
  <style type="text/css">*{stroke-linejoin: round; stroke-linecap: butt}</style>
 </defs>
 <g id="figure_1">
  <g id="patch_1">
   <path d="M 0 360 
L 576 360 
L 576 0 
L 0 0 
z
" style="fill: #ffffff"/>
  </g>
  <g id="axes_1">
   <g id="patch_2">
    <path d="M 60.59 318.04 
L 563.822368 318.04 
L 563.822368 28.2075 
L 60.59 28.2075 
z
" style="fill: #ffffff"/>
   </g>
   <g id="patch_3">
    <path d="M 83.464199 318.04 
L 94.901298 318.04 
L 94.901298 316.185665 
L 83.464199 316.185665 
z
" clip-path="url(#pd13c853297)" style="fill: #87ceeb; opacity: 0.6"/>
   </g>
   <g id="patch_4">
    <path d="M 94.901298 318.04 
L 106.338397 318.04 
L 106.338397 308.150215 
L 94.901298 308.150215 
z
" clip-path="url(#pd13c853297)" style="fill: #87ceeb; opacity: 0.6"/>
   </g>
   <g id="patch_5">
    <path d="M 106.338397 318.04 
L 117.775496 318.04 
L 117.775496 304.353245 
L 106.338397 304.353245 
z
" clip-path="url(#pd13c853297)" style="fill: #87ceeb; opacity: 0.6"/>
   </g>
   <g id="patch_6">
    <path d="M 117.775496 318.04 
L 129.212596 318.04 
L 129.212596 299.496654 
L 117.775496 299.496654 
z
" clip-path="url(#pd13c853297)" style="fill: #87ceeb; opacity: 0.6"/>
   </g>
   <g id="patch_7">
    <path d="M 129.212596 318.04 
L 140.649695 318.04 
L 140.649695 301.704195 
L 129.212596 301.704195 
z
" clip-path="url(#pd13c853297)" style="fill: #87ceeb; opacity: 0.6"/>
   </g>
   <g id="patch_8">
    <path d="M 140.649695 318.04 
L 152.086794 318.04 
L 152.086794 300.556274 
L 140.649695 300.556274 
z
" clip-path="url(#pd13c853297)" style="fill: #87ceeb; opacity: 0.6"/>
   </g>
   <g id="patch_9">
    <path d="M 152.086794 318.04 
L 163.523893 318.04 
L 163.523893 294.728365 
L 152.086794 294.728365 
z
" clip-path="url(#pd13c853297)" style="fill: #87ceeb; opacity: 0.6"/>
   </g>
   <g id="patch_10">
    <path d="M 163.523893 318.04 
L 174.960993 318.04 
L 174.960993 286.251407 
L 163.523893 286.251407 
z
" clip-path="url(#pd13c853297)" style="fill: #87ceeb; opacity: 0.6"/>
   </g>
   <g id="patch_11">
    <path d="M 174.960993 318.04 
L 186.398092 318.04 
L 186.398092 283.514056 
L 174.960993 283.514056 
z
" clip-path="url(#pd13c853297)" style="fill: #87ceeb; opacity: 0.6"/>
   </g>
   <g id="patch_12">
    <path d="M 186.398092 318.04 
L 197.835191 318.04 
L 197.835191 279.45218 
L 186.398092 279.45218 
z
" clip-path="url(#pd13c853297)" style="fill: #87ceeb; opacity: 0.6"/>
   </g>
   <g id="patch_13">
    <path d="M 197.835191 318.04 
L 209.27229 318.04 
L 209.27229 262.763168 
L 197.835191 262.763168 
z
" clip-path="url(#pd13c853297)" style="fill: #87ceeb; opacity: 0.6"/>
   </g>
   <g id="patch_14">
    <path d="M 209.27229 318.04 
L 220.70939 318.04 
L 220.70939 230.886273 
L 209.27229 230.886273 
z
" clip-path="url(#pd13c853297)" style="fill: #87ceeb; opacity: 0.6"/>
   </g>
   <g id="patch_15">
    <path d="M 220.70939 318.04 
L 232.146489 318.04 
L 232.146489 200.775411 
L 220.70939 200.775411 
z
" clip-path="url(#pd13c853297)" style="fill: #87ceeb; opacity: 0.6"/>
   </g>
   <g id="patch_16">
    <path d="M 232.146489 318.04 
L 243.583588 318.04 
L 243.583588 168.633611 
L 232.146489 168.633611 
z
" clip-path="url(#pd13c853297)" style="fill: #87ceeb; opacity: 0.6"/>
   </g>
   <g id="patch_17">
    <path d="M 243.583588 318.04 
L 255.020688 318.04 
L 255.020688 138.257844 
L 243.583588 138.257844 
z
" clip-path="url(#pd13c853297)" style="fill: #87ceeb; opacity: 0.6"/>
   </g>
   <g id="patch_18">
    <path d="M 255.020688 318.04 
L 266.457787 318.04 
L 266.457787 115.387717 
L 255.020688 115.387717 
z
" clip-path="url(#pd13c853297)" style="fill: #87ceeb; opacity: 0.6"/>
   </g>
   <g id="patch_19">
    <path d="M 266.457787 318.04 
L 277.894886 318.04 
L 277.894886 76.44669 
L 266.457787 76.44669 
z
" clip-path="url(#pd13c853297)" style="fill: #87ceeb; opacity: 0.6"/>
   </g>
   <g id="patch_20">
    <path d="M 277.894886 318.04 
L 289.331985 318.04 
L 289.331985 42.009048 
L 277.894886 42.009048 
z
" clip-path="url(#pd13c853297)" style="fill: #87ceeb; opacity: 0.6"/>
   </g>
   <g id="patch_21">
    <path d="M 289.331985 318.04 
L 300.769085 318.04 
L 300.769085 69.205955 
L 289.331985 69.205955 
z
" clip-path="url(#pd13c853297)" style="fill: #87ceeb; opacity: 0.6"/>
   </g>
   <g id="patch_22">
    <path d="M 300.769085 318.04 
L 312.206184 318.04 
L 312.206184 118.478275 
L 300.769085 118.478275 
z
" clip-path="url(#pd13c853297)" style="fill: #87ceeb; opacity: 0.6"/>
   </g>
   <g id="patch_23">
    <path d="M 312.206184 318.04 
L 323.643283 318.04 
L 323.643283 123.688072 
L 312.206184 123.688072 
z
" clip-path="url(#pd13c853297)" style="fill: #87ceeb; opacity: 0.6"/>
   </g>
   <g id="patch_24">
    <path d="M 323.643283 318.04 
L 335.080382 318.04 
L 335.080382 123.069961 
L 323.643283 123.069961 
z
" clip-path="url(#pd13c853297)" style="fill: #87ceeb; opacity: 0.6"/>
   </g>
   <g id="patch_25">
    <path d="M 335.080382 318.04 
L 346.517482 318.04 
L 346.517482 123.334866 
L 335.080382 123.334866 
z
" clip-path="url(#pd13c853297)" style="fill: #87ceeb; opacity: 0.6"/>
   </g>
   <g id="patch_26">
    <path d="M 346.517482 318.04 
L 357.954581 318.04 
L 357.954581 146.999707 
L 346.517482 146.999707 
z
" clip-path="url(#pd13c853297)" style="fill: #87ceeb; opacity: 0.6"/>
   </g>
   <g id="patch_27">
    <path d="M 357.954581 318.04 
L 369.39168 318.04 
L 369.39168 189.826007 
L 357.954581 189.826007 
z
" clip-path="url(#pd13c853297)" style="fill: #87ceeb; opacity: 0.6"/>
   </g>
   <g id="patch_28">
    <path d="M 369.39168 318.04 
L 380.82878 318.04 
L 380.82878 222.939125 
L 369.39168 222.939125 
z
" clip-path="url(#pd13c853297)" style="fill: #87ceeb; opacity: 0.6"/>
   </g>
   <g id="patch_29">
    <path d="M 380.82878 318.04 
L 392.265879 318.04 
L 392.265879 261.526945 
L 380.82878 261.526945 
z
" clip-path="url(#pd13c853297)" style="fill: #87ceeb; opacity: 0.6"/>
   </g>
   <g id="patch_30">
    <path d="M 392.265879 318.04 
L 403.702978 318.04 
L 403.702978 278.039353 
L 392.265879 278.039353 
z
" clip-path="url(#pd13c853297)" style="fill: #87ceeb; opacity: 0.6"/>
   </g>
   <g id="patch_31">
    <path d="M 403.702978 318.04 
L 415.140077 318.04 
L 415.140077 292.609125 
L 403.702978 292.609125 
z
" clip-path="url(#pd13c853297)" style="fill: #87ceeb; opacity: 0.6"/>
   </g>
   <g id="patch_32">
    <path d="M 415.140077 318.04 
L 426.577177 318.04 
L 426.577177 306.737389 
L 415.140077 306.737389 
z
" clip-path="url(#pd13c853297)" style="fill: #87ceeb; opacity: 0.6"/>
   </g>
   <g id="patch_33">
    <path d="M 426.577177 318.04 
L 438.014276 318.04 
L 438.014276 312.830203 
L 426.577177 312.830203 
z
" clip-path="url(#pd13c853297)" style="fill: #87ceeb; opacity: 0.6"/>
   </g>
   <g id="patch_34">
    <path d="M 438.014276 318.04 
L 449.451375 318.04 
L 449.451375 314.243029 
L 438.014276 314.243029 
z
" clip-path="url(#pd13c853297)" style="fill: #87ceeb; opacity: 0.6"/>
   </g>
   <g id="patch_35">
    <path d="M 449.451375 318.04 
L 460.888474 318.04 
L 460.888474 314.949442 
L 449.451375 314.949442 
z
" clip-path="url(#pd13c853297)" style="fill: #87ceeb; opacity: 0.6"/>
   </g>
   <g id="patch_36">
    <path d="M 460.888474 318.04 
L 472.325574 318.04 
L 472.325574 315.214347 
L 460.888474 315.214347 
z
" clip-path="url(#pd13c853297)" style="fill: #87ceeb; opacity: 0.6"/>
   </g>
   <g id="patch_37">
    <path d="M 472.325574 318.04 
L 483.762673 318.04 
L 483.762673 315.567554 
L 472.325574 315.567554 
z
" clip-path="url(#pd13c853297)" style="fill: #87ceeb; opacity: 0.6"/>
   </g>
   <g id="patch_38">
    <path d="M 483.762673 318.04 
L 495.199772 318.04 
L 495.199772 316.273967 
L 483.762673 316.273967 
z
" clip-path="url(#pd13c853297)" style="fill: #87ceeb; opacity: 0.6"/>
   </g>
   <g id="patch_39">
    <path d="M 495.199772 318.04 
L 506.636871 318.04 
L 506.636871 317.333587 
L 495.199772 317.333587 
z
" clip-path="url(#pd13c853297)" style="fill: #87ceeb; opacity: 0.6"/>
   </g>
   <g id="patch_40">
    <path d="M 506.636871 318.04 
L 518.073971 318.04 
L 518.073971 317.156984 
L 506.636871 317.156984 
z
" clip-path="url(#pd13c853297)" style="fill: #87ceeb; opacity: 0.6"/>
   </g>
   <g id="patch_41">
    <path d="M 518.073971 318.04 
L 529.51107 318.04 
L 529.51107 317.863397 
L 518.073971 317.863397 
z
" clip-path="url(#pd13c853297)" style="fill: #87ceeb; opacity: 0.6"/>
   </g>
   <g id="patch_42">
    <path d="M 529.51107 318.04 
L 540.948169 318.04 
L 540.948169 317.951698 
L 529.51107 317.951698 
z
" clip-path="url(#pd13c853297)" style="fill: #87ceeb; opacity: 0.6"/>
   </g>
   <g id="matplotlib.axis_1">
    <g id="xtick_1">
     <g id="line2d_1">
      <defs>
       <path id="ma2859c3840" d="M 0 0 
L 0 3.5 
" style="stroke: #000000; stroke-width: 0.8"/>
      </defs>
      <g>
       <use xlink:href="#ma2859c3840" x="128.884818" y="318.04" style="stroke: #000000; stroke-width: 0.8"/>
      </g>
     </g>
     <g id="text_1">
      <!-- 20 -->
      <g transform="translate(122.522318 332.638438) scale(0.1 -0.1)">
       <defs>
        <path id="DejaVuSans-32" d="M 1228 531 
L 3431 531 
L 3431 0 
L 469 0 
L 469 531 
Q 828 903 1448 1529 
Q 2069 2156 2228 2338 
Q 2531 2678 2651 2914 
Q 2772 3150 2772 3378 
Q 2772 3750 2511 3984 
Q 2250 4219 1831 4219 
Q 1534 4219 1204 4116 
Q 875 4013 500 3803 
L 500 4441 
Q 881 4594 1212 4672 
Q 1544 4750 1819 4750 
Q 2544 4750 2975 4387 
Q 3406 4025 3406 3419 
Q 3406 3131 3298 2873 
Q 3191 2616 2906 2266 
Q 2828 2175 2409 1742 
Q 1991 1309 1228 531 
z
" transform="scale(0.015625)"/>
        <path id="DejaVuSans-30" d="M 2034 4250 
Q 1547 4250 1301 3770 
Q 1056 3291 1056 2328 
Q 1056 1369 1301 889 
Q 1547 409 2034 409 
Q 2525 409 2770 889 
Q 3016 1369 3016 2328 
Q 3016 3291 2770 3770 
Q 2525 4250 2034 4250 
z
M 2034 4750 
Q 2819 4750 3233 4129 
Q 3647 3509 3647 2328 
Q 3647 1150 3233 529 
Q 2819 -91 2034 -91 
Q 1250 -91 836 529 
Q 422 1150 422 2328 
Q 422 3509 836 4129 
Q 1250 4750 2034 4750 
z
" transform="scale(0.015625)"/>
       </defs>
       <use xlink:href="#DejaVuSans-32"/>
       <use xlink:href="#DejaVuSans-30" transform="translate(63.623047 0)"/>
      </g>
     </g>
    </g>
    <g id="xtick_2">
     <g id="line2d_2">
      <g>
       <use xlink:href="#ma2859c3840" x="214.021874" y="318.04" style="stroke: #000000; stroke-width: 0.8"/>
      </g>
     </g>
     <g id="text_2">
      <!-- 40 -->
      <g transform="translate(207.659374 332.638438) scale(0.1 -0.1)">
       <defs>
        <path id="DejaVuSans-34" d="M 2419 4116 
L 825 1625 
L 2419 1625 
L 2419 4116 
z
M 2253 4666 
L 3047 4666 
L 3047 1625 
L 3713 1625 
L 3713 1100 
L 3047 1100 
L 3047 0 
L 2419 0 
L 2419 1100 
L 313 1100 
L 313 1709 
L 2253 4666 
z
" transform="scale(0.015625)"/>
       </defs>
       <use xlink:href="#DejaVuSans-34"/>
       <use xlink:href="#DejaVuSans-30" transform="translate(63.623047 0)"/>
      </g>
     </g>
    </g>
    <g id="xtick_3">
     <g id="line2d_3">
      <g>
       <use xlink:href="#ma2859c3840" x="299.15893" y="318.04" style="stroke: #000000; stroke-width: 0.8"/>
      </g>
     </g>
     <g id="text_3">
      <!-- 60 -->
      <g transform="translate(292.79643 332.638438) scale(0.1 -0.1)">
       <defs>
        <path id="DejaVuSans-36" d="M 2113 2584 
Q 1688 2584 1439 2293 
Q 1191 2003 1191 1497 
Q 1191 994 1439 701 
Q 1688 409 2113 409 
Q 2538 409 2786 701 
Q 3034 994 3034 1497 
Q 3034 2003 2786 2293 
Q 2538 2584 2113 2584 
z
M 3366 4563 
L 3366 3988 
Q 3128 4100 2886 4159 
Q 2644 4219 2406 4219 
Q 1781 4219 1451 3797 
Q 1122 3375 1075 2522 
Q 1259 2794 1537 2939 
Q 1816 3084 2150 3084 
Q 2853 3084 3261 2657 
Q 3669 2231 3669 1497 
Q 3669 778 3244 343 
Q 2819 -91 2113 -91 
Q 1303 -91 875 529 
Q 447 1150 447 2328 
Q 447 3434 972 4092 
Q 1497 4750 2381 4750 
Q 2619 4750 2861 4703 
Q 3103 4656 3366 4563 
z
" transform="scale(0.015625)"/>
       </defs>
       <use xlink:href="#DejaVuSans-36"/>
       <use xlink:href="#DejaVuSans-30" transform="translate(63.623047 0)"/>
      </g>
     </g>
    </g>
    <g id="xtick_4">
     <g id="line2d_4">
      <g>
       <use xlink:href="#ma2859c3840" x="384.295986" y="318.04" style="stroke: #000000; stroke-width: 0.8"/>
      </g>
     </g>
     <g id="text_4">
      <!-- 80 -->
      <g transform="translate(377.933486 332.638438) scale(0.1 -0.1)">
       <defs>
        <path id="DejaVuSans-38" d="M 2034 2216 
Q 1584 2216 1326 1975 
Q 1069 1734 1069 1313 
Q 1069 891 1326 650 
Q 1584 409 2034 409 
Q 2484 409 2743 651 
Q 3003 894 3003 1313 
Q 3003 1734 2745 1975 
Q 2488 2216 2034 2216 
z
M 1403 2484 
Q 997 2584 770 2862 
Q 544 3141 544 3541 
Q 544 4100 942 4425 
Q 1341 4750 2034 4750 
Q 2731 4750 3128 4425 
Q 3525 4100 3525 3541 
Q 3525 3141 3298 2862 
Q 3072 2584 2669 2484 
Q 3125 2378 3379 2068 
Q 3634 1759 3634 1313 
Q 3634 634 3220 271 
Q 2806 -91 2034 -91 
Q 1263 -91 848 271 
Q 434 634 434 1313 
Q 434 1759 690 2068 
Q 947 2378 1403 2484 
z
M 1172 3481 
Q 1172 3119 1398 2916 
Q 1625 2713 2034 2713 
Q 2441 2713 2670 2916 
Q 2900 3119 2900 3481 
Q 2900 3844 2670 4047 
Q 2441 4250 2034 4250 
Q 1625 4250 1398 4047 
Q 1172 3844 1172 3481 
z
" transform="scale(0.015625)"/>
       </defs>
       <use xlink:href="#DejaVuSans-38"/>
       <use xlink:href="#DejaVuSans-30" transform="translate(63.623047 0)"/>
      </g>
     </g>
    </g>
    <g id="xtick_5">
     <g id="line2d_5">
      <g>
       <use xlink:href="#ma2859c3840" x="469.433042" y="318.04" style="stroke: #000000; stroke-width: 0.8"/>
      </g>
     </g>
     <g id="text_5">
      <!-- 100 -->
      <g transform="translate(459.889292 332.638438) scale(0.1 -0.1)">
       <defs>
        <path id="DejaVuSans-31" d="M 794 531 
L 1825 531 
L 1825 4091 
L 703 3866 
L 703 4441 
L 1819 4666 
L 2450 4666 
L 2450 531 
L 3481 531 
L 3481 0 
L 794 0 
L 794 531 
z
" transform="scale(0.015625)"/>
       </defs>
       <use xlink:href="#DejaVuSans-31"/>
       <use xlink:href="#DejaVuSans-30" transform="translate(63.623047 0)"/>
       <use xlink:href="#DejaVuSans-30" transform="translate(127.246094 0)"/>
      </g>
     </g>
    </g>
    <g id="xtick_6">
     <g id="line2d_6">
      <g>
       <use xlink:href="#ma2859c3840" x="554.570098" y="318.04" style="stroke: #000000; stroke-width: 0.8"/>
      </g>
     </g>
     <g id="text_6">
      <!-- 120 -->
      <g transform="translate(545.026348 332.638438) scale(0.1 -0.1)">
       <use xlink:href="#DejaVuSans-31"/>
       <use xlink:href="#DejaVuSans-32" transform="translate(63.623047 0)"/>
       <use xlink:href="#DejaVuSans-30" transform="translate(127.246094 0)"/>
      </g>
     </g>
    </g>
    <g id="text_7">
     <!-- price actual -->
     <g transform="translate(282.777278 346.316563) scale(0.1 -0.1)">
      <defs>
       <path id="DejaVuSans-70" d="M 1159 525 
L 1159 -1331 
L 581 -1331 
L 581 3500 
L 1159 3500 
L 1159 2969 
Q 1341 3281 1617 3432 
Q 1894 3584 2278 3584 
Q 2916 3584 3314 3078 
Q 3713 2572 3713 1747 
Q 3713 922 3314 415 
Q 2916 -91 2278 -91 
Q 1894 -91 1617 61 
Q 1341 213 1159 525 
z
M 3116 1747 
Q 3116 2381 2855 2742 
Q 2594 3103 2138 3103 
Q 1681 3103 1420 2742 
Q 1159 2381 1159 1747 
Q 1159 1113 1420 752 
Q 1681 391 2138 391 
Q 2594 391 2855 752 
Q 3116 1113 3116 1747 
z
" transform="scale(0.015625)"/>
       <path id="DejaVuSans-72" d="M 2631 2963 
Q 2534 3019 2420 3045 
Q 2306 3072 2169 3072 
Q 1681 3072 1420 2755 
Q 1159 2438 1159 1844 
L 1159 0 
L 581 0 
L 581 3500 
L 1159 3500 
L 1159 2956 
Q 1341 3275 1631 3429 
Q 1922 3584 2338 3584 
Q 2397 3584 2469 3576 
Q 2541 3569 2628 3553 
L 2631 2963 
z
" transform="scale(0.015625)"/>
       <path id="DejaVuSans-69" d="M 603 3500 
L 1178 3500 
L 1178 0 
L 603 0 
L 603 3500 
z
M 603 4863 
L 1178 4863 
L 1178 4134 
L 603 4134 
L 603 4863 
z
" transform="scale(0.015625)"/>
       <path id="DejaVuSans-63" d="M 3122 3366 
L 3122 2828 
Q 2878 2963 2633 3030 
Q 2388 3097 2138 3097 
Q 1578 3097 1268 2742 
Q 959 2388 959 1747 
Q 959 1106 1268 751 
Q 1578 397 2138 397 
Q 2388 397 2633 464 
Q 2878 531 3122 666 
L 3122 134 
Q 2881 22 2623 -34 
Q 2366 -91 2075 -91 
Q 1284 -91 818 406 
Q 353 903 353 1747 
Q 353 2603 823 3093 
Q 1294 3584 2113 3584 
Q 2378 3584 2631 3529 
Q 2884 3475 3122 3366 
z
" transform="scale(0.015625)"/>
       <path id="DejaVuSans-65" d="M 3597 1894 
L 3597 1613 
L 953 1613 
Q 991 1019 1311 708 
Q 1631 397 2203 397 
Q 2534 397 2845 478 
Q 3156 559 3463 722 
L 3463 178 
Q 3153 47 2828 -22 
Q 2503 -91 2169 -91 
Q 1331 -91 842 396 
Q 353 884 353 1716 
Q 353 2575 817 3079 
Q 1281 3584 2069 3584 
Q 2775 3584 3186 3129 
Q 3597 2675 3597 1894 
z
M 3022 2063 
Q 3016 2534 2758 2815 
Q 2500 3097 2075 3097 
Q 1594 3097 1305 2825 
Q 1016 2553 972 2059 
L 3022 2063 
z
" transform="scale(0.015625)"/>
       <path id="DejaVuSans-20" transform="scale(0.015625)"/>
       <path id="DejaVuSans-61" d="M 2194 1759 
Q 1497 1759 1228 1600 
Q 959 1441 959 1056 
Q 959 750 1161 570 
Q 1363 391 1709 391 
Q 2188 391 2477 730 
Q 2766 1069 2766 1631 
L 2766 1759 
L 2194 1759 
z
M 3341 1997 
L 3341 0 
L 2766 0 
L 2766 531 
Q 2569 213 2275 61 
Q 1981 -91 1556 -91 
Q 1019 -91 701 211 
Q 384 513 384 1019 
Q 384 1609 779 1909 
Q 1175 2209 1959 2209 
L 2766 2209 
L 2766 2266 
Q 2766 2663 2505 2880 
Q 2244 3097 1772 3097 
Q 1472 3097 1187 3025 
Q 903 2953 641 2809 
L 641 3341 
Q 956 3463 1253 3523 
Q 1550 3584 1831 3584 
Q 2591 3584 2966 3190 
Q 3341 2797 3341 1997 
z
" transform="scale(0.015625)"/>
       <path id="DejaVuSans-74" d="M 1172 4494 
L 1172 3500 
L 2356 3500 
L 2356 3053 
L 1172 3053 
L 1172 1153 
Q 1172 725 1289 603 
Q 1406 481 1766 481 
L 2356 481 
L 2356 0 
L 1766 0 
Q 1100 0 847 248 
Q 594 497 594 1153 
L 594 3053 
L 172 3053 
L 172 3500 
L 594 3500 
L 594 4494 
L 1172 4494 
z
" transform="scale(0.015625)"/>
       <path id="DejaVuSans-75" d="M 544 1381 
L 544 3500 
L 1119 3500 
L 1119 1403 
Q 1119 906 1312 657 
Q 1506 409 1894 409 
Q 2359 409 2629 706 
Q 2900 1003 2900 1516 
L 2900 3500 
L 3475 3500 
L 3475 0 
L 2900 0 
L 2900 538 
Q 2691 219 2414 64 
Q 2138 -91 1772 -91 
Q 1169 -91 856 284 
Q 544 659 544 1381 
z
M 1991 3584 
L 1991 3584 
z
" transform="scale(0.015625)"/>
       <path id="DejaVuSans-6c" d="M 603 4863 
L 1178 4863 
L 1178 0 
L 603 0 
L 603 4863 
z
" transform="scale(0.015625)"/>
      </defs>
      <use xlink:href="#DejaVuSans-70"/>
      <use xlink:href="#DejaVuSans-72" transform="translate(63.476562 0)"/>
      <use xlink:href="#DejaVuSans-69" transform="translate(104.589844 0)"/>
      <use xlink:href="#DejaVuSans-63" transform="translate(132.373047 0)"/>
      <use xlink:href="#DejaVuSans-65" transform="translate(187.353516 0)"/>
      <use xlink:href="#DejaVuSans-20" transform="translate(248.876953 0)"/>
      <use xlink:href="#DejaVuSans-61" transform="translate(280.664062 0)"/>
      <use xlink:href="#DejaVuSans-63" transform="translate(341.943359 0)"/>
      <use xlink:href="#DejaVuSans-74" transform="translate(396.923828 0)"/>
      <use xlink:href="#DejaVuSans-75" transform="translate(436.132812 0)"/>
      <use xlink:href="#DejaVuSans-61" transform="translate(499.511719 0)"/>
      <use xlink:href="#DejaVuSans-6c" transform="translate(560.791016 0)"/>
     </g>
    </g>
   </g>
   <g id="matplotlib.axis_2">
    <g id="ytick_1">
     <g id="line2d_7">
      <defs>
       <path id="m656b037cf6" d="M 0 0 
L -3.5 0 
" style="stroke: #000000; stroke-width: 0.8"/>
      </defs>
      <g>
       <use xlink:href="#m656b037cf6" x="60.59" y="318.04" style="stroke: #000000; stroke-width: 0.8"/>
      </g>
     </g>
     <g id="text_8">
      <!-- 0.000 -->
      <g transform="translate(24.961875 321.839219) scale(0.1 -0.1)">
       <defs>
        <path id="DejaVuSans-2e" d="M 684 794 
L 1344 794 
L 1344 0 
L 684 0 
L 684 794 
z
" transform="scale(0.015625)"/>
       </defs>
       <use xlink:href="#DejaVuSans-30"/>
       <use xlink:href="#DejaVuSans-2e" transform="translate(63.623047 0)"/>
       <use xlink:href="#DejaVuSans-30" transform="translate(95.410156 0)"/>
       <use xlink:href="#DejaVuSans-30" transform="translate(159.033203 0)"/>
       <use xlink:href="#DejaVuSans-30" transform="translate(222.65625 0)"/>
      </g>
     </g>
    </g>
    <g id="ytick_2">
     <g id="line2d_8">
      <g>
       <use xlink:href="#m656b037cf6" x="60.59" y="276.446302" style="stroke: #000000; stroke-width: 0.8"/>
      </g>
     </g>
     <g id="text_9">
      <!-- 0.005 -->
      <g transform="translate(24.961875 280.245521) scale(0.1 -0.1)">
       <defs>
        <path id="DejaVuSans-35" d="M 691 4666 
L 3169 4666 
L 3169 4134 
L 1269 4134 
L 1269 2991 
Q 1406 3038 1543 3061 
Q 1681 3084 1819 3084 
Q 2600 3084 3056 2656 
Q 3513 2228 3513 1497 
Q 3513 744 3044 326 
Q 2575 -91 1722 -91 
Q 1428 -91 1123 -41 
Q 819 9 494 109 
L 494 744 
Q 775 591 1075 516 
Q 1375 441 1709 441 
Q 2250 441 2565 725 
Q 2881 1009 2881 1497 
Q 2881 1984 2565 2268 
Q 2250 2553 1709 2553 
Q 1456 2553 1204 2497 
Q 953 2441 691 2322 
L 691 4666 
z
" transform="scale(0.015625)"/>
       </defs>
       <use xlink:href="#DejaVuSans-30"/>
       <use xlink:href="#DejaVuSans-2e" transform="translate(63.623047 0)"/>
       <use xlink:href="#DejaVuSans-30" transform="translate(95.410156 0)"/>
       <use xlink:href="#DejaVuSans-30" transform="translate(159.033203 0)"/>
       <use xlink:href="#DejaVuSans-35" transform="translate(222.65625 0)"/>
      </g>
     </g>
    </g>
    <g id="ytick_3">
     <g id="line2d_9">
      <g>
       <use xlink:href="#m656b037cf6" x="60.59" y="234.852605" style="stroke: #000000; stroke-width: 0.8"/>
      </g>
     </g>
     <g id="text_10">
      <!-- 0.010 -->
      <g transform="translate(24.961875 238.651824) scale(0.1 -0.1)">
       <use xlink:href="#DejaVuSans-30"/>
       <use xlink:href="#DejaVuSans-2e" transform="translate(63.623047 0)"/>
       <use xlink:href="#DejaVuSans-30" transform="translate(95.410156 0)"/>
       <use xlink:href="#DejaVuSans-31" transform="translate(159.033203 0)"/>
       <use xlink:href="#DejaVuSans-30" transform="translate(222.65625 0)"/>
      </g>
     </g>
    </g>
    <g id="ytick_4">
     <g id="line2d_10">
      <g>
       <use xlink:href="#m656b037cf6" x="60.59" y="193.258907" style="stroke: #000000; stroke-width: 0.8"/>
      </g>
     </g>
     <g id="text_11">
      <!-- 0.015 -->
      <g transform="translate(24.961875 197.058126) scale(0.1 -0.1)">
       <use xlink:href="#DejaVuSans-30"/>
       <use xlink:href="#DejaVuSans-2e" transform="translate(63.623047 0)"/>
       <use xlink:href="#DejaVuSans-30" transform="translate(95.410156 0)"/>
       <use xlink:href="#DejaVuSans-31" transform="translate(159.033203 0)"/>
       <use xlink:href="#DejaVuSans-35" transform="translate(222.65625 0)"/>
      </g>
     </g>
    </g>
    <g id="ytick_5">
     <g id="line2d_11">
      <g>
       <use xlink:href="#m656b037cf6" x="60.59" y="151.66521" style="stroke: #000000; stroke-width: 0.8"/>
      </g>
     </g>
     <g id="text_12">
      <!-- 0.020 -->
      <g transform="translate(24.961875 155.464428) scale(0.1 -0.1)">
       <use xlink:href="#DejaVuSans-30"/>
       <use xlink:href="#DejaVuSans-2e" transform="translate(63.623047 0)"/>
       <use xlink:href="#DejaVuSans-30" transform="translate(95.410156 0)"/>
       <use xlink:href="#DejaVuSans-32" transform="translate(159.033203 0)"/>
       <use xlink:href="#DejaVuSans-30" transform="translate(222.65625 0)"/>
      </g>
     </g>
    </g>
    <g id="ytick_6">
     <g id="line2d_12">
      <g>
       <use xlink:href="#m656b037cf6" x="60.59" y="110.071512" style="stroke: #000000; stroke-width: 0.8"/>
      </g>
     </g>
     <g id="text_13">
      <!-- 0.025 -->
      <g transform="translate(24.961875 113.870731) scale(0.1 -0.1)">
       <use xlink:href="#DejaVuSans-30"/>
       <use xlink:href="#DejaVuSans-2e" transform="translate(63.623047 0)"/>
       <use xlink:href="#DejaVuSans-30" transform="translate(95.410156 0)"/>
       <use xlink:href="#DejaVuSans-32" transform="translate(159.033203 0)"/>
       <use xlink:href="#DejaVuSans-35" transform="translate(222.65625 0)"/>
      </g>
     </g>
    </g>
    <g id="ytick_7">
     <g id="line2d_13">
      <g>
       <use xlink:href="#m656b037cf6" x="60.59" y="68.477815" style="stroke: #000000; stroke-width: 0.8"/>
      </g>
     </g>
     <g id="text_14">
      <!-- 0.030 -->
      <g transform="translate(24.961875 72.277033) scale(0.1 -0.1)">
       <defs>
        <path id="DejaVuSans-33" d="M 2597 2516 
Q 3050 2419 3304 2112 
Q 3559 1806 3559 1356 
Q 3559 666 3084 287 
Q 2609 -91 1734 -91 
Q 1441 -91 1130 -33 
Q 819 25 488 141 
L 488 750 
Q 750 597 1062 519 
Q 1375 441 1716 441 
Q 2309 441 2620 675 
Q 2931 909 2931 1356 
Q 2931 1769 2642 2001 
Q 2353 2234 1838 2234 
L 1294 2234 
L 1294 2753 
L 1863 2753 
Q 2328 2753 2575 2939 
Q 2822 3125 2822 3475 
Q 2822 3834 2567 4026 
Q 2313 4219 1838 4219 
Q 1578 4219 1281 4162 
Q 984 4106 628 3988 
L 628 4550 
Q 988 4650 1302 4700 
Q 1616 4750 1894 4750 
Q 2613 4750 3031 4423 
Q 3450 4097 3450 3541 
Q 3450 3153 3228 2886 
Q 3006 2619 2597 2516 
z
" transform="scale(0.015625)"/>
       </defs>
       <use xlink:href="#DejaVuSans-30"/>
       <use xlink:href="#DejaVuSans-2e" transform="translate(63.623047 0)"/>
       <use xlink:href="#DejaVuSans-30" transform="translate(95.410156 0)"/>
       <use xlink:href="#DejaVuSans-33" transform="translate(159.033203 0)"/>
       <use xlink:href="#DejaVuSans-30" transform="translate(222.65625 0)"/>
      </g>
     </g>
    </g>
    <g id="text_15">
     <!-- Densidade -->
     <g transform="translate(18.882188 199.701875) rotate(-90) scale(0.1 -0.1)">
      <defs>
       <path id="DejaVuSans-44" d="M 1259 4147 
L 1259 519 
L 2022 519 
Q 2988 519 3436 956 
Q 3884 1394 3884 2338 
Q 3884 3275 3436 3711 
Q 2988 4147 2022 4147 
L 1259 4147 
z
M 628 4666 
L 1925 4666 
Q 3281 4666 3915 4102 
Q 4550 3538 4550 2338 
Q 4550 1131 3912 565 
Q 3275 0 1925 0 
L 628 0 
L 628 4666 
z
" transform="scale(0.015625)"/>
       <path id="DejaVuSans-6e" d="M 3513 2113 
L 3513 0 
L 2938 0 
L 2938 2094 
Q 2938 2591 2744 2837 
Q 2550 3084 2163 3084 
Q 1697 3084 1428 2787 
Q 1159 2491 1159 1978 
L 1159 0 
L 581 0 
L 581 3500 
L 1159 3500 
L 1159 2956 
Q 1366 3272 1645 3428 
Q 1925 3584 2291 3584 
Q 2894 3584 3203 3211 
Q 3513 2838 3513 2113 
z
" transform="scale(0.015625)"/>
       <path id="DejaVuSans-73" d="M 2834 3397 
L 2834 2853 
Q 2591 2978 2328 3040 
Q 2066 3103 1784 3103 
Q 1356 3103 1142 2972 
Q 928 2841 928 2578 
Q 928 2378 1081 2264 
Q 1234 2150 1697 2047 
L 1894 2003 
Q 2506 1872 2764 1633 
Q 3022 1394 3022 966 
Q 3022 478 2636 193 
Q 2250 -91 1575 -91 
Q 1294 -91 989 -36 
Q 684 19 347 128 
L 347 722 
Q 666 556 975 473 
Q 1284 391 1588 391 
Q 1994 391 2212 530 
Q 2431 669 2431 922 
Q 2431 1156 2273 1281 
Q 2116 1406 1581 1522 
L 1381 1569 
Q 847 1681 609 1914 
Q 372 2147 372 2553 
Q 372 3047 722 3315 
Q 1072 3584 1716 3584 
Q 2034 3584 2315 3537 
Q 2597 3491 2834 3397 
z
" transform="scale(0.015625)"/>
       <path id="DejaVuSans-64" d="M 2906 2969 
L 2906 4863 
L 3481 4863 
L 3481 0 
L 2906 0 
L 2906 525 
Q 2725 213 2448 61 
Q 2172 -91 1784 -91 
Q 1150 -91 751 415 
Q 353 922 353 1747 
Q 353 2572 751 3078 
Q 1150 3584 1784 3584 
Q 2172 3584 2448 3432 
Q 2725 3281 2906 2969 
z
M 947 1747 
Q 947 1113 1208 752 
Q 1469 391 1925 391 
Q 2381 391 2643 752 
Q 2906 1113 2906 1747 
Q 2906 2381 2643 2742 
Q 2381 3103 1925 3103 
Q 1469 3103 1208 2742 
Q 947 2381 947 1747 
z
" transform="scale(0.015625)"/>
      </defs>
      <use xlink:href="#DejaVuSans-44"/>
      <use xlink:href="#DejaVuSans-65" transform="translate(77.001953 0)"/>
      <use xlink:href="#DejaVuSans-6e" transform="translate(138.525391 0)"/>
      <use xlink:href="#DejaVuSans-73" transform="translate(201.904297 0)"/>
      <use xlink:href="#DejaVuSans-69" transform="translate(254.003906 0)"/>
      <use xlink:href="#DejaVuSans-64" transform="translate(281.787109 0)"/>
      <use xlink:href="#DejaVuSans-61" transform="translate(345.263672 0)"/>
      <use xlink:href="#DejaVuSans-64" transform="translate(406.542969 0)"/>
      <use xlink:href="#DejaVuSans-65" transform="translate(470.019531 0)"/>
     </g>
    </g>
   </g>
   <g id="line2d_14">
    <path d="M 83.464199 316.860655 
L 85.763113 316.306232 
L 88.062027 315.575317 
L 90.360942 314.657688 
L 92.659856 313.567471 
L 97.257685 311.057177 
L 101.855514 308.543239 
L 106.453343 306.37974 
L 111.051172 304.546128 
L 115.649 302.921171 
L 117.947915 302.214598 
L 120.246829 301.625889 
L 122.545744 301.189659 
L 124.844658 300.920482 
L 129.442487 300.795094 
L 136.33923 300.850934 
L 140.937059 300.538673 
L 143.235974 300.207867 
L 145.534888 299.733089 
L 147.833802 299.090032 
L 150.132717 298.25636 
L 152.431631 297.21942 
L 154.730546 295.985247 
L 159.328375 293.083913 
L 163.926203 290.103 
L 166.225118 288.780226 
L 168.524032 287.627031 
L 170.822947 286.639262 
L 175.420776 285.006064 
L 182.317519 282.677489 
L 184.616433 281.746575 
L 186.915348 280.641147 
L 189.214262 279.28118 
L 191.513177 277.578129 
L 193.812091 275.447546 
L 196.111005 272.821791 
L 198.40992 269.657037 
L 200.708834 265.932324 
L 203.007749 261.643897 
L 205.306663 256.801755 
L 207.605578 251.433837 
L 209.904492 245.597008 
L 214.502321 232.938847 
L 221.399064 213.654382 
L 225.996893 201.657635 
L 230.594722 189.869285 
L 235.192551 177.437689 
L 246.687123 144.985396 
L 248.986037 138.970059 
L 251.284952 133.27506 
L 255.88278 122.669038 
L 260.480609 111.938391 
L 262.779524 106.002897 
L 265.078438 99.562589 
L 269.676267 85.533875 
L 274.274096 71.436083 
L 276.57301 65.143636 
L 278.871925 59.894903 
L 281.170839 56.126958 
L 283.469754 54.214156 
L 285.768668 54.378776 
L 288.067582 56.63344 
L 290.366497 60.78155 
L 292.665411 66.471458 
L 294.964326 73.27308 
L 304.159983 102.850719 
L 306.458898 108.839298 
L 308.757812 113.689425 
L 311.056727 117.355335 
L 313.355641 119.955334 
L 315.654556 121.706236 
L 317.95347 122.826818 
L 320.252384 123.464932 
L 322.551299 123.689642 
L 324.850213 123.547241 
L 331.746957 122.402706 
L 334.045871 122.642799 
L 336.344785 123.596653 
L 338.6437 125.35645 
L 340.942614 127.909078 
L 343.241529 131.197064 
L 345.540443 135.183239 
L 347.839358 139.877657 
L 350.138272 145.312944 
L 352.437186 151.489333 
L 354.736101 158.329072 
L 359.33393 173.307557 
L 368.529587 203.909758 
L 377.725245 233.5715 
L 380.024159 240.470772 
L 382.323074 246.84389 
L 384.621988 252.575954 
L 386.920903 257.660769 
L 389.219817 262.199986 
L 391.518732 266.354675 
L 396.11656 274.060135 
L 400.714389 281.247702 
L 405.312218 287.753564 
L 409.910047 293.584877 
L 414.507876 298.933382 
L 416.80679 301.423924 
L 419.105705 303.74724 
L 421.404619 305.856336 
L 423.703534 307.706919 
L 426.002448 309.267235 
L 428.301362 310.525995 
L 430.600277 311.497014 
L 432.899191 312.218158 
L 435.198106 312.743674 
L 439.795935 313.436899 
L 451.290507 314.632807 
L 458.18725 315.175897 
L 462.785079 315.323075 
L 476.578565 315.46669 
L 483.475309 315.857803 
L 504.165538 317.217486 
L 540.948169 317.97761 
L 540.948169 317.97761 
" clip-path="url(#pd13c853297)" style="fill: none; stroke: #000080; stroke-width: 2; stroke-linecap: square"/>
   </g>
   <g id="line2d_15">
    <path d="M 290.151527 318.04 
L 290.151527 28.2075 
" clip-path="url(#pd13c853297)" style="fill: none; stroke-dasharray: 5.55,2.4; stroke-dashoffset: 0; stroke: #ff0000; stroke-width: 1.5"/>
   </g>
   <g id="line2d_16">
    <path d="M 290.730362 318.04 
L 290.730362 28.2075 
" clip-path="url(#pd13c853297)" style="fill: none; stroke: #008000; stroke-width: 1.5; stroke-linecap: square"/>
   </g>
   <g id="patch_43">
    <path d="M 60.59 318.04 
L 60.59 28.2075 
" style="fill: none; stroke: #000000; stroke-width: 0.8; stroke-linejoin: miter; stroke-linecap: square"/>
   </g>
   <g id="patch_44">
    <path d="M 563.822368 318.04 
L 563.822368 28.2075 
" style="fill: none; stroke: #000000; stroke-width: 0.8; stroke-linejoin: miter; stroke-linecap: square"/>
   </g>
   <g id="patch_45">
    <path d="M 60.59 318.04 
L 563.822368 318.04 
" style="fill: none; stroke: #000000; stroke-width: 0.8; stroke-linejoin: miter; stroke-linecap: square"/>
   </g>
   <g id="patch_46">
    <path d="M 60.59 28.2075 
L 563.822368 28.2075 
" style="fill: none; stroke: #000000; stroke-width: 0.8; stroke-linejoin: miter; stroke-linecap: square"/>
   </g>
   <g id="text_16">
    <!-- Distribuição de price actual -->
    <g transform="translate(216.010871 22.2075) scale(0.14 -0.14)">
     <defs>
      <path id="DejaVuSans-62" d="M 3116 1747 
Q 3116 2381 2855 2742 
Q 2594 3103 2138 3103 
Q 1681 3103 1420 2742 
Q 1159 2381 1159 1747 
Q 1159 1113 1420 752 
Q 1681 391 2138 391 
Q 2594 391 2855 752 
Q 3116 1113 3116 1747 
z
M 1159 2969 
Q 1341 3281 1617 3432 
Q 1894 3584 2278 3584 
Q 2916 3584 3314 3078 
Q 3713 2572 3713 1747 
Q 3713 922 3314 415 
Q 2916 -91 2278 -91 
Q 1894 -91 1617 61 
Q 1341 213 1159 525 
L 1159 0 
L 581 0 
L 581 4863 
L 1159 4863 
L 1159 2969 
z
" transform="scale(0.015625)"/>
      <path id="DejaVuSans-e7" d="M 3122 3366 
L 3122 2828 
Q 2878 2963 2633 3030 
Q 2388 3097 2138 3097 
Q 1578 3097 1268 2742 
Q 959 2388 959 1747 
Q 959 1106 1268 751 
Q 1578 397 2138 397 
Q 2388 397 2633 464 
Q 2878 531 3122 666 
L 3122 134 
Q 2881 22 2623 -34 
Q 2366 -91 2075 -91 
Q 1284 -91 818 406 
Q 353 903 353 1747 
Q 353 2603 823 3093 
Q 1294 3584 2113 3584 
Q 2378 3584 2631 3529 
Q 2884 3475 3122 3366 
z
M 2309 0 
Q 2481 -194 2565 -358 
Q 2650 -522 2650 -672 
Q 2650 -950 2462 -1092 
Q 2275 -1234 1906 -1234 
Q 1763 -1234 1627 -1215 
Q 1491 -1197 1356 -1159 
L 1356 -750 
Q 1463 -803 1578 -826 
Q 1694 -850 1841 -850 
Q 2025 -850 2119 -775 
Q 2213 -700 2213 -556 
Q 2213 -463 2145 -327 
Q 2078 -191 1938 0 
L 2309 0 
z
" transform="scale(0.015625)"/>
      <path id="DejaVuSans-e3" d="M 2194 1759 
Q 1497 1759 1228 1600 
Q 959 1441 959 1056 
Q 959 750 1161 570 
Q 1363 391 1709 391 
Q 2188 391 2477 730 
Q 2766 1069 2766 1631 
L 2766 1759 
L 2194 1759 
z
M 3341 1997 
L 3341 0 
L 2766 0 
L 2766 531 
Q 2569 213 2275 61 
Q 1981 -91 1556 -91 
Q 1019 -91 701 211 
Q 384 513 384 1019 
Q 384 1609 779 1909 
Q 1175 2209 1959 2209 
L 2766 2209 
L 2766 2266 
Q 2766 2663 2505 2880 
Q 2244 3097 1772 3097 
Q 1472 3097 1187 3025 
Q 903 2953 641 2809 
L 641 3341 
Q 956 3463 1253 3523 
Q 1550 3584 1831 3584 
Q 2591 3584 2966 3190 
Q 3341 2797 3341 1997 
z
M 1844 4281 
L 1666 4453 
Q 1597 4516 1545 4545 
Q 1494 4575 1453 4575 
Q 1334 4575 1278 4461 
Q 1222 4347 1216 4091 
L 825 4091 
Q 831 4513 990 4742 
Q 1150 4972 1434 4972 
Q 1553 4972 1653 4928 
Q 1753 4884 1869 4781 
L 2047 4609 
Q 2116 4547 2167 4517 
Q 2219 4488 2259 4488 
Q 2378 4488 2434 4602 
Q 2491 4716 2497 4972 
L 2888 4972 
Q 2881 4550 2722 4320 
Q 2563 4091 2278 4091 
Q 2159 4091 2059 4134 
Q 1959 4178 1844 4281 
z
" transform="scale(0.015625)"/>
      <path id="DejaVuSans-6f" d="M 1959 3097 
Q 1497 3097 1228 2736 
Q 959 2375 959 1747 
Q 959 1119 1226 758 
Q 1494 397 1959 397 
Q 2419 397 2687 759 
Q 2956 1122 2956 1747 
Q 2956 2369 2687 2733 
Q 2419 3097 1959 3097 
z
M 1959 3584 
Q 2709 3584 3137 3096 
Q 3566 2609 3566 1747 
Q 3566 888 3137 398 
Q 2709 -91 1959 -91 
Q 1206 -91 779 398 
Q 353 888 353 1747 
Q 353 2609 779 3096 
Q 1206 3584 1959 3584 
z
" transform="scale(0.015625)"/>
     </defs>
     <use xlink:href="#DejaVuSans-44"/>
     <use xlink:href="#DejaVuSans-69" transform="translate(77.001953 0)"/>
     <use xlink:href="#DejaVuSans-73" transform="translate(104.785156 0)"/>
     <use xlink:href="#DejaVuSans-74" transform="translate(156.884766 0)"/>
     <use xlink:href="#DejaVuSans-72" transform="translate(196.09375 0)"/>
     <use xlink:href="#DejaVuSans-69" transform="translate(237.207031 0)"/>
     <use xlink:href="#DejaVuSans-62" transform="translate(264.990234 0)"/>
     <use xlink:href="#DejaVuSans-75" transform="translate(328.466797 0)"/>
     <use xlink:href="#DejaVuSans-69" transform="translate(391.845703 0)"/>
     <use xlink:href="#DejaVuSans-e7" transform="translate(419.628906 0)"/>
     <use xlink:href="#DejaVuSans-e3" transform="translate(474.609375 0)"/>
     <use xlink:href="#DejaVuSans-6f" transform="translate(535.888672 0)"/>
     <use xlink:href="#DejaVuSans-20" transform="translate(597.070312 0)"/>
     <use xlink:href="#DejaVuSans-64" transform="translate(628.857422 0)"/>
     <use xlink:href="#DejaVuSans-65" transform="translate(692.333984 0)"/>
     <use xlink:href="#DejaVuSans-20" transform="translate(753.857422 0)"/>
     <use xlink:href="#DejaVuSans-70" transform="translate(785.644531 0)"/>
     <use xlink:href="#DejaVuSans-72" transform="translate(849.121094 0)"/>
     <use xlink:href="#DejaVuSans-69" transform="translate(890.234375 0)"/>
     <use xlink:href="#DejaVuSans-63" transform="translate(918.017578 0)"/>
     <use xlink:href="#DejaVuSans-65" transform="translate(972.998047 0)"/>
     <use xlink:href="#DejaVuSans-20" transform="translate(1034.521484 0)"/>
     <use xlink:href="#DejaVuSans-61" transform="translate(1066.308594 0)"/>
     <use xlink:href="#DejaVuSans-63" transform="translate(1127.587891 0)"/>
     <use xlink:href="#DejaVuSans-74" transform="translate(1182.568359 0)"/>
     <use xlink:href="#DejaVuSans-75" transform="translate(1221.777344 0)"/>
     <use xlink:href="#DejaVuSans-61" transform="translate(1285.15625 0)"/>
     <use xlink:href="#DejaVuSans-6c" transform="translate(1346.435547 0)"/>
    </g>
   </g>
   <g id="legend_1">
    <g id="patch_47">
     <path d="M 447.145805 94.92 
L 556.822368 94.92 
Q 558.822368 94.92 558.822368 92.92 
L 558.822368 35.2075 
Q 558.822368 33.2075 556.822368 33.2075 
L 447.145805 33.2075 
Q 445.145805 33.2075 445.145805 35.2075 
L 445.145805 92.92 
Q 445.145805 94.92 447.145805 94.92 
z
" style="fill: #ffffff; opacity: 0.8; stroke: #cccccc; stroke-linejoin: miter"/>
    </g>
    <g id="patch_48">
     <path d="M 449.145805 44.805938 
L 469.145805 44.805938 
L 469.145805 37.805938 
L 449.145805 37.805938 
z
" style="fill: #87ceeb; opacity: 0.6"/>
    </g>
    <g id="text_17">
     <!-- Histograma -->
     <g transform="translate(477.145805 44.805938) scale(0.1 -0.1)">
      <defs>
       <path id="DejaVuSans-48" d="M 628 4666 
L 1259 4666 
L 1259 2753 
L 3553 2753 
L 3553 4666 
L 4184 4666 
L 4184 0 
L 3553 0 
L 3553 2222 
L 1259 2222 
L 1259 0 
L 628 0 
L 628 4666 
z
" transform="scale(0.015625)"/>
       <path id="DejaVuSans-67" d="M 2906 1791 
Q 2906 2416 2648 2759 
Q 2391 3103 1925 3103 
Q 1463 3103 1205 2759 
Q 947 2416 947 1791 
Q 947 1169 1205 825 
Q 1463 481 1925 481 
Q 2391 481 2648 825 
Q 2906 1169 2906 1791 
z
M 3481 434 
Q 3481 -459 3084 -895 
Q 2688 -1331 1869 -1331 
Q 1566 -1331 1297 -1286 
Q 1028 -1241 775 -1147 
L 775 -588 
Q 1028 -725 1275 -790 
Q 1522 -856 1778 -856 
Q 2344 -856 2625 -561 
Q 2906 -266 2906 331 
L 2906 616 
Q 2728 306 2450 153 
Q 2172 0 1784 0 
Q 1141 0 747 490 
Q 353 981 353 1791 
Q 353 2603 747 3093 
Q 1141 3584 1784 3584 
Q 2172 3584 2450 3431 
Q 2728 3278 2906 2969 
L 2906 3500 
L 3481 3500 
L 3481 434 
z
" transform="scale(0.015625)"/>
       <path id="DejaVuSans-6d" d="M 3328 2828 
Q 3544 3216 3844 3400 
Q 4144 3584 4550 3584 
Q 5097 3584 5394 3201 
Q 5691 2819 5691 2113 
L 5691 0 
L 5113 0 
L 5113 2094 
Q 5113 2597 4934 2840 
Q 4756 3084 4391 3084 
Q 3944 3084 3684 2787 
Q 3425 2491 3425 1978 
L 3425 0 
L 2847 0 
L 2847 2094 
Q 2847 2600 2669 2842 
Q 2491 3084 2119 3084 
Q 1678 3084 1418 2786 
Q 1159 2488 1159 1978 
L 1159 0 
L 581 0 
L 581 3500 
L 1159 3500 
L 1159 2956 
Q 1356 3278 1631 3431 
Q 1906 3584 2284 3584 
Q 2666 3584 2933 3390 
Q 3200 3197 3328 2828 
z
" transform="scale(0.015625)"/>
      </defs>
      <use xlink:href="#DejaVuSans-48"/>
      <use xlink:href="#DejaVuSans-69" transform="translate(75.195312 0)"/>
      <use xlink:href="#DejaVuSans-73" transform="translate(102.978516 0)"/>
      <use xlink:href="#DejaVuSans-74" transform="translate(155.078125 0)"/>
      <use xlink:href="#DejaVuSans-6f" transform="translate(194.287109 0)"/>
      <use xlink:href="#DejaVuSans-67" transform="translate(255.46875 0)"/>
      <use xlink:href="#DejaVuSans-72" transform="translate(318.945312 0)"/>
      <use xlink:href="#DejaVuSans-61" transform="translate(360.058594 0)"/>
      <use xlink:href="#DejaVuSans-6d" transform="translate(421.337891 0)"/>
      <use xlink:href="#DejaVuSans-61" transform="translate(518.75 0)"/>
     </g>
    </g>
    <g id="line2d_17">
     <path d="M 449.145805 55.984063 
L 459.145805 55.984063 
L 469.145805 55.984063 
" style="fill: none; stroke: #000080; stroke-width: 2; stroke-linecap: square"/>
    </g>
    <g id="text_18">
     <!-- KDE -->
     <g transform="translate(477.145805 59.484063) scale(0.1 -0.1)">
      <defs>
       <path id="DejaVuSans-4b" d="M 628 4666 
L 1259 4666 
L 1259 2694 
L 3353 4666 
L 4166 4666 
L 1850 2491 
L 4331 0 
L 3500 0 
L 1259 2247 
L 1259 0 
L 628 0 
L 628 4666 
z
" transform="scale(0.015625)"/>
       <path id="DejaVuSans-45" d="M 628 4666 
L 3578 4666 
L 3578 4134 
L 1259 4134 
L 1259 2753 
L 3481 2753 
L 3481 2222 
L 1259 2222 
L 1259 531 
L 3634 531 
L 3634 0 
L 628 0 
L 628 4666 
z
" transform="scale(0.015625)"/>
      </defs>
      <use xlink:href="#DejaVuSans-4b"/>
      <use xlink:href="#DejaVuSans-44" transform="translate(65.576172 0)"/>
      <use xlink:href="#DejaVuSans-45" transform="translate(142.578125 0)"/>
     </g>
    </g>
    <g id="line2d_18">
     <path d="M 449.145805 70.662188 
L 459.145805 70.662188 
L 469.145805 70.662188 
" style="fill: none; stroke-dasharray: 5.55,2.4; stroke-dashoffset: 0; stroke: #ff0000; stroke-width: 1.5"/>
    </g>
    <g id="text_19">
     <!-- Média: 57.88 -->
     <g transform="translate(477.145805 74.162188) scale(0.1 -0.1)">
      <defs>
       <path id="DejaVuSans-4d" d="M 628 4666 
L 1569 4666 
L 2759 1491 
L 3956 4666 
L 4897 4666 
L 4897 0 
L 4281 0 
L 4281 4097 
L 3078 897 
L 2444 897 
L 1241 4097 
L 1241 0 
L 628 0 
L 628 4666 
z
" transform="scale(0.015625)"/>
       <path id="DejaVuSans-e9" d="M 3597 1894 
L 3597 1613 
L 953 1613 
Q 991 1019 1311 708 
Q 1631 397 2203 397 
Q 2534 397 2845 478 
Q 3156 559 3463 722 
L 3463 178 
Q 3153 47 2828 -22 
Q 2503 -91 2169 -91 
Q 1331 -91 842 396 
Q 353 884 353 1716 
Q 353 2575 817 3079 
Q 1281 3584 2069 3584 
Q 2775 3584 3186 3129 
Q 3597 2675 3597 1894 
z
M 3022 2063 
Q 3016 2534 2758 2815 
Q 2500 3097 2075 3097 
Q 1594 3097 1305 2825 
Q 1016 2553 972 2059 
L 3022 2063 
z
M 2469 5119 
L 3091 5119 
L 2072 3944 
L 1594 3944 
L 2469 5119 
z
" transform="scale(0.015625)"/>
       <path id="DejaVuSans-3a" d="M 750 794 
L 1409 794 
L 1409 0 
L 750 0 
L 750 794 
z
M 750 3309 
L 1409 3309 
L 1409 2516 
L 750 2516 
L 750 3309 
z
" transform="scale(0.015625)"/>
       <path id="DejaVuSans-37" d="M 525 4666 
L 3525 4666 
L 3525 4397 
L 1831 0 
L 1172 0 
L 2766 4134 
L 525 4134 
L 525 4666 
z
" transform="scale(0.015625)"/>
      </defs>
      <use xlink:href="#DejaVuSans-4d"/>
      <use xlink:href="#DejaVuSans-e9" transform="translate(86.279297 0)"/>
      <use xlink:href="#DejaVuSans-64" transform="translate(147.802734 0)"/>
      <use xlink:href="#DejaVuSans-69" transform="translate(211.279297 0)"/>
      <use xlink:href="#DejaVuSans-61" transform="translate(239.0625 0)"/>
      <use xlink:href="#DejaVuSans-3a" transform="translate(300.341797 0)"/>
      <use xlink:href="#DejaVuSans-20" transform="translate(334.033203 0)"/>
      <use xlink:href="#DejaVuSans-35" transform="translate(365.820312 0)"/>
      <use xlink:href="#DejaVuSans-37" transform="translate(429.443359 0)"/>
      <use xlink:href="#DejaVuSans-2e" transform="translate(493.066406 0)"/>
      <use xlink:href="#DejaVuSans-38" transform="translate(524.853516 0)"/>
      <use xlink:href="#DejaVuSans-38" transform="translate(588.476562 0)"/>
     </g>
    </g>
    <g id="line2d_19">
     <path d="M 449.145805 85.340313 
L 459.145805 85.340313 
L 469.145805 85.340313 
" style="fill: none; stroke: #008000; stroke-width: 1.5; stroke-linecap: square"/>
    </g>
    <g id="text_20">
     <!-- Mediana: 58.02 -->
     <g transform="translate(477.145805 88.840313) scale(0.1 -0.1)">
      <use xlink:href="#DejaVuSans-4d"/>
      <use xlink:href="#DejaVuSans-65" transform="translate(86.279297 0)"/>
      <use xlink:href="#DejaVuSans-64" transform="translate(147.802734 0)"/>
      <use xlink:href="#DejaVuSans-69" transform="translate(211.279297 0)"/>
      <use xlink:href="#DejaVuSans-61" transform="translate(239.0625 0)"/>
      <use xlink:href="#DejaVuSans-6e" transform="translate(300.341797 0)"/>
      <use xlink:href="#DejaVuSans-61" transform="translate(363.720703 0)"/>
      <use xlink:href="#DejaVuSans-3a" transform="translate(425 0)"/>
      <use xlink:href="#DejaVuSans-20" transform="translate(458.691406 0)"/>
      <use xlink:href="#DejaVuSans-35" transform="translate(490.478516 0)"/>
      <use xlink:href="#DejaVuSans-38" transform="translate(554.101562 0)"/>
      <use xlink:href="#DejaVuSans-2e" transform="translate(617.724609 0)"/>
      <use xlink:href="#DejaVuSans-30" transform="translate(649.511719 0)"/>
      <use xlink:href="#DejaVuSans-32" transform="translate(713.134766 0)"/>
     </g>
    </g>
   </g>
  </g>
 </g>
 <defs>
  <clipPath id="pd13c853297">
   <rect x="60.59" y="28.2075" width="503.232368" height="289.8325"/>
  </clipPath>
 </defs>
</svg>
