<?xml version="1.0" encoding="utf-8" standalone="no"?>
<!DOCTYPE svg PUBLIC "-//W3C//DTD SVG 1.1//EN"
  "http://www.w3.org/Graphics/SVG/1.1/DTD/svg11.dtd">
<svg xmlns:xlink="http://www.w3.org/1999/xlink" width="864pt" height="432pt" viewBox="0 0 864 432" xmlns="http://www.w3.org/2000/svg" version="1.1">
 <metadata>
  <rdf:RDF xmlns:dc="http://purl.org/dc/elements/1.1/" xmlns:cc="http://creativecommons.org/ns#" xmlns:rdf="http://www.w3.org/1999/02/22-rdf-syntax-ns#">
   <cc:Work>
    <dc:type rdf:resource="http://purl.org/dc/dcmitype/StillImage"/>
    <dc:date>2026-04-23T21:08:43.526891</dc:date>
    <dc:format>image/svg+xml</dc:format>
    <dc:creator>
     <cc:Agent>
      <dc:title>Matplotlib v3.10.8, https://matplotlib.org/</dc:title>
     </cc:Agent>
    </dc:creator>
   </cc:Work>
  </rdf:RDF>
 </metadata>
 <defs>
  <style type="text/css">*{stroke-linejoin: round; stroke-linecap: butt}</style>
 </defs>
 <g id="figure_1">
  <g id="patch_1">
   <path d="M 0 432 
L 864 432 
L 864 0 
L 0 0 
z
" style="fill: #ffffff"/>
  </g>
  <g id="axes_1">
   <g id="patch_2">
    <path d="M 57.78 348.159552 
L 851.04 348.159552 
L 851.04 29.04 
L 57.78 29.04 
z
" style="fill: #ffffff"/>
   </g>
   <g id="matplotlib.axis_1">
    <g id="xtick_1">
     <g id="text_1">
      <!-- Valencia -->
      <g style="fill: #262626" transform="translate(124.485912 392.488759) rotate(-45) scale(0.11 -0.11)">
       <defs>
        <path id="ArialMT-56" d="M 1803 0 
L 28 4581 
L 684 4581 
L 1875 1253 
Q 2019 853 2116 503 
Q 2222 878 2363 1253 
L 3600 4581 
L 4219 4581 
L 2425 0 
L 1803 0 
z
" transform="scale(0.015625)"/>
        <path id="ArialMT-61" d="M 2588 409 
Q 2275 144 1986 34 
Q 1697 -75 1366 -75 
Q 819 -75 525 192 
Q 231 459 231 875 
Q 231 1119 342 1320 
Q 453 1522 633 1644 
Q 813 1766 1038 1828 
Q 1203 1872 1538 1913 
Q 2219 1994 2541 2106 
Q 2544 2222 2544 2253 
Q 2544 2597 2384 2738 
Q 2169 2928 1744 2928 
Q 1347 2928 1158 2789 
Q 969 2650 878 2297 
L 328 2372 
Q 403 2725 575 2942 
Q 747 3159 1072 3276 
Q 1397 3394 1825 3394 
Q 2250 3394 2515 3294 
Q 2781 3194 2906 3042 
Q 3031 2891 3081 2659 
Q 3109 2516 3109 2141 
L 3109 1391 
Q 3109 606 3145 398 
Q 3181 191 3288 0 
L 2700 0 
Q 2613 175 2588 409 
z
M 2541 1666 
Q 2234 1541 1622 1453 
Q 1275 1403 1131 1340 
Q 988 1278 909 1158 
Q 831 1038 831 891 
Q 831 666 1001 516 
Q 1172 366 1500 366 
Q 1825 366 2078 508 
Q 2331 650 2450 897 
Q 2541 1088 2541 1459 
L 2541 1666 
z
" transform="scale(0.015625)"/>
        <path id="ArialMT-6c" d="M 409 0 
L 409 4581 
L 972 4581 
L 972 0 
L 409 0 
z
" transform="scale(0.015625)"/>
        <path id="ArialMT-65" d="M 2694 1069 
L 3275 997 
Q 3138 488 2766 206 
Q 2394 -75 1816 -75 
Q 1088 -75 661 373 
Q 234 822 234 1631 
Q 234 2469 665 2931 
Q 1097 3394 1784 3394 
Q 2450 3394 2872 2941 
Q 3294 2488 3294 1666 
Q 3294 1616 3291 1516 
L 816 1516 
Q 847 969 1125 678 
Q 1403 388 1819 388 
Q 2128 388 2347 550 
Q 2566 713 2694 1069 
z
M 847 1978 
L 2700 1978 
Q 2663 2397 2488 2606 
Q 2219 2931 1791 2931 
Q 1403 2931 1139 2672 
Q 875 2413 847 1978 
z
" transform="scale(0.015625)"/>
        <path id="ArialMT-6e" d="M 422 0 
L 422 3319 
L 928 3319 
L 928 2847 
Q 1294 3394 1984 3394 
Q 2284 3394 2536 3286 
Q 2788 3178 2913 3003 
Q 3038 2828 3088 2588 
Q 3119 2431 3119 2041 
L 3119 0 
L 2556 0 
L 2556 2019 
Q 2556 2363 2490 2533 
Q 2425 2703 2258 2804 
Q 2091 2906 1866 2906 
Q 1506 2906 1245 2678 
Q 984 2450 984 1813 
L 984 0 
L 422 0 
z
" transform="scale(0.015625)"/>
        <path id="ArialMT-63" d="M 2588 1216 
L 3141 1144 
Q 3050 572 2676 248 
Q 2303 -75 1759 -75 
Q 1078 -75 664 370 
Q 250 816 250 1647 
Q 250 2184 428 2587 
Q 606 2991 970 3192 
Q 1334 3394 1763 3394 
Q 2303 3394 2647 3120 
Q 2991 2847 3088 2344 
L 2541 2259 
Q 2463 2594 2264 2762 
Q 2066 2931 1784 2931 
Q 1359 2931 1093 2626 
Q 828 2322 828 1663 
Q 828 994 1084 691 
Q 1341 388 1753 388 
Q 2084 388 2306 591 
Q 2528 794 2588 1216 
z
" transform="scale(0.015625)"/>
        <path id="ArialMT-69" d="M 425 3934 
L 425 4581 
L 988 4581 
L 988 3934 
L 425 3934 
z
M 425 0 
L 425 3319 
L 988 3319 
L 988 0 
L 425 0 
z
" transform="scale(0.015625)"/>
       </defs>
       <use xlink:href="#ArialMT-56"/>
       <use xlink:href="#ArialMT-61" transform="translate(59.324219 0)"/>
       <use xlink:href="#ArialMT-6c" transform="translate(114.939453 0)"/>
       <use xlink:href="#ArialMT-65" transform="translate(137.15625 0)"/>
       <use xlink:href="#ArialMT-6e" transform="translate(192.771484 0)"/>
       <use xlink:href="#ArialMT-63" transform="translate(248.386719 0)"/>
       <use xlink:href="#ArialMT-69" transform="translate(298.386719 0)"/>
       <use xlink:href="#ArialMT-61" transform="translate(320.603516 0)"/>
      </g>
     </g>
    </g>
    <g id="xtick_2">
     <g id="text_2">
      <!-- Madrid -->
      <g style="fill: #262626" transform="translate(285.882149 387.000285) rotate(-45) scale(0.11 -0.11)">
       <defs>
        <path id="ArialMT-4d" d="M 475 0 
L 475 4581 
L 1388 4581 
L 2472 1338 
Q 2622 884 2691 659 
Q 2769 909 2934 1394 
L 4031 4581 
L 4847 4581 
L 4847 0 
L 4263 0 
L 4263 3834 
L 2931 0 
L 2384 0 
L 1059 3900 
L 1059 0 
L 475 0 
z
" transform="scale(0.015625)"/>
        <path id="ArialMT-64" d="M 2575 0 
L 2575 419 
Q 2259 -75 1647 -75 
Q 1250 -75 917 144 
Q 584 363 401 755 
Q 219 1147 219 1656 
Q 219 2153 384 2558 
Q 550 2963 881 3178 
Q 1213 3394 1622 3394 
Q 1922 3394 2156 3267 
Q 2391 3141 2538 2938 
L 2538 4581 
L 3097 4581 
L 3097 0 
L 2575 0 
z
M 797 1656 
Q 797 1019 1065 703 
Q 1334 388 1700 388 
Q 2069 388 2326 689 
Q 2584 991 2584 1609 
Q 2584 2291 2321 2609 
Q 2059 2928 1675 2928 
Q 1300 2928 1048 2622 
Q 797 2316 797 1656 
z
" transform="scale(0.015625)"/>
        <path id="ArialMT-72" d="M 416 0 
L 416 3319 
L 922 3319 
L 922 2816 
Q 1116 3169 1280 3281 
Q 1444 3394 1641 3394 
Q 1925 3394 2219 3213 
L 2025 2691 
Q 1819 2813 1613 2813 
Q 1428 2813 1281 2702 
Q 1134 2591 1072 2394 
Q 978 2094 978 1738 
L 978 0 
L 416 0 
z
" transform="scale(0.015625)"/>
       </defs>
       <use xlink:href="#ArialMT-4d"/>
       <use xlink:href="#ArialMT-61" transform="translate(83.300781 0)"/>
       <use xlink:href="#ArialMT-64" transform="translate(138.916016 0)"/>
       <use xlink:href="#ArialMT-72" transform="translate(194.53125 0)"/>
       <use xlink:href="#ArialMT-69" transform="translate(227.832031 0)"/>
       <use xlink:href="#ArialMT-64" transform="translate(250.048828 0)"/>
      </g>
     </g>
    </g>
    <g id="xtick_3">
     <g id="text_3">
      <!-- Bilbao -->
      <g style="fill: #262626" transform="translate(445.610332 384.847918) rotate(-45) scale(0.11 -0.11)">
       <defs>
        <path id="ArialMT-42" d="M 469 0 
L 469 4581 
L 2188 4581 
Q 2713 4581 3030 4442 
Q 3347 4303 3526 4014 
Q 3706 3725 3706 3409 
Q 3706 3116 3547 2856 
Q 3388 2597 3066 2438 
Q 3481 2316 3704 2022 
Q 3928 1728 3928 1328 
Q 3928 1006 3792 729 
Q 3656 453 3456 303 
Q 3256 153 2954 76 
Q 2653 0 2216 0 
L 469 0 
z
M 1075 2656 
L 2066 2656 
Q 2469 2656 2644 2709 
Q 2875 2778 2992 2937 
Q 3109 3097 3109 3338 
Q 3109 3566 3000 3739 
Q 2891 3913 2687 3977 
Q 2484 4041 1991 4041 
L 1075 4041 
L 1075 2656 
z
M 1075 541 
L 2216 541 
Q 2509 541 2628 563 
Q 2838 600 2978 687 
Q 3119 775 3209 942 
Q 3300 1109 3300 1328 
Q 3300 1584 3169 1773 
Q 3038 1963 2805 2039 
Q 2572 2116 2134 2116 
L 1075 2116 
L 1075 541 
z
" transform="scale(0.015625)"/>
        <path id="ArialMT-62" d="M 941 0 
L 419 0 
L 419 4581 
L 981 4581 
L 981 2947 
Q 1338 3394 1891 3394 
Q 2197 3394 2470 3270 
Q 2744 3147 2920 2923 
Q 3097 2700 3197 2384 
Q 3297 2069 3297 1709 
Q 3297 856 2875 390 
Q 2453 -75 1863 -75 
Q 1275 -75 941 416 
L 941 0 
z
M 934 1684 
Q 934 1088 1097 822 
Q 1363 388 1816 388 
Q 2184 388 2453 708 
Q 2722 1028 2722 1663 
Q 2722 2313 2464 2622 
Q 2206 2931 1841 2931 
Q 1472 2931 1203 2611 
Q 934 2291 934 1684 
z
" transform="scale(0.015625)"/>
        <path id="ArialMT-6f" d="M 213 1659 
Q 213 2581 725 3025 
Q 1153 3394 1769 3394 
Q 2453 3394 2887 2945 
Q 3322 2497 3322 1706 
Q 3322 1066 3130 698 
Q 2938 331 2570 128 
Q 2203 -75 1769 -75 
Q 1072 -75 642 372 
Q 213 819 213 1659 
z
M 791 1659 
Q 791 1022 1069 705 
Q 1347 388 1769 388 
Q 2188 388 2466 706 
Q 2744 1025 2744 1678 
Q 2744 2294 2464 2611 
Q 2184 2928 1769 2928 
Q 1347 2928 1069 2612 
Q 791 2297 791 1659 
z
" transform="scale(0.015625)"/>
       </defs>
       <use xlink:href="#ArialMT-42"/>
       <use xlink:href="#ArialMT-69" transform="translate(66.699219 0)"/>
       <use xlink:href="#ArialMT-6c" transform="translate(88.916016 0)"/>
       <use xlink:href="#ArialMT-62" transform="translate(111.132812 0)"/>
       <use xlink:href="#ArialMT-61" transform="translate(166.748047 0)"/>
       <use xlink:href="#ArialMT-6f" transform="translate(222.363281 0)"/>
      </g>
     </g>
    </g>
    <g id="xtick_4">
     <g id="text_4">
      <!--  Barcelona -->
      <g style="fill: #262626" transform="translate(596.481119 400.410344) rotate(-45) scale(0.11 -0.11)">
       <defs>
        <path id="ArialMT-20" transform="scale(0.015625)"/>
       </defs>
       <use xlink:href="#ArialMT-20"/>
       <use xlink:href="#ArialMT-42" transform="translate(27.783203 0)"/>
       <use xlink:href="#ArialMT-61" transform="translate(94.482422 0)"/>
       <use xlink:href="#ArialMT-72" transform="translate(150.097656 0)"/>
       <use xlink:href="#ArialMT-63" transform="translate(183.398438 0)"/>
       <use xlink:href="#ArialMT-65" transform="translate(233.398438 0)"/>
       <use xlink:href="#ArialMT-6c" transform="translate(289.013672 0)"/>
       <use xlink:href="#ArialMT-6f" transform="translate(311.230469 0)"/>
       <use xlink:href="#ArialMT-6e" transform="translate(366.845703 0)"/>
       <use xlink:href="#ArialMT-61" transform="translate(422.460938 0)"/>
      </g>
     </g>
    </g>
    <g id="xtick_5">
     <g id="text_5">
      <!-- Seville -->
      <g style="fill: #262626" transform="translate(762.268379 386.139824) rotate(-45) scale(0.11 -0.11)">
       <defs>
        <path id="ArialMT-53" d="M 288 1472 
L 859 1522 
Q 900 1178 1048 958 
Q 1197 738 1509 602 
Q 1822 466 2213 466 
Q 2559 466 2825 569 
Q 3091 672 3220 851 
Q 3350 1031 3350 1244 
Q 3350 1459 3225 1620 
Q 3100 1781 2813 1891 
Q 2628 1963 1997 2114 
Q 1366 2266 1113 2400 
Q 784 2572 623 2826 
Q 463 3081 463 3397 
Q 463 3744 659 4045 
Q 856 4347 1234 4503 
Q 1613 4659 2075 4659 
Q 2584 4659 2973 4495 
Q 3363 4331 3572 4012 
Q 3781 3694 3797 3291 
L 3216 3247 
Q 3169 3681 2898 3903 
Q 2628 4125 2100 4125 
Q 1550 4125 1298 3923 
Q 1047 3722 1047 3438 
Q 1047 3191 1225 3031 
Q 1400 2872 2139 2705 
Q 2878 2538 3153 2413 
Q 3553 2228 3743 1945 
Q 3934 1663 3934 1294 
Q 3934 928 3725 604 
Q 3516 281 3123 101 
Q 2731 -78 2241 -78 
Q 1619 -78 1198 103 
Q 778 284 539 648 
Q 300 1013 288 1472 
z
" transform="scale(0.015625)"/>
        <path id="ArialMT-76" d="M 1344 0 
L 81 3319 
L 675 3319 
L 1388 1331 
Q 1503 1009 1600 663 
Q 1675 925 1809 1294 
L 2547 3319 
L 3125 3319 
L 1869 0 
L 1344 0 
z
" transform="scale(0.015625)"/>
       </defs>
       <use xlink:href="#ArialMT-53"/>
       <use xlink:href="#ArialMT-65" transform="translate(66.699219 0)"/>
       <use xlink:href="#ArialMT-76" transform="translate(122.314453 0)"/>
       <use xlink:href="#ArialMT-69" transform="translate(172.314453 0)"/>
       <use xlink:href="#ArialMT-6c" transform="translate(194.53125 0)"/>
       <use xlink:href="#ArialMT-6c" transform="translate(216.748047 0)"/>
       <use xlink:href="#ArialMT-65" transform="translate(238.964844 0)"/>
      </g>
     </g>
    </g>
    <g id="text_6">
     <!-- Cidade -->
     <g style="fill: #262626" transform="translate(432.22875 415.977194) scale(0.14 -0.14)">
      <defs>
       <path id="ArialMT-43" d="M 3763 1606 
L 4369 1453 
Q 4178 706 3683 314 
Q 3188 -78 2472 -78 
Q 1731 -78 1267 223 
Q 803 525 561 1097 
Q 319 1669 319 2325 
Q 319 3041 592 3573 
Q 866 4106 1370 4382 
Q 1875 4659 2481 4659 
Q 3169 4659 3637 4309 
Q 4106 3959 4291 3325 
L 3694 3184 
Q 3534 3684 3231 3912 
Q 2928 4141 2469 4141 
Q 1941 4141 1586 3887 
Q 1231 3634 1087 3207 
Q 944 2781 944 2328 
Q 944 1744 1114 1308 
Q 1284 872 1643 656 
Q 2003 441 2422 441 
Q 2931 441 3284 734 
Q 3638 1028 3763 1606 
z
" transform="scale(0.015625)"/>
      </defs>
      <use xlink:href="#ArialMT-43"/>
      <use xlink:href="#ArialMT-69" transform="translate(72.216797 0)"/>
      <use xlink:href="#ArialMT-64" transform="translate(94.433594 0)"/>
      <use xlink:href="#ArialMT-61" transform="translate(150.048828 0)"/>
      <use xlink:href="#ArialMT-64" transform="translate(205.664062 0)"/>
      <use xlink:href="#ArialMT-65" transform="translate(261.279297 0)"/>
     </g>
    </g>
   </g>
   <g id="matplotlib.axis_2">
    <g id="ytick_1">
     <g id="line2d_1">
      <path d="M 57.78 345.832593 
L 851.04 345.832593 
" clip-path="url(#p99e15cba47)" style="fill: none; stroke: #cccccc; stroke-linecap: round"/>
     </g>
     <g id="text_7">
      <!-- 260 -->
      <g style="fill: #262626" transform="translate(29.928906 349.76939) scale(0.11 -0.11)">
       <defs>
        <path id="ArialMT-32" d="M 3222 541 
L 3222 0 
L 194 0 
Q 188 203 259 391 
Q 375 700 629 1000 
Q 884 1300 1366 1694 
Q 2113 2306 2375 2664 
Q 2638 3022 2638 3341 
Q 2638 3675 2398 3904 
Q 2159 4134 1775 4134 
Q 1369 4134 1125 3890 
Q 881 3647 878 3216 
L 300 3275 
Q 359 3922 746 4261 
Q 1134 4600 1788 4600 
Q 2447 4600 2831 4234 
Q 3216 3869 3216 3328 
Q 3216 3053 3103 2787 
Q 2991 2522 2730 2228 
Q 2469 1934 1863 1422 
Q 1356 997 1212 845 
Q 1069 694 975 541 
L 3222 541 
z
" transform="scale(0.015625)"/>
        <path id="ArialMT-36" d="M 3184 3459 
L 2625 3416 
Q 2550 3747 2413 3897 
Q 2184 4138 1850 4138 
Q 1581 4138 1378 3988 
Q 1113 3794 959 3422 
Q 806 3050 800 2363 
Q 1003 2672 1297 2822 
Q 1591 2972 1913 2972 
Q 2475 2972 2870 2558 
Q 3266 2144 3266 1488 
Q 3266 1056 3080 686 
Q 2894 316 2569 119 
Q 2244 -78 1831 -78 
Q 1128 -78 684 439 
Q 241 956 241 2144 
Q 241 3472 731 4075 
Q 1159 4600 1884 4600 
Q 2425 4600 2770 4297 
Q 3116 3994 3184 3459 
z
M 888 1484 
Q 888 1194 1011 928 
Q 1134 663 1356 523 
Q 1578 384 1822 384 
Q 2178 384 2434 671 
Q 2691 959 2691 1453 
Q 2691 1928 2437 2201 
Q 2184 2475 1800 2475 
Q 1419 2475 1153 2201 
Q 888 1928 888 1484 
z
" transform="scale(0.015625)"/>
        <path id="ArialMT-30" d="M 266 2259 
Q 266 3072 433 3567 
Q 600 4063 929 4331 
Q 1259 4600 1759 4600 
Q 2128 4600 2406 4451 
Q 2684 4303 2865 4023 
Q 3047 3744 3150 3342 
Q 3253 2941 3253 2259 
Q 3253 1453 3087 958 
Q 2922 463 2592 192 
Q 2263 -78 1759 -78 
Q 1097 -78 719 397 
Q 266 969 266 2259 
z
M 844 2259 
Q 844 1131 1108 757 
Q 1372 384 1759 384 
Q 2147 384 2411 759 
Q 2675 1134 2675 2259 
Q 2675 3391 2411 3762 
Q 2147 4134 1753 4134 
Q 1366 4134 1134 3806 
Q 844 3388 844 2259 
z
" transform="scale(0.015625)"/>
       </defs>
       <use xlink:href="#ArialMT-32"/>
       <use xlink:href="#ArialMT-36" transform="translate(55.615234 0)"/>
       <use xlink:href="#ArialMT-30" transform="translate(111.230469 0)"/>
      </g>
     </g>
    </g>
    <g id="ytick_2">
     <g id="line2d_2">
      <path d="M 57.78 291.464399 
L 851.04 291.464399 
" clip-path="url(#p99e15cba47)" style="fill: none; stroke: #cccccc; stroke-linecap: round"/>
     </g>
     <g id="text_8">
      <!-- 270 -->
      <g style="fill: #262626" transform="translate(29.928906 295.401196) scale(0.11 -0.11)">
       <defs>
        <path id="ArialMT-37" d="M 303 3981 
L 303 4522 
L 3269 4522 
L 3269 4084 
Q 2831 3619 2401 2847 
Q 1972 2075 1738 1259 
Q 1569 684 1522 0 
L 944 0 
Q 953 541 1156 1306 
Q 1359 2072 1739 2783 
Q 2119 3494 2547 3981 
L 303 3981 
z
" transform="scale(0.015625)"/>
       </defs>
       <use xlink:href="#ArialMT-32"/>
       <use xlink:href="#ArialMT-37" transform="translate(55.615234 0)"/>
       <use xlink:href="#ArialMT-30" transform="translate(111.230469 0)"/>
      </g>
     </g>
    </g>
    <g id="ytick_3">
     <g id="line2d_3">
      <path d="M 57.78 237.096205 
L 851.04 237.096205 
" clip-path="url(#p99e15cba47)" style="fill: none; stroke: #cccccc; stroke-linecap: round"/>
     </g>
     <g id="text_9">
      <!-- 280 -->
      <g style="fill: #262626" transform="translate(29.928906 241.033002) scale(0.11 -0.11)">
       <defs>
        <path id="ArialMT-38" d="M 1131 2484 
Q 781 2613 612 2850 
Q 444 3088 444 3419 
Q 444 3919 803 4259 
Q 1163 4600 1759 4600 
Q 2359 4600 2725 4251 
Q 3091 3903 3091 3403 
Q 3091 3084 2923 2848 
Q 2756 2613 2416 2484 
Q 2838 2347 3058 2040 
Q 3278 1734 3278 1309 
Q 3278 722 2862 322 
Q 2447 -78 1769 -78 
Q 1091 -78 675 323 
Q 259 725 259 1325 
Q 259 1772 486 2073 
Q 713 2375 1131 2484 
z
M 1019 3438 
Q 1019 3113 1228 2906 
Q 1438 2700 1772 2700 
Q 2097 2700 2305 2904 
Q 2513 3109 2513 3406 
Q 2513 3716 2298 3927 
Q 2084 4138 1766 4138 
Q 1444 4138 1231 3931 
Q 1019 3725 1019 3438 
z
M 838 1322 
Q 838 1081 952 856 
Q 1066 631 1291 507 
Q 1516 384 1775 384 
Q 2178 384 2440 643 
Q 2703 903 2703 1303 
Q 2703 1709 2433 1975 
Q 2163 2241 1756 2241 
Q 1359 2241 1098 1978 
Q 838 1716 838 1322 
z
" transform="scale(0.015625)"/>
       </defs>
       <use xlink:href="#ArialMT-32"/>
       <use xlink:href="#ArialMT-38" transform="translate(55.615234 0)"/>
       <use xlink:href="#ArialMT-30" transform="translate(111.230469 0)"/>
      </g>
     </g>
    </g>
    <g id="ytick_4">
     <g id="line2d_4">
      <path d="M 57.78 182.728011 
L 851.04 182.728011 
" clip-path="url(#p99e15cba47)" style="fill: none; stroke: #cccccc; stroke-linecap: round"/>
     </g>
     <g id="text_10">
      <!-- 290 -->
      <g style="fill: #262626" transform="translate(29.928906 186.664808) scale(0.11 -0.11)">
       <defs>
        <path id="ArialMT-39" d="M 350 1059 
L 891 1109 
Q 959 728 1153 556 
Q 1347 384 1650 384 
Q 1909 384 2104 503 
Q 2300 622 2425 820 
Q 2550 1019 2634 1356 
Q 2719 1694 2719 2044 
Q 2719 2081 2716 2156 
Q 2547 1888 2255 1720 
Q 1963 1553 1622 1553 
Q 1053 1553 659 1965 
Q 266 2378 266 3053 
Q 266 3750 677 4175 
Q 1088 4600 1706 4600 
Q 2153 4600 2523 4359 
Q 2894 4119 3086 3673 
Q 3278 3228 3278 2384 
Q 3278 1506 3087 986 
Q 2897 466 2520 194 
Q 2144 -78 1638 -78 
Q 1100 -78 759 220 
Q 419 519 350 1059 
z
M 2653 3081 
Q 2653 3566 2395 3850 
Q 2138 4134 1775 4134 
Q 1400 4134 1122 3828 
Q 844 3522 844 3034 
Q 844 2597 1108 2323 
Q 1372 2050 1759 2050 
Q 2150 2050 2401 2323 
Q 2653 2597 2653 3081 
z
" transform="scale(0.015625)"/>
       </defs>
       <use xlink:href="#ArialMT-32"/>
       <use xlink:href="#ArialMT-39" transform="translate(55.615234 0)"/>
       <use xlink:href="#ArialMT-30" transform="translate(111.230469 0)"/>
      </g>
     </g>
    </g>
    <g id="ytick_5">
     <g id="line2d_5">
      <path d="M 57.78 128.359817 
L 851.04 128.359817 
" clip-path="url(#p99e15cba47)" style="fill: none; stroke: #cccccc; stroke-linecap: round"/>
     </g>
     <g id="text_11">
      <!-- 300 -->
      <g style="fill: #262626" transform="translate(29.928906 132.296614) scale(0.11 -0.11)">
       <defs>
        <path id="ArialMT-33" d="M 269 1209 
L 831 1284 
Q 928 806 1161 595 
Q 1394 384 1728 384 
Q 2125 384 2398 659 
Q 2672 934 2672 1341 
Q 2672 1728 2419 1979 
Q 2166 2231 1775 2231 
Q 1616 2231 1378 2169 
L 1441 2663 
Q 1497 2656 1531 2656 
Q 1891 2656 2178 2843 
Q 2466 3031 2466 3422 
Q 2466 3731 2256 3934 
Q 2047 4138 1716 4138 
Q 1388 4138 1169 3931 
Q 950 3725 888 3313 
L 325 3413 
Q 428 3978 793 4289 
Q 1159 4600 1703 4600 
Q 2078 4600 2393 4439 
Q 2709 4278 2876 4000 
Q 3044 3722 3044 3409 
Q 3044 3113 2884 2869 
Q 2725 2625 2413 2481 
Q 2819 2388 3044 2092 
Q 3269 1797 3269 1353 
Q 3269 753 2831 336 
Q 2394 -81 1725 -81 
Q 1122 -81 723 278 
Q 325 638 269 1209 
z
" transform="scale(0.015625)"/>
       </defs>
       <use xlink:href="#ArialMT-33"/>
       <use xlink:href="#ArialMT-30" transform="translate(55.615234 0)"/>
       <use xlink:href="#ArialMT-30" transform="translate(111.230469 0)"/>
      </g>
     </g>
    </g>
    <g id="ytick_6">
     <g id="line2d_6">
      <path d="M 57.78 73.991623 
L 851.04 73.991623 
" clip-path="url(#p99e15cba47)" style="fill: none; stroke: #cccccc; stroke-linecap: round"/>
     </g>
     <g id="text_12">
      <!-- 310 -->
      <g style="fill: #262626" transform="translate(29.928906 77.92842) scale(0.11 -0.11)">
       <defs>
        <path id="ArialMT-31" d="M 2384 0 
L 1822 0 
L 1822 3584 
Q 1619 3391 1289 3197 
Q 959 3003 697 2906 
L 697 3450 
Q 1169 3672 1522 3987 
Q 1875 4303 2022 4600 
L 2384 4600 
L 2384 0 
z
" transform="scale(0.015625)"/>
       </defs>
       <use xlink:href="#ArialMT-33"/>
       <use xlink:href="#ArialMT-31" transform="translate(55.615234 0)"/>
       <use xlink:href="#ArialMT-30" transform="translate(111.230469 0)"/>
      </g>
     </g>
    </g>
    <g id="text_13">
     <!-- Temperatura (Kelvin) -->
     <g style="fill: #262626" transform="translate(22.982344 253.56087) rotate(-90) scale(0.14 -0.14)">
      <defs>
       <path id="ArialMT-54" d="M 1659 0 
L 1659 4041 
L 150 4041 
L 150 4581 
L 3781 4581 
L 3781 4041 
L 2266 4041 
L 2266 0 
L 1659 0 
z
" transform="scale(0.015625)"/>
       <path id="ArialMT-6d" d="M 422 0 
L 422 3319 
L 925 3319 
L 925 2853 
Q 1081 3097 1340 3245 
Q 1600 3394 1931 3394 
Q 2300 3394 2536 3241 
Q 2772 3088 2869 2813 
Q 3263 3394 3894 3394 
Q 4388 3394 4653 3120 
Q 4919 2847 4919 2278 
L 4919 0 
L 4359 0 
L 4359 2091 
Q 4359 2428 4304 2576 
Q 4250 2725 4106 2815 
Q 3963 2906 3769 2906 
Q 3419 2906 3187 2673 
Q 2956 2441 2956 1928 
L 2956 0 
L 2394 0 
L 2394 2156 
Q 2394 2531 2256 2718 
Q 2119 2906 1806 2906 
Q 1569 2906 1367 2781 
Q 1166 2656 1075 2415 
Q 984 2175 984 1722 
L 984 0 
L 422 0 
z
" transform="scale(0.015625)"/>
       <path id="ArialMT-70" d="M 422 -1272 
L 422 3319 
L 934 3319 
L 934 2888 
Q 1116 3141 1344 3267 
Q 1572 3394 1897 3394 
Q 2322 3394 2647 3175 
Q 2972 2956 3137 2557 
Q 3303 2159 3303 1684 
Q 3303 1175 3120 767 
Q 2938 359 2589 142 
Q 2241 -75 1856 -75 
Q 1575 -75 1351 44 
Q 1128 163 984 344 
L 984 -1272 
L 422 -1272 
z
M 931 1641 
Q 931 1000 1190 694 
Q 1450 388 1819 388 
Q 2194 388 2461 705 
Q 2728 1022 2728 1688 
Q 2728 2322 2467 2637 
Q 2206 2953 1844 2953 
Q 1484 2953 1207 2617 
Q 931 2281 931 1641 
z
" transform="scale(0.015625)"/>
       <path id="ArialMT-74" d="M 1650 503 
L 1731 6 
Q 1494 -44 1306 -44 
Q 1000 -44 831 53 
Q 663 150 594 308 
Q 525 466 525 972 
L 525 2881 
L 113 2881 
L 113 3319 
L 525 3319 
L 525 4141 
L 1084 4478 
L 1084 3319 
L 1650 3319 
L 1650 2881 
L 1084 2881 
L 1084 941 
Q 1084 700 1114 631 
Q 1144 563 1211 522 
Q 1278 481 1403 481 
Q 1497 481 1650 503 
z
" transform="scale(0.015625)"/>
       <path id="ArialMT-75" d="M 2597 0 
L 2597 488 
Q 2209 -75 1544 -75 
Q 1250 -75 995 37 
Q 741 150 617 320 
Q 494 491 444 738 
Q 409 903 409 1263 
L 409 3319 
L 972 3319 
L 972 1478 
Q 972 1038 1006 884 
Q 1059 663 1231 536 
Q 1403 409 1656 409 
Q 1909 409 2131 539 
Q 2353 669 2445 892 
Q 2538 1116 2538 1541 
L 2538 3319 
L 3100 3319 
L 3100 0 
L 2597 0 
z
" transform="scale(0.015625)"/>
       <path id="ArialMT-28" d="M 1497 -1347 
Q 1031 -759 709 28 
Q 388 816 388 1659 
Q 388 2403 628 3084 
Q 909 3875 1497 4659 
L 1900 4659 
Q 1522 4009 1400 3731 
Q 1209 3300 1100 2831 
Q 966 2247 966 1656 
Q 966 153 1900 -1347 
L 1497 -1347 
z
" transform="scale(0.015625)"/>
       <path id="ArialMT-4b" d="M 469 0 
L 469 4581 
L 1075 4581 
L 1075 2309 
L 3350 4581 
L 4172 4581 
L 2250 2725 
L 4256 0 
L 3456 0 
L 1825 2319 
L 1075 1588 
L 1075 0 
L 469 0 
z
" transform="scale(0.015625)"/>
       <path id="ArialMT-29" d="M 791 -1347 
L 388 -1347 
Q 1322 153 1322 1656 
Q 1322 2244 1188 2822 
Q 1081 3291 891 3722 
Q 769 4003 388 4659 
L 791 4659 
Q 1378 3875 1659 3084 
Q 1900 2403 1900 1659 
Q 1900 816 1576 28 
Q 1253 -759 791 -1347 
z
" transform="scale(0.015625)"/>
      </defs>
      <use xlink:href="#ArialMT-54"/>
      <use xlink:href="#ArialMT-65" transform="translate(49.958984 0)"/>
      <use xlink:href="#ArialMT-6d" transform="translate(105.574219 0)"/>
      <use xlink:href="#ArialMT-70" transform="translate(188.875 0)"/>
      <use xlink:href="#ArialMT-65" transform="translate(244.490234 0)"/>
      <use xlink:href="#ArialMT-72" transform="translate(300.105469 0)"/>
      <use xlink:href="#ArialMT-61" transform="translate(333.40625 0)"/>
      <use xlink:href="#ArialMT-74" transform="translate(389.021484 0)"/>
      <use xlink:href="#ArialMT-75" transform="translate(416.804688 0)"/>
      <use xlink:href="#ArialMT-72" transform="translate(472.419922 0)"/>
      <use xlink:href="#ArialMT-61" transform="translate(505.720703 0)"/>
      <use xlink:href="#ArialMT-20" transform="translate(561.335938 0)"/>
      <use xlink:href="#ArialMT-28" transform="translate(589.119141 0)"/>
      <use xlink:href="#ArialMT-4b" transform="translate(622.419922 0)"/>
      <use xlink:href="#ArialMT-65" transform="translate(689.119141 0)"/>
      <use xlink:href="#ArialMT-6c" transform="translate(744.734375 0)"/>
      <use xlink:href="#ArialMT-76" transform="translate(766.951172 0)"/>
      <use xlink:href="#ArialMT-69" transform="translate(816.951172 0)"/>
      <use xlink:href="#ArialMT-6e" transform="translate(839.167969 0)"/>
      <use xlink:href="#ArialMT-29" transform="translate(894.783203 0)"/>
     </g>
    </g>
   </g>
   <g id="patch_3">
    <path d="M 73.6452 209.096585 
L 200.5668 209.096585 
L 200.5668 149.291572 
L 73.6452 149.291572 
L 73.6452 209.096585 
z
" clip-path="url(#p99e15cba47)" style="fill: #5875a4; stroke: #4c4c4c; stroke-linejoin: miter"/>
   </g>
   <g id="line2d_7">
    <path d="M 137.106 209.096585 
L 137.106 297.82191 
" clip-path="url(#p99e15cba47)" style="fill: none; stroke: #4c4c4c"/>
   </g>
   <g id="line2d_8">
    <path d="M 137.106 149.291572 
L 137.106 67.739281 
" clip-path="url(#p99e15cba47)" style="fill: none; stroke: #4c4c4c"/>
   </g>
   <g id="line2d_9">
    <path d="M 105.3756 297.82191 
L 168.8364 297.82191 
" clip-path="url(#p99e15cba47)" style="fill: none; stroke: #4c4c4c; stroke-linecap: round"/>
   </g>
   <g id="line2d_10">
    <path d="M 105.3756 67.739281 
L 168.8364 67.739281 
" clip-path="url(#p99e15cba47)" style="fill: none; stroke: #4c4c4c; stroke-linecap: round"/>
   </g>
   <g id="line2d_11"/>
   <g id="patch_4">
    <path d="M 232.2972 230.843863 
L 359.2188 230.843863 
L 359.2188 155.815755 
L 232.2972 155.815755 
L 232.2972 230.843863 
z
" clip-path="url(#p99e15cba47)" style="fill: #5875a4; stroke: #4c4c4c; stroke-linejoin: miter"/>
   </g>
   <g id="line2d_12">
    <path d="M 295.758 230.843863 
L 295.758 323.367656 
" clip-path="url(#p99e15cba47)" style="fill: none; stroke: #4c4c4c"/>
   </g>
   <g id="line2d_13">
    <path d="M 295.758 155.815755 
L 295.758 55.887014 
" clip-path="url(#p99e15cba47)" style="fill: none; stroke: #4c4c4c"/>
   </g>
   <g id="line2d_14">
    <path d="M 264.0276 323.367656 
L 327.4884 323.367656 
" clip-path="url(#p99e15cba47)" style="fill: none; stroke: #4c4c4c; stroke-linecap: round"/>
   </g>
   <g id="line2d_15">
    <path d="M 264.0276 55.887014 
L 327.4884 55.887014 
" clip-path="url(#p99e15cba47)" style="fill: none; stroke: #4c4c4c; stroke-linecap: round"/>
   </g>
   <g id="line2d_16"/>
   <g id="patch_5">
    <path d="M 390.9492 229.198715 
L 517.8708 229.198715 
L 517.8708 177.073719 
L 390.9492 177.073719 
L 390.9492 229.198715 
z
" clip-path="url(#p99e15cba47)" style="fill: #5875a4; stroke: #4c4c4c; stroke-linejoin: miter"/>
   </g>
   <g id="line2d_17">
    <path d="M 454.41 229.198715 
L 454.41 306.143812 
" clip-path="url(#p99e15cba47)" style="fill: none; stroke: #4c4c4c"/>
   </g>
   <g id="line2d_18">
    <path d="M 454.41 177.073719 
L 454.41 98.892256 
" clip-path="url(#p99e15cba47)" style="fill: none; stroke: #4c4c4c"/>
   </g>
   <g id="line2d_19">
    <path d="M 422.6796 306.143812 
L 486.1404 306.143812 
" clip-path="url(#p99e15cba47)" style="fill: none; stroke: #4c4c4c; stroke-linecap: round"/>
   </g>
   <g id="line2d_20">
    <path d="M 422.6796 98.892256 
L 486.1404 98.892256 
" clip-path="url(#p99e15cba47)" style="fill: none; stroke: #4c4c4c; stroke-linecap: round"/>
   </g>
   <g id="line2d_21">
    <defs>
     <path id="m29d44439bd" d="M 0 3 
C 0.795609 3 1.55874 2.683901 2.12132 2.12132 
C 2.683901 1.55874 3 0.795609 3 0 
C 3 -0.795609 2.683901 -1.55874 2.12132 -2.12132 
C 1.55874 -2.683901 0.795609 -3 0 -3 
C -0.795609 -3 -1.55874 -2.683901 -2.12132 -2.12132 
C -2.683901 -1.55874 -3 -0.795609 -3 0 
C -3 0.795609 -2.683901 1.55874 -2.12132 2.12132 
C -1.55874 2.683901 -0.795609 3 0 3 
z
" style="stroke: #4c4c4c"/>
    </defs>
    <g clip-path="url(#p99e15cba47)">
     <use xlink:href="#m29d44439bd" x="454.41" y="308.59038" style="fill-opacity: 0; stroke: #4c4c4c"/>
     <use xlink:href="#m29d44439bd" x="454.41" y="97.152474" style="fill-opacity: 0; stroke: #4c4c4c"/>
     <use xlink:href="#m29d44439bd" x="454.41" y="91.661286" style="fill-opacity: 0; stroke: #4c4c4c"/>
     <use xlink:href="#m29d44439bd" x="454.41" y="88.616667" style="fill-opacity: 0; stroke: #4c4c4c"/>
     <use xlink:href="#m29d44439bd" x="454.41" y="89.214717" style="fill-opacity: 0; stroke: #4c4c4c"/>
     <use xlink:href="#m29d44439bd" x="454.41" y="85.354575" style="fill-opacity: 0; stroke: #4c4c4c"/>
     <use xlink:href="#m29d44439bd" x="454.41" y="97.369946" style="fill-opacity: 0; stroke: #4c4c4c"/>
     <use xlink:href="#m29d44439bd" x="454.41" y="96.282582" style="fill-opacity: 0; stroke: #4c4c4c"/>
     <use xlink:href="#m29d44439bd" x="454.41" y="90.845763" style="fill-opacity: 0; stroke: #4c4c4c"/>
     <use xlink:href="#m29d44439bd" x="454.41" y="86.224467" style="fill-opacity: 0; stroke: #4c4c4c"/>
     <use xlink:href="#m29d44439bd" x="454.41" y="81.494434" style="fill-opacity: 0; stroke: #4c4c4c"/>
     <use xlink:href="#m29d44439bd" x="454.41" y="76.818769" style="fill-opacity: 0; stroke: #4c4c4c"/>
     <use xlink:href="#m29d44439bd" x="454.41" y="71.001372" style="fill-opacity: 0; stroke: #4c4c4c"/>
     <use xlink:href="#m29d44439bd" x="454.41" y="86.768148" style="fill-opacity: 0; stroke: #4c4c4c"/>
     <use xlink:href="#m29d44439bd" x="454.41" y="96.173846" style="fill-opacity: 0; stroke: #4c4c4c"/>
     <use xlink:href="#m29d44439bd" x="454.41" y="94.216591" style="fill-opacity: 0; stroke: #4c4c4c"/>
     <use xlink:href="#m29d44439bd" x="454.41" y="87.094358" style="fill-opacity: 0; stroke: #4c4c4c"/>
     <use xlink:href="#m29d44439bd" x="454.41" y="83.071111" style="fill-opacity: 0; stroke: #4c4c4c"/>
     <use xlink:href="#m29d44439bd" x="454.41" y="77.634292" style="fill-opacity: 0; stroke: #4c4c4c"/>
     <use xlink:href="#m29d44439bd" x="454.41" y="87.094358" style="fill-opacity: 0; stroke: #4c4c4c"/>
     <use xlink:href="#m29d44439bd" x="454.41" y="88.779772" style="fill-opacity: 0; stroke: #4c4c4c"/>
     <use xlink:href="#m29d44439bd" x="454.41" y="94.434064" style="fill-opacity: 0; stroke: #4c4c4c"/>
     <use xlink:href="#m29d44439bd" x="454.41" y="91.987495" style="fill-opacity: 0; stroke: #4c4c4c"/>
     <use xlink:href="#m29d44439bd" x="454.41" y="97.206842" style="fill-opacity: 0; stroke: #4c4c4c"/>
     <use xlink:href="#m29d44439bd" x="454.41" y="98.022365" style="fill-opacity: 0; stroke: #4c4c4c"/>
     <use xlink:href="#m29d44439bd" x="454.41" y="92.259336" style="fill-opacity: 0; stroke: #4c4c4c"/>
     <use xlink:href="#m29d44439bd" x="454.41" y="95.412691" style="fill-opacity: 0; stroke: #4c4c4c"/>
     <use xlink:href="#m29d44439bd" x="454.41" y="94.162223" style="fill-opacity: 0; stroke: #4c4c4c"/>
     <use xlink:href="#m29d44439bd" x="454.41" y="98.837888" style="fill-opacity: 0; stroke: #4c4c4c"/>
     <use xlink:href="#m29d44439bd" x="454.41" y="93.237964" style="fill-opacity: 0; stroke: #4c4c4c"/>
     <use xlink:href="#m29d44439bd" x="454.41" y="94.379696" style="fill-opacity: 0; stroke: #4c4c4c"/>
     <use xlink:href="#m29d44439bd" x="454.41" y="98.674783" style="fill-opacity: 0; stroke: #4c4c4c"/>
     <use xlink:href="#m29d44439bd" x="454.41" y="92.041863" style="fill-opacity: 0; stroke: #4c4c4c"/>
     <use xlink:href="#m29d44439bd" x="454.41" y="90.138977" style="fill-opacity: 0; stroke: #4c4c4c"/>
     <use xlink:href="#m29d44439bd" x="454.41" y="97.587419" style="fill-opacity: 0; stroke: #4c4c4c"/>
     <use xlink:href="#m29d44439bd" x="454.41" y="95.793269" style="fill-opacity: 0; stroke: #4c4c4c"/>
     <use xlink:href="#m29d44439bd" x="454.41" y="80.678911" style="fill-opacity: 0; stroke: #4c4c4c"/>
     <use xlink:href="#m29d44439bd" x="454.41" y="84.91963" style="fill-opacity: 0; stroke: #4c4c4c"/>
     <use xlink:href="#m29d44439bd" x="454.41" y="84.756525" style="fill-opacity: 0; stroke: #4c4c4c"/>
     <use xlink:href="#m29d44439bd" x="454.41" y="91.443813" style="fill-opacity: 0; stroke: #4c4c4c"/>
     <use xlink:href="#m29d44439bd" x="454.41" y="84.756525" style="fill-opacity: 0; stroke: #4c4c4c"/>
     <use xlink:href="#m29d44439bd" x="454.41" y="86.170098" style="fill-opacity: 0; stroke: #4c4c4c"/>
     <use xlink:href="#m29d44439bd" x="454.41" y="95.032114" style="fill-opacity: 0; stroke: #4c4c4c"/>
     <use xlink:href="#m29d44439bd" x="454.41" y="98.729151" style="fill-opacity: 0; stroke: #4c4c4c"/>
     <use xlink:href="#m29d44439bd" x="454.41" y="97.804892" style="fill-opacity: 0; stroke: #4c4c4c"/>
     <use xlink:href="#m29d44439bd" x="454.41" y="95.151724" style="fill-opacity: 0; stroke: #4c4c4c"/>
     <use xlink:href="#m29d44439bd" x="454.41" y="95.151724" style="fill-opacity: 0; stroke: #4c4c4c"/>
     <use xlink:href="#m29d44439bd" x="454.41" y="95.151724" style="fill-opacity: 0; stroke: #4c4c4c"/>
     <use xlink:href="#m29d44439bd" x="454.41" y="79.292522" style="fill-opacity: 0; stroke: #4c4c4c"/>
     <use xlink:href="#m29d44439bd" x="454.41" y="79.292522" style="fill-opacity: 0; stroke: #4c4c4c"/>
     <use xlink:href="#m29d44439bd" x="454.41" y="79.292522" style="fill-opacity: 0; stroke: #4c4c4c"/>
     <use xlink:href="#m29d44439bd" x="454.41" y="91.43294" style="fill-opacity: 0; stroke: #4c4c4c"/>
     <use xlink:href="#m29d44439bd" x="454.41" y="91.43294" style="fill-opacity: 0; stroke: #4c4c4c"/>
     <use xlink:href="#m29d44439bd" x="454.41" y="91.43294" style="fill-opacity: 0; stroke: #4c4c4c"/>
     <use xlink:href="#m29d44439bd" x="454.41" y="87.094358" style="fill-opacity: 0; stroke: #4c4c4c"/>
     <use xlink:href="#m29d44439bd" x="454.41" y="65.94513" style="fill-opacity: 0; stroke: #4c4c4c"/>
     <use xlink:href="#m29d44439bd" x="454.41" y="62.900511" style="fill-opacity: 0; stroke: #4c4c4c"/>
     <use xlink:href="#m29d44439bd" x="454.41" y="94.434064" style="fill-opacity: 0; stroke: #4c4c4c"/>
     <use xlink:href="#m29d44439bd" x="454.41" y="85.137103" style="fill-opacity: 0; stroke: #4c4c4c"/>
     <use xlink:href="#m29d44439bd" x="454.41" y="68.011122" style="fill-opacity: 0; stroke: #4c4c4c"/>
     <use xlink:href="#m29d44439bd" x="454.41" y="61.595675" style="fill-opacity: 0; stroke: #4c4c4c"/>
     <use xlink:href="#m29d44439bd" x="454.41" y="65.510185" style="fill-opacity: 0; stroke: #4c4c4c"/>
     <use xlink:href="#m29d44439bd" x="454.41" y="86.441939" style="fill-opacity: 0; stroke: #4c4c4c"/>
     <use xlink:href="#m29d44439bd" x="454.41" y="93.129227" style="fill-opacity: 0; stroke: #4c4c4c"/>
     <use xlink:href="#m29d44439bd" x="454.41" y="94.488432" style="fill-opacity: 0; stroke: #4c4c4c"/>
     <use xlink:href="#m29d44439bd" x="454.41" y="76.003246" style="fill-opacity: 0; stroke: #4c4c4c"/>
     <use xlink:href="#m29d44439bd" x="454.41" y="64.966503" style="fill-opacity: 0; stroke: #4c4c4c"/>
     <use xlink:href="#m29d44439bd" x="454.41" y="60.562679" style="fill-opacity: 0; stroke: #4c4c4c"/>
     <use xlink:href="#m29d44439bd" x="454.41" y="69.315958" style="fill-opacity: 0; stroke: #4c4c4c"/>
     <use xlink:href="#m29d44439bd" x="454.41" y="85.137103" style="fill-opacity: 0; stroke: #4c4c4c"/>
     <use xlink:href="#m29d44439bd" x="454.41" y="93.129227" style="fill-opacity: 0; stroke: #4c4c4c"/>
     <use xlink:href="#m29d44439bd" x="454.41" y="97.804892" style="fill-opacity: 0; stroke: #4c4c4c"/>
     <use xlink:href="#m29d44439bd" x="454.41" y="97.533051" style="fill-opacity: 0; stroke: #4c4c4c"/>
     <use xlink:href="#m29d44439bd" x="454.41" y="83.777898" style="fill-opacity: 0; stroke: #4c4c4c"/>
     <use xlink:href="#m29d44439bd" x="454.41" y="71.653791" style="fill-opacity: 0; stroke: #4c4c4c"/>
     <use xlink:href="#m29d44439bd" x="454.41" y="66.271339" style="fill-opacity: 0; stroke: #4c4c4c"/>
     <use xlink:href="#m29d44439bd" x="454.41" y="60.725784" style="fill-opacity: 0; stroke: #4c4c4c"/>
     <use xlink:href="#m29d44439bd" x="454.41" y="83.39732" style="fill-opacity: 0; stroke: #4c4c4c"/>
     <use xlink:href="#m29d44439bd" x="454.41" y="96.228214" style="fill-opacity: 0; stroke: #4c4c4c"/>
     <use xlink:href="#m29d44439bd" x="454.41" y="86.441939" style="fill-opacity: 0; stroke: #4c4c4c"/>
     <use xlink:href="#m29d44439bd" x="454.41" y="82.364325" style="fill-opacity: 0; stroke: #4c4c4c"/>
     <use xlink:href="#m29d44439bd" x="454.41" y="81.548802" style="fill-opacity: 0; stroke: #4c4c4c"/>
     <use xlink:href="#m29d44439bd" x="454.41" y="98.402942" style="fill-opacity: 0; stroke: #4c4c4c"/>
     <use xlink:href="#m29d44439bd" x="454.41" y="83.886634" style="fill-opacity: 0; stroke: #4c4c4c"/>
     <use xlink:href="#m29d44439bd" x="454.41" y="76.166351" style="fill-opacity: 0; stroke: #4c4c4c"/>
     <use xlink:href="#m29d44439bd" x="454.41" y="80.40707" style="fill-opacity: 0; stroke: #4c4c4c"/>
     <use xlink:href="#m29d44439bd" x="454.41" y="86.170098" style="fill-opacity: 0; stroke: #4c4c4c"/>
     <use xlink:href="#m29d44439bd" x="454.41" y="91.280709" style="fill-opacity: 0; stroke: #4c4c4c"/>
     <use xlink:href="#m29d44439bd" x="454.41" y="95.902005" style="fill-opacity: 0; stroke: #4c4c4c"/>
     <use xlink:href="#m29d44439bd" x="454.41" y="91.606918" style="fill-opacity: 0; stroke: #4c4c4c"/>
     <use xlink:href="#m29d44439bd" x="454.41" y="82.79927" style="fill-opacity: 0; stroke: #4c4c4c"/>
     <use xlink:href="#m29d44439bd" x="454.41" y="83.506057" style="fill-opacity: 0; stroke: #4c4c4c"/>
     <use xlink:href="#m29d44439bd" x="454.41" y="84.104107" style="fill-opacity: 0; stroke: #4c4c4c"/>
     <use xlink:href="#m29d44439bd" x="454.41" y="90.03024" style="fill-opacity: 0; stroke: #4c4c4c"/>
     <use xlink:href="#m29d44439bd" x="454.41" y="95.14085" style="fill-opacity: 0; stroke: #4c4c4c"/>
     <use xlink:href="#m29d44439bd" x="454.41" y="97.206842" style="fill-opacity: 0; stroke: #4c4c4c"/>
     <use xlink:href="#m29d44439bd" x="454.41" y="96.228214" style="fill-opacity: 0; stroke: #4c4c4c"/>
     <use xlink:href="#m29d44439bd" x="454.41" y="87.039989" style="fill-opacity: 0; stroke: #4c4c4c"/>
     <use xlink:href="#m29d44439bd" x="454.41" y="79.319706" style="fill-opacity: 0; stroke: #4c4c4c"/>
     <use xlink:href="#m29d44439bd" x="454.41" y="73.502309" style="fill-opacity: 0; stroke: #4c4c4c"/>
     <use xlink:href="#m29d44439bd" x="454.41" y="70.838268" style="fill-opacity: 0; stroke: #4c4c4c"/>
     <use xlink:href="#m29d44439bd" x="454.41" y="74.807146" style="fill-opacity: 0; stroke: #4c4c4c"/>
     <use xlink:href="#m29d44439bd" x="454.41" y="79.319706" style="fill-opacity: 0; stroke: #4c4c4c"/>
     <use xlink:href="#m29d44439bd" x="454.41" y="82.690534" style="fill-opacity: 0; stroke: #4c4c4c"/>
     <use xlink:href="#m29d44439bd" x="454.41" y="93.401068" style="fill-opacity: 0; stroke: #4c4c4c"/>
     <use xlink:href="#m29d44439bd" x="454.41" y="96.608792" style="fill-opacity: 0; stroke: #4c4c4c"/>
     <use xlink:href="#m29d44439bd" x="454.41" y="89.595295" style="fill-opacity: 0; stroke: #4c4c4c"/>
     <use xlink:href="#m29d44439bd" x="454.41" y="77.199346" style="fill-opacity: 0; stroke: #4c4c4c"/>
     <use xlink:href="#m29d44439bd" x="454.41" y="80.352702" style="fill-opacity: 0; stroke: #4c4c4c"/>
     <use xlink:href="#m29d44439bd" x="454.41" y="92.422441" style="fill-opacity: 0; stroke: #4c4c4c"/>
     <use xlink:href="#m29d44439bd" x="454.41" y="98.566047" style="fill-opacity: 0; stroke: #4c4c4c"/>
     <use xlink:href="#m29d44439bd" x="454.41" y="94.216591" style="fill-opacity: 0; stroke: #4c4c4c"/>
     <use xlink:href="#m29d44439bd" x="454.41" y="96.445687" style="fill-opacity: 0; stroke: #4c4c4c"/>
     <use xlink:href="#m29d44439bd" x="454.41" y="85.572048" style="fill-opacity: 0; stroke: #4c4c4c"/>
     <use xlink:href="#m29d44439bd" x="454.41" y="74.915882" style="fill-opacity: 0; stroke: #4c4c4c"/>
     <use xlink:href="#m29d44439bd" x="454.41" y="77.579924" style="fill-opacity: 0; stroke: #4c4c4c"/>
     <use xlink:href="#m29d44439bd" x="454.41" y="92.639913" style="fill-opacity: 0; stroke: #4c4c4c"/>
     <use xlink:href="#m29d44439bd" x="454.41" y="94.162223" style="fill-opacity: 0; stroke: #4c4c4c"/>
     <use xlink:href="#m29d44439bd" x="454.41" y="94.5428" style="fill-opacity: 0; stroke: #4c4c4c"/>
     <use xlink:href="#m29d44439bd" x="454.41" y="88.83414" style="fill-opacity: 0; stroke: #4c4c4c"/>
     <use xlink:href="#m29d44439bd" x="454.41" y="76.710033" style="fill-opacity: 0; stroke: #4c4c4c"/>
     <use xlink:href="#m29d44439bd" x="454.41" y="71.708159" style="fill-opacity: 0; stroke: #4c4c4c"/>
     <use xlink:href="#m29d44439bd" x="454.41" y="75.024619" style="fill-opacity: 0; stroke: #4c4c4c"/>
     <use xlink:href="#m29d44439bd" x="454.41" y="86.006994" style="fill-opacity: 0; stroke: #4c4c4c"/>
     <use xlink:href="#m29d44439bd" x="454.41" y="94.814641" style="fill-opacity: 0; stroke: #4c4c4c"/>
     <use xlink:href="#m29d44439bd" x="454.41" y="79.80902" style="fill-opacity: 0; stroke: #4c4c4c"/>
     <use xlink:href="#m29d44439bd" x="454.41" y="68.717908" style="fill-opacity: 0; stroke: #4c4c4c"/>
     <use xlink:href="#m29d44439bd" x="454.41" y="78.449815" style="fill-opacity: 0; stroke: #4c4c4c"/>
     <use xlink:href="#m29d44439bd" x="454.41" y="81.60317" style="fill-opacity: 0; stroke: #4c4c4c"/>
     <use xlink:href="#m29d44439bd" x="454.41" y="87.094358" style="fill-opacity: 0; stroke: #4c4c4c"/>
     <use xlink:href="#m29d44439bd" x="454.41" y="97.696155" style="fill-opacity: 0; stroke: #4c4c4c"/>
     <use xlink:href="#m29d44439bd" x="454.41" y="96.880633" style="fill-opacity: 0; stroke: #4c4c4c"/>
     <use xlink:href="#m29d44439bd" x="454.41" y="96.010741" style="fill-opacity: 0; stroke: #4c4c4c"/>
     <use xlink:href="#m29d44439bd" x="454.41" y="84.973998" style="fill-opacity: 0; stroke: #4c4c4c"/>
     <use xlink:href="#m29d44439bd" x="454.41" y="80.080861" style="fill-opacity: 0; stroke: #4c4c4c"/>
     <use xlink:href="#m29d44439bd" x="454.41" y="81.494434" style="fill-opacity: 0; stroke: #4c4c4c"/>
     <use xlink:href="#m29d44439bd" x="454.41" y="79.972124" style="fill-opacity: 0; stroke: #4c4c4c"/>
     <use xlink:href="#m29d44439bd" x="454.41" y="89.540926" style="fill-opacity: 0; stroke: #4c4c4c"/>
     <use xlink:href="#m29d44439bd" x="454.41" y="83.941002" style="fill-opacity: 0; stroke: #4c4c4c"/>
     <use xlink:href="#m29d44439bd" x="454.41" y="96.010741" style="fill-opacity: 0; stroke: #4c4c4c"/>
     <use xlink:href="#m29d44439bd" x="454.41" y="93.564173" style="fill-opacity: 0; stroke: #4c4c4c"/>
     <use xlink:href="#m29d44439bd" x="454.41" y="94.923378" style="fill-opacity: 0; stroke: #4c4c4c"/>
     <use xlink:href="#m29d44439bd" x="454.41" y="97.913628" style="fill-opacity: 0; stroke: #4c4c4c"/>
     <use xlink:href="#m29d44439bd" x="454.41" y="95.46706" style="fill-opacity: 0; stroke: #4c4c4c"/>
     <use xlink:href="#m29d44439bd" x="454.41" y="95.46706" style="fill-opacity: 0; stroke: #4c4c4c"/>
     <use xlink:href="#m29d44439bd" x="454.41" y="93.020491" style="fill-opacity: 0; stroke: #4c4c4c"/>
     <use xlink:href="#m29d44439bd" x="454.41" y="85.137103" style="fill-opacity: 0; stroke: #4c4c4c"/>
     <use xlink:href="#m29d44439bd" x="454.41" y="96.010741" style="fill-opacity: 0; stroke: #4c4c4c"/>
     <use xlink:href="#m29d44439bd" x="454.41" y="88.127353" style="fill-opacity: 0; stroke: #4c4c4c"/>
     <use xlink:href="#m29d44439bd" x="454.41" y="87.583671" style="fill-opacity: 0; stroke: #4c4c4c"/>
     <use xlink:href="#m29d44439bd" x="454.41" y="90.03024" style="fill-opacity: 0; stroke: #4c4c4c"/>
     <use xlink:href="#m29d44439bd" x="454.41" y="86.496308" style="fill-opacity: 0; stroke: #4c4c4c"/>
     <use xlink:href="#m29d44439bd" x="454.41" y="88.942876" style="fill-opacity: 0; stroke: #4c4c4c"/>
     <use xlink:href="#m29d44439bd" x="454.41" y="91.933127" style="fill-opacity: 0; stroke: #4c4c4c"/>
     <use xlink:href="#m29d44439bd" x="454.41" y="91.661286" style="fill-opacity: 0; stroke: #4c4c4c"/>
     <use xlink:href="#m29d44439bd" x="454.41" y="93.020491" style="fill-opacity: 0; stroke: #4c4c4c"/>
     <use xlink:href="#m29d44439bd" x="454.41" y="92.476809" style="fill-opacity: 0; stroke: #4c4c4c"/>
     <use xlink:href="#m29d44439bd" x="454.41" y="84.593421" style="fill-opacity: 0; stroke: #4c4c4c"/>
     <use xlink:href="#m29d44439bd" x="454.41" y="92.476809" style="fill-opacity: 0; stroke: #4c4c4c"/>
     <use xlink:href="#m29d44439bd" x="454.41" y="94.923378" style="fill-opacity: 0; stroke: #4c4c4c"/>
     <use xlink:href="#m29d44439bd" x="454.41" y="97.913628" style="fill-opacity: 0; stroke: #4c4c4c"/>
     <use xlink:href="#m29d44439bd" x="454.41" y="92.476809" style="fill-opacity: 0; stroke: #4c4c4c"/>
     <use xlink:href="#m29d44439bd" x="454.41" y="86.71378" style="fill-opacity: 0; stroke: #4c4c4c"/>
     <use xlink:href="#m29d44439bd" x="454.41" y="79.700283" style="fill-opacity: 0; stroke: #4c4c4c"/>
     <use xlink:href="#m29d44439bd" x="454.41" y="76.764401" style="fill-opacity: 0; stroke: #4c4c4c"/>
     <use xlink:href="#m29d44439bd" x="454.41" y="98.511678" style="fill-opacity: 0; stroke: #4c4c4c"/>
     <use xlink:href="#m29d44439bd" x="454.41" y="93.074859" style="fill-opacity: 0; stroke: #4c4c4c"/>
     <use xlink:href="#m29d44439bd" x="454.41" y="82.20122" style="fill-opacity: 0; stroke: #4c4c4c"/>
     <use xlink:href="#m29d44439bd" x="454.41" y="89.486558" style="fill-opacity: 0; stroke: #4c4c4c"/>
     <use xlink:href="#m29d44439bd" x="454.41" y="86.496308" style="fill-opacity: 0; stroke: #4c4c4c"/>
     <use xlink:href="#m29d44439bd" x="454.41" y="83.451689" style="fill-opacity: 0; stroke: #4c4c4c"/>
     <use xlink:href="#m29d44439bd" x="454.41" y="88.888508" style="fill-opacity: 0; stroke: #4c4c4c"/>
     <use xlink:href="#m29d44439bd" x="454.41" y="88.888508" style="fill-opacity: 0; stroke: #4c4c4c"/>
     <use xlink:href="#m29d44439bd" x="454.41" y="96.119478" style="fill-opacity: 0; stroke: #4c4c4c"/>
     <use xlink:href="#m29d44439bd" x="454.41" y="85.245839" style="fill-opacity: 0; stroke: #4c4c4c"/>
     <use xlink:href="#m29d44439bd" x="454.41" y="79.80902" style="fill-opacity: 0; stroke: #4c4c4c"/>
     <use xlink:href="#m29d44439bd" x="454.41" y="73.77415" style="fill-opacity: 0; stroke: #4c4c4c"/>
     <use xlink:href="#m29d44439bd" x="454.41" y="83.451689" style="fill-opacity: 0; stroke: #4c4c4c"/>
     <use xlink:href="#m29d44439bd" x="454.41" y="86.061362" style="fill-opacity: 0; stroke: #4c4c4c"/>
     <use xlink:href="#m29d44439bd" x="454.41" y="94.923378" style="fill-opacity: 0; stroke: #4c4c4c"/>
     <use xlink:href="#m29d44439bd" x="454.41" y="96.717528" style="fill-opacity: 0; stroke: #4c4c4c"/>
     <use xlink:href="#m29d44439bd" x="454.41" y="96.717528" style="fill-opacity: 0; stroke: #4c4c4c"/>
     <use xlink:href="#m29d44439bd" x="454.41" y="97.315578" style="fill-opacity: 0; stroke: #4c4c4c"/>
    </g>
   </g>
   <g id="patch_6">
    <path d="M 549.6012 211.503057 
L 676.5228 211.503057 
L 676.5228 154.728391 
L 549.6012 154.728391 
L 549.6012 211.503057 
z
" clip-path="url(#p99e15cba47)" style="fill: #5875a4; stroke: #4c4c4c; stroke-linejoin: miter"/>
   </g>
   <g id="line2d_22">
    <path d="M 613.062 211.503057 
L 613.062 287.930467 
" clip-path="url(#p99e15cba47)" style="fill: none; stroke: #4c4c4c"/>
   </g>
   <g id="line2d_23">
    <path d="M 613.062 154.728391 
L 613.062 78.612919 
" clip-path="url(#p99e15cba47)" style="fill: none; stroke: #4c4c4c"/>
   </g>
   <g id="line2d_24">
    <path d="M 581.3316 287.930467 
L 644.7924 287.930467 
" clip-path="url(#p99e15cba47)" style="fill: none; stroke: #4c4c4c; stroke-linecap: round"/>
   </g>
   <g id="line2d_25">
    <path d="M 581.3316 78.612919 
L 644.7924 78.612919 
" clip-path="url(#p99e15cba47)" style="fill: none; stroke: #4c4c4c; stroke-linecap: round"/>
   </g>
   <g id="line2d_26">
    <g clip-path="url(#p99e15cba47)">
     <use xlink:href="#m29d44439bd" x="613.062" y="333.654118" style="fill-opacity: 0; stroke: #4c4c4c"/>
    </g>
   </g>
   <g id="patch_7">
    <path d="M 708.2532 197.244319 
L 835.1748 197.244319 
L 835.1748 134.449055 
L 708.2532 134.449055 
L 708.2532 197.244319 
z
" clip-path="url(#p99e15cba47)" style="fill: #5875a4; stroke: #4c4c4c; stroke-linejoin: miter"/>
   </g>
   <g id="line2d_27">
    <path d="M 771.714 197.244319 
L 771.714 285.755739 
" clip-path="url(#p99e15cba47)" style="fill: none; stroke: #4c4c4c"/>
   </g>
   <g id="line2d_28">
    <path d="M 771.714 134.449055 
L 771.714 43.545434 
" clip-path="url(#p99e15cba47)" style="fill: none; stroke: #4c4c4c"/>
   </g>
   <g id="line2d_29">
    <path d="M 739.9836 285.755739 
L 803.4444 285.755739 
" clip-path="url(#p99e15cba47)" style="fill: none; stroke: #4c4c4c; stroke-linecap: round"/>
   </g>
   <g id="line2d_30">
    <path d="M 739.9836 43.545434 
L 803.4444 43.545434 
" clip-path="url(#p99e15cba47)" style="fill: none; stroke: #4c4c4c; stroke-linecap: round"/>
   </g>
   <g id="line2d_31"/>
   <g id="line2d_32">
    <path d="M 73.6452 181.695015 
L 200.5668 181.695015 
" clip-path="url(#p99e15cba47)" style="fill: none; stroke: #4c4c4c"/>
   </g>
   <g id="line2d_33">
    <path d="M 232.2972 199.419047 
L 359.2188 199.419047 
" clip-path="url(#p99e15cba47)" style="fill: none; stroke: #4c4c4c"/>
   </g>
   <g id="line2d_34">
    <path d="M 390.9492 203.551029 
L 517.8708 203.551029 
" clip-path="url(#p99e15cba47)" style="fill: none; stroke: #4c4c4c"/>
   </g>
   <g id="line2d_35">
    <path d="M 549.6012 185.928938 
L 676.5228 185.928938 
" clip-path="url(#p99e15cba47)" style="fill: none; stroke: #4c4c4c"/>
   </g>
   <g id="line2d_36">
    <path d="M 708.2532 169.462172 
L 835.1748 169.462172 
" clip-path="url(#p99e15cba47)" style="fill: none; stroke: #4c4c4c"/>
   </g>
   <g id="patch_8">
    <path d="M 57.78 348.159552 
L 57.78 29.04 
" style="fill: none; stroke: #cccccc; stroke-width: 1.25; stroke-linejoin: miter; stroke-linecap: square"/>
   </g>
   <g id="patch_9">
    <path d="M 851.04 348.159552 
L 851.04 29.04 
" style="fill: none; stroke: #cccccc; stroke-width: 1.25; stroke-linejoin: miter; stroke-linecap: square"/>
   </g>
   <g id="patch_10">
    <path d="M 57.78 348.159552 
L 851.04 348.159552 
" style="fill: none; stroke: #cccccc; stroke-width: 1.25; stroke-linejoin: miter; stroke-linecap: square"/>
   </g>
   <g id="patch_11">
    <path d="M 57.78 29.04 
L 851.04 29.04 
" style="fill: none; stroke: #cccccc; stroke-width: 1.25; stroke-linejoin: miter; stroke-linecap: square"/>
   </g>
   <g id="text_14">
    <!-- Distribuição de Temperatura por Cidade (Espanha) -->
    <g style="fill: #262626" transform="translate(296.575312 23.04) scale(0.14 -0.14)">
     <defs>
      <path id="ArialMT-44" d="M 494 0 
L 494 4581 
L 2072 4581 
Q 2606 4581 2888 4516 
Q 3281 4425 3559 4188 
Q 3922 3881 4101 3404 
Q 4281 2928 4281 2316 
Q 4281 1794 4159 1391 
Q 4038 988 3847 723 
Q 3656 459 3429 307 
Q 3203 156 2883 78 
Q 2563 0 2147 0 
L 494 0 
z
M 1100 541 
L 2078 541 
Q 2531 541 2789 625 
Q 3047 709 3200 863 
Q 3416 1078 3536 1442 
Q 3656 1806 3656 2325 
Q 3656 3044 3420 3430 
Q 3184 3816 2847 3947 
Q 2603 4041 2063 4041 
L 1100 4041 
L 1100 541 
z
" transform="scale(0.015625)"/>
      <path id="ArialMT-73" d="M 197 991 
L 753 1078 
Q 800 744 1014 566 
Q 1228 388 1613 388 
Q 2000 388 2187 545 
Q 2375 703 2375 916 
Q 2375 1106 2209 1216 
Q 2094 1291 1634 1406 
Q 1016 1563 777 1677 
Q 538 1791 414 1992 
Q 291 2194 291 2438 
Q 291 2659 392 2848 
Q 494 3038 669 3163 
Q 800 3259 1026 3326 
Q 1253 3394 1513 3394 
Q 1903 3394 2198 3281 
Q 2494 3169 2634 2976 
Q 2775 2784 2828 2463 
L 2278 2388 
Q 2241 2644 2061 2787 
Q 1881 2931 1553 2931 
Q 1166 2931 1000 2803 
Q 834 2675 834 2503 
Q 834 2394 903 2306 
Q 972 2216 1119 2156 
Q 1203 2125 1616 2013 
Q 2213 1853 2448 1751 
Q 2684 1650 2818 1456 
Q 2953 1263 2953 975 
Q 2953 694 2789 445 
Q 2625 197 2315 61 
Q 2006 -75 1616 -75 
Q 969 -75 630 194 
Q 291 463 197 991 
z
" transform="scale(0.015625)"/>
      <path id="ArialMT-e7" d="M 2588 1216 
L 3141 1144 
Q 3050 572 2676 248 
Q 2303 -75 1759 -75 
Q 1078 -75 664 370 
Q 250 816 250 1647 
Q 250 2184 428 2587 
Q 606 2991 970 3192 
Q 1334 3394 1763 3394 
Q 2303 3394 2647 3120 
Q 2991 2847 3088 2344 
L 2541 2259 
Q 2463 2594 2264 2762 
Q 2066 2931 1784 2931 
Q 1359 2931 1093 2626 
Q 828 2322 828 1663 
Q 828 994 1084 691 
Q 1341 388 1753 388 
Q 2084 388 2306 591 
Q 2528 794 2588 1216 
z
M 1284 -418 
L 1447 135 
L 1866 135 
L 1763 -200 
Q 2028 -231 2162 -363 
Q 2297 -496 2297 -659 
Q 2297 -893 2072 -1073 
Q 1847 -1253 1394 -1253 
Q 1138 -1253 944 -1215 
L 978 -850 
Q 1178 -862 1272 -862 
Q 1566 -862 1684 -781 
Q 1775 -718 1775 -628 
Q 1775 -571 1739 -527 
Q 1703 -484 1606 -452 
Q 1509 -421 1284 -418 
z
" transform="scale(0.015625)"/>
      <path id="ArialMT-e3" d="M 2588 409 
Q 2275 144 1986 34 
Q 1697 -75 1366 -75 
Q 819 -75 525 192 
Q 231 459 231 875 
Q 231 1119 342 1320 
Q 453 1522 633 1644 
Q 813 1766 1038 1828 
Q 1203 1872 1538 1913 
Q 2219 1994 2541 2106 
Q 2544 2222 2544 2253 
Q 2544 2597 2384 2738 
Q 2169 2928 1744 2928 
Q 1347 2928 1158 2789 
Q 969 2650 878 2297 
L 328 2372 
Q 403 2725 575 2942 
Q 747 3159 1072 3276 
Q 1397 3394 1825 3394 
Q 2250 3394 2515 3294 
Q 2781 3194 2906 3042 
Q 3031 2891 3081 2659 
Q 3109 2516 3109 2141 
L 3109 1391 
Q 3109 606 3145 398 
Q 3181 191 3288 0 
L 2700 0 
Q 2613 175 2588 409 
z
M 2541 1666 
Q 2234 1541 1622 1453 
Q 1275 1403 1131 1340 
Q 988 1278 909 1158 
Q 831 1038 831 891 
Q 831 666 1001 516 
Q 1172 366 1500 366 
Q 1825 366 2078 508 
Q 2331 650 2450 897 
Q 2541 1088 2541 1459 
L 2541 1666 
z
M 716 3809 
Q 713 4134 894 4328 
Q 1072 4522 1350 4522 
Q 1544 4522 1878 4353 
Q 2063 4259 2172 4259 
Q 2272 4259 2325 4314 
Q 2378 4369 2400 4531 
L 2806 4531 
Q 2797 4175 2626 3997 
Q 2456 3819 2194 3819 
Q 1997 3819 1675 3994 
Q 1466 4106 1369 4106 
Q 1263 4106 1197 4031 
Q 1128 3956 1131 3809 
L 716 3809 
z
" transform="scale(0.015625)"/>
      <path id="ArialMT-45" d="M 506 0 
L 506 4581 
L 3819 4581 
L 3819 4041 
L 1113 4041 
L 1113 2638 
L 3647 2638 
L 3647 2100 
L 1113 2100 
L 1113 541 
L 3925 541 
L 3925 0 
L 506 0 
z
" transform="scale(0.015625)"/>
      <path id="ArialMT-68" d="M 422 0 
L 422 4581 
L 984 4581 
L 984 2938 
Q 1378 3394 1978 3394 
Q 2347 3394 2619 3248 
Q 2891 3103 3008 2847 
Q 3125 2591 3125 2103 
L 3125 0 
L 2563 0 
L 2563 2103 
Q 2563 2525 2380 2717 
Q 2197 2909 1863 2909 
Q 1613 2909 1392 2779 
Q 1172 2650 1078 2428 
Q 984 2206 984 1816 
L 984 0 
L 422 0 
z
" transform="scale(0.015625)"/>
     </defs>
     <use xlink:href="#ArialMT-44"/>
     <use xlink:href="#ArialMT-69" transform="translate(72.216797 0)"/>
     <use xlink:href="#ArialMT-73" transform="translate(94.433594 0)"/>
     <use xlink:href="#ArialMT-74" transform="translate(144.433594 0)"/>
     <use xlink:href="#ArialMT-72" transform="translate(172.216797 0)"/>
     <use xlink:href="#ArialMT-69" transform="translate(205.517578 0)"/>
     <use xlink:href="#ArialMT-62" transform="translate(227.734375 0)"/>
     <use xlink:href="#ArialMT-75" transform="translate(283.349609 0)"/>
     <use xlink:href="#ArialMT-69" transform="translate(338.964844 0)"/>
     <use xlink:href="#ArialMT-e7" transform="translate(361.181641 0)"/>
     <use xlink:href="#ArialMT-e3" transform="translate(411.181641 0)"/>
     <use xlink:href="#ArialMT-6f" transform="translate(466.796875 0)"/>
     <use xlink:href="#ArialMT-20" transform="translate(522.412109 0)"/>
     <use xlink:href="#ArialMT-64" transform="translate(550.195312 0)"/>
     <use xlink:href="#ArialMT-65" transform="translate(605.810547 0)"/>
     <use xlink:href="#ArialMT-20" transform="translate(661.425781 0)"/>
     <use xlink:href="#ArialMT-54" transform="translate(687.458984 0)"/>
     <use xlink:href="#ArialMT-65" transform="translate(737.417969 0)"/>
     <use xlink:href="#ArialMT-6d" transform="translate(793.033203 0)"/>
     <use xlink:href="#ArialMT-70" transform="translate(876.333984 0)"/>
     <use xlink:href="#ArialMT-65" transform="translate(931.949219 0)"/>
     <use xlink:href="#ArialMT-72" transform="translate(987.564453 0)"/>
     <use xlink:href="#ArialMT-61" transform="translate(1020.865234 0)"/>
     <use xlink:href="#ArialMT-74" transform="translate(1076.480469 0)"/>
     <use xlink:href="#ArialMT-75" transform="translate(1104.263672 0)"/>
     <use xlink:href="#ArialMT-72" transform="translate(1159.878906 0)"/>
     <use xlink:href="#ArialMT-61" transform="translate(1193.179688 0)"/>
     <use xlink:href="#ArialMT-20" transform="translate(1248.794922 0)"/>
     <use xlink:href="#ArialMT-70" transform="translate(1276.578125 0)"/>
     <use xlink:href="#ArialMT-6f" transform="translate(1332.193359 0)"/>
     <use xlink:href="#ArialMT-72" transform="translate(1387.808594 0)"/>
     <use xlink:href="#ArialMT-20" transform="translate(1421.109375 0)"/>
     <use xlink:href="#ArialMT-43" transform="translate(1448.892578 0)"/>
     <use xlink:href="#ArialMT-69" transform="translate(1521.109375 0)"/>
     <use xlink:href="#ArialMT-64" transform="translate(1543.326172 0)"/>
     <use xlink:href="#ArialMT-61" transform="translate(1598.941406 0)"/>
     <use xlink:href="#ArialMT-64" transform="translate(1654.556641 0)"/>
     <use xlink:href="#ArialMT-65" transform="translate(1710.171875 0)"/>
     <use xlink:href="#ArialMT-20" transform="translate(1765.787109 0)"/>
     <use xlink:href="#ArialMT-28" transform="translate(1793.570312 0)"/>
     <use xlink:href="#ArialMT-45" transform="translate(1826.871094 0)"/>
     <use xlink:href="#ArialMT-73" transform="translate(1893.570312 0)"/>
     <use xlink:href="#ArialMT-70" transform="translate(1943.570312 0)"/>
     <use xlink:href="#ArialMT-61" transform="translate(1999.185547 0)"/>
     <use xlink:href="#ArialMT-6e" transform="translate(2054.800781 0)"/>
     <use xlink:href="#ArialMT-68" transform="translate(2110.416016 0)"/>
     <use xlink:href="#ArialMT-61" transform="translate(2166.03125 0)"/>
     <use xlink:href="#ArialMT-29" transform="translate(2221.646484 0)"/>
    </g>
   </g>
  </g>
 </g>
 <defs>
  <clipPath id="p99e15cba47">
   <rect x="57.78" y="29.04" width="793.26" height="319.119552"/>
  </clipPath>
 </defs>
</svg>
