<?xml version="1.0" encoding="utf-8" standalone="no"?>
<!DOCTYPE svg PUBLIC "-//W3C//DTD SVG 1.1//EN"
  "http://www.w3.org/Graphics/SVG/1.1/DTD/svg11.dtd">
<svg xmlns:xlink="http://www.w3.org/1999/xlink" width="864pt" height="432pt" viewBox="0 0 864 432" xmlns="http://www.w3.org/2000/svg" version="1.1">
 <metadata>
  <rdf:RDF xmlns:dc="http://purl.org/dc/elements/1.1/" xmlns:cc="http://creativecommons.org/ns#" xmlns:rdf="http://www.w3.org/1999/02/22-rdf-syntax-ns#">
   <cc:Work>
    <dc:type rdf:resource="http://purl.org/dc/dcmitype/StillImage"/>
    <dc:date>2026-06-23T14:20:32.847375</dc:date>
    <dc:format>image/svg+xml</dc:format>
    <dc:creator>
     <cc:Agent>
      <dc:title>Matplotlib v3.10.8, https://matplotlib.org/</dc:title>
     </cc:Agent>
    </dc:creator>
   </cc:Work>
  </rdf:RDF>
 </metadata>
 <defs>
  <style type="text/css">*{stroke-linejoin: round; stroke-linecap: butt}</style>
 </defs>
 <g id="figure_1">
  <g id="patch_1">
   <path d="M 0 432 
L 864 432 
L 864 0 
L 0 0 
z
" style="fill: #ffffff"/>
  </g>
  <g id="axes_1">
   <g id="patch_2">
    <path d="M 58.68 384.4575 
L 851.04 384.4575 
L 851.04 29.76 
L 58.68 29.76 
z
" style="fill: #ffffff"/>
   </g>
   <g id="matplotlib.axis_1">
    <g id="xtick_1">
     <g id="text_1">
      <!-- Inverno -->
      <g style="fill: #262626" transform="translate(139.381641 401.831094) scale(0.11 -0.11)">
       <defs>
        <path id="ArialMT-49" d="M 597 0 
L 597 4581 
L 1203 4581 
L 1203 0 
L 597 0 
z
" transform="scale(0.015625)"/>
        <path id="ArialMT-6e" d="M 422 0 
L 422 3319 
L 928 3319 
L 928 2847 
Q 1294 3394 1984 3394 
Q 2284 3394 2536 3286 
Q 2788 3178 2913 3003 
Q 3038 2828 3088 2588 
Q 3119 2431 3119 2041 
L 3119 0 
L 2556 0 
L 2556 2019 
Q 2556 2363 2490 2533 
Q 2425 2703 2258 2804 
Q 2091 2906 1866 2906 
Q 1506 2906 1245 2678 
Q 984 2450 984 1813 
L 984 0 
L 422 0 
z
" transform="scale(0.015625)"/>
        <path id="ArialMT-76" d="M 1344 0 
L 81 3319 
L 675 3319 
L 1388 1331 
Q 1503 1009 1600 663 
Q 1675 925 1809 1294 
L 2547 3319 
L 3125 3319 
L 1869 0 
L 1344 0 
z
" transform="scale(0.015625)"/>
        <path id="ArialMT-65" d="M 2694 1069 
L 3275 997 
Q 3138 488 2766 206 
Q 2394 -75 1816 -75 
Q 1088 -75 661 373 
Q 234 822 234 1631 
Q 234 2469 665 2931 
Q 1097 3394 1784 3394 
Q 2450 3394 2872 2941 
Q 3294 2488 3294 1666 
Q 3294 1616 3291 1516 
L 816 1516 
Q 847 969 1125 678 
Q 1403 388 1819 388 
Q 2128 388 2347 550 
Q 2566 713 2694 1069 
z
M 847 1978 
L 2700 1978 
Q 2663 2397 2488 2606 
Q 2219 2931 1791 2931 
Q 1403 2931 1139 2672 
Q 875 2413 847 1978 
z
" transform="scale(0.015625)"/>
        <path id="ArialMT-72" d="M 416 0 
L 416 3319 
L 922 3319 
L 922 2816 
Q 1116 3169 1280 3281 
Q 1444 3394 1641 3394 
Q 1925 3394 2219 3213 
L 2025 2691 
Q 1819 2813 1613 2813 
Q 1428 2813 1281 2702 
Q 1134 2591 1072 2394 
Q 978 2094 978 1738 
L 978 0 
L 416 0 
z
" transform="scale(0.015625)"/>
        <path id="ArialMT-6f" d="M 213 1659 
Q 213 2581 725 3025 
Q 1153 3394 1769 3394 
Q 2453 3394 2887 2945 
Q 3322 2497 3322 1706 
Q 3322 1066 3130 698 
Q 2938 331 2570 128 
Q 2203 -75 1769 -75 
Q 1072 -75 642 372 
Q 213 819 213 1659 
z
M 791 1659 
Q 791 1022 1069 705 
Q 1347 388 1769 388 
Q 2188 388 2466 706 
Q 2744 1025 2744 1678 
Q 2744 2294 2464 2611 
Q 2184 2928 1769 2928 
Q 1347 2928 1069 2612 
Q 791 2297 791 1659 
z
" transform="scale(0.015625)"/>
       </defs>
       <use xlink:href="#ArialMT-49"/>
       <use xlink:href="#ArialMT-6e" transform="translate(27.783203 0)"/>
       <use xlink:href="#ArialMT-76" transform="translate(83.398438 0)"/>
       <use xlink:href="#ArialMT-65" transform="translate(133.398438 0)"/>
       <use xlink:href="#ArialMT-72" transform="translate(189.013672 0)"/>
       <use xlink:href="#ArialMT-6e" transform="translate(222.314453 0)"/>
       <use xlink:href="#ArialMT-6f" transform="translate(277.929688 0)"/>
      </g>
     </g>
    </g>
    <g id="xtick_2">
     <g id="text_2">
      <!-- Primavera -->
      <g style="fill: #262626" transform="translate(330.754766 401.831094) scale(0.11 -0.11)">
       <defs>
        <path id="ArialMT-50" d="M 494 0 
L 494 4581 
L 2222 4581 
Q 2678 4581 2919 4538 
Q 3256 4481 3484 4323 
Q 3713 4166 3852 3881 
Q 3991 3597 3991 3256 
Q 3991 2672 3619 2267 
Q 3247 1863 2275 1863 
L 1100 1863 
L 1100 0 
L 494 0 
z
M 1100 2403 
L 2284 2403 
Q 2872 2403 3119 2622 
Q 3366 2841 3366 3238 
Q 3366 3525 3220 3729 
Q 3075 3934 2838 4000 
Q 2684 4041 2272 4041 
L 1100 4041 
L 1100 2403 
z
" transform="scale(0.015625)"/>
        <path id="ArialMT-69" d="M 425 3934 
L 425 4581 
L 988 4581 
L 988 3934 
L 425 3934 
z
M 425 0 
L 425 3319 
L 988 3319 
L 988 0 
L 425 0 
z
" transform="scale(0.015625)"/>
        <path id="ArialMT-6d" d="M 422 0 
L 422 3319 
L 925 3319 
L 925 2853 
Q 1081 3097 1340 3245 
Q 1600 3394 1931 3394 
Q 2300 3394 2536 3241 
Q 2772 3088 2869 2813 
Q 3263 3394 3894 3394 
Q 4388 3394 4653 3120 
Q 4919 2847 4919 2278 
L 4919 0 
L 4359 0 
L 4359 2091 
Q 4359 2428 4304 2576 
Q 4250 2725 4106 2815 
Q 3963 2906 3769 2906 
Q 3419 2906 3187 2673 
Q 2956 2441 2956 1928 
L 2956 0 
L 2394 0 
L 2394 2156 
Q 2394 2531 2256 2718 
Q 2119 2906 1806 2906 
Q 1569 2906 1367 2781 
Q 1166 2656 1075 2415 
Q 984 2175 984 1722 
L 984 0 
L 422 0 
z
" transform="scale(0.015625)"/>
        <path id="ArialMT-61" d="M 2588 409 
Q 2275 144 1986 34 
Q 1697 -75 1366 -75 
Q 819 -75 525 192 
Q 231 459 231 875 
Q 231 1119 342 1320 
Q 453 1522 633 1644 
Q 813 1766 1038 1828 
Q 1203 1872 1538 1913 
Q 2219 1994 2541 2106 
Q 2544 2222 2544 2253 
Q 2544 2597 2384 2738 
Q 2169 2928 1744 2928 
Q 1347 2928 1158 2789 
Q 969 2650 878 2297 
L 328 2372 
Q 403 2725 575 2942 
Q 747 3159 1072 3276 
Q 1397 3394 1825 3394 
Q 2250 3394 2515 3294 
Q 2781 3194 2906 3042 
Q 3031 2891 3081 2659 
Q 3109 2516 3109 2141 
L 3109 1391 
Q 3109 606 3145 398 
Q 3181 191 3288 0 
L 2700 0 
Q 2613 175 2588 409 
z
M 2541 1666 
Q 2234 1541 1622 1453 
Q 1275 1403 1131 1340 
Q 988 1278 909 1158 
Q 831 1038 831 891 
Q 831 666 1001 516 
Q 1172 366 1500 366 
Q 1825 366 2078 508 
Q 2331 650 2450 897 
Q 2541 1088 2541 1459 
L 2541 1666 
z
" transform="scale(0.015625)"/>
       </defs>
       <use xlink:href="#ArialMT-50"/>
       <use xlink:href="#ArialMT-72" transform="translate(66.699219 0)"/>
       <use xlink:href="#ArialMT-69" transform="translate(100 0)"/>
       <use xlink:href="#ArialMT-6d" transform="translate(122.216797 0)"/>
       <use xlink:href="#ArialMT-61" transform="translate(205.517578 0)"/>
       <use xlink:href="#ArialMT-76" transform="translate(261.132812 0)"/>
       <use xlink:href="#ArialMT-65" transform="translate(311.132812 0)"/>
       <use xlink:href="#ArialMT-72" transform="translate(366.748047 0)"/>
       <use xlink:href="#ArialMT-61" transform="translate(400.048828 0)"/>
      </g>
     </g>
    </g>
    <g id="xtick_3">
     <g id="text_3">
      <!-- Verão -->
      <g style="fill: #262626" transform="translate(539.531953 401.831094) scale(0.11 -0.11)">
       <defs>
        <path id="ArialMT-56" d="M 1803 0 
L 28 4581 
L 684 4581 
L 1875 1253 
Q 2019 853 2116 503 
Q 2222 878 2363 1253 
L 3600 4581 
L 4219 4581 
L 2425 0 
L 1803 0 
z
" transform="scale(0.015625)"/>
        <path id="ArialMT-e3" d="M 2588 409 
Q 2275 144 1986 34 
Q 1697 -75 1366 -75 
Q 819 -75 525 192 
Q 231 459 231 875 
Q 231 1119 342 1320 
Q 453 1522 633 1644 
Q 813 1766 1038 1828 
Q 1203 1872 1538 1913 
Q 2219 1994 2541 2106 
Q 2544 2222 2544 2253 
Q 2544 2597 2384 2738 
Q 2169 2928 1744 2928 
Q 1347 2928 1158 2789 
Q 969 2650 878 2297 
L 328 2372 
Q 403 2725 575 2942 
Q 747 3159 1072 3276 
Q 1397 3394 1825 3394 
Q 2250 3394 2515 3294 
Q 2781 3194 2906 3042 
Q 3031 2891 3081 2659 
Q 3109 2516 3109 2141 
L 3109 1391 
Q 3109 606 3145 398 
Q 3181 191 3288 0 
L 2700 0 
Q 2613 175 2588 409 
z
M 2541 1666 
Q 2234 1541 1622 1453 
Q 1275 1403 1131 1340 
Q 988 1278 909 1158 
Q 831 1038 831 891 
Q 831 666 1001 516 
Q 1172 366 1500 366 
Q 1825 366 2078 508 
Q 2331 650 2450 897 
Q 2541 1088 2541 1459 
L 2541 1666 
z
M 716 3809 
Q 713 4134 894 4328 
Q 1072 4522 1350 4522 
Q 1544 4522 1878 4353 
Q 2063 4259 2172 4259 
Q 2272 4259 2325 4314 
Q 2378 4369 2400 4531 
L 2806 4531 
Q 2797 4175 2626 3997 
Q 2456 3819 2194 3819 
Q 1997 3819 1675 3994 
Q 1466 4106 1369 4106 
Q 1263 4106 1197 4031 
Q 1128 3956 1131 3809 
L 716 3809 
z
" transform="scale(0.015625)"/>
       </defs>
       <use xlink:href="#ArialMT-56"/>
       <use xlink:href="#ArialMT-65" transform="translate(61.199219 0)"/>
       <use xlink:href="#ArialMT-72" transform="translate(116.814453 0)"/>
       <use xlink:href="#ArialMT-e3" transform="translate(150.115234 0)"/>
       <use xlink:href="#ArialMT-6f" transform="translate(205.730469 0)"/>
      </g>
     </g>
    </g>
    <g id="xtick_4">
     <g id="text_4">
      <!-- Outono -->
      <g style="fill: #262626" transform="translate(733.955 401.831094) scale(0.11 -0.11)">
       <defs>
        <path id="ArialMT-4f" d="M 309 2231 
Q 309 3372 921 4017 
Q 1534 4663 2503 4663 
Q 3138 4663 3647 4359 
Q 4156 4056 4423 3514 
Q 4691 2972 4691 2284 
Q 4691 1588 4409 1038 
Q 4128 488 3612 205 
Q 3097 -78 2500 -78 
Q 1853 -78 1343 234 
Q 834 547 571 1087 
Q 309 1628 309 2231 
z
M 934 2222 
Q 934 1394 1379 917 
Q 1825 441 2497 441 
Q 3181 441 3623 922 
Q 4066 1403 4066 2288 
Q 4066 2847 3877 3264 
Q 3688 3681 3323 3911 
Q 2959 4141 2506 4141 
Q 1863 4141 1398 3698 
Q 934 3256 934 2222 
z
" transform="scale(0.015625)"/>
        <path id="ArialMT-75" d="M 2597 0 
L 2597 488 
Q 2209 -75 1544 -75 
Q 1250 -75 995 37 
Q 741 150 617 320 
Q 494 491 444 738 
Q 409 903 409 1263 
L 409 3319 
L 972 3319 
L 972 1478 
Q 972 1038 1006 884 
Q 1059 663 1231 536 
Q 1403 409 1656 409 
Q 1909 409 2131 539 
Q 2353 669 2445 892 
Q 2538 1116 2538 1541 
L 2538 3319 
L 3100 3319 
L 3100 0 
L 2597 0 
z
" transform="scale(0.015625)"/>
        <path id="ArialMT-74" d="M 1650 503 
L 1731 6 
Q 1494 -44 1306 -44 
Q 1000 -44 831 53 
Q 663 150 594 308 
Q 525 466 525 972 
L 525 2881 
L 113 2881 
L 113 3319 
L 525 3319 
L 525 4141 
L 1084 4478 
L 1084 3319 
L 1650 3319 
L 1650 2881 
L 1084 2881 
L 1084 941 
Q 1084 700 1114 631 
Q 1144 563 1211 522 
Q 1278 481 1403 481 
Q 1497 481 1650 503 
z
" transform="scale(0.015625)"/>
       </defs>
       <use xlink:href="#ArialMT-4f"/>
       <use xlink:href="#ArialMT-75" transform="translate(77.783203 0)"/>
       <use xlink:href="#ArialMT-74" transform="translate(133.398438 0)"/>
       <use xlink:href="#ArialMT-6f" transform="translate(161.181641 0)"/>
       <use xlink:href="#ArialMT-6e" transform="translate(216.796875 0)"/>
       <use xlink:href="#ArialMT-6f" transform="translate(272.412109 0)"/>
      </g>
     </g>
    </g>
    <g id="text_5">
     <!-- Estação -->
     <g style="fill: #262626" transform="translate(433.18125 416.606719) scale(0.12 -0.12)">
      <defs>
       <path id="ArialMT-45" d="M 506 0 
L 506 4581 
L 3819 4581 
L 3819 4041 
L 1113 4041 
L 1113 2638 
L 3647 2638 
L 3647 2100 
L 1113 2100 
L 1113 541 
L 3925 541 
L 3925 0 
L 506 0 
z
" transform="scale(0.015625)"/>
       <path id="ArialMT-73" d="M 197 991 
L 753 1078 
Q 800 744 1014 566 
Q 1228 388 1613 388 
Q 2000 388 2187 545 
Q 2375 703 2375 916 
Q 2375 1106 2209 1216 
Q 2094 1291 1634 1406 
Q 1016 1563 777 1677 
Q 538 1791 414 1992 
Q 291 2194 291 2438 
Q 291 2659 392 2848 
Q 494 3038 669 3163 
Q 800 3259 1026 3326 
Q 1253 3394 1513 3394 
Q 1903 3394 2198 3281 
Q 2494 3169 2634 2976 
Q 2775 2784 2828 2463 
L 2278 2388 
Q 2241 2644 2061 2787 
Q 1881 2931 1553 2931 
Q 1166 2931 1000 2803 
Q 834 2675 834 2503 
Q 834 2394 903 2306 
Q 972 2216 1119 2156 
Q 1203 2125 1616 2013 
Q 2213 1853 2448 1751 
Q 2684 1650 2818 1456 
Q 2953 1263 2953 975 
Q 2953 694 2789 445 
Q 2625 197 2315 61 
Q 2006 -75 1616 -75 
Q 969 -75 630 194 
Q 291 463 197 991 
z
" transform="scale(0.015625)"/>
       <path id="ArialMT-e7" d="M 2588 1216 
L 3141 1144 
Q 3050 572 2676 248 
Q 2303 -75 1759 -75 
Q 1078 -75 664 370 
Q 250 816 250 1647 
Q 250 2184 428 2587 
Q 606 2991 970 3192 
Q 1334 3394 1763 3394 
Q 2303 3394 2647 3120 
Q 2991 2847 3088 2344 
L 2541 2259 
Q 2463 2594 2264 2762 
Q 2066 2931 1784 2931 
Q 1359 2931 1093 2626 
Q 828 2322 828 1663 
Q 828 994 1084 691 
Q 1341 388 1753 388 
Q 2084 388 2306 591 
Q 2528 794 2588 1216 
z
M 1284 -418 
L 1447 135 
L 1866 135 
L 1763 -200 
Q 2028 -231 2162 -363 
Q 2297 -496 2297 -659 
Q 2297 -893 2072 -1073 
Q 1847 -1253 1394 -1253 
Q 1138 -1253 944 -1215 
L 978 -850 
Q 1178 -862 1272 -862 
Q 1566 -862 1684 -781 
Q 1775 -718 1775 -628 
Q 1775 -571 1739 -527 
Q 1703 -484 1606 -452 
Q 1509 -421 1284 -418 
z
" transform="scale(0.015625)"/>
      </defs>
      <use xlink:href="#ArialMT-45"/>
      <use xlink:href="#ArialMT-73" transform="translate(66.699219 0)"/>
      <use xlink:href="#ArialMT-74" transform="translate(116.699219 0)"/>
      <use xlink:href="#ArialMT-61" transform="translate(144.482422 0)"/>
      <use xlink:href="#ArialMT-e7" transform="translate(200.097656 0)"/>
      <use xlink:href="#ArialMT-e3" transform="translate(250.097656 0)"/>
      <use xlink:href="#ArialMT-6f" transform="translate(305.712891 0)"/>
     </g>
    </g>
   </g>
   <g id="matplotlib.axis_2">
    <g id="ytick_1">
     <g id="line2d_1">
      <path d="M 58.68 368.334886 
L 851.04 368.334886 
" clip-path="url(#pbbe09a7230)" style="fill: none; stroke: #cccccc; stroke-linecap: round"/>
     </g>
     <g id="text_6">
      <!-- 0.0 -->
      <g style="fill: #262626" transform="translate(33.89 372.271683) scale(0.11 -0.11)">
       <defs>
        <path id="ArialMT-30" d="M 266 2259 
Q 266 3072 433 3567 
Q 600 4063 929 4331 
Q 1259 4600 1759 4600 
Q 2128 4600 2406 4451 
Q 2684 4303 2865 4023 
Q 3047 3744 3150 3342 
Q 3253 2941 3253 2259 
Q 3253 1453 3087 958 
Q 2922 463 2592 192 
Q 2263 -78 1759 -78 
Q 1097 -78 719 397 
Q 266 969 266 2259 
z
M 844 2259 
Q 844 1131 1108 757 
Q 1372 384 1759 384 
Q 2147 384 2411 759 
Q 2675 1134 2675 2259 
Q 2675 3391 2411 3762 
Q 2147 4134 1753 4134 
Q 1366 4134 1134 3806 
Q 844 3388 844 2259 
z
" transform="scale(0.015625)"/>
        <path id="ArialMT-2e" d="M 581 0 
L 581 641 
L 1222 641 
L 1222 0 
L 581 0 
z
" transform="scale(0.015625)"/>
       </defs>
       <use xlink:href="#ArialMT-30"/>
       <use xlink:href="#ArialMT-2e" transform="translate(55.615234 0)"/>
       <use xlink:href="#ArialMT-30" transform="translate(83.398438 0)"/>
      </g>
     </g>
    </g>
    <g id="ytick_2">
     <g id="line2d_2">
      <path d="M 58.68 323.549848 
L 851.04 323.549848 
" clip-path="url(#pbbe09a7230)" style="fill: none; stroke: #cccccc; stroke-linecap: round"/>
     </g>
     <g id="text_7">
      <!-- 2.5 -->
      <g style="fill: #262626" transform="translate(33.89 327.486645) scale(0.11 -0.11)">
       <defs>
        <path id="ArialMT-32" d="M 3222 541 
L 3222 0 
L 194 0 
Q 188 203 259 391 
Q 375 700 629 1000 
Q 884 1300 1366 1694 
Q 2113 2306 2375 2664 
Q 2638 3022 2638 3341 
Q 2638 3675 2398 3904 
Q 2159 4134 1775 4134 
Q 1369 4134 1125 3890 
Q 881 3647 878 3216 
L 300 3275 
Q 359 3922 746 4261 
Q 1134 4600 1788 4600 
Q 2447 4600 2831 4234 
Q 3216 3869 3216 3328 
Q 3216 3053 3103 2787 
Q 2991 2522 2730 2228 
Q 2469 1934 1863 1422 
Q 1356 997 1212 845 
Q 1069 694 975 541 
L 3222 541 
z
" transform="scale(0.015625)"/>
        <path id="ArialMT-35" d="M 266 1200 
L 856 1250 
Q 922 819 1161 601 
Q 1400 384 1738 384 
Q 2144 384 2425 690 
Q 2706 997 2706 1503 
Q 2706 1984 2436 2262 
Q 2166 2541 1728 2541 
Q 1456 2541 1237 2417 
Q 1019 2294 894 2097 
L 366 2166 
L 809 4519 
L 3088 4519 
L 3088 3981 
L 1259 3981 
L 1013 2750 
Q 1425 3038 1878 3038 
Q 2478 3038 2890 2622 
Q 3303 2206 3303 1553 
Q 3303 931 2941 478 
Q 2500 -78 1738 -78 
Q 1113 -78 717 272 
Q 322 622 266 1200 
z
" transform="scale(0.015625)"/>
       </defs>
       <use xlink:href="#ArialMT-32"/>
       <use xlink:href="#ArialMT-2e" transform="translate(55.615234 0)"/>
       <use xlink:href="#ArialMT-35" transform="translate(83.398438 0)"/>
      </g>
     </g>
    </g>
    <g id="ytick_3">
     <g id="line2d_3">
      <path d="M 58.68 278.764811 
L 851.04 278.764811 
" clip-path="url(#pbbe09a7230)" style="fill: none; stroke: #cccccc; stroke-linecap: round"/>
     </g>
     <g id="text_8">
      <!-- 5.0 -->
      <g style="fill: #262626" transform="translate(33.89 282.701607) scale(0.11 -0.11)">
       <use xlink:href="#ArialMT-35"/>
       <use xlink:href="#ArialMT-2e" transform="translate(55.615234 0)"/>
       <use xlink:href="#ArialMT-30" transform="translate(83.398438 0)"/>
      </g>
     </g>
    </g>
    <g id="ytick_4">
     <g id="line2d_4">
      <path d="M 58.68 233.979773 
L 851.04 233.979773 
" clip-path="url(#pbbe09a7230)" style="fill: none; stroke: #cccccc; stroke-linecap: round"/>
     </g>
     <g id="text_9">
      <!-- 7.5 -->
      <g style="fill: #262626" transform="translate(33.89 237.91657) scale(0.11 -0.11)">
       <defs>
        <path id="ArialMT-37" d="M 303 3981 
L 303 4522 
L 3269 4522 
L 3269 4084 
Q 2831 3619 2401 2847 
Q 1972 2075 1738 1259 
Q 1569 684 1522 0 
L 944 0 
Q 953 541 1156 1306 
Q 1359 2072 1739 2783 
Q 2119 3494 2547 3981 
L 303 3981 
z
" transform="scale(0.015625)"/>
       </defs>
       <use xlink:href="#ArialMT-37"/>
       <use xlink:href="#ArialMT-2e" transform="translate(55.615234 0)"/>
       <use xlink:href="#ArialMT-35" transform="translate(83.398438 0)"/>
      </g>
     </g>
    </g>
    <g id="ytick_5">
     <g id="line2d_5">
      <path d="M 58.68 189.194735 
L 851.04 189.194735 
" clip-path="url(#pbbe09a7230)" style="fill: none; stroke: #cccccc; stroke-linecap: round"/>
     </g>
     <g id="text_10">
      <!-- 10.0 -->
      <g style="fill: #262626" transform="translate(27.772969 193.131532) scale(0.11 -0.11)">
       <defs>
        <path id="ArialMT-31" d="M 2384 0 
L 1822 0 
L 1822 3584 
Q 1619 3391 1289 3197 
Q 959 3003 697 2906 
L 697 3450 
Q 1169 3672 1522 3987 
Q 1875 4303 2022 4600 
L 2384 4600 
L 2384 0 
z
" transform="scale(0.015625)"/>
       </defs>
       <use xlink:href="#ArialMT-31"/>
       <use xlink:href="#ArialMT-30" transform="translate(55.615234 0)"/>
       <use xlink:href="#ArialMT-2e" transform="translate(111.230469 0)"/>
       <use xlink:href="#ArialMT-30" transform="translate(139.013672 0)"/>
      </g>
     </g>
    </g>
    <g id="ytick_6">
     <g id="line2d_6">
      <path d="M 58.68 144.409697 
L 851.04 144.409697 
" clip-path="url(#pbbe09a7230)" style="fill: none; stroke: #cccccc; stroke-linecap: round"/>
     </g>
     <g id="text_11">
      <!-- 12.5 -->
      <g style="fill: #262626" transform="translate(27.772969 148.346494) scale(0.11 -0.11)">
       <use xlink:href="#ArialMT-31"/>
       <use xlink:href="#ArialMT-32" transform="translate(55.615234 0)"/>
       <use xlink:href="#ArialMT-2e" transform="translate(111.230469 0)"/>
       <use xlink:href="#ArialMT-35" transform="translate(139.013672 0)"/>
      </g>
     </g>
    </g>
    <g id="ytick_7">
     <g id="line2d_7">
      <path d="M 58.68 99.624659 
L 851.04 99.624659 
" clip-path="url(#pbbe09a7230)" style="fill: none; stroke: #cccccc; stroke-linecap: round"/>
     </g>
     <g id="text_12">
      <!-- 15.0 -->
      <g style="fill: #262626" transform="translate(27.772969 103.561456) scale(0.11 -0.11)">
       <use xlink:href="#ArialMT-31"/>
       <use xlink:href="#ArialMT-35" transform="translate(55.615234 0)"/>
       <use xlink:href="#ArialMT-2e" transform="translate(111.230469 0)"/>
       <use xlink:href="#ArialMT-30" transform="translate(139.013672 0)"/>
      </g>
     </g>
    </g>
    <g id="ytick_8">
     <g id="line2d_8">
      <path d="M 58.68 54.839621 
L 851.04 54.839621 
" clip-path="url(#pbbe09a7230)" style="fill: none; stroke: #cccccc; stroke-linecap: round"/>
     </g>
     <g id="text_13">
      <!-- 17.5 -->
      <g style="fill: #262626" transform="translate(27.772969 58.776418) scale(0.11 -0.11)">
       <use xlink:href="#ArialMT-31"/>
       <use xlink:href="#ArialMT-37" transform="translate(55.615234 0)"/>
       <use xlink:href="#ArialMT-2e" transform="translate(111.230469 0)"/>
       <use xlink:href="#ArialMT-35" transform="translate(139.013672 0)"/>
      </g>
     </g>
    </g>
    <g id="text_14">
     <!-- Velocidade do vento -->
     <g style="fill: #262626" transform="translate(21.387969 261.15) rotate(-90) scale(0.12 -0.12)">
      <defs>
       <path id="ArialMT-6c" d="M 409 0 
L 409 4581 
L 972 4581 
L 972 0 
L 409 0 
z
" transform="scale(0.015625)"/>
       <path id="ArialMT-63" d="M 2588 1216 
L 3141 1144 
Q 3050 572 2676 248 
Q 2303 -75 1759 -75 
Q 1078 -75 664 370 
Q 250 816 250 1647 
Q 250 2184 428 2587 
Q 606 2991 970 3192 
Q 1334 3394 1763 3394 
Q 2303 3394 2647 3120 
Q 2991 2847 3088 2344 
L 2541 2259 
Q 2463 2594 2264 2762 
Q 2066 2931 1784 2931 
Q 1359 2931 1093 2626 
Q 828 2322 828 1663 
Q 828 994 1084 691 
Q 1341 388 1753 388 
Q 2084 388 2306 591 
Q 2528 794 2588 1216 
z
" transform="scale(0.015625)"/>
       <path id="ArialMT-64" d="M 2575 0 
L 2575 419 
Q 2259 -75 1647 -75 
Q 1250 -75 917 144 
Q 584 363 401 755 
Q 219 1147 219 1656 
Q 219 2153 384 2558 
Q 550 2963 881 3178 
Q 1213 3394 1622 3394 
Q 1922 3394 2156 3267 
Q 2391 3141 2538 2938 
L 2538 4581 
L 3097 4581 
L 3097 0 
L 2575 0 
z
M 797 1656 
Q 797 1019 1065 703 
Q 1334 388 1700 388 
Q 2069 388 2326 689 
Q 2584 991 2584 1609 
Q 2584 2291 2321 2609 
Q 2059 2928 1675 2928 
Q 1300 2928 1048 2622 
Q 797 2316 797 1656 
z
" transform="scale(0.015625)"/>
       <path id="ArialMT-20" transform="scale(0.015625)"/>
      </defs>
      <use xlink:href="#ArialMT-56"/>
      <use xlink:href="#ArialMT-65" transform="translate(61.199219 0)"/>
      <use xlink:href="#ArialMT-6c" transform="translate(116.814453 0)"/>
      <use xlink:href="#ArialMT-6f" transform="translate(139.03125 0)"/>
      <use xlink:href="#ArialMT-63" transform="translate(194.646484 0)"/>
      <use xlink:href="#ArialMT-69" transform="translate(244.646484 0)"/>
      <use xlink:href="#ArialMT-64" transform="translate(266.863281 0)"/>
      <use xlink:href="#ArialMT-61" transform="translate(322.478516 0)"/>
      <use xlink:href="#ArialMT-64" transform="translate(378.09375 0)"/>
      <use xlink:href="#ArialMT-65" transform="translate(433.708984 0)"/>
      <use xlink:href="#ArialMT-20" transform="translate(489.324219 0)"/>
      <use xlink:href="#ArialMT-64" transform="translate(517.107422 0)"/>
      <use xlink:href="#ArialMT-6f" transform="translate(572.722656 0)"/>
      <use xlink:href="#ArialMT-20" transform="translate(628.337891 0)"/>
      <use xlink:href="#ArialMT-76" transform="translate(656.121094 0)"/>
      <use xlink:href="#ArialMT-65" transform="translate(706.121094 0)"/>
      <use xlink:href="#ArialMT-6e" transform="translate(761.736328 0)"/>
      <use xlink:href="#ArialMT-74" transform="translate(817.351562 0)"/>
      <use xlink:href="#ArialMT-6f" transform="translate(845.134766 0)"/>
     </g>
    </g>
   </g>
   <g id="FillBetweenPolyCollection_1">
    <defs>
     <path id="mb6ab225afa" d="M 171.604029 -63.665114 
L 143.845971 -63.665114 
L 142.023326 -66.922207 
L 137.87692 -70.179301 
L 128.495973 -73.436395 
L 115.375662 -76.693488 
L 105.319125 -79.950582 
L 104.956331 -83.207676 
L 113.941745 -86.464769 
L 125.10277 -89.721863 
L 131.661838 -92.978957 
L 133.04794 -96.23605 
L 133.493609 -99.493144 
L 136.386955 -102.750238 
L 141.033841 -106.007331 
L 144.502989 -109.264425 
L 145.371213 -112.521519 
L 144.985375 -115.778612 
L 145.481791 -119.035706 
L 147.333637 -122.2928 
L 149.15045 -125.549893 
L 149.571164 -128.806987 
L 148.850347 -132.064081 
L 148.43615 -135.321174 
L 149.241308 -138.578268 
L 150.669192 -141.835362 
L 151.428709 -145.092455 
L 151.057017 -148.349549 
L 150.379396 -151.606643 
L 150.483844 -154.863736 
L 151.469889 -158.12083 
L 152.406223 -161.377924 
L 152.463074 -164.635017 
L 151.850471 -167.892111 
L 151.523944 -171.149205 
L 152.069983 -174.406298 
L 153.079443 -177.663392 
L 153.684034 -180.920486 
L 153.551698 -184.177579 
L 153.191198 -187.434673 
L 153.306086 -190.691767 
L 154.005803 -193.94886 
L 154.758813 -197.205954 
L 155.049374 -200.463048 
L 154.922026 -203.720141 
L 154.843953 -206.977235 
L 155.1366 -210.234329 
L 155.651848 -213.491422 
L 156.007561 -216.748516 
L 156.038709 -220.00561 
L 155.942448 -223.262703 
L 156.01391 -226.519797 
L 156.321178 -229.77689 
L 156.676191 -233.033984 
L 156.877893 -236.291078 
L 156.914538 -239.548171 
L 156.925755 -242.805265 
L 157.021825 -246.062359 
L 157.179129 -249.319452 
L 157.300554 -252.576546 
L 157.337569 -255.83364 
L 157.331793 -259.090733 
L 157.352683 -262.347827 
L 157.420146 -265.604921 
L 157.49608 -268.862014 
L 157.538061 -272.119108 
L 157.544501 -275.376202 
L 157.546892 -278.633295 
L 157.570398 -281.890389 
L 157.61078 -285.147483 
L 157.646839 -288.404576 
L 157.665792 -291.66167 
L 157.672274 -294.918764 
L 157.677771 -298.175857 
L 157.687521 -301.432951 
L 157.69828 -304.690045 
L 157.705141 -307.947138 
L 157.707437 -311.204232 
L 157.708194 -314.461326 
L 157.709904 -317.718419 
L 157.712073 -320.975513 
L 157.712681 -324.232607 
L 157.711183 -327.4897 
L 157.709487 -330.746794 
L 157.710037 -334.003888 
L 157.713356 -337.260981 
L 157.717827 -340.518075 
L 157.721521 -343.775169 
L 157.723673 -347.032262 
L 157.724602 -350.289356 
L 157.724906 -353.54645 
L 157.724982 -356.803543 
L 157.724991 -360.060637 
L 157.724958 -363.317731 
L 157.724801 -366.574824 
L 157.724251 -369.831918 
L 157.722786 -373.089012 
L 157.719855 -376.346105 
L 157.715603 -379.603199 
L 157.711512 -382.860293 
L 157.709785 -386.117386 
L 157.740215 -386.117386 
L 157.740215 -386.117386 
L 157.738488 -382.860293 
L 157.734397 -379.603199 
L 157.730145 -376.346105 
L 157.727214 -373.089012 
L 157.725749 -369.831918 
L 157.725199 -366.574824 
L 157.725042 -363.317731 
L 157.725009 -360.060637 
L 157.725018 -356.803543 
L 157.725094 -353.54645 
L 157.725398 -350.289356 
L 157.726327 -347.032262 
L 157.728479 -343.775169 
L 157.732173 -340.518075 
L 157.736644 -337.260981 
L 157.739963 -334.003888 
L 157.740513 -330.746794 
L 157.738817 -327.4897 
L 157.737319 -324.232607 
L 157.737927 -320.975513 
L 157.740096 -317.718419 
L 157.741806 -314.461326 
L 157.742563 -311.204232 
L 157.744859 -307.947138 
L 157.75172 -304.690045 
L 157.762479 -301.432951 
L 157.772229 -298.175857 
L 157.777726 -294.918764 
L 157.784208 -291.66167 
L 157.803161 -288.404576 
L 157.83922 -285.147483 
L 157.879602 -281.890389 
L 157.903108 -278.633295 
L 157.905499 -275.376202 
L 157.911939 -272.119108 
L 157.95392 -268.862014 
L 158.029854 -265.604921 
L 158.097317 -262.347827 
L 158.118207 -259.090733 
L 158.112431 -255.83364 
L 158.149446 -252.576546 
L 158.270871 -249.319452 
L 158.428175 -246.062359 
L 158.524245 -242.805265 
L 158.535462 -239.548171 
L 158.572107 -236.291078 
L 158.773809 -233.033984 
L 159.128822 -229.77689 
L 159.43609 -226.519797 
L 159.507552 -223.262703 
L 159.411291 -220.00561 
L 159.442439 -216.748516 
L 159.798152 -213.491422 
L 160.3134 -210.234329 
L 160.606047 -206.977235 
L 160.527974 -203.720141 
L 160.400626 -200.463048 
L 160.691187 -197.205954 
L 161.444197 -193.94886 
L 162.143914 -190.691767 
L 162.258802 -187.434673 
L 161.898302 -184.177579 
L 161.765966 -180.920486 
L 162.370557 -177.663392 
L 163.380017 -174.406298 
L 163.926056 -171.149205 
L 163.599529 -167.892111 
L 162.986926 -164.635017 
L 163.043777 -161.377924 
L 163.980111 -158.12083 
L 164.966156 -154.863736 
L 165.070604 -151.606643 
L 164.392983 -148.349549 
L 164.021291 -145.092455 
L 164.780808 -141.835362 
L 166.208692 -138.578268 
L 167.01385 -135.321174 
L 166.599653 -132.064081 
L 165.878836 -128.806987 
L 166.29955 -125.549893 
L 168.116363 -122.2928 
L 169.968209 -119.035706 
L 170.464625 -115.778612 
L 170.078787 -112.521519 
L 170.947011 -109.264425 
L 174.416159 -106.007331 
L 179.063045 -102.750238 
L 181.956391 -99.493144 
L 182.40206 -96.23605 
L 183.788162 -92.978957 
L 190.34723 -89.721863 
L 201.508255 -86.464769 
L 210.493669 -83.207676 
L 210.130875 -79.950582 
L 200.074338 -76.693488 
L 186.954027 -73.436395 
L 177.57308 -70.179301 
L 173.426674 -66.922207 
L 171.604029 -63.665114 
z
" style="stroke: #4c4c4c; stroke-width: 1.25"/>
    </defs>
    <g clip-path="url(#pbbe09a7230)">
     <use xlink:href="#mb6ab225afa" x="0" y="432" style="fill: #5875a4; stroke: #4c4c4c; stroke-width: 1.25"/>
    </g>
   </g>
   <g id="FillBetweenPolyCollection_2">
    <defs>
     <path id="mdda1bf9b48" d="M 362.968994 -63.665114 
L 348.661006 -63.665114 
L 347.850723 -66.741258 
L 345.574795 -69.817402 
L 339.578307 -72.893546 
L 330.008659 -75.96969 
L 320.971792 -79.045834 
L 317.875714 -82.121978 
L 322.073709 -85.198122 
L 328.87862 -88.274266 
L 331.923609 -91.35041 
L 329.295778 -94.426554 
L 325.016155 -97.502698 
L 324.601899 -100.578842 
L 329.415144 -103.654986 
L 335.660198 -106.73113 
L 338.690908 -109.807274 
L 337.596437 -112.883418 
L 335.509469 -115.959562 
L 335.949429 -119.035706 
L 339.222989 -122.11185 
L 342.476634 -125.187994 
L 342.973054 -128.264138 
L 340.921776 -131.340282 
L 339.100613 -134.416426 
L 339.894892 -137.49257 
L 342.898634 -140.568714 
L 345.549784 -143.644858 
L 345.898611 -146.721002 
L 344.46848 -149.797146 
L 343.485755 -152.87329 
L 344.500101 -155.949434 
L 346.905385 -159.025578 
L 348.793846 -162.101722 
L 349.000509 -165.177866 
L 348.130857 -168.25401 
L 347.730689 -171.330154 
L 348.644524 -174.406298 
L 350.271261 -177.482442 
L 351.362947 -180.558586 
L 351.346808 -183.63473 
L 350.786635 -186.710874 
L 350.67944 -189.787018 
L 351.426621 -192.863162 
L 352.532343 -195.939306 
L 353.231868 -199.01545 
L 353.267516 -202.091594 
L 353.032828 -205.167738 
L 353.076427 -208.243882 
L 353.54897 -211.320026 
L 354.133944 -214.39617 
L 354.446057 -217.472314 
L 354.416253 -220.548458 
L 354.298814 -223.624602 
L 354.372913 -226.700746 
L 354.676786 -229.77689 
L 355.023856 -232.853035 
L 355.22749 -235.929179 
L 355.267069 -239.005323 
L 355.257249 -242.081467 
L 355.305541 -245.157611 
L 355.416542 -248.233755 
L 355.51772 -251.309899 
L 355.551827 -254.386043 
L 355.532145 -257.462187 
L 355.518191 -260.538331 
L 355.552132 -263.614475 
L 355.623834 -266.690619 
L 355.69262 -269.766763 
L 355.730988 -272.842907 
L 355.742534 -275.919051 
L 355.746946 -278.995195 
L 355.757383 -282.071339 
L 355.772161 -285.147483 
L 355.782632 -288.223627 
L 355.784666 -291.299771 
L 355.782171 -294.375915 
L 355.781668 -297.452059 
L 355.785039 -300.528203 
L 355.787881 -303.604347 
L 355.784748 -306.680491 
L 355.775748 -309.756635 
L 355.767632 -312.832779 
L 355.767712 -315.908923 
L 355.776697 -318.985067 
L 355.788353 -322.061211 
L 355.796 -325.137355 
L 355.79814 -328.213499 
L 355.798076 -331.289643 
L 355.799568 -334.365787 
L 355.803515 -337.441931 
L 355.808241 -340.518075 
L 355.811869 -343.594219 
L 355.813795 -346.670363 
L 355.814297 -349.746507 
L 355.813445 -352.822651 
L 355.81051 -355.898795 
L 355.804426 -358.974939 
L 355.795474 -362.051083 
L 355.786784 -365.127227 
L 355.7831 -368.203371 
L 355.8469 -368.203371 
L 355.8469 -368.203371 
L 355.843216 -365.127227 
L 355.834526 -362.051083 
L 355.825574 -358.974939 
L 355.81949 -355.898795 
L 355.816555 -352.822651 
L 355.815703 -349.746507 
L 355.816205 -346.670363 
L 355.818131 -343.594219 
L 355.821759 -340.518075 
L 355.826485 -337.441931 
L 355.830432 -334.365787 
L 355.831924 -331.289643 
L 355.83186 -328.213499 
L 355.834 -325.137355 
L 355.841647 -322.061211 
L 355.853303 -318.985067 
L 355.862288 -315.908923 
L 355.862368 -312.832779 
L 355.854252 -309.756635 
L 355.845252 -306.680491 
L 355.842119 -303.604347 
L 355.844961 -300.528203 
L 355.848332 -297.452059 
L 355.847829 -294.375915 
L 355.845334 -291.299771 
L 355.847368 -288.223627 
L 355.857839 -285.147483 
L 355.872617 -282.071339 
L 355.883054 -278.995195 
L 355.887466 -275.919051 
L 355.899012 -272.842907 
L 355.93738 -269.766763 
L 356.006166 -266.690619 
L 356.077868 -263.614475 
L 356.111809 -260.538331 
L 356.097855 -257.462187 
L 356.078173 -254.386043 
L 356.11228 -251.309899 
L 356.213458 -248.233755 
L 356.324459 -245.157611 
L 356.372751 -242.081467 
L 356.362931 -239.005323 
L 356.40251 -235.929179 
L 356.606144 -232.853035 
L 356.953214 -229.77689 
L 357.257087 -226.700746 
L 357.331186 -223.624602 
L 357.213747 -220.548458 
L 357.183943 -217.472314 
L 357.496056 -214.39617 
L 358.08103 -211.320026 
L 358.553573 -208.243882 
L 358.597172 -205.167738 
L 358.362484 -202.091594 
L 358.398132 -199.01545 
L 359.097657 -195.939306 
L 360.203379 -192.863162 
L 360.95056 -189.787018 
L 360.843365 -186.710874 
L 360.283192 -183.63473 
L 360.267053 -180.558586 
L 361.358739 -177.482442 
L 362.985476 -174.406298 
L 363.899311 -171.330154 
L 363.499143 -168.25401 
L 362.629491 -165.177866 
L 362.836154 -162.101722 
L 364.724615 -159.025578 
L 367.129899 -155.949434 
L 368.144245 -152.87329 
L 367.16152 -149.797146 
L 365.731389 -146.721002 
L 366.080216 -143.644858 
L 368.731366 -140.568714 
L 371.735108 -137.49257 
L 372.529387 -134.416426 
L 370.708224 -131.340282 
L 368.656946 -128.264138 
L 369.153366 -125.187994 
L 372.407011 -122.11185 
L 375.680571 -119.035706 
L 376.120531 -115.959562 
L 374.033563 -112.883418 
L 372.939092 -109.807274 
L 375.969802 -106.73113 
L 382.214856 -103.654986 
L 387.028101 -100.578842 
L 386.613845 -97.502698 
L 382.334222 -94.426554 
L 379.706391 -91.35041 
L 382.75138 -88.274266 
L 389.556291 -85.198122 
L 393.754286 -82.121978 
L 390.658208 -79.045834 
L 381.621341 -75.96969 
L 372.051693 -72.893546 
L 366.055205 -69.817402 
L 363.779277 -66.741258 
L 362.968994 -63.665114 
z
" style="stroke: #4c4c4c; stroke-width: 1.25"/>
    </defs>
    <g clip-path="url(#pbbe09a7230)">
     <use xlink:href="#mdda1bf9b48" x="0" y="432" style="fill: #5875a4; stroke: #4c4c4c; stroke-width: 1.25"/>
    </g>
   </g>
   <g id="FillBetweenPolyCollection_3">
    <defs>
     <path id="m174fda4180" d="M 563.916217 -63.665114 
L 543.893783 -63.665114 
L 544.911271 -66.379358 
L 546.395204 -69.093603 
L 544.207925 -71.807848 
L 534.826068 -74.522093 
L 519.402155 -77.236337 
L 506.083742 -79.950582 
L 504.537536 -82.664827 
L 515.607833 -85.379071 
L 529.542617 -88.093316 
L 535.279931 -90.807561 
L 529.040654 -93.521806 
L 516.298746 -96.23605 
L 508.093277 -98.950295 
L 511.975066 -101.66454 
L 524.770646 -104.378784 
L 536.367535 -107.093029 
L 539.357313 -109.807274 
L 533.783305 -112.521519 
L 525.93498 -115.235763 
L 523.525705 -117.950008 
L 529.151423 -120.664253 
L 538.263188 -123.378497 
L 544.312044 -126.092742 
L 544.368354 -128.806987 
L 540.250676 -131.521232 
L 536.56942 -134.235476 
L 537.115323 -136.949721 
L 541.618789 -139.663966 
L 546.430801 -142.378211 
L 548.228612 -145.092455 
L 546.426469 -147.8067 
L 543.131256 -150.520945 
L 541.526886 -153.235189 
L 543.235736 -155.949434 
L 546.922187 -158.663679 
L 549.936842 -161.377924 
L 550.782939 -164.092168 
L 549.820126 -166.806413 
L 548.553821 -169.520658 
L 548.431307 -172.234902 
L 549.700001 -174.949147 
L 551.378873 -177.663392 
L 552.375436 -180.377637 
L 552.357635 -183.091881 
L 551.755518 -185.806126 
L 551.322482 -188.520371 
L 551.548592 -191.234615 
L 552.28175 -193.94886 
L 552.976407 -196.663105 
L 553.243632 -199.37735 
L 553.087336 -202.091594 
L 552.796848 -204.805839 
L 552.706164 -207.520084 
L 552.930112 -210.234329 
L 553.295258 -212.948573 
L 553.550249 -215.662818 
L 553.585574 -218.377063 
L 553.467095 -221.091307 
L 553.353461 -223.805552 
L 553.372225 -226.519797 
L 553.519392 -229.234042 
L 553.68643 -231.948286 
L 553.779138 -234.662531 
L 553.783275 -237.376776 
L 553.744923 -240.09102 
L 553.723784 -242.805265 
L 553.749435 -245.51951 
L 553.804684 -248.233755 
L 553.852915 -250.947999 
L 553.874396 -253.662244 
L 553.873602 -256.376489 
L 553.866237 -259.090733 
L 553.865701 -261.804978 
L 553.874825 -264.519223 
L 553.886786 -267.233468 
L 553.893713 -269.947712 
L 553.893181 -272.661957 
L 553.888378 -275.376202 
L 553.884996 -278.090447 
L 553.886792 -280.804691 
L 553.892705 -283.518936 
L 553.898857 -286.233181 
L 553.90273 -288.947425 
L 553.90438 -291.66167 
L 553.904875 -294.375915 
L 553.904981 -297.09016 
L 553.904998 -299.804404 
L 553.905 -302.518649 
L 553.905 -305.232894 
L 553.905 -307.947138 
L 553.904999 -310.661383 
L 553.904988 -313.375628 
L 553.904912 -316.089873 
L 553.904538 -318.804117 
L 553.903206 -321.518362 
L 553.899843 -324.232607 
L 553.894038 -326.946851 
L 553.887765 -329.661096 
L 553.884959 -332.375341 
L 553.925041 -332.375341 
L 553.925041 -332.375341 
L 553.922235 -329.661096 
L 553.915962 -326.946851 
L 553.910157 -324.232607 
L 553.906794 -321.518362 
L 553.905462 -318.804117 
L 553.905088 -316.089873 
L 553.905012 -313.375628 
L 553.905001 -310.661383 
L 553.905 -307.947138 
L 553.905 -305.232894 
L 553.905 -302.518649 
L 553.905002 -299.804404 
L 553.905019 -297.09016 
L 553.905125 -294.375915 
L 553.90562 -291.66167 
L 553.90727 -288.947425 
L 553.911143 -286.233181 
L 553.917295 -283.518936 
L 553.923208 -280.804691 
L 553.925004 -278.090447 
L 553.921622 -275.376202 
L 553.916819 -272.661957 
L 553.916287 -269.947712 
L 553.923214 -267.233468 
L 553.935175 -264.519223 
L 553.944299 -261.804978 
L 553.943763 -259.090733 
L 553.936398 -256.376489 
L 553.935604 -253.662244 
L 553.957085 -250.947999 
L 554.005316 -248.233755 
L 554.060565 -245.51951 
L 554.086216 -242.805265 
L 554.065077 -240.09102 
L 554.026725 -237.376776 
L 554.030862 -234.662531 
L 554.12357 -231.948286 
L 554.290608 -229.234042 
L 554.437775 -226.519797 
L 554.456539 -223.805552 
L 554.342905 -221.091307 
L 554.224426 -218.377063 
L 554.259751 -215.662818 
L 554.514742 -212.948573 
L 554.879888 -210.234329 
L 555.103836 -207.520084 
L 555.013152 -204.805839 
L 554.722664 -202.091594 
L 554.566368 -199.37735 
L 554.833593 -196.663105 
L 555.52825 -193.94886 
L 556.261408 -191.234615 
L 556.487518 -188.520371 
L 556.054482 -185.806126 
L 555.452365 -183.091881 
L 555.434564 -180.377637 
L 556.431127 -177.663392 
L 558.109999 -174.949147 
L 559.378693 -172.234902 
L 559.256179 -169.520658 
L 557.989874 -166.806413 
L 557.027061 -164.092168 
L 557.873158 -161.377924 
L 560.887813 -158.663679 
L 564.574264 -155.949434 
L 566.283114 -153.235189 
L 564.678744 -150.520945 
L 561.383531 -147.8067 
L 559.581388 -145.092455 
L 561.379199 -142.378211 
L 566.191211 -139.663966 
L 570.694677 -136.949721 
L 571.24058 -134.235476 
L 567.559324 -131.521232 
L 563.441646 -128.806987 
L 563.497956 -126.092742 
L 569.546812 -123.378497 
L 578.658577 -120.664253 
L 584.284295 -117.950008 
L 581.87502 -115.235763 
L 574.026695 -112.521519 
L 568.452687 -109.807274 
L 571.442465 -107.093029 
L 583.039354 -104.378784 
L 595.834934 -101.66454 
L 599.716723 -98.950295 
L 591.511254 -96.23605 
L 578.769346 -93.521806 
L 572.530069 -90.807561 
L 578.267383 -88.093316 
L 592.202167 -85.379071 
L 603.272464 -82.664827 
L 601.726258 -79.950582 
L 588.407845 -77.236337 
L 572.983932 -74.522093 
L 563.602075 -71.807848 
L 561.414796 -69.093603 
L 562.898729 -66.379358 
L 563.916217 -63.665114 
z
" style="stroke: #4c4c4c; stroke-width: 1.25"/>
    </defs>
    <g clip-path="url(#pbbe09a7230)">
     <use xlink:href="#m174fda4180" x="0" y="432" style="fill: #5875a4; stroke: #4c4c4c; stroke-width: 1.25"/>
    </g>
   </g>
   <g id="FillBetweenPolyCollection_4">
    <defs>
     <path id="ma52711cb6b" d="M 770.736968 -63.665114 
L 733.253032 -63.665114 
L 735.331313 -66.017459 
L 739.633039 -68.369804 
L 741.304244 -70.72215 
L 735.152749 -73.074495 
L 718.361463 -75.426841 
L 694.48511 -77.779186 
L 675.133709 -80.131532 
L 672.759 -82.483877 
L 688.929092 -84.836222 
L 712.455804 -87.188568 
L 729.753903 -89.540913 
L 734.165574 -91.893259 
L 726.990227 -94.245604 
L 715.081383 -96.59795 
L 707.682418 -98.950295 
L 710.716027 -101.30264 
L 722.206639 -103.654986 
L 734.750797 -106.007331 
L 742.129547 -108.359677 
L 742.645918 -110.712022 
L 738.3086 -113.064368 
L 733.211457 -115.416713 
L 731.523705 -117.769058 
L 734.719764 -120.121404 
L 740.602402 -122.473749 
L 745.589911 -124.826095 
L 747.490375 -127.17844 
L 746.213979 -129.530786 
L 743.236626 -131.883131 
L 740.882868 -134.235476 
L 741.007204 -136.587822 
L 743.580711 -138.940167 
L 746.857644 -141.292513 
L 748.990858 -143.644858 
L 749.194652 -145.997203 
L 747.791519 -148.349549 
L 745.905636 -150.701894 
L 744.951837 -153.05424 
L 745.68738 -155.406585 
L 747.605816 -157.758931 
L 749.488277 -160.111276 
L 750.427934 -162.463621 
L 750.243772 -164.815967 
L 749.333813 -167.168312 
L 748.440434 -169.520658 
L 748.26688 -171.873003 
L 748.969976 -174.225349 
L 750.067066 -176.577694 
L 750.912974 -178.930039 
L 751.165502 -181.282385 
L 750.860241 -183.63473 
L 750.302302 -185.987076 
L 749.924638 -188.339421 
L 750.027798 -190.691767 
L 750.548315 -193.044112 
L 751.147893 -195.396457 
L 751.523062 -197.748803 
L 751.579723 -200.101148 
L 751.401387 -202.453494 
L 751.170375 -204.805839 
L 751.079094 -207.158184 
L 751.206963 -209.51053 
L 751.467161 -211.862875 
L 751.701146 -214.215221 
L 751.807015 -216.567566 
L 751.776529 -218.919912 
L 751.668142 -221.272257 
L 751.574025 -223.624602 
L 751.570813 -225.976948 
L 751.665074 -228.329293 
L 751.796018 -230.681639 
L 751.897591 -233.033984 
L 751.945192 -235.38633 
L 751.950679 -237.738675 
L 751.93825 -240.09102 
L 751.92947 -242.443366 
L 751.93511 -244.795711 
L 751.951507 -247.148057 
L 751.965764 -249.500402 
L 751.965296 -251.852748 
L 751.944143 -254.205093 
L 751.907502 -256.557438 
L 751.873837 -258.909784 
L 751.865074 -261.262129 
L 751.887566 -263.614475 
L 751.92592 -265.96682 
L 751.958214 -268.319166 
L 751.97278 -270.671511 
L 751.970697 -273.023856 
L 751.96029 -275.376202 
L 751.952101 -277.728547 
L 751.953464 -280.080893 
L 751.963841 -282.433238 
L 751.976398 -284.785583 
L 751.98447 -287.137929 
L 751.985633 -289.490274 
L 751.981401 -291.84262 
L 751.975741 -294.194965 
L 751.973181 -296.547311 
L 752.016819 -296.547311 
L 752.016819 -296.547311 
L 752.014259 -294.194965 
L 752.008599 -291.84262 
L 752.004367 -289.490274 
L 752.00553 -287.137929 
L 752.013602 -284.785583 
L 752.026159 -282.433238 
L 752.036536 -280.080893 
L 752.037899 -277.728547 
L 752.02971 -275.376202 
L 752.019303 -273.023856 
L 752.01722 -270.671511 
L 752.031786 -268.319166 
L 752.06408 -265.96682 
L 752.102434 -263.614475 
L 752.124926 -261.262129 
L 752.116163 -258.909784 
L 752.082498 -256.557438 
L 752.045857 -254.205093 
L 752.024704 -251.852748 
L 752.024236 -249.500402 
L 752.038493 -247.148057 
L 752.05489 -244.795711 
L 752.06053 -242.443366 
L 752.05175 -240.09102 
L 752.039321 -237.738675 
L 752.044808 -235.38633 
L 752.092409 -233.033984 
L 752.193982 -230.681639 
L 752.324926 -228.329293 
L 752.419187 -225.976948 
L 752.415975 -223.624602 
L 752.321858 -221.272257 
L 752.213471 -218.919912 
L 752.182985 -216.567566 
L 752.288854 -214.215221 
L 752.522839 -211.862875 
L 752.783037 -209.51053 
L 752.910906 -207.158184 
L 752.819625 -204.805839 
L 752.588613 -202.453494 
L 752.410277 -200.101148 
L 752.466938 -197.748803 
L 752.842107 -195.396457 
L 753.441685 -193.044112 
L 753.962202 -190.691767 
L 754.065362 -188.339421 
L 753.687698 -185.987076 
L 753.129759 -183.63473 
L 752.824498 -181.282385 
L 753.077026 -178.930039 
L 753.922934 -176.577694 
L 755.020024 -174.225349 
L 755.72312 -171.873003 
L 755.549566 -169.520658 
L 754.656187 -167.168312 
L 753.746228 -164.815967 
L 753.562066 -162.463621 
L 754.501723 -160.111276 
L 756.384184 -157.758931 
L 758.30262 -155.406585 
L 759.038163 -153.05424 
L 758.084364 -150.701894 
L 756.198481 -148.349549 
L 754.795348 -145.997203 
L 754.999142 -143.644858 
L 757.132356 -141.292513 
L 760.409289 -138.940167 
L 762.982796 -136.587822 
L 763.107132 -134.235476 
L 760.753374 -131.883131 
L 757.776021 -129.530786 
L 756.499625 -127.17844 
L 758.400089 -124.826095 
L 763.387598 -122.473749 
L 769.270236 -120.121404 
L 772.466295 -117.769058 
L 770.778543 -115.416713 
L 765.6814 -113.064368 
L 761.344082 -110.712022 
L 761.860453 -108.359677 
L 769.239203 -106.007331 
L 781.783361 -103.654986 
L 793.273973 -101.30264 
L 796.307582 -98.950295 
L 788.908617 -96.59795 
L 776.999773 -94.245604 
L 769.824426 -91.893259 
L 774.236097 -89.540913 
L 791.534196 -87.188568 
L 815.060908 -84.836222 
L 831.231 -82.483877 
L 828.856291 -80.131532 
L 809.50489 -77.779186 
L 785.628537 -75.426841 
L 768.837251 -73.074495 
L 762.685756 -70.72215 
L 764.356961 -68.369804 
L 768.658687 -66.017459 
L 770.736968 -63.665114 
z
" style="stroke: #4c4c4c; stroke-width: 1.25"/>
    </defs>
    <g clip-path="url(#pbbe09a7230)">
     <use xlink:href="#ma52711cb6b" x="0" y="432" style="fill: #5875a4; stroke: #4c4c4c; stroke-width: 1.25"/>
    </g>
   </g>
   <g id="line2d_9">
    <path d="M 105.137728 350.420871 
L 210.312272 350.420871 
" clip-path="url(#pbbe09a7230)" style="fill: none; stroke-dasharray: 1.5625,0.9375; stroke-dashoffset: 0; stroke: #4c4c4c; stroke-width: 1.25"/>
   </g>
   <g id="line2d_10">
    <path d="M 133.493609 332.506856 
L 181.956391 332.506856 
" clip-path="url(#pbbe09a7230)" style="fill: none; stroke-dasharray: 3.125,1.25; stroke-dashoffset: 0; stroke: #4c4c4c; stroke-width: 1.25"/>
   </g>
   <g id="line2d_11">
    <path d="M 145.233583 314.592841 
L 170.216417 314.592841 
" clip-path="url(#pbbe09a7230)" style="fill: none; stroke-dasharray: 1.5625,0.9375; stroke-dashoffset: 0; stroke: #4c4c4c; stroke-width: 1.25"/>
   </g>
   <g id="line2d_12">
    <path d="M 318.42208 350.420871 
L 393.20792 350.420871 
" clip-path="url(#pbbe09a7230)" style="fill: none; stroke-dasharray: 1.5625,0.9375; stroke-dashoffset: 0; stroke: #4c4c4c; stroke-width: 1.25"/>
   </g>
   <g id="line2d_13">
    <path d="M 324.748107 332.506856 
L 386.881893 332.506856 
" clip-path="url(#pbbe09a7230)" style="fill: none; stroke-dasharray: 3.125,1.25; stroke-dashoffset: 0; stroke: #4c4c4c; stroke-width: 1.25"/>
   </g>
   <g id="line2d_14">
    <path d="M 339.334225 296.678826 
L 372.295775 296.678826 
" clip-path="url(#pbbe09a7230)" style="fill: none; stroke-dasharray: 1.5625,0.9375; stroke-dashoffset: 0; stroke: #4c4c4c; stroke-width: 1.25"/>
   </g>
   <g id="line2d_15">
    <path d="M 505.156019 350.420871 
L 602.653981 350.420871 
" clip-path="url(#pbbe09a7230)" style="fill: none; stroke-dasharray: 1.5625,0.9375; stroke-dashoffset: 0; stroke: #4c4c4c; stroke-width: 1.25"/>
   </g>
   <g id="line2d_16">
    <path d="M 508.869635 332.506856 
L 598.940365 332.506856 
" clip-path="url(#pbbe09a7230)" style="fill: none; stroke-dasharray: 3.125,1.25; stroke-dashoffset: 0; stroke: #4c4c4c; stroke-width: 1.25"/>
   </g>
   <g id="line2d_17">
    <path d="M 524.00756 314.592841 
L 583.80244 314.592841 
" clip-path="url(#pbbe09a7230)" style="fill: none; stroke-dasharray: 1.5625,0.9375; stroke-dashoffset: 0; stroke: #4c4c4c; stroke-width: 1.25"/>
   </g>
   <g id="line2d_18">
    <path d="M 673.67235 350.420871 
L 830.31765 350.420871 
" clip-path="url(#pbbe09a7230)" style="fill: none; stroke-dasharray: 1.5625,0.9375; stroke-dashoffset: 0; stroke: #4c4c4c; stroke-width: 1.25"/>
   </g>
   <g id="line2d_19">
    <path d="M 673.67235 350.420871 
L 830.31765 350.420871 
" clip-path="url(#pbbe09a7230)" style="fill: none; stroke-dasharray: 3.125,1.25; stroke-dashoffset: 0; stroke: #4c4c4c; stroke-width: 1.25"/>
   </g>
   <g id="line2d_20">
    <path d="M 708.382482 332.506856 
L 795.607518 332.506856 
" clip-path="url(#pbbe09a7230)" style="fill: none; stroke-dasharray: 1.5625,0.9375; stroke-dashoffset: 0; stroke: #4c4c4c; stroke-width: 1.25"/>
   </g>
   <g id="patch_3">
    <path d="M 58.68 384.4575 
L 58.68 29.76 
" style="fill: none; stroke: #cccccc; stroke-width: 1.25; stroke-linejoin: miter; stroke-linecap: square"/>
   </g>
   <g id="patch_4">
    <path d="M 851.04 384.4575 
L 851.04 29.76 
" style="fill: none; stroke: #cccccc; stroke-width: 1.25; stroke-linejoin: miter; stroke-linecap: square"/>
   </g>
   <g id="patch_5">
    <path d="M 58.68 384.4575 
L 851.04 384.4575 
" style="fill: none; stroke: #cccccc; stroke-width: 1.25; stroke-linejoin: miter; stroke-linecap: square"/>
   </g>
   <g id="patch_6">
    <path d="M 58.68 29.76 
L 851.04 29.76 
" style="fill: none; stroke: #cccccc; stroke-width: 1.25; stroke-linejoin: miter; stroke-linecap: square"/>
   </g>
   <g id="text_15">
    <!-- Velocidade do Vento por Estação do Ano - Madrid -->
    <g style="fill: #262626" transform="translate(289.336172 23.76) scale(0.15 -0.15)">
     <defs>
      <path id="ArialMT-70" d="M 422 -1272 
L 422 3319 
L 934 3319 
L 934 2888 
Q 1116 3141 1344 3267 
Q 1572 3394 1897 3394 
Q 2322 3394 2647 3175 
Q 2972 2956 3137 2557 
Q 3303 2159 3303 1684 
Q 3303 1175 3120 767 
Q 2938 359 2589 142 
Q 2241 -75 1856 -75 
Q 1575 -75 1351 44 
Q 1128 163 984 344 
L 984 -1272 
L 422 -1272 
z
M 931 1641 
Q 931 1000 1190 694 
Q 1450 388 1819 388 
Q 2194 388 2461 705 
Q 2728 1022 2728 1688 
Q 2728 2322 2467 2637 
Q 2206 2953 1844 2953 
Q 1484 2953 1207 2617 
Q 931 2281 931 1641 
z
" transform="scale(0.015625)"/>
      <path id="ArialMT-41" d="M -9 0 
L 1750 4581 
L 2403 4581 
L 4278 0 
L 3588 0 
L 3053 1388 
L 1138 1388 
L 634 0 
L -9 0 
z
M 1313 1881 
L 2866 1881 
L 2388 3150 
Q 2169 3728 2063 4100 
Q 1975 3659 1816 3225 
L 1313 1881 
z
" transform="scale(0.015625)"/>
      <path id="ArialMT-2d" d="M 203 1375 
L 203 1941 
L 1931 1941 
L 1931 1375 
L 203 1375 
z
" transform="scale(0.015625)"/>
      <path id="ArialMT-4d" d="M 475 0 
L 475 4581 
L 1388 4581 
L 2472 1338 
Q 2622 884 2691 659 
Q 2769 909 2934 1394 
L 4031 4581 
L 4847 4581 
L 4847 0 
L 4263 0 
L 4263 3834 
L 2931 0 
L 2384 0 
L 1059 3900 
L 1059 0 
L 475 0 
z
" transform="scale(0.015625)"/>
     </defs>
     <use xlink:href="#ArialMT-56"/>
     <use xlink:href="#ArialMT-65" transform="translate(61.199219 0)"/>
     <use xlink:href="#ArialMT-6c" transform="translate(116.814453 0)"/>
     <use xlink:href="#ArialMT-6f" transform="translate(139.03125 0)"/>
     <use xlink:href="#ArialMT-63" transform="translate(194.646484 0)"/>
     <use xlink:href="#ArialMT-69" transform="translate(244.646484 0)"/>
     <use xlink:href="#ArialMT-64" transform="translate(266.863281 0)"/>
     <use xlink:href="#ArialMT-61" transform="translate(322.478516 0)"/>
     <use xlink:href="#ArialMT-64" transform="translate(378.09375 0)"/>
     <use xlink:href="#ArialMT-65" transform="translate(433.708984 0)"/>
     <use xlink:href="#ArialMT-20" transform="translate(489.324219 0)"/>
     <use xlink:href="#ArialMT-64" transform="translate(517.107422 0)"/>
     <use xlink:href="#ArialMT-6f" transform="translate(572.722656 0)"/>
     <use xlink:href="#ArialMT-20" transform="translate(628.337891 0)"/>
     <use xlink:href="#ArialMT-56" transform="translate(656.121094 0)"/>
     <use xlink:href="#ArialMT-65" transform="translate(717.320312 0)"/>
     <use xlink:href="#ArialMT-6e" transform="translate(772.935547 0)"/>
     <use xlink:href="#ArialMT-74" transform="translate(828.550781 0)"/>
     <use xlink:href="#ArialMT-6f" transform="translate(856.333984 0)"/>
     <use xlink:href="#ArialMT-20" transform="translate(911.949219 0)"/>
     <use xlink:href="#ArialMT-70" transform="translate(939.732422 0)"/>
     <use xlink:href="#ArialMT-6f" transform="translate(995.347656 0)"/>
     <use xlink:href="#ArialMT-72" transform="translate(1050.962891 0)"/>
     <use xlink:href="#ArialMT-20" transform="translate(1084.263672 0)"/>
     <use xlink:href="#ArialMT-45" transform="translate(1112.046875 0)"/>
     <use xlink:href="#ArialMT-73" transform="translate(1178.746094 0)"/>
     <use xlink:href="#ArialMT-74" transform="translate(1228.746094 0)"/>
     <use xlink:href="#ArialMT-61" transform="translate(1256.529297 0)"/>
     <use xlink:href="#ArialMT-e7" transform="translate(1312.144531 0)"/>
     <use xlink:href="#ArialMT-e3" transform="translate(1362.144531 0)"/>
     <use xlink:href="#ArialMT-6f" transform="translate(1417.759766 0)"/>
     <use xlink:href="#ArialMT-20" transform="translate(1473.375 0)"/>
     <use xlink:href="#ArialMT-64" transform="translate(1501.158203 0)"/>
     <use xlink:href="#ArialMT-6f" transform="translate(1556.773438 0)"/>
     <use xlink:href="#ArialMT-20" transform="translate(1612.388672 0)"/>
     <use xlink:href="#ArialMT-41" transform="translate(1634.671875 0)"/>
     <use xlink:href="#ArialMT-6e" transform="translate(1701.371094 0)"/>
     <use xlink:href="#ArialMT-6f" transform="translate(1756.986328 0)"/>
     <use xlink:href="#ArialMT-20" transform="translate(1812.601562 0)"/>
     <use xlink:href="#ArialMT-2d" transform="translate(1840.384766 0)"/>
     <use xlink:href="#ArialMT-20" transform="translate(1873.685547 0)"/>
     <use xlink:href="#ArialMT-4d" transform="translate(1901.46875 0)"/>
     <use xlink:href="#ArialMT-61" transform="translate(1984.769531 0)"/>
     <use xlink:href="#ArialMT-64" transform="translate(2040.384766 0)"/>
     <use xlink:href="#ArialMT-72" transform="translate(2096 0)"/>
     <use xlink:href="#ArialMT-69" transform="translate(2129.300781 0)"/>
     <use xlink:href="#ArialMT-64" transform="translate(2151.517578 0)"/>
    </g>
   </g>
  </g>
 </g>
 <defs>
  <clipPath id="pbbe09a7230">
   <rect x="58.68" y="29.76" width="792.36" height="354.6975"/>
  </clipPath>
 </defs>
</svg>
