<?xml version="1.0" encoding="utf-8" standalone="no"?>
<!DOCTYPE svg PUBLIC "-//W3C//DTD SVG 1.1//EN"
  "http://www.w3.org/Graphics/SVG/1.1/DTD/svg11.dtd">
<svg xmlns:xlink="http://www.w3.org/1999/xlink" width="1152pt" height="432pt" viewBox="0 0 1152 432" xmlns="http://www.w3.org/2000/svg" version="1.1">
 <metadata>
  <rdf:RDF xmlns:dc="http://purl.org/dc/elements/1.1/" xmlns:cc="http://creativecommons.org/ns#" xmlns:rdf="http://www.w3.org/1999/02/22-rdf-syntax-ns#">
   <cc:Work>
    <dc:type rdf:resource="http://purl.org/dc/dcmitype/StillImage"/>
    <dc:date>2026-04-23T21:08:56.612407</dc:date>
    <dc:format>image/svg+xml</dc:format>
    <dc:creator>
     <cc:Agent>
      <dc:title>Matplotlib v3.10.8, https://matplotlib.org/</dc:title>
     </cc:Agent>
    </dc:creator>
   </cc:Work>
  </rdf:RDF>
 </metadata>
 <defs>
  <style type="text/css">*{stroke-linejoin: round; stroke-linecap: butt}</style>
 </defs>
 <g id="figure_1">
  <g id="patch_1">
   <path d="M 0 432 
L 1152 432 
L 1152 0 
L 0 0 
z
" style="fill: #ffffff"/>
  </g>
  <g id="axes_1">
   <g id="patch_2">
    <path d="M 67.91625 347.773968 
L 1139.04 347.773968 
L 1139.04 45.6 
L 67.91625 45.6 
z
" style="fill: #ffffff"/>
   </g>
   <g id="matplotlib.axis_1">
    <g id="xtick_1">
     <g id="line2d_1">
      <path d="M 116.603693 347.773968 
L 116.603693 45.6 
" clip-path="url(#pe5bcb9d95d)" style="fill: none; stroke: #cccccc; stroke-linecap: round"/>
     </g>
     <g id="text_1">
      <!-- 2015-01-01 -->
      <g style="fill: #262626" transform="translate(98.723007 402.624371) rotate(-45) scale(0.11 -0.11)">
       <defs>
        <path id="ArialMT-32" d="M 3222 541 
L 3222 0 
L 194 0 
Q 188 203 259 391 
Q 375 700 629 1000 
Q 884 1300 1366 1694 
Q 2113 2306 2375 2664 
Q 2638 3022 2638 3341 
Q 2638 3675 2398 3904 
Q 2159 4134 1775 4134 
Q 1369 4134 1125 3890 
Q 881 3647 878 3216 
L 300 3275 
Q 359 3922 746 4261 
Q 1134 4600 1788 4600 
Q 2447 4600 2831 4234 
Q 3216 3869 3216 3328 
Q 3216 3053 3103 2787 
Q 2991 2522 2730 2228 
Q 2469 1934 1863 1422 
Q 1356 997 1212 845 
Q 1069 694 975 541 
L 3222 541 
z
" transform="scale(0.015625)"/>
        <path id="ArialMT-30" d="M 266 2259 
Q 266 3072 433 3567 
Q 600 4063 929 4331 
Q 1259 4600 1759 4600 
Q 2128 4600 2406 4451 
Q 2684 4303 2865 4023 
Q 3047 3744 3150 3342 
Q 3253 2941 3253 2259 
Q 3253 1453 3087 958 
Q 2922 463 2592 192 
Q 2263 -78 1759 -78 
Q 1097 -78 719 397 
Q 266 969 266 2259 
z
M 844 2259 
Q 844 1131 1108 757 
Q 1372 384 1759 384 
Q 2147 384 2411 759 
Q 2675 1134 2675 2259 
Q 2675 3391 2411 3762 
Q 2147 4134 1753 4134 
Q 1366 4134 1134 3806 
Q 844 3388 844 2259 
z
" transform="scale(0.015625)"/>
        <path id="ArialMT-31" d="M 2384 0 
L 1822 0 
L 1822 3584 
Q 1619 3391 1289 3197 
Q 959 3003 697 2906 
L 697 3450 
Q 1169 3672 1522 3987 
Q 1875 4303 2022 4600 
L 2384 4600 
L 2384 0 
z
" transform="scale(0.015625)"/>
        <path id="ArialMT-35" d="M 266 1200 
L 856 1250 
Q 922 819 1161 601 
Q 1400 384 1738 384 
Q 2144 384 2425 690 
Q 2706 997 2706 1503 
Q 2706 1984 2436 2262 
Q 2166 2541 1728 2541 
Q 1456 2541 1237 2417 
Q 1019 2294 894 2097 
L 366 2166 
L 809 4519 
L 3088 4519 
L 3088 3981 
L 1259 3981 
L 1013 2750 
Q 1425 3038 1878 3038 
Q 2478 3038 2890 2622 
Q 3303 2206 3303 1553 
Q 3303 931 2941 478 
Q 2500 -78 1738 -78 
Q 1113 -78 717 272 
Q 322 622 266 1200 
z
" transform="scale(0.015625)"/>
        <path id="ArialMT-2d" d="M 203 1375 
L 203 1941 
L 1931 1941 
L 1931 1375 
L 203 1375 
z
" transform="scale(0.015625)"/>
       </defs>
       <use xlink:href="#ArialMT-32"/>
       <use xlink:href="#ArialMT-30" transform="translate(55.615234 0)"/>
       <use xlink:href="#ArialMT-31" transform="translate(111.230469 0)"/>
       <use xlink:href="#ArialMT-35" transform="translate(166.845703 0)"/>
       <use xlink:href="#ArialMT-2d" transform="translate(222.460938 0)"/>
       <use xlink:href="#ArialMT-30" transform="translate(255.761719 0)"/>
       <use xlink:href="#ArialMT-31" transform="translate(311.376953 0)"/>
       <use xlink:href="#ArialMT-2d" transform="translate(366.992188 0)"/>
       <use xlink:href="#ArialMT-30" transform="translate(400.292969 0)"/>
       <use xlink:href="#ArialMT-31" transform="translate(455.908203 0)"/>
      </g>
     </g>
    </g>
    <g id="xtick_2">
     <g id="line2d_2">
      <path d="M 242.417813 347.773968 
L 242.417813 45.6 
" clip-path="url(#pe5bcb9d95d)" style="fill: none; stroke: #cccccc; stroke-linecap: round"/>
     </g>
     <g id="text_2">
      <!-- 2015-01-05 -->
      <g style="fill: #262626" transform="translate(224.537126 402.624371) rotate(-45) scale(0.11 -0.11)">
       <use xlink:href="#ArialMT-32"/>
       <use xlink:href="#ArialMT-30" transform="translate(55.615234 0)"/>
       <use xlink:href="#ArialMT-31" transform="translate(111.230469 0)"/>
       <use xlink:href="#ArialMT-35" transform="translate(166.845703 0)"/>
       <use xlink:href="#ArialMT-2d" transform="translate(222.460938 0)"/>
       <use xlink:href="#ArialMT-30" transform="translate(255.761719 0)"/>
       <use xlink:href="#ArialMT-31" transform="translate(311.376953 0)"/>
       <use xlink:href="#ArialMT-2d" transform="translate(366.992188 0)"/>
       <use xlink:href="#ArialMT-30" transform="translate(400.292969 0)"/>
       <use xlink:href="#ArialMT-35" transform="translate(455.908203 0)"/>
      </g>
     </g>
    </g>
    <g id="xtick_3">
     <g id="line2d_3">
      <path d="M 368.231933 347.773968 
L 368.231933 45.6 
" clip-path="url(#pe5bcb9d95d)" style="fill: none; stroke: #cccccc; stroke-linecap: round"/>
     </g>
     <g id="text_3">
      <!-- 2015-01-09 -->
      <g style="fill: #262626" transform="translate(350.351246 402.624371) rotate(-45) scale(0.11 -0.11)">
       <defs>
        <path id="ArialMT-39" d="M 350 1059 
L 891 1109 
Q 959 728 1153 556 
Q 1347 384 1650 384 
Q 1909 384 2104 503 
Q 2300 622 2425 820 
Q 2550 1019 2634 1356 
Q 2719 1694 2719 2044 
Q 2719 2081 2716 2156 
Q 2547 1888 2255 1720 
Q 1963 1553 1622 1553 
Q 1053 1553 659 1965 
Q 266 2378 266 3053 
Q 266 3750 677 4175 
Q 1088 4600 1706 4600 
Q 2153 4600 2523 4359 
Q 2894 4119 3086 3673 
Q 3278 3228 3278 2384 
Q 3278 1506 3087 986 
Q 2897 466 2520 194 
Q 2144 -78 1638 -78 
Q 1100 -78 759 220 
Q 419 519 350 1059 
z
M 2653 3081 
Q 2653 3566 2395 3850 
Q 2138 4134 1775 4134 
Q 1400 4134 1122 3828 
Q 844 3522 844 3034 
Q 844 2597 1108 2323 
Q 1372 2050 1759 2050 
Q 2150 2050 2401 2323 
Q 2653 2597 2653 3081 
z
" transform="scale(0.015625)"/>
       </defs>
       <use xlink:href="#ArialMT-32"/>
       <use xlink:href="#ArialMT-30" transform="translate(55.615234 0)"/>
       <use xlink:href="#ArialMT-31" transform="translate(111.230469 0)"/>
       <use xlink:href="#ArialMT-35" transform="translate(166.845703 0)"/>
       <use xlink:href="#ArialMT-2d" transform="translate(222.460938 0)"/>
       <use xlink:href="#ArialMT-30" transform="translate(255.761719 0)"/>
       <use xlink:href="#ArialMT-31" transform="translate(311.376953 0)"/>
       <use xlink:href="#ArialMT-2d" transform="translate(366.992188 0)"/>
       <use xlink:href="#ArialMT-30" transform="translate(400.292969 0)"/>
       <use xlink:href="#ArialMT-39" transform="translate(455.908203 0)"/>
      </g>
     </g>
    </g>
    <g id="xtick_4">
     <g id="line2d_4">
      <path d="M 494.046052 347.773968 
L 494.046052 45.6 
" clip-path="url(#pe5bcb9d95d)" style="fill: none; stroke: #cccccc; stroke-linecap: round"/>
     </g>
     <g id="text_4">
      <!-- 2015-01-13 -->
      <g style="fill: #262626" transform="translate(476.165366 402.624371) rotate(-45) scale(0.11 -0.11)">
       <defs>
        <path id="ArialMT-33" d="M 269 1209 
L 831 1284 
Q 928 806 1161 595 
Q 1394 384 1728 384 
Q 2125 384 2398 659 
Q 2672 934 2672 1341 
Q 2672 1728 2419 1979 
Q 2166 2231 1775 2231 
Q 1616 2231 1378 2169 
L 1441 2663 
Q 1497 2656 1531 2656 
Q 1891 2656 2178 2843 
Q 2466 3031 2466 3422 
Q 2466 3731 2256 3934 
Q 2047 4138 1716 4138 
Q 1388 4138 1169 3931 
Q 950 3725 888 3313 
L 325 3413 
Q 428 3978 793 4289 
Q 1159 4600 1703 4600 
Q 2078 4600 2393 4439 
Q 2709 4278 2876 4000 
Q 3044 3722 3044 3409 
Q 3044 3113 2884 2869 
Q 2725 2625 2413 2481 
Q 2819 2388 3044 2092 
Q 3269 1797 3269 1353 
Q 3269 753 2831 336 
Q 2394 -81 1725 -81 
Q 1122 -81 723 278 
Q 325 638 269 1209 
z
" transform="scale(0.015625)"/>
       </defs>
       <use xlink:href="#ArialMT-32"/>
       <use xlink:href="#ArialMT-30" transform="translate(55.615234 0)"/>
       <use xlink:href="#ArialMT-31" transform="translate(111.230469 0)"/>
       <use xlink:href="#ArialMT-35" transform="translate(166.845703 0)"/>
       <use xlink:href="#ArialMT-2d" transform="translate(222.460938 0)"/>
       <use xlink:href="#ArialMT-30" transform="translate(255.761719 0)"/>
       <use xlink:href="#ArialMT-31" transform="translate(311.376953 0)"/>
       <use xlink:href="#ArialMT-2d" transform="translate(366.992188 0)"/>
       <use xlink:href="#ArialMT-31" transform="translate(400.292969 0)"/>
       <use xlink:href="#ArialMT-33" transform="translate(455.908203 0)"/>
      </g>
     </g>
    </g>
    <g id="xtick_5">
     <g id="line2d_5">
      <path d="M 619.860172 347.773968 
L 619.860172 45.6 
" clip-path="url(#pe5bcb9d95d)" style="fill: none; stroke: #cccccc; stroke-linecap: round"/>
     </g>
     <g id="text_5">
      <!-- 2015-01-17 -->
      <g style="fill: #262626" transform="translate(601.979485 402.624371) rotate(-45) scale(0.11 -0.11)">
       <defs>
        <path id="ArialMT-37" d="M 303 3981 
L 303 4522 
L 3269 4522 
L 3269 4084 
Q 2831 3619 2401 2847 
Q 1972 2075 1738 1259 
Q 1569 684 1522 0 
L 944 0 
Q 953 541 1156 1306 
Q 1359 2072 1739 2783 
Q 2119 3494 2547 3981 
L 303 3981 
z
" transform="scale(0.015625)"/>
       </defs>
       <use xlink:href="#ArialMT-32"/>
       <use xlink:href="#ArialMT-30" transform="translate(55.615234 0)"/>
       <use xlink:href="#ArialMT-31" transform="translate(111.230469 0)"/>
       <use xlink:href="#ArialMT-35" transform="translate(166.845703 0)"/>
       <use xlink:href="#ArialMT-2d" transform="translate(222.460938 0)"/>
       <use xlink:href="#ArialMT-30" transform="translate(255.761719 0)"/>
       <use xlink:href="#ArialMT-31" transform="translate(311.376953 0)"/>
       <use xlink:href="#ArialMT-2d" transform="translate(366.992188 0)"/>
       <use xlink:href="#ArialMT-31" transform="translate(400.292969 0)"/>
       <use xlink:href="#ArialMT-37" transform="translate(455.908203 0)"/>
      </g>
     </g>
    </g>
    <g id="xtick_6">
     <g id="line2d_6">
      <path d="M 745.674291 347.773968 
L 745.674291 45.6 
" clip-path="url(#pe5bcb9d95d)" style="fill: none; stroke: #cccccc; stroke-linecap: round"/>
     </g>
     <g id="text_6">
      <!-- 2015-01-21 -->
      <g style="fill: #262626" transform="translate(727.793605 402.624371) rotate(-45) scale(0.11 -0.11)">
       <use xlink:href="#ArialMT-32"/>
       <use xlink:href="#ArialMT-30" transform="translate(55.615234 0)"/>
       <use xlink:href="#ArialMT-31" transform="translate(111.230469 0)"/>
       <use xlink:href="#ArialMT-35" transform="translate(166.845703 0)"/>
       <use xlink:href="#ArialMT-2d" transform="translate(222.460938 0)"/>
       <use xlink:href="#ArialMT-30" transform="translate(255.761719 0)"/>
       <use xlink:href="#ArialMT-31" transform="translate(311.376953 0)"/>
       <use xlink:href="#ArialMT-2d" transform="translate(366.992188 0)"/>
       <use xlink:href="#ArialMT-32" transform="translate(400.292969 0)"/>
       <use xlink:href="#ArialMT-31" transform="translate(455.908203 0)"/>
      </g>
     </g>
    </g>
    <g id="xtick_7">
     <g id="line2d_7">
      <path d="M 871.488411 347.773968 
L 871.488411 45.6 
" clip-path="url(#pe5bcb9d95d)" style="fill: none; stroke: #cccccc; stroke-linecap: round"/>
     </g>
     <g id="text_7">
      <!-- 2015-01-25 -->
      <g style="fill: #262626" transform="translate(853.607725 402.624371) rotate(-45) scale(0.11 -0.11)">
       <use xlink:href="#ArialMT-32"/>
       <use xlink:href="#ArialMT-30" transform="translate(55.615234 0)"/>
       <use xlink:href="#ArialMT-31" transform="translate(111.230469 0)"/>
       <use xlink:href="#ArialMT-35" transform="translate(166.845703 0)"/>
       <use xlink:href="#ArialMT-2d" transform="translate(222.460938 0)"/>
       <use xlink:href="#ArialMT-30" transform="translate(255.761719 0)"/>
       <use xlink:href="#ArialMT-31" transform="translate(311.376953 0)"/>
       <use xlink:href="#ArialMT-2d" transform="translate(366.992188 0)"/>
       <use xlink:href="#ArialMT-32" transform="translate(400.292969 0)"/>
       <use xlink:href="#ArialMT-35" transform="translate(455.908203 0)"/>
      </g>
     </g>
    </g>
    <g id="xtick_8">
     <g id="line2d_8">
      <path d="M 997.302531 347.773968 
L 997.302531 45.6 
" clip-path="url(#pe5bcb9d95d)" style="fill: none; stroke: #cccccc; stroke-linecap: round"/>
     </g>
     <g id="text_8">
      <!-- 2015-01-29 -->
      <g style="fill: #262626" transform="translate(979.421844 402.624371) rotate(-45) scale(0.11 -0.11)">
       <use xlink:href="#ArialMT-32"/>
       <use xlink:href="#ArialMT-30" transform="translate(55.615234 0)"/>
       <use xlink:href="#ArialMT-31" transform="translate(111.230469 0)"/>
       <use xlink:href="#ArialMT-35" transform="translate(166.845703 0)"/>
       <use xlink:href="#ArialMT-2d" transform="translate(222.460938 0)"/>
       <use xlink:href="#ArialMT-30" transform="translate(255.761719 0)"/>
       <use xlink:href="#ArialMT-31" transform="translate(311.376953 0)"/>
       <use xlink:href="#ArialMT-2d" transform="translate(366.992188 0)"/>
       <use xlink:href="#ArialMT-32" transform="translate(400.292969 0)"/>
       <use xlink:href="#ArialMT-39" transform="translate(455.908203 0)"/>
      </g>
     </g>
    </g>
    <g id="xtick_9">
     <g id="line2d_9">
      <path d="M 1091.663121 347.773968 
L 1091.663121 45.6 
" clip-path="url(#pe5bcb9d95d)" style="fill: none; stroke: #cccccc; stroke-linecap: round"/>
     </g>
     <g id="text_9">
      <!-- 2015-02-01 -->
      <g style="fill: #262626" transform="translate(1073.782434 402.624371) rotate(-45) scale(0.11 -0.11)">
       <use xlink:href="#ArialMT-32"/>
       <use xlink:href="#ArialMT-30" transform="translate(55.615234 0)"/>
       <use xlink:href="#ArialMT-31" transform="translate(111.230469 0)"/>
       <use xlink:href="#ArialMT-35" transform="translate(166.845703 0)"/>
       <use xlink:href="#ArialMT-2d" transform="translate(222.460938 0)"/>
       <use xlink:href="#ArialMT-30" transform="translate(255.761719 0)"/>
       <use xlink:href="#ArialMT-32" transform="translate(311.376953 0)"/>
       <use xlink:href="#ArialMT-2d" transform="translate(366.992188 0)"/>
       <use xlink:href="#ArialMT-30" transform="translate(400.292969 0)"/>
       <use xlink:href="#ArialMT-31" transform="translate(455.908203 0)"/>
      </g>
     </g>
    </g>
    <g id="text_10">
     <!-- Data -->
     <g style="fill: #262626" transform="translate(590.805 416.759659) scale(0.12 -0.12)">
      <defs>
       <path id="ArialMT-44" d="M 494 0 
L 494 4581 
L 2072 4581 
Q 2606 4581 2888 4516 
Q 3281 4425 3559 4188 
Q 3922 3881 4101 3404 
Q 4281 2928 4281 2316 
Q 4281 1794 4159 1391 
Q 4038 988 3847 723 
Q 3656 459 3429 307 
Q 3203 156 2883 78 
Q 2563 0 2147 0 
L 494 0 
z
M 1100 541 
L 2078 541 
Q 2531 541 2789 625 
Q 3047 709 3200 863 
Q 3416 1078 3536 1442 
Q 3656 1806 3656 2325 
Q 3656 3044 3420 3430 
Q 3184 3816 2847 3947 
Q 2603 4041 2063 4041 
L 1100 4041 
L 1100 541 
z
" transform="scale(0.015625)"/>
       <path id="ArialMT-61" d="M 2588 409 
Q 2275 144 1986 34 
Q 1697 -75 1366 -75 
Q 819 -75 525 192 
Q 231 459 231 875 
Q 231 1119 342 1320 
Q 453 1522 633 1644 
Q 813 1766 1038 1828 
Q 1203 1872 1538 1913 
Q 2219 1994 2541 2106 
Q 2544 2222 2544 2253 
Q 2544 2597 2384 2738 
Q 2169 2928 1744 2928 
Q 1347 2928 1158 2789 
Q 969 2650 878 2297 
L 328 2372 
Q 403 2725 575 2942 
Q 747 3159 1072 3276 
Q 1397 3394 1825 3394 
Q 2250 3394 2515 3294 
Q 2781 3194 2906 3042 
Q 3031 2891 3081 2659 
Q 3109 2516 3109 2141 
L 3109 1391 
Q 3109 606 3145 398 
Q 3181 191 3288 0 
L 2700 0 
Q 2613 175 2588 409 
z
M 2541 1666 
Q 2234 1541 1622 1453 
Q 1275 1403 1131 1340 
Q 988 1278 909 1158 
Q 831 1038 831 891 
Q 831 666 1001 516 
Q 1172 366 1500 366 
Q 1825 366 2078 508 
Q 2331 650 2450 897 
Q 2541 1088 2541 1459 
L 2541 1666 
z
" transform="scale(0.015625)"/>
       <path id="ArialMT-74" d="M 1650 503 
L 1731 6 
Q 1494 -44 1306 -44 
Q 1000 -44 831 53 
Q 663 150 594 308 
Q 525 466 525 972 
L 525 2881 
L 113 2881 
L 113 3319 
L 525 3319 
L 525 4141 
L 1084 4478 
L 1084 3319 
L 1650 3319 
L 1650 2881 
L 1084 2881 
L 1084 941 
Q 1084 700 1114 631 
Q 1144 563 1211 522 
Q 1278 481 1403 481 
Q 1497 481 1650 503 
z
" transform="scale(0.015625)"/>
      </defs>
      <use xlink:href="#ArialMT-44"/>
      <use xlink:href="#ArialMT-61" transform="translate(72.216797 0)"/>
      <use xlink:href="#ArialMT-74" transform="translate(127.832031 0)"/>
      <use xlink:href="#ArialMT-61" transform="translate(155.615234 0)"/>
     </g>
    </g>
   </g>
   <g id="matplotlib.axis_2">
    <g id="ytick_1">
     <g id="line2d_10">
      <path d="M 67.91625 322.663304 
L 1139.04 322.663304 
" clip-path="url(#pe5bcb9d95d)" style="fill: none; stroke: #cccccc; stroke-linecap: round"/>
     </g>
     <g id="text_11">
      <!-- 20000 -->
      <g style="fill: #262626" transform="translate(27.831094 326.600101) scale(0.11 -0.11)">
       <use xlink:href="#ArialMT-32"/>
       <use xlink:href="#ArialMT-30" transform="translate(55.615234 0)"/>
       <use xlink:href="#ArialMT-30" transform="translate(111.230469 0)"/>
       <use xlink:href="#ArialMT-30" transform="translate(166.845703 0)"/>
       <use xlink:href="#ArialMT-30" transform="translate(222.460938 0)"/>
      </g>
     </g>
    </g>
    <g id="ytick_2">
     <g id="line2d_11">
      <path d="M 67.91625 257.586168 
L 1139.04 257.586168 
" clip-path="url(#pe5bcb9d95d)" style="fill: none; stroke: #cccccc; stroke-linecap: round"/>
     </g>
     <g id="text_12">
      <!-- 25000 -->
      <g style="fill: #262626" transform="translate(27.831094 261.522965) scale(0.11 -0.11)">
       <use xlink:href="#ArialMT-32"/>
       <use xlink:href="#ArialMT-35" transform="translate(55.615234 0)"/>
       <use xlink:href="#ArialMT-30" transform="translate(111.230469 0)"/>
       <use xlink:href="#ArialMT-30" transform="translate(166.845703 0)"/>
       <use xlink:href="#ArialMT-30" transform="translate(222.460938 0)"/>
      </g>
     </g>
    </g>
    <g id="ytick_3">
     <g id="line2d_12">
      <path d="M 67.91625 192.509032 
L 1139.04 192.509032 
" clip-path="url(#pe5bcb9d95d)" style="fill: none; stroke: #cccccc; stroke-linecap: round"/>
     </g>
     <g id="text_13">
      <!-- 30000 -->
      <g style="fill: #262626" transform="translate(27.831094 196.445829) scale(0.11 -0.11)">
       <use xlink:href="#ArialMT-33"/>
       <use xlink:href="#ArialMT-30" transform="translate(55.615234 0)"/>
       <use xlink:href="#ArialMT-30" transform="translate(111.230469 0)"/>
       <use xlink:href="#ArialMT-30" transform="translate(166.845703 0)"/>
       <use xlink:href="#ArialMT-30" transform="translate(222.460938 0)"/>
      </g>
     </g>
    </g>
    <g id="ytick_4">
     <g id="line2d_13">
      <path d="M 67.91625 127.431896 
L 1139.04 127.431896 
" clip-path="url(#pe5bcb9d95d)" style="fill: none; stroke: #cccccc; stroke-linecap: round"/>
     </g>
     <g id="text_14">
      <!-- 35000 -->
      <g style="fill: #262626" transform="translate(27.831094 131.368692) scale(0.11 -0.11)">
       <use xlink:href="#ArialMT-33"/>
       <use xlink:href="#ArialMT-35" transform="translate(55.615234 0)"/>
       <use xlink:href="#ArialMT-30" transform="translate(111.230469 0)"/>
       <use xlink:href="#ArialMT-30" transform="translate(166.845703 0)"/>
       <use xlink:href="#ArialMT-30" transform="translate(222.460938 0)"/>
      </g>
     </g>
    </g>
    <g id="ytick_5">
     <g id="line2d_14">
      <path d="M 67.91625 62.354759 
L 1139.04 62.354759 
" clip-path="url(#pe5bcb9d95d)" style="fill: none; stroke: #cccccc; stroke-linecap: round"/>
     </g>
     <g id="text_15">
      <!-- 40000 -->
      <g style="fill: #262626" transform="translate(27.831094 66.291556) scale(0.11 -0.11)">
       <defs>
        <path id="ArialMT-34" d="M 2069 0 
L 2069 1097 
L 81 1097 
L 81 1613 
L 2172 4581 
L 2631 4581 
L 2631 1613 
L 3250 1613 
L 3250 1097 
L 2631 1097 
L 2631 0 
L 2069 0 
z
M 2069 1613 
L 2069 3678 
L 634 1613 
L 2069 1613 
z
" transform="scale(0.015625)"/>
       </defs>
       <use xlink:href="#ArialMT-34"/>
       <use xlink:href="#ArialMT-30" transform="translate(55.615234 0)"/>
       <use xlink:href="#ArialMT-30" transform="translate(111.230469 0)"/>
       <use xlink:href="#ArialMT-30" transform="translate(166.845703 0)"/>
       <use xlink:href="#ArialMT-30" transform="translate(222.460938 0)"/>
      </g>
     </g>
    </g>
    <g id="text_16">
     <!-- Carga Total -->
     <g style="fill: #262626" transform="translate(21.305469 227.259796) rotate(-90) scale(0.12 -0.12)">
      <defs>
       <path id="ArialMT-43" d="M 3763 1606 
L 4369 1453 
Q 4178 706 3683 314 
Q 3188 -78 2472 -78 
Q 1731 -78 1267 223 
Q 803 525 561 1097 
Q 319 1669 319 2325 
Q 319 3041 592 3573 
Q 866 4106 1370 4382 
Q 1875 4659 2481 4659 
Q 3169 4659 3637 4309 
Q 4106 3959 4291 3325 
L 3694 3184 
Q 3534 3684 3231 3912 
Q 2928 4141 2469 4141 
Q 1941 4141 1586 3887 
Q 1231 3634 1087 3207 
Q 944 2781 944 2328 
Q 944 1744 1114 1308 
Q 1284 872 1643 656 
Q 2003 441 2422 441 
Q 2931 441 3284 734 
Q 3638 1028 3763 1606 
z
" transform="scale(0.015625)"/>
       <path id="ArialMT-72" d="M 416 0 
L 416 3319 
L 922 3319 
L 922 2816 
Q 1116 3169 1280 3281 
Q 1444 3394 1641 3394 
Q 1925 3394 2219 3213 
L 2025 2691 
Q 1819 2813 1613 2813 
Q 1428 2813 1281 2702 
Q 1134 2591 1072 2394 
Q 978 2094 978 1738 
L 978 0 
L 416 0 
z
" transform="scale(0.015625)"/>
       <path id="ArialMT-67" d="M 319 -275 
L 866 -356 
Q 900 -609 1056 -725 
Q 1266 -881 1628 -881 
Q 2019 -881 2231 -725 
Q 2444 -569 2519 -288 
Q 2563 -116 2559 434 
Q 2191 0 1641 0 
Q 956 0 581 494 
Q 206 988 206 1678 
Q 206 2153 378 2554 
Q 550 2956 876 3175 
Q 1203 3394 1644 3394 
Q 2231 3394 2613 2919 
L 2613 3319 
L 3131 3319 
L 3131 450 
Q 3131 -325 2973 -648 
Q 2816 -972 2473 -1159 
Q 2131 -1347 1631 -1347 
Q 1038 -1347 672 -1080 
Q 306 -813 319 -275 
z
M 784 1719 
Q 784 1066 1043 766 
Q 1303 466 1694 466 
Q 2081 466 2343 764 
Q 2606 1063 2606 1700 
Q 2606 2309 2336 2618 
Q 2066 2928 1684 2928 
Q 1309 2928 1046 2623 
Q 784 2319 784 1719 
z
" transform="scale(0.015625)"/>
       <path id="ArialMT-20" transform="scale(0.015625)"/>
       <path id="ArialMT-54" d="M 1659 0 
L 1659 4041 
L 150 4041 
L 150 4581 
L 3781 4581 
L 3781 4041 
L 2266 4041 
L 2266 0 
L 1659 0 
z
" transform="scale(0.015625)"/>
       <path id="ArialMT-6f" d="M 213 1659 
Q 213 2581 725 3025 
Q 1153 3394 1769 3394 
Q 2453 3394 2887 2945 
Q 3322 2497 3322 1706 
Q 3322 1066 3130 698 
Q 2938 331 2570 128 
Q 2203 -75 1769 -75 
Q 1072 -75 642 372 
Q 213 819 213 1659 
z
M 791 1659 
Q 791 1022 1069 705 
Q 1347 388 1769 388 
Q 2188 388 2466 706 
Q 2744 1025 2744 1678 
Q 2744 2294 2464 2611 
Q 2184 2928 1769 2928 
Q 1347 2928 1069 2612 
Q 791 2297 791 1659 
z
" transform="scale(0.015625)"/>
       <path id="ArialMT-6c" d="M 409 0 
L 409 4581 
L 972 4581 
L 972 0 
L 409 0 
z
" transform="scale(0.015625)"/>
      </defs>
      <use xlink:href="#ArialMT-43"/>
      <use xlink:href="#ArialMT-61" transform="translate(72.216797 0)"/>
      <use xlink:href="#ArialMT-72" transform="translate(127.832031 0)"/>
      <use xlink:href="#ArialMT-67" transform="translate(161.132812 0)"/>
      <use xlink:href="#ArialMT-61" transform="translate(216.748047 0)"/>
      <use xlink:href="#ArialMT-20" transform="translate(272.363281 0)"/>
      <use xlink:href="#ArialMT-54" transform="translate(298.396484 0)"/>
      <use xlink:href="#ArialMT-6f" transform="translate(348.355469 0)"/>
      <use xlink:href="#ArialMT-74" transform="translate(403.970703 0)"/>
      <use xlink:href="#ArialMT-61" transform="translate(431.753906 0)"/>
      <use xlink:href="#ArialMT-6c" transform="translate(487.369141 0)"/>
     </g>
    </g>
   </g>
   <g id="FillBetweenPolyCollection_1"/>
   <g id="FillBetweenPolyCollection_2"/>
   <g id="line2d_15">
    <path d="M 116.603693 265.629702 
L 117.914257 287.079126 
L 119.224821 305.925464 
L 120.535384 319.227231 
L 121.845948 323.899769 
L 123.156512 322.53315 
L 124.467076 317.756488 
L 125.777639 321.439854 
L 127.088203 314.372477 
L 128.398767 293.378593 
L 129.709331 276.497584 
L 132.330458 261.321595 
L 133.641022 261.855228 
L 134.951586 276.744877 
L 136.262149 282.081202 
L 137.572713 275.729673 
L 138.883277 238.752845 
L 140.193841 218.279578 
L 141.504404 205.342243 
L 142.814968 198.09265 
L 144.125532 205.120981 
L 145.436096 234.18443 
L 146.746659 230.644233 
L 148.057223 258.432171 
L 149.367787 280.831721 
L 150.678351 289.604119 
L 151.988914 295.382968 
L 153.299478 295.773431 
L 154.610042 293.053207 
L 155.920606 283.291637 
L 157.231169 274.519239 
L 159.852297 219.490012 
L 161.162861 204.587348 
L 162.473424 204.600364 
L 163.783988 199.810686 
L 165.094552 202.387741 
L 166.405116 218.891303 
L 167.715679 227.390377 
L 169.026243 229.511891 
L 170.336807 204.938765 
L 171.647371 166.907686 
L 172.957934 150.000646 
L 174.268498 144.768445 
L 175.579062 160.933605 
L 176.889626 196.348583 
L 178.200189 250.245467 
L 242.417813 278.541006 
L 243.728377 296.788635 
L 245.03894 307.279069 
L 246.349504 312.537301 
L 247.660068 318.641537 
L 248.970632 319.383416 
L 250.281195 323.131859 
L 251.591759 312.303024 
L 252.902323 290.411075 
L 254.212887 272.762156 
L 255.52345 265.017977 
L 264.697397 298.090177 
L 266.00796 296.007709 
L 267.318524 285.465213 
L 268.629088 249.72485 
L 269.939652 252.62729 
L 271.250215 272.918341 
L 272.560779 274.363053 
L 273.871343 292.024988 
L 275.181907 302.541453 
L 276.49247 307.422239 
L 277.803034 309.101229 
L 279.113598 301.604343 
L 280.424161 277.981342 
L 283.045289 212.604851 
L 285.666416 180.964348 
L 288.287544 167.167995 
L 289.598108 165.462974 
L 290.908671 176.981627 
L 292.219235 185.45467 
L 293.529799 184.816914 
L 294.840363 182.109705 
L 297.46149 190.595764 
L 298.772054 190.94718 
L 300.082618 182.786508 
L 301.393181 192.795371 
L 302.703745 226.075818 
L 304.014309 185.76704 
L 305.324873 212.240419 
L 306.635436 231.216912 
L 307.946 241.342915 
L 309.256564 246.67924 
L 310.567128 244.297417 
L 311.877691 231.659437 
L 313.188255 210.405244 
L 315.809383 149.870492 
L 317.119946 137.570913 
L 318.43051 130.087043 
L 319.741074 120.468642 
L 321.051638 117.644294 
L 322.362201 119.557562 
L 323.672765 114.15616 
L 324.983329 113.55745 
L 326.293893 111.87846 
L 327.604456 117.813495 
L 328.91502 124.984995 
L 331.536148 144.143704 
L 332.846711 157.406424 
L 334.157275 186.300673 
L 335.467839 234.314584 
L 336.778403 255.685915 
L 338.088966 272.046307 
L 339.39953 283.018313 
L 340.710094 288.992394 
L 342.020658 291.93388 
L 343.331221 289.460949 
L 344.641785 289.565072 
L 345.952349 270.054947 
L 348.573476 222.91307 
L 349.88404 212.708975 
L 352.505168 201.242383 
L 353.815731 205.186058 
L 355.126295 215.45523 
L 356.436859 220.257922 
L 357.747423 223.043224 
L 359.057986 224.956492 
L 361.679114 224.032396 
L 362.989678 215.650461 
L 364.300241 215.663477 
L 365.610805 238.896014 
L 366.921369 225.242831 
L 368.231933 247.824597 
L 369.542496 260.70987 
L 370.85306 268.154695 
L 372.163624 272.684063 
L 373.474187 270.211132 
L 374.784751 245.02628 
L 376.095315 215.077782 
L 377.405879 192.756325 
L 378.716442 167.363226 
L 380.027006 149.232736 
L 381.33757 138.573101 
L 382.648134 126.911278 
L 383.958697 120.611812 
L 385.269261 132.91139 
L 386.579825 143.154532 
L 387.890389 143.466902 
L 389.200952 144.404013 
L 390.511516 151.458374 
L 391.82208 160.751389 
L 393.132644 161.480253 
L 394.443207 140.759693 
L 397.064335 207.802159 
L 398.374899 258.900726 
L 462.592522 254.045972 
L 463.903086 269.026728 
L 465.21365 275.469365 
L 466.524213 276.172198 
L 467.834777 269.690515 
L 469.145341 234.327599 
L 470.455905 172.842721 
L 471.766468 139.848613 
L 473.077032 129.045809 
L 474.387596 126.221461 
L 475.69816 132.794252 
L 477.008723 135.93097 
L 478.319287 138.54707 
L 479.629851 154.97254 
L 480.940415 160.985667 
L 482.250978 159.944433 
L 483.561542 146.837898 
L 484.872106 115.770073 
L 486.18267 106.411981 
L 487.493233 105.253608 
L 488.803797 116.720199 
L 490.114361 154.347799 
L 491.424925 196.478737 
L 492.735488 218.110377 
L 494.046052 247.824597 
L 495.356616 263.872619 
L 496.66718 271.759968 
L 497.977743 272.215508 
L 499.288307 264.80973 
L 500.598871 231.203897 
L 501.909435 167.46735 
L 503.219998 122.863481 
L 504.530562 110.668025 
L 505.841126 106.451027 
L 507.15169 110.563902 
L 508.462253 119.036945 
L 509.772817 125.193242 
L 511.083381 141.813943 
L 512.393945 149.779384 
L 513.704508 153.072287 
L 515.015072 146.408388 
L 516.325636 115.145332 
L 517.6362 94.20351 
L 518.946763 93.539723 
L 520.257327 103.600648 
L 521.567891 140.811755 
L 522.878455 182.968724 
L 524.189018 217.798007 
L 525.499582 247.642381 
L 526.810146 264.158959 
L 528.12071 272.072338 
L 529.431273 272.007261 
L 530.741837 264.900838 
L 532.052401 231.034696 
L 533.362965 169.107294 
L 534.673528 125.479581 
L 535.984092 115.028193 
L 537.294656 108.702696 
L 538.60522 113.791728 
L 539.915783 120.130241 
L 541.226347 125.011026 
L 542.536911 141.631727 
L 543.847475 149.271782 
L 545.158038 149.167659 
L 546.468602 142.907239 
L 547.779166 112.93271 
L 549.08973 94.437788 
L 550.400293 93.162276 
L 551.710857 103.886988 
L 553.021421 141.241264 
L 554.331985 184.309313 
L 555.642548 220.296969 
L 556.953112 249.555649 
L 558.263676 267.100445 
L 559.574239 271.382521 
L 560.884803 273.699267 
L 562.195367 264.289113 
L 563.505931 232.609563 
L 564.816494 171.580225 
L 566.127058 129.982919 
L 567.437622 116.824322 
L 568.748186 111.032457 
L 570.058749 114.46853 
L 571.369313 120.41658 
L 572.679877 124.308193 
L 573.990441 140.082891 
L 575.301004 146.00491 
L 576.611568 145.171923 
L 577.922132 138.481993 
L 579.232696 111.787352 
L 580.543259 95.296806 
L 581.853823 97.509428 
L 583.164387 110.186454 
L 584.474951 142.425668 
L 585.785514 182.916662 
L 588.406642 243.021905 
L 589.717206 261.712058 
L 591.027769 268.688327 
L 592.338333 270.211132 
L 593.648897 263.29994 
L 594.959461 231.229928 
L 596.270024 172.751613 
L 597.580588 132.091419 
L 598.891152 118.815683 
L 600.201716 109.952177 
L 601.512279 110.0563 
L 604.133407 119.843901 
L 605.443971 136.256355 
L 606.754534 143.349763 
L 608.065098 147.475653 
L 609.375662 143.258655 
L 610.686226 119.19313 
L 611.996789 103.730803 
L 613.307353 105.709148 
L 614.617917 114.221237 
L 615.928481 142.438683 
L 617.239044 176.330856 
L 618.549608 206.969171 
L 682.767232 262.141567 
L 684.077795 279.647317 
L 685.388359 286.532478 
L 686.698923 287.899098 
L 688.009487 278.449898 
L 689.32005 237.893826 
L 690.630614 173.506508 
L 691.941178 121.653046 
L 693.251742 101.570242 
L 694.562305 85.69142 
L 695.872869 83.947353 
L 697.183433 87.708812 
L 698.493997 89.804295 
L 699.80456 107.127829 
L 701.115124 113.075879 
L 702.425688 116.14752 
L 703.736252 111.435936 
L 705.046815 89.153524 
L 706.357379 71.413497 
L 707.667943 71.960145 
L 708.978507 87.318349 
L 710.28907 125.102134 
L 711.599634 171.45007 
L 714.220762 238.388413 
L 715.531325 256.453826 
L 716.841889 262.53203 
L 718.152453 264.028804 
L 719.463017 255.139267 
L 720.77358 220.283953 
L 722.084144 154.178598 
L 723.394708 108.247156 
L 724.705272 92.147072 
L 726.015835 81.812823 
L 727.326399 81.890916 
L 728.636963 86.14696 
L 729.947527 86.667578 
L 731.25809 103.405417 
L 732.568654 110.681041 
L 733.879218 110.082331 
L 735.189782 102.832738 
L 736.500345 77.244408 
L 737.810909 59.33518 
L 739.121473 59.660566 
L 740.432037 72.662978 
L 741.7426 111.058488 
L 743.053164 159.072399 
L 744.363728 200.175118 
L 745.674291 233.27335 
L 746.984855 252.497136 
L 748.295419 260.059099 
L 749.605983 261.568888 
L 750.916546 254.098033 
L 752.22711 218.722102 
L 753.537674 153.098318 
L 754.848238 106.047549 
L 756.158801 87.357395 
L 757.469365 78.480874 
L 758.779929 79.860509 
L 760.090493 86.953917 
L 761.401056 87.917059 
L 762.71162 103.119078 
L 764.022184 108.182079 
L 765.332748 108.676665 
L 766.643311 100.6071 
L 767.953875 78.51992 
L 769.264439 61.30051 
L 770.575003 60.766877 
L 771.885566 73.469934 
L 773.19613 110.941349 
L 774.506694 155.232848 
L 775.817258 195.697811 
L 777.127821 229.7722 
L 778.438385 248.800754 
L 779.748949 256.245579 
L 781.059513 258.210908 
L 782.370076 250.557837 
L 783.68064 216.249171 
L 784.991204 153.866228 
L 786.301768 111.722275 
L 787.612331 94.620004 
L 788.922895 83.908307 
L 790.233459 87.682781 
L 791.544023 92.21215 
L 792.854586 94.724127 
L 794.16515 108.963004 
L 795.475714 117.214785 
L 796.786278 117.527155 
L 798.096841 111.11055 
L 799.407405 87.34438 
L 800.717969 66.233357 
L 802.028533 65.973048 
L 803.339096 76.853945 
L 804.64966 113.609512 
L 805.960224 157.041992 
L 807.270788 195.81495 
L 808.581351 228.26241 
L 809.891915 247.564289 
L 811.202479 255.009113 
L 812.513043 256.531918 
L 813.823606 248.748693 
L 815.13417 215.7676 
L 816.444734 152.55167 
L 817.755298 107.505276 
L 819.065861 90.897591 
L 820.376425 84.324801 
L 821.686989 90.689345 
L 822.997553 98.771925 
L 824.308116 104.355543 
L 825.61868 121.666061 
L 826.929244 130.659722 
L 828.239808 132.872344 
L 829.550371 130.60766 
L 832.171499 84.103538 
L 833.482063 84.051477 
L 834.792626 92.186119 
L 836.10319 123.110774 
L 838.724317 191.988415 
L 902.941941 262.38886 
L 904.252505 279.673348 
L 905.563069 283.760192 
L 906.873632 285.191889 
L 908.184196 273.855452 
L 909.49476 234.132368 
L 910.805324 166.712455 
L 912.115887 119.245192 
L 913.426451 101.804519 
L 914.737015 94.685081 
L 916.047579 98.78494 
L 917.358142 106.906567 
L 918.668706 111.331812 
L 919.97927 126.677001 
L 921.289834 132.963452 
L 922.600397 135.306229 
L 923.910961 129.657534 
L 925.221525 107.817647 
L 926.532089 80.290018 
L 927.842652 77.075208 
L 929.153216 88.476722 
L 930.46378 124.998011 
L 931.774343 171.580225 
L 933.084907 210.001766 
L 934.395471 240.470881 
L 935.706035 257.794415 
L 937.016598 264.015789 
L 938.327162 264.484344 
L 939.637726 256.050347 
L 940.94829 221.819774 
L 942.258853 157.549594 
L 943.569417 114.663761 
L 944.879981 100.932486 
L 946.190545 95.921546 
L 947.501108 100.880424 
L 948.811672 110.251532 
L 950.122236 113.062864 
L 951.4328 128.316945 
L 952.743363 133.96564 
L 954.053927 136.985219 
L 955.364491 133.952625 
L 956.675055 113.830774 
L 957.985618 84.025446 
L 959.296182 79.040537 
L 960.606746 90.741406 
L 961.91731 125.440535 
L 963.227873 169.784096 
L 964.538437 204.274978 
L 965.849001 233.963167 
L 967.159565 252.432059 
L 968.470128 260.983194 
L 969.780692 262.961539 
L 971.091256 254.514527 
L 972.40182 220.34903 
L 973.712383 158.070211 
L 975.022947 115.366595 
L 976.333511 101.934674 
L 977.644075 98.433524 
L 978.954638 104.082219 
L 980.265202 113.908867 
L 982.88633 135.983031 
L 984.196893 141.931081 
L 985.507457 145.38017 
L 986.818021 142.568837 
L 988.128585 117.800479 
L 989.439148 89.205586 
L 990.749712 85.261911 
L 992.060276 99.019218 
L 993.37084 134.10881 
L 994.681403 175.536915 
L 995.991967 211.029985 
L 997.302531 240.496912 
L 998.613095 257.377921 
L 999.923658 265.291301 
L 1001.234222 266.762044 
L 1002.544786 259.278173 
L 1003.85535 226.049788 
L 1005.165913 164.486817 
L 1006.476477 125.42752 
L 1007.787041 113.466342 
L 1009.097605 108.156048 
L 1010.408168 111.605136 
L 1011.718732 116.342752 
L 1013.029296 116.069428 
L 1014.33986 130.685752 
L 1015.650423 135.957 
L 1016.960987 136.933157 
L 1018.271551 131.401601 
L 1019.582115 111.683229 
L 1020.892678 87.904043 
L 1022.203242 87.214225 
L 1023.513806 98.186231 
L 1024.824369 132.729174 
L 1026.134933 173.662693 
L 1027.445497 207.37265 
L 1028.756061 236.292929 
L 1030.066624 252.366981 
L 1031.377188 261.139379 
L 1032.687752 263.234863 
L 1033.998316 257.703307 
L 1035.308879 227.299269 
L 1036.619443 169.758065 
L 1037.930007 133.301853 
L 1039.240571 119.297254 
L 1040.551134 112.854617 
L 1041.861698 111.813383 
L 1043.172262 116.43386 
L 1044.482826 117.214785 
L 1045.793389 133.5101 
L 1047.103953 141.748866 
L 1048.414517 145.536355 
L 1049.725081 140.616523 
L 1051.035644 123.188866 
L 1052.346208 104.069204 
L 1053.656772 110.108362 
L 1054.967336 122.134617 
L 1056.277899 147.983255 
L 1057.588463 182.317952 
L 1058.899027 209.116717 
L 1058.899027 209.116717 
" clip-path="url(#pe5bcb9d95d)" style="fill: none; stroke: #4c72b0; stroke-width: 2; stroke-linecap: round"/>
   </g>
   <g id="line2d_16">
    <path d="M 179.510753 276.016013 
L 180.821317 294.107457 
L 182.131881 305.79531 
L 183.442444 307.76064 
L 184.753008 305.535002 
L 186.063572 300.875479 
L 187.374135 294.97949 
L 188.684699 286.792786 
L 191.305827 238.661737 
L 192.61639 232.088946 
L 193.926954 235.251695 
L 195.237518 234.132368 
L 196.548082 239.156323 
L 197.858645 252.874583 
L 199.169209 260.579716 
L 200.479773 264.080866 
L 201.790337 257.690291 
L 203.1009 219.008441 
L 204.411464 196.491752 
L 205.722028 194.148975 
L 207.032592 205.797783 
L 208.343155 233.338427 
L 210.964283 275.547457 
L 212.274847 288.745101 
L 213.58541 294.146503 
L 214.895974 297.556545 
L 216.206538 294.094441 
L 217.517102 270.146055 
L 218.827665 234.067291 
L 221.448793 194.188022 
L 222.759357 184.895007 
L 224.06992 182.461122 
L 225.380484 183.593464 
L 226.691048 186.925413 
L 228.001612 208.895455 
L 229.312175 215.299045 
L 230.622739 217.173266 
L 231.933303 219.737305 
L 233.243867 224.045412 
L 234.55443 226.114865 
L 235.864994 210.678568 
L 237.175558 188.005694 
L 238.486122 216.066955 
L 239.796685 241.056575 
L 241.107249 256.688103 
L 399.685462 277.044231 
L 400.996026 288.966363 
L 402.30659 294.328719 
L 403.617154 296.307064 
L 404.927717 291.087877 
L 406.238281 265.903026 
L 407.548845 219.971583 
L 408.859409 201.164291 
L 410.169972 193.146788 
L 411.480536 186.626059 
L 412.7911 181.367826 
L 414.101664 173.649678 
L 415.412227 176.656241 
L 416.722791 186.547966 
L 418.033355 194.643562 
L 419.343919 195.35941 
L 420.654482 193.433127 
L 421.965046 197.220616 
L 423.27561 193.159803 
L 424.586174 163.302413 
L 425.896737 167.77972 
L 427.207301 209.559241 
L 428.517865 241.720362 
L 429.828429 290.645353 
L 431.138992 309.218368 
L 432.449556 322.962659 
L 433.76012 330.61573 
L 435.070684 334.038787 
L 436.381247 333.088661 
L 437.691811 330.420498 
L 439.002375 329.171017 
L 440.312939 320.294496 
L 441.623502 295.057583 
L 442.934066 275.950936 
L 444.24463 267.503923 
L 445.555194 267.074414 
L 446.865757 261.321595 
L 448.176321 264.393236 
L 449.486885 278.710206 
L 450.797449 283.135451 
L 452.108012 282.979266 
L 453.418576 254.215172 
L 454.72914 237.802718 
L 456.039704 229.954416 
L 457.350267 231.229928 
L 458.660831 246.015453 
L 459.971395 271.382521 
L 461.281959 230.449002 
L 619.860172 234.392676 
L 621.170736 256.505887 
L 622.481299 269.482268 
L 623.791863 275.143979 
L 625.102427 276.601707 
L 626.412991 270.276209 
L 627.723554 251.507963 
L 629.034118 229.993462 
L 630.344682 192.76934 
L 631.655246 163.549706 
L 632.965809 160.230772 
L 634.276373 168.261291 
L 635.586937 170.916438 
L 636.897501 180.87324 
L 638.208064 196.088274 
L 639.518628 205.016857 
L 640.829192 203.038512 
L 642.139756 171.42404 
L 643.450319 149.896523 
L 644.760883 142.204405 
L 646.071447 143.818318 
L 647.382011 162.261179 
L 648.692574 191.780168 
L 650.003138 226.72659 
L 651.313702 254.631666 
L 652.624265 278.020388 
L 653.934829 290.827569 
L 655.245393 296.983866 
L 656.555957 296.814665 
L 657.86652 292.07705 
L 660.487648 273.139603 
L 661.798212 245.442774 
L 663.108775 212.26645 
L 664.419339 193.641374 
L 665.729903 188.799635 
L 667.040467 180.899271 
L 668.35103 181.393857 
L 669.661594 198.938653 
L 670.972158 206.904094 
L 672.282722 206.4876 
L 673.593285 175.836269 
L 674.903849 155.935681 
L 676.214413 144.221797 
L 677.524977 141.866004 
L 678.83554 158.564797 
L 681.456668 233.312396 
L 840.034881 225.242831 
L 841.345445 247.655397 
L 842.656009 260.371469 
L 843.966572 265.942072 
L 845.277136 267.048383 
L 846.5877 259.902914 
L 847.898264 241.590208 
L 849.208827 218.136408 
L 850.519391 179.584712 
L 851.829955 149.206705 
L 853.140519 148.607996 
L 854.451082 157.744826 
L 855.761646 159.397785 
L 857.07221 169.31554 
L 858.382774 186.079411 
L 859.693337 195.099102 
L 861.003901 195.411472 
L 863.625029 138.794364 
L 864.935592 132.247604 
L 866.246156 134.017702 
L 867.55672 152.811979 
L 868.867284 183.203001 
L 870.177847 220.140784 
L 871.488411 250.18039 
L 872.798975 273.282773 
L 874.109539 284.072562 
L 875.420102 291.061847 
L 876.730666 289.786335 
L 878.04123 284.410963 
L 879.351794 273.855452 
L 880.662357 266.215396 
L 881.972921 241.655285 
L 883.283485 213.581008 
L 884.594049 204.209901 
L 885.904612 207.724066 
L 887.215176 205.381289 
L 888.52574 207.22948 
L 889.836304 220.505216 
L 891.146867 229.108413 
L 892.457431 233.143195 
L 893.767995 200.799859 
L 895.078559 163.36749 
L 896.389122 146.030941 
L 897.699686 142.464714 
L 899.01025 156.729622 
L 900.320814 192.365862 
L 901.631377 233.468581 
L 1060.209591 233.494612 
L 1061.520154 257.299828 
L 1062.830718 268.779435 
L 1064.141282 273.881483 
L 1065.451846 274.063699 
L 1066.762409 268.219772 
L 1068.072973 253.356154 
L 1069.383537 233.286365 
L 1072.004664 168.274306 
L 1073.315228 164.786172 
L 1074.625792 171.788472 
L 1075.936356 171.892595 
L 1077.246919 182.252875 
L 1078.557483 199.849733 
L 1079.868047 209.546226 
L 1081.178611 209.36401 
L 1082.489174 185.28547 
L 1083.799738 156.235036 
L 1085.110302 149.440983 
L 1086.420866 153.670997 
L 1087.731429 173.194138 
L 1089.041993 198.535174 
L 1090.352557 266.722998 
L 1090.352557 266.722998 
" clip-path="url(#pe5bcb9d95d)" style="fill: none; stroke: #dd8452; stroke-width: 2; stroke-linecap: round"/>
   </g>
   <g id="line2d_17"/>
   <g id="line2d_18"/>
   <g id="patch_3">
    <path d="M 67.91625 347.773968 
L 67.91625 45.6 
" style="fill: none; stroke: #cccccc; stroke-width: 1.25; stroke-linejoin: miter; stroke-linecap: square"/>
   </g>
   <g id="patch_4">
    <path d="M 1139.04 347.773968 
L 1139.04 45.6 
" style="fill: none; stroke: #cccccc; stroke-width: 1.25; stroke-linejoin: miter; stroke-linecap: square"/>
   </g>
   <g id="patch_5">
    <path d="M 67.91625 347.773968 
L 1139.04 347.773968 
" style="fill: none; stroke: #cccccc; stroke-width: 1.25; stroke-linejoin: miter; stroke-linecap: square"/>
   </g>
   <g id="patch_6">
    <path d="M 67.91625 45.6 
L 1139.04 45.6 
" style="fill: none; stroke: #cccccc; stroke-width: 1.25; stroke-linejoin: miter; stroke-linecap: square"/>
   </g>
   <g id="text_17">
    <!-- Carga Total ao Longo de Janeiro de 2015 -->
    <g style="fill: #262626" transform="translate(465.603516 23.558906) scale(0.15 -0.15)">
     <defs>
      <path id="ArialMT-4c" d="M 469 0 
L 469 4581 
L 1075 4581 
L 1075 541 
L 3331 541 
L 3331 0 
L 469 0 
z
" transform="scale(0.015625)"/>
      <path id="ArialMT-6e" d="M 422 0 
L 422 3319 
L 928 3319 
L 928 2847 
Q 1294 3394 1984 3394 
Q 2284 3394 2536 3286 
Q 2788 3178 2913 3003 
Q 3038 2828 3088 2588 
Q 3119 2431 3119 2041 
L 3119 0 
L 2556 0 
L 2556 2019 
Q 2556 2363 2490 2533 
Q 2425 2703 2258 2804 
Q 2091 2906 1866 2906 
Q 1506 2906 1245 2678 
Q 984 2450 984 1813 
L 984 0 
L 422 0 
z
" transform="scale(0.015625)"/>
      <path id="ArialMT-64" d="M 2575 0 
L 2575 419 
Q 2259 -75 1647 -75 
Q 1250 -75 917 144 
Q 584 363 401 755 
Q 219 1147 219 1656 
Q 219 2153 384 2558 
Q 550 2963 881 3178 
Q 1213 3394 1622 3394 
Q 1922 3394 2156 3267 
Q 2391 3141 2538 2938 
L 2538 4581 
L 3097 4581 
L 3097 0 
L 2575 0 
z
M 797 1656 
Q 797 1019 1065 703 
Q 1334 388 1700 388 
Q 2069 388 2326 689 
Q 2584 991 2584 1609 
Q 2584 2291 2321 2609 
Q 2059 2928 1675 2928 
Q 1300 2928 1048 2622 
Q 797 2316 797 1656 
z
" transform="scale(0.015625)"/>
      <path id="ArialMT-65" d="M 2694 1069 
L 3275 997 
Q 3138 488 2766 206 
Q 2394 -75 1816 -75 
Q 1088 -75 661 373 
Q 234 822 234 1631 
Q 234 2469 665 2931 
Q 1097 3394 1784 3394 
Q 2450 3394 2872 2941 
Q 3294 2488 3294 1666 
Q 3294 1616 3291 1516 
L 816 1516 
Q 847 969 1125 678 
Q 1403 388 1819 388 
Q 2128 388 2347 550 
Q 2566 713 2694 1069 
z
M 847 1978 
L 2700 1978 
Q 2663 2397 2488 2606 
Q 2219 2931 1791 2931 
Q 1403 2931 1139 2672 
Q 875 2413 847 1978 
z
" transform="scale(0.015625)"/>
      <path id="ArialMT-4a" d="M 184 1300 
L 731 1375 
Q 753 850 928 656 
Q 1103 463 1413 463 
Q 1641 463 1806 567 
Q 1972 672 2034 851 
Q 2097 1031 2097 1425 
L 2097 4581 
L 2703 4581 
L 2703 1459 
Q 2703 884 2564 568 
Q 2425 253 2123 87 
Q 1822 -78 1416 -78 
Q 813 -78 492 269 
Q 172 616 184 1300 
z
" transform="scale(0.015625)"/>
      <path id="ArialMT-69" d="M 425 3934 
L 425 4581 
L 988 4581 
L 988 3934 
L 425 3934 
z
M 425 0 
L 425 3319 
L 988 3319 
L 988 0 
L 425 0 
z
" transform="scale(0.015625)"/>
     </defs>
     <use xlink:href="#ArialMT-43"/>
     <use xlink:href="#ArialMT-61" transform="translate(72.216797 0)"/>
     <use xlink:href="#ArialMT-72" transform="translate(127.832031 0)"/>
     <use xlink:href="#ArialMT-67" transform="translate(161.132812 0)"/>
     <use xlink:href="#ArialMT-61" transform="translate(216.748047 0)"/>
     <use xlink:href="#ArialMT-20" transform="translate(272.363281 0)"/>
     <use xlink:href="#ArialMT-54" transform="translate(298.396484 0)"/>
     <use xlink:href="#ArialMT-6f" transform="translate(348.355469 0)"/>
     <use xlink:href="#ArialMT-74" transform="translate(403.970703 0)"/>
     <use xlink:href="#ArialMT-61" transform="translate(431.753906 0)"/>
     <use xlink:href="#ArialMT-6c" transform="translate(487.369141 0)"/>
     <use xlink:href="#ArialMT-20" transform="translate(509.585938 0)"/>
     <use xlink:href="#ArialMT-61" transform="translate(537.369141 0)"/>
     <use xlink:href="#ArialMT-6f" transform="translate(592.984375 0)"/>
     <use xlink:href="#ArialMT-20" transform="translate(648.599609 0)"/>
     <use xlink:href="#ArialMT-4c" transform="translate(676.382812 0)"/>
     <use xlink:href="#ArialMT-6f" transform="translate(731.998047 0)"/>
     <use xlink:href="#ArialMT-6e" transform="translate(787.613281 0)"/>
     <use xlink:href="#ArialMT-67" transform="translate(843.228516 0)"/>
     <use xlink:href="#ArialMT-6f" transform="translate(898.84375 0)"/>
     <use xlink:href="#ArialMT-20" transform="translate(954.458984 0)"/>
     <use xlink:href="#ArialMT-64" transform="translate(982.242188 0)"/>
     <use xlink:href="#ArialMT-65" transform="translate(1037.857422 0)"/>
     <use xlink:href="#ArialMT-20" transform="translate(1093.472656 0)"/>
     <use xlink:href="#ArialMT-4a" transform="translate(1121.255859 0)"/>
     <use xlink:href="#ArialMT-61" transform="translate(1171.255859 0)"/>
     <use xlink:href="#ArialMT-6e" transform="translate(1226.871094 0)"/>
     <use xlink:href="#ArialMT-65" transform="translate(1282.486328 0)"/>
     <use xlink:href="#ArialMT-69" transform="translate(1338.101562 0)"/>
     <use xlink:href="#ArialMT-72" transform="translate(1360.318359 0)"/>
     <use xlink:href="#ArialMT-6f" transform="translate(1393.619141 0)"/>
     <use xlink:href="#ArialMT-20" transform="translate(1449.234375 0)"/>
     <use xlink:href="#ArialMT-64" transform="translate(1477.017578 0)"/>
     <use xlink:href="#ArialMT-65" transform="translate(1532.632812 0)"/>
     <use xlink:href="#ArialMT-20" transform="translate(1588.248047 0)"/>
     <use xlink:href="#ArialMT-32" transform="translate(1616.03125 0)"/>
     <use xlink:href="#ArialMT-30" transform="translate(1671.646484 0)"/>
     <use xlink:href="#ArialMT-31" transform="translate(1727.261719 0)"/>
     <use xlink:href="#ArialMT-35" transform="translate(1782.876953 0)"/>
    </g>
    <!-- Dias Úteis vs. Fins de Semana -->
    <g style="fill: #262626" transform="translate(500.94375 39.6) scale(0.15 -0.15)">
     <defs>
      <path id="ArialMT-73" d="M 197 991 
L 753 1078 
Q 800 744 1014 566 
Q 1228 388 1613 388 
Q 2000 388 2187 545 
Q 2375 703 2375 916 
Q 2375 1106 2209 1216 
Q 2094 1291 1634 1406 
Q 1016 1563 777 1677 
Q 538 1791 414 1992 
Q 291 2194 291 2438 
Q 291 2659 392 2848 
Q 494 3038 669 3163 
Q 800 3259 1026 3326 
Q 1253 3394 1513 3394 
Q 1903 3394 2198 3281 
Q 2494 3169 2634 2976 
Q 2775 2784 2828 2463 
L 2278 2388 
Q 2241 2644 2061 2787 
Q 1881 2931 1553 2931 
Q 1166 2931 1000 2803 
Q 834 2675 834 2503 
Q 834 2394 903 2306 
Q 972 2216 1119 2156 
Q 1203 2125 1616 2013 
Q 2213 1853 2448 1751 
Q 2684 1650 2818 1456 
Q 2953 1263 2953 975 
Q 2953 694 2789 445 
Q 2625 197 2315 61 
Q 2006 -75 1616 -75 
Q 969 -75 630 194 
Q 291 463 197 991 
z
" transform="scale(0.015625)"/>
      <path id="ArialMT-da" d="M 3500 4581 
L 4106 4581 
L 4106 1934 
Q 4106 1244 3950 837 
Q 3794 431 3386 176 
Q 2978 -78 2316 -78 
Q 1672 -78 1262 144 
Q 853 366 678 786 
Q 503 1206 503 1934 
L 503 4581 
L 1109 4581 
L 1109 1938 
Q 1109 1341 1220 1058 
Q 1331 775 1601 622 
Q 1872 469 2263 469 
Q 2931 469 3215 772 
Q 3500 1075 3500 1938 
L 3500 4581 
z
M 1919 4862 
L 2334 5737 
L 3072 5737 
L 2384 4862 
L 1919 4862 
z
" transform="scale(0.015625)"/>
      <path id="ArialMT-76" d="M 1344 0 
L 81 3319 
L 675 3319 
L 1388 1331 
Q 1503 1009 1600 663 
Q 1675 925 1809 1294 
L 2547 3319 
L 3125 3319 
L 1869 0 
L 1344 0 
z
" transform="scale(0.015625)"/>
      <path id="ArialMT-2e" d="M 581 0 
L 581 641 
L 1222 641 
L 1222 0 
L 581 0 
z
" transform="scale(0.015625)"/>
      <path id="ArialMT-46" d="M 525 0 
L 525 4581 
L 3616 4581 
L 3616 4041 
L 1131 4041 
L 1131 2622 
L 3281 2622 
L 3281 2081 
L 1131 2081 
L 1131 0 
L 525 0 
z
" transform="scale(0.015625)"/>
      <path id="ArialMT-53" d="M 288 1472 
L 859 1522 
Q 900 1178 1048 958 
Q 1197 738 1509 602 
Q 1822 466 2213 466 
Q 2559 466 2825 569 
Q 3091 672 3220 851 
Q 3350 1031 3350 1244 
Q 3350 1459 3225 1620 
Q 3100 1781 2813 1891 
Q 2628 1963 1997 2114 
Q 1366 2266 1113 2400 
Q 784 2572 623 2826 
Q 463 3081 463 3397 
Q 463 3744 659 4045 
Q 856 4347 1234 4503 
Q 1613 4659 2075 4659 
Q 2584 4659 2973 4495 
Q 3363 4331 3572 4012 
Q 3781 3694 3797 3291 
L 3216 3247 
Q 3169 3681 2898 3903 
Q 2628 4125 2100 4125 
Q 1550 4125 1298 3923 
Q 1047 3722 1047 3438 
Q 1047 3191 1225 3031 
Q 1400 2872 2139 2705 
Q 2878 2538 3153 2413 
Q 3553 2228 3743 1945 
Q 3934 1663 3934 1294 
Q 3934 928 3725 604 
Q 3516 281 3123 101 
Q 2731 -78 2241 -78 
Q 1619 -78 1198 103 
Q 778 284 539 648 
Q 300 1013 288 1472 
z
" transform="scale(0.015625)"/>
      <path id="ArialMT-6d" d="M 422 0 
L 422 3319 
L 925 3319 
L 925 2853 
Q 1081 3097 1340 3245 
Q 1600 3394 1931 3394 
Q 2300 3394 2536 3241 
Q 2772 3088 2869 2813 
Q 3263 3394 3894 3394 
Q 4388 3394 4653 3120 
Q 4919 2847 4919 2278 
L 4919 0 
L 4359 0 
L 4359 2091 
Q 4359 2428 4304 2576 
Q 4250 2725 4106 2815 
Q 3963 2906 3769 2906 
Q 3419 2906 3187 2673 
Q 2956 2441 2956 1928 
L 2956 0 
L 2394 0 
L 2394 2156 
Q 2394 2531 2256 2718 
Q 2119 2906 1806 2906 
Q 1569 2906 1367 2781 
Q 1166 2656 1075 2415 
Q 984 2175 984 1722 
L 984 0 
L 422 0 
z
" transform="scale(0.015625)"/>
     </defs>
     <use xlink:href="#ArialMT-44"/>
     <use xlink:href="#ArialMT-69" transform="translate(72.216797 0)"/>
     <use xlink:href="#ArialMT-61" transform="translate(94.433594 0)"/>
     <use xlink:href="#ArialMT-73" transform="translate(150.048828 0)"/>
     <use xlink:href="#ArialMT-20" transform="translate(200.048828 0)"/>
     <use xlink:href="#ArialMT-da" transform="translate(227.832031 0)"/>
     <use xlink:href="#ArialMT-74" transform="translate(300.048828 0)"/>
     <use xlink:href="#ArialMT-65" transform="translate(327.832031 0)"/>
     <use xlink:href="#ArialMT-69" transform="translate(383.447266 0)"/>
     <use xlink:href="#ArialMT-73" transform="translate(405.664062 0)"/>
     <use xlink:href="#ArialMT-20" transform="translate(455.664062 0)"/>
     <use xlink:href="#ArialMT-76" transform="translate(483.447266 0)"/>
     <use xlink:href="#ArialMT-73" transform="translate(533.447266 0)"/>
     <use xlink:href="#ArialMT-2e" transform="translate(583.447266 0)"/>
     <use xlink:href="#ArialMT-20" transform="translate(611.230469 0)"/>
     <use xlink:href="#ArialMT-46" transform="translate(639.013672 0)"/>
     <use xlink:href="#ArialMT-69" transform="translate(700.097656 0)"/>
     <use xlink:href="#ArialMT-6e" transform="translate(722.314453 0)"/>
     <use xlink:href="#ArialMT-73" transform="translate(777.929688 0)"/>
     <use xlink:href="#ArialMT-20" transform="translate(827.929688 0)"/>
     <use xlink:href="#ArialMT-64" transform="translate(855.712891 0)"/>
     <use xlink:href="#ArialMT-65" transform="translate(911.328125 0)"/>
     <use xlink:href="#ArialMT-20" transform="translate(966.943359 0)"/>
     <use xlink:href="#ArialMT-53" transform="translate(994.726562 0)"/>
     <use xlink:href="#ArialMT-65" transform="translate(1061.425781 0)"/>
     <use xlink:href="#ArialMT-6d" transform="translate(1117.041016 0)"/>
     <use xlink:href="#ArialMT-61" transform="translate(1200.341797 0)"/>
     <use xlink:href="#ArialMT-6e" transform="translate(1255.957031 0)"/>
     <use xlink:href="#ArialMT-61" transform="translate(1311.572266 0)"/>
    </g>
   </g>
   <g id="legend_1">
    <g id="patch_7">
     <path d="M 75.61625 101.994062 
L 186.618281 101.994062 
Q 188.818281 101.994062 188.818281 99.794062 
L 188.818281 53.3 
Q 188.818281 51.1 186.618281 51.1 
L 75.61625 51.1 
Q 73.41625 51.1 73.41625 53.3 
L 73.41625 99.794062 
Q 73.41625 101.994062 75.61625 101.994062 
z
" style="fill: #ffffff; opacity: 0.8; stroke: #cccccc; stroke-linejoin: miter"/>
    </g>
    <g id="text_18">
     <!-- tipo_dia -->
     <g style="fill: #262626" transform="translate(110.101328 64.089375) scale(0.12 -0.12)">
      <defs>
       <path id="ArialMT-70" d="M 422 -1272 
L 422 3319 
L 934 3319 
L 934 2888 
Q 1116 3141 1344 3267 
Q 1572 3394 1897 3394 
Q 2322 3394 2647 3175 
Q 2972 2956 3137 2557 
Q 3303 2159 3303 1684 
Q 3303 1175 3120 767 
Q 2938 359 2589 142 
Q 2241 -75 1856 -75 
Q 1575 -75 1351 44 
Q 1128 163 984 344 
L 984 -1272 
L 422 -1272 
z
M 931 1641 
Q 931 1000 1190 694 
Q 1450 388 1819 388 
Q 2194 388 2461 705 
Q 2728 1022 2728 1688 
Q 2728 2322 2467 2637 
Q 2206 2953 1844 2953 
Q 1484 2953 1207 2617 
Q 931 2281 931 1641 
z
" transform="scale(0.015625)"/>
       <path id="ArialMT-5f" d="M -97 -1272 
L -97 -866 
L 3631 -866 
L 3631 -1272 
L -97 -1272 
z
" transform="scale(0.015625)"/>
      </defs>
      <use xlink:href="#ArialMT-74"/>
      <use xlink:href="#ArialMT-69" transform="translate(27.783203 0)"/>
      <use xlink:href="#ArialMT-70" transform="translate(50 0)"/>
      <use xlink:href="#ArialMT-6f" transform="translate(105.615234 0)"/>
      <use xlink:href="#ArialMT-5f" transform="translate(161.230469 0)"/>
      <use xlink:href="#ArialMT-64" transform="translate(216.845703 0)"/>
      <use xlink:href="#ArialMT-69" transform="translate(272.460938 0)"/>
      <use xlink:href="#ArialMT-61" transform="translate(294.677734 0)"/>
     </g>
    </g>
    <g id="line2d_19">
     <path d="M 77.81625 75.997969 
L 88.81625 75.997969 
L 99.81625 75.997969 
" style="fill: none; stroke: #4c72b0; stroke-width: 2; stroke-linecap: round"/>
    </g>
    <g id="text_19">
     <!-- Dia útil -->
     <g style="fill: #262626" transform="translate(108.61625 79.847969) scale(0.11 -0.11)">
      <defs>
       <path id="ArialMT-fa" d="M 2597 0 
L 2597 488 
Q 2209 -75 1544 -75 
Q 1250 -75 995 37 
Q 741 150 617 320 
Q 494 491 444 738 
Q 409 903 409 1263 
L 409 3319 
L 972 3319 
L 972 1478 
Q 972 1038 1006 884 
Q 1059 663 1231 536 
Q 1403 409 1656 409 
Q 1909 409 2131 539 
Q 2353 669 2445 892 
Q 2538 1116 2538 1541 
L 2538 3319 
L 3100 3319 
L 3100 0 
L 2597 0 
z
M 1416 3731 
L 1831 4606 
L 2569 4606 
L 1881 3731 
L 1416 3731 
z
" transform="scale(0.015625)"/>
      </defs>
      <use xlink:href="#ArialMT-44"/>
      <use xlink:href="#ArialMT-69" transform="translate(72.216797 0)"/>
      <use xlink:href="#ArialMT-61" transform="translate(94.433594 0)"/>
      <use xlink:href="#ArialMT-20" transform="translate(150.048828 0)"/>
      <use xlink:href="#ArialMT-fa" transform="translate(177.832031 0)"/>
      <use xlink:href="#ArialMT-74" transform="translate(233.447266 0)"/>
      <use xlink:href="#ArialMT-69" transform="translate(261.230469 0)"/>
      <use xlink:href="#ArialMT-6c" transform="translate(283.447266 0)"/>
     </g>
    </g>
    <g id="line2d_20">
     <path d="M 77.81625 91.557812 
L 88.81625 91.557812 
L 99.81625 91.557812 
" style="fill: none; stroke: #dd8452; stroke-width: 2; stroke-linecap: round"/>
    </g>
    <g id="text_20">
     <!-- Fim de semana -->
     <g style="fill: #262626" transform="translate(108.61625 95.407812) scale(0.11 -0.11)">
      <use xlink:href="#ArialMT-46"/>
      <use xlink:href="#ArialMT-69" transform="translate(61.083984 0)"/>
      <use xlink:href="#ArialMT-6d" transform="translate(83.300781 0)"/>
      <use xlink:href="#ArialMT-20" transform="translate(166.601562 0)"/>
      <use xlink:href="#ArialMT-64" transform="translate(194.384766 0)"/>
      <use xlink:href="#ArialMT-65" transform="translate(250 0)"/>
      <use xlink:href="#ArialMT-20" transform="translate(305.615234 0)"/>
      <use xlink:href="#ArialMT-73" transform="translate(333.398438 0)"/>
      <use xlink:href="#ArialMT-65" transform="translate(383.398438 0)"/>
      <use xlink:href="#ArialMT-6d" transform="translate(439.013672 0)"/>
      <use xlink:href="#ArialMT-61" transform="translate(522.314453 0)"/>
      <use xlink:href="#ArialMT-6e" transform="translate(577.929688 0)"/>
      <use xlink:href="#ArialMT-61" transform="translate(633.544922 0)"/>
     </g>
    </g>
   </g>
  </g>
 </g>
 <defs>
  <clipPath id="pe5bcb9d95d">
   <rect x="67.91625" y="45.6" width="1071.12375" height="302.173968"/>
  </clipPath>
 </defs>
</svg>
