<?xml version="1.0" encoding="utf-8" standalone="no"?>
<!DOCTYPE svg PUBLIC "-//W3C//DTD SVG 1.1//EN"
  "http://www.w3.org/Graphics/SVG/1.1/DTD/svg11.dtd">
<svg xmlns:xlink="http://www.w3.org/1999/xlink" width="1080pt" height="432pt" viewBox="0 0 1080 432" xmlns="http://www.w3.org/2000/svg" version="1.1">
 <metadata>
  <rdf:RDF xmlns:dc="http://purl.org/dc/elements/1.1/" xmlns:cc="http://creativecommons.org/ns#" xmlns:rdf="http://www.w3.org/1999/02/22-rdf-syntax-ns#">
   <cc:Work>
    <dc:type rdf:resource="http://purl.org/dc/dcmitype/StillImage"/>
    <dc:date>2026-04-23T21:08:58.754446</dc:date>
    <dc:format>image/svg+xml</dc:format>
    <dc:creator>
     <cc:Agent>
      <dc:title>Matplotlib v3.10.8, https://matplotlib.org/</dc:title>
     </cc:Agent>
    </dc:creator>
   </cc:Work>
  </rdf:RDF>
 </metadata>
 <defs>
  <style type="text/css">*{stroke-linejoin: round; stroke-linecap: butt}</style>
 </defs>
 <g id="figure_1">
  <g id="patch_1">
   <path d="M 0 432 
L 1080 432 
L 1080 0 
L 0 0 
z
" style="fill: #ffffff"/>
  </g>
  <g id="axes_1">
   <g id="patch_2">
    <path d="M 67.91625 384.66 
L 1067.04 384.66 
L 1067.04 39.48 
L 67.91625 39.48 
z
" style="fill: #ffffff"/>
   </g>
   <g id="matplotlib.axis_1">
    <g id="xtick_1">
     <g id="text_1">
      <!-- 0 -->
      <g style="fill: #262626" transform="translate(85.672813 402.033594) scale(0.11 -0.11)">
       <defs>
        <path id="ArialMT-30" d="M 266 2259 
Q 266 3072 433 3567 
Q 600 4063 929 4331 
Q 1259 4600 1759 4600 
Q 2128 4600 2406 4451 
Q 2684 4303 2865 4023 
Q 3047 3744 3150 3342 
Q 3253 2941 3253 2259 
Q 3253 1453 3087 958 
Q 2922 463 2592 192 
Q 2263 -78 1759 -78 
Q 1097 -78 719 397 
Q 266 969 266 2259 
z
M 844 2259 
Q 844 1131 1108 757 
Q 1372 384 1759 384 
Q 2147 384 2411 759 
Q 2675 1134 2675 2259 
Q 2675 3391 2411 3762 
Q 2147 4134 1753 4134 
Q 1366 4134 1134 3806 
Q 844 3388 844 2259 
z
" transform="scale(0.015625)"/>
       </defs>
       <use xlink:href="#ArialMT-30"/>
      </g>
     </g>
    </g>
    <g id="xtick_2">
     <g id="text_2">
      <!-- 1 -->
      <g style="fill: #262626" transform="translate(127.302969 402.033594) scale(0.11 -0.11)">
       <defs>
        <path id="ArialMT-31" d="M 2384 0 
L 1822 0 
L 1822 3584 
Q 1619 3391 1289 3197 
Q 959 3003 697 2906 
L 697 3450 
Q 1169 3672 1522 3987 
Q 1875 4303 2022 4600 
L 2384 4600 
L 2384 0 
z
" transform="scale(0.015625)"/>
       </defs>
       <use xlink:href="#ArialMT-31"/>
      </g>
     </g>
    </g>
    <g id="xtick_3">
     <g id="text_3">
      <!-- 2 -->
      <g style="fill: #262626" transform="translate(168.933125 402.033594) scale(0.11 -0.11)">
       <defs>
        <path id="ArialMT-32" d="M 3222 541 
L 3222 0 
L 194 0 
Q 188 203 259 391 
Q 375 700 629 1000 
Q 884 1300 1366 1694 
Q 2113 2306 2375 2664 
Q 2638 3022 2638 3341 
Q 2638 3675 2398 3904 
Q 2159 4134 1775 4134 
Q 1369 4134 1125 3890 
Q 881 3647 878 3216 
L 300 3275 
Q 359 3922 746 4261 
Q 1134 4600 1788 4600 
Q 2447 4600 2831 4234 
Q 3216 3869 3216 3328 
Q 3216 3053 3103 2787 
Q 2991 2522 2730 2228 
Q 2469 1934 1863 1422 
Q 1356 997 1212 845 
Q 1069 694 975 541 
L 3222 541 
z
" transform="scale(0.015625)"/>
       </defs>
       <use xlink:href="#ArialMT-32"/>
      </g>
     </g>
    </g>
    <g id="xtick_4">
     <g id="text_4">
      <!-- 3 -->
      <g style="fill: #262626" transform="translate(210.563281 402.033594) scale(0.11 -0.11)">
       <defs>
        <path id="ArialMT-33" d="M 269 1209 
L 831 1284 
Q 928 806 1161 595 
Q 1394 384 1728 384 
Q 2125 384 2398 659 
Q 2672 934 2672 1341 
Q 2672 1728 2419 1979 
Q 2166 2231 1775 2231 
Q 1616 2231 1378 2169 
L 1441 2663 
Q 1497 2656 1531 2656 
Q 1891 2656 2178 2843 
Q 2466 3031 2466 3422 
Q 2466 3731 2256 3934 
Q 2047 4138 1716 4138 
Q 1388 4138 1169 3931 
Q 950 3725 888 3313 
L 325 3413 
Q 428 3978 793 4289 
Q 1159 4600 1703 4600 
Q 2078 4600 2393 4439 
Q 2709 4278 2876 4000 
Q 3044 3722 3044 3409 
Q 3044 3113 2884 2869 
Q 2725 2625 2413 2481 
Q 2819 2388 3044 2092 
Q 3269 1797 3269 1353 
Q 3269 753 2831 336 
Q 2394 -81 1725 -81 
Q 1122 -81 723 278 
Q 325 638 269 1209 
z
" transform="scale(0.015625)"/>
       </defs>
       <use xlink:href="#ArialMT-33"/>
      </g>
     </g>
    </g>
    <g id="xtick_5">
     <g id="text_5">
      <!-- 4 -->
      <g style="fill: #262626" transform="translate(252.193437 402.033594) scale(0.11 -0.11)">
       <defs>
        <path id="ArialMT-34" d="M 2069 0 
L 2069 1097 
L 81 1097 
L 81 1613 
L 2172 4581 
L 2631 4581 
L 2631 1613 
L 3250 1613 
L 3250 1097 
L 2631 1097 
L 2631 0 
L 2069 0 
z
M 2069 1613 
L 2069 3678 
L 634 1613 
L 2069 1613 
z
" transform="scale(0.015625)"/>
       </defs>
       <use xlink:href="#ArialMT-34"/>
      </g>
     </g>
    </g>
    <g id="xtick_6">
     <g id="text_6">
      <!-- 5 -->
      <g style="fill: #262626" transform="translate(293.823594 402.033594) scale(0.11 -0.11)">
       <defs>
        <path id="ArialMT-35" d="M 266 1200 
L 856 1250 
Q 922 819 1161 601 
Q 1400 384 1738 384 
Q 2144 384 2425 690 
Q 2706 997 2706 1503 
Q 2706 1984 2436 2262 
Q 2166 2541 1728 2541 
Q 1456 2541 1237 2417 
Q 1019 2294 894 2097 
L 366 2166 
L 809 4519 
L 3088 4519 
L 3088 3981 
L 1259 3981 
L 1013 2750 
Q 1425 3038 1878 3038 
Q 2478 3038 2890 2622 
Q 3303 2206 3303 1553 
Q 3303 931 2941 478 
Q 2500 -78 1738 -78 
Q 1113 -78 717 272 
Q 322 622 266 1200 
z
" transform="scale(0.015625)"/>
       </defs>
       <use xlink:href="#ArialMT-35"/>
      </g>
     </g>
    </g>
    <g id="xtick_7">
     <g id="text_7">
      <!-- 6 -->
      <g style="fill: #262626" transform="translate(335.45375 402.033594) scale(0.11 -0.11)">
       <defs>
        <path id="ArialMT-36" d="M 3184 3459 
L 2625 3416 
Q 2550 3747 2413 3897 
Q 2184 4138 1850 4138 
Q 1581 4138 1378 3988 
Q 1113 3794 959 3422 
Q 806 3050 800 2363 
Q 1003 2672 1297 2822 
Q 1591 2972 1913 2972 
Q 2475 2972 2870 2558 
Q 3266 2144 3266 1488 
Q 3266 1056 3080 686 
Q 2894 316 2569 119 
Q 2244 -78 1831 -78 
Q 1128 -78 684 439 
Q 241 956 241 2144 
Q 241 3472 731 4075 
Q 1159 4600 1884 4600 
Q 2425 4600 2770 4297 
Q 3116 3994 3184 3459 
z
M 888 1484 
Q 888 1194 1011 928 
Q 1134 663 1356 523 
Q 1578 384 1822 384 
Q 2178 384 2434 671 
Q 2691 959 2691 1453 
Q 2691 1928 2437 2201 
Q 2184 2475 1800 2475 
Q 1419 2475 1153 2201 
Q 888 1928 888 1484 
z
" transform="scale(0.015625)"/>
       </defs>
       <use xlink:href="#ArialMT-36"/>
      </g>
     </g>
    </g>
    <g id="xtick_8">
     <g id="text_8">
      <!-- 7 -->
      <g style="fill: #262626" transform="translate(377.083906 402.033594) scale(0.11 -0.11)">
       <defs>
        <path id="ArialMT-37" d="M 303 3981 
L 303 4522 
L 3269 4522 
L 3269 4084 
Q 2831 3619 2401 2847 
Q 1972 2075 1738 1259 
Q 1569 684 1522 0 
L 944 0 
Q 953 541 1156 1306 
Q 1359 2072 1739 2783 
Q 2119 3494 2547 3981 
L 303 3981 
z
" transform="scale(0.015625)"/>
       </defs>
       <use xlink:href="#ArialMT-37"/>
      </g>
     </g>
    </g>
    <g id="xtick_9">
     <g id="text_9">
      <!-- 8 -->
      <g style="fill: #262626" transform="translate(418.714063 402.033594) scale(0.11 -0.11)">
       <defs>
        <path id="ArialMT-38" d="M 1131 2484 
Q 781 2613 612 2850 
Q 444 3088 444 3419 
Q 444 3919 803 4259 
Q 1163 4600 1759 4600 
Q 2359 4600 2725 4251 
Q 3091 3903 3091 3403 
Q 3091 3084 2923 2848 
Q 2756 2613 2416 2484 
Q 2838 2347 3058 2040 
Q 3278 1734 3278 1309 
Q 3278 722 2862 322 
Q 2447 -78 1769 -78 
Q 1091 -78 675 323 
Q 259 725 259 1325 
Q 259 1772 486 2073 
Q 713 2375 1131 2484 
z
M 1019 3438 
Q 1019 3113 1228 2906 
Q 1438 2700 1772 2700 
Q 2097 2700 2305 2904 
Q 2513 3109 2513 3406 
Q 2513 3716 2298 3927 
Q 2084 4138 1766 4138 
Q 1444 4138 1231 3931 
Q 1019 3725 1019 3438 
z
M 838 1322 
Q 838 1081 952 856 
Q 1066 631 1291 507 
Q 1516 384 1775 384 
Q 2178 384 2440 643 
Q 2703 903 2703 1303 
Q 2703 1709 2433 1975 
Q 2163 2241 1756 2241 
Q 1359 2241 1098 1978 
Q 838 1716 838 1322 
z
" transform="scale(0.015625)"/>
       </defs>
       <use xlink:href="#ArialMT-38"/>
      </g>
     </g>
    </g>
    <g id="xtick_10">
     <g id="text_10">
      <!-- 9 -->
      <g style="fill: #262626" transform="translate(460.344219 402.033594) scale(0.11 -0.11)">
       <defs>
        <path id="ArialMT-39" d="M 350 1059 
L 891 1109 
Q 959 728 1153 556 
Q 1347 384 1650 384 
Q 1909 384 2104 503 
Q 2300 622 2425 820 
Q 2550 1019 2634 1356 
Q 2719 1694 2719 2044 
Q 2719 2081 2716 2156 
Q 2547 1888 2255 1720 
Q 1963 1553 1622 1553 
Q 1053 1553 659 1965 
Q 266 2378 266 3053 
Q 266 3750 677 4175 
Q 1088 4600 1706 4600 
Q 2153 4600 2523 4359 
Q 2894 4119 3086 3673 
Q 3278 3228 3278 2384 
Q 3278 1506 3087 986 
Q 2897 466 2520 194 
Q 2144 -78 1638 -78 
Q 1100 -78 759 220 
Q 419 519 350 1059 
z
M 2653 3081 
Q 2653 3566 2395 3850 
Q 2138 4134 1775 4134 
Q 1400 4134 1122 3828 
Q 844 3522 844 3034 
Q 844 2597 1108 2323 
Q 1372 2050 1759 2050 
Q 2150 2050 2401 2323 
Q 2653 2597 2653 3081 
z
" transform="scale(0.015625)"/>
       </defs>
       <use xlink:href="#ArialMT-39"/>
      </g>
     </g>
    </g>
    <g id="xtick_11">
     <g id="text_11">
      <!-- 10 -->
      <g style="fill: #262626" transform="translate(498.915859 402.033594) scale(0.11 -0.11)">
       <use xlink:href="#ArialMT-31"/>
       <use xlink:href="#ArialMT-30" transform="translate(55.615234 0)"/>
      </g>
     </g>
    </g>
    <g id="xtick_12">
     <g id="text_12">
      <!-- 11 -->
      <g style="fill: #262626" transform="translate(540.951641 402.033594) scale(0.11 -0.11)">
       <use xlink:href="#ArialMT-31"/>
       <use xlink:href="#ArialMT-31" transform="translate(48.240234 0)"/>
      </g>
     </g>
    </g>
    <g id="xtick_13">
     <g id="text_13">
      <!-- 12 -->
      <g style="fill: #262626" transform="translate(582.176172 402.033594) scale(0.11 -0.11)">
       <use xlink:href="#ArialMT-31"/>
       <use xlink:href="#ArialMT-32" transform="translate(55.615234 0)"/>
      </g>
     </g>
    </g>
    <g id="xtick_14">
     <g id="text_14">
      <!-- 13 -->
      <g style="fill: #262626" transform="translate(623.806328 402.033594) scale(0.11 -0.11)">
       <use xlink:href="#ArialMT-31"/>
       <use xlink:href="#ArialMT-33" transform="translate(55.615234 0)"/>
      </g>
     </g>
    </g>
    <g id="xtick_15">
     <g id="text_15">
      <!-- 14 -->
      <g style="fill: #262626" transform="translate(665.436484 402.033594) scale(0.11 -0.11)">
       <use xlink:href="#ArialMT-31"/>
       <use xlink:href="#ArialMT-34" transform="translate(55.615234 0)"/>
      </g>
     </g>
    </g>
    <g id="xtick_16">
     <g id="text_16">
      <!-- 15 -->
      <g style="fill: #262626" transform="translate(707.066641 402.033594) scale(0.11 -0.11)">
       <use xlink:href="#ArialMT-31"/>
       <use xlink:href="#ArialMT-35" transform="translate(55.615234 0)"/>
      </g>
     </g>
    </g>
    <g id="xtick_17">
     <g id="text_17">
      <!-- 16 -->
      <g style="fill: #262626" transform="translate(748.696797 402.033594) scale(0.11 -0.11)">
       <use xlink:href="#ArialMT-31"/>
       <use xlink:href="#ArialMT-36" transform="translate(55.615234 0)"/>
      </g>
     </g>
    </g>
    <g id="xtick_18">
     <g id="text_18">
      <!-- 17 -->
      <g style="fill: #262626" transform="translate(790.326953 402.033594) scale(0.11 -0.11)">
       <use xlink:href="#ArialMT-31"/>
       <use xlink:href="#ArialMT-37" transform="translate(55.615234 0)"/>
      </g>
     </g>
    </g>
    <g id="xtick_19">
     <g id="text_19">
      <!-- 18 -->
      <g style="fill: #262626" transform="translate(831.957109 402.033594) scale(0.11 -0.11)">
       <use xlink:href="#ArialMT-31"/>
       <use xlink:href="#ArialMT-38" transform="translate(55.615234 0)"/>
      </g>
     </g>
    </g>
    <g id="xtick_20">
     <g id="text_20">
      <!-- 19 -->
      <g style="fill: #262626" transform="translate(873.587266 402.033594) scale(0.11 -0.11)">
       <use xlink:href="#ArialMT-31"/>
       <use xlink:href="#ArialMT-39" transform="translate(55.615234 0)"/>
      </g>
     </g>
    </g>
    <g id="xtick_21">
     <g id="text_21">
      <!-- 20 -->
      <g style="fill: #262626" transform="translate(915.217422 402.033594) scale(0.11 -0.11)">
       <use xlink:href="#ArialMT-32"/>
       <use xlink:href="#ArialMT-30" transform="translate(55.615234 0)"/>
      </g>
     </g>
    </g>
    <g id="xtick_22">
     <g id="text_22">
      <!-- 21 -->
      <g style="fill: #262626" transform="translate(956.847578 402.033594) scale(0.11 -0.11)">
       <use xlink:href="#ArialMT-32"/>
       <use xlink:href="#ArialMT-31" transform="translate(55.615234 0)"/>
      </g>
     </g>
    </g>
    <g id="xtick_23">
     <g id="text_23">
      <!-- 22 -->
      <g style="fill: #262626" transform="translate(998.477734 402.033594) scale(0.11 -0.11)">
       <use xlink:href="#ArialMT-32"/>
       <use xlink:href="#ArialMT-32" transform="translate(55.615234 0)"/>
      </g>
     </g>
    </g>
    <g id="xtick_24">
     <g id="text_24">
      <!-- 23 -->
      <g style="fill: #262626" transform="translate(1040.107891 402.033594) scale(0.11 -0.11)">
       <use xlink:href="#ArialMT-32"/>
       <use xlink:href="#ArialMT-33" transform="translate(55.615234 0)"/>
      </g>
     </g>
    </g>
    <g id="text_25">
     <!-- Hora do dia -->
     <g style="fill: #262626" transform="translate(536.460938 416.809219) scale(0.12 -0.12)">
      <defs>
       <path id="ArialMT-48" d="M 513 0 
L 513 4581 
L 1119 4581 
L 1119 2700 
L 3500 2700 
L 3500 4581 
L 4106 4581 
L 4106 0 
L 3500 0 
L 3500 2159 
L 1119 2159 
L 1119 0 
L 513 0 
z
" transform="scale(0.015625)"/>
       <path id="ArialMT-6f" d="M 213 1659 
Q 213 2581 725 3025 
Q 1153 3394 1769 3394 
Q 2453 3394 2887 2945 
Q 3322 2497 3322 1706 
Q 3322 1066 3130 698 
Q 2938 331 2570 128 
Q 2203 -75 1769 -75 
Q 1072 -75 642 372 
Q 213 819 213 1659 
z
M 791 1659 
Q 791 1022 1069 705 
Q 1347 388 1769 388 
Q 2188 388 2466 706 
Q 2744 1025 2744 1678 
Q 2744 2294 2464 2611 
Q 2184 2928 1769 2928 
Q 1347 2928 1069 2612 
Q 791 2297 791 1659 
z
" transform="scale(0.015625)"/>
       <path id="ArialMT-72" d="M 416 0 
L 416 3319 
L 922 3319 
L 922 2816 
Q 1116 3169 1280 3281 
Q 1444 3394 1641 3394 
Q 1925 3394 2219 3213 
L 2025 2691 
Q 1819 2813 1613 2813 
Q 1428 2813 1281 2702 
Q 1134 2591 1072 2394 
Q 978 2094 978 1738 
L 978 0 
L 416 0 
z
" transform="scale(0.015625)"/>
       <path id="ArialMT-61" d="M 2588 409 
Q 2275 144 1986 34 
Q 1697 -75 1366 -75 
Q 819 -75 525 192 
Q 231 459 231 875 
Q 231 1119 342 1320 
Q 453 1522 633 1644 
Q 813 1766 1038 1828 
Q 1203 1872 1538 1913 
Q 2219 1994 2541 2106 
Q 2544 2222 2544 2253 
Q 2544 2597 2384 2738 
Q 2169 2928 1744 2928 
Q 1347 2928 1158 2789 
Q 969 2650 878 2297 
L 328 2372 
Q 403 2725 575 2942 
Q 747 3159 1072 3276 
Q 1397 3394 1825 3394 
Q 2250 3394 2515 3294 
Q 2781 3194 2906 3042 
Q 3031 2891 3081 2659 
Q 3109 2516 3109 2141 
L 3109 1391 
Q 3109 606 3145 398 
Q 3181 191 3288 0 
L 2700 0 
Q 2613 175 2588 409 
z
M 2541 1666 
Q 2234 1541 1622 1453 
Q 1275 1403 1131 1340 
Q 988 1278 909 1158 
Q 831 1038 831 891 
Q 831 666 1001 516 
Q 1172 366 1500 366 
Q 1825 366 2078 508 
Q 2331 650 2450 897 
Q 2541 1088 2541 1459 
L 2541 1666 
z
" transform="scale(0.015625)"/>
       <path id="ArialMT-20" transform="scale(0.015625)"/>
       <path id="ArialMT-64" d="M 2575 0 
L 2575 419 
Q 2259 -75 1647 -75 
Q 1250 -75 917 144 
Q 584 363 401 755 
Q 219 1147 219 1656 
Q 219 2153 384 2558 
Q 550 2963 881 3178 
Q 1213 3394 1622 3394 
Q 1922 3394 2156 3267 
Q 2391 3141 2538 2938 
L 2538 4581 
L 3097 4581 
L 3097 0 
L 2575 0 
z
M 797 1656 
Q 797 1019 1065 703 
Q 1334 388 1700 388 
Q 2069 388 2326 689 
Q 2584 991 2584 1609 
Q 2584 2291 2321 2609 
Q 2059 2928 1675 2928 
Q 1300 2928 1048 2622 
Q 797 2316 797 1656 
z
" transform="scale(0.015625)"/>
       <path id="ArialMT-69" d="M 425 3934 
L 425 4581 
L 988 4581 
L 988 3934 
L 425 3934 
z
M 425 0 
L 425 3319 
L 988 3319 
L 988 0 
L 425 0 
z
" transform="scale(0.015625)"/>
      </defs>
      <use xlink:href="#ArialMT-48"/>
      <use xlink:href="#ArialMT-6f" transform="translate(72.216797 0)"/>
      <use xlink:href="#ArialMT-72" transform="translate(127.832031 0)"/>
      <use xlink:href="#ArialMT-61" transform="translate(161.132812 0)"/>
      <use xlink:href="#ArialMT-20" transform="translate(216.748047 0)"/>
      <use xlink:href="#ArialMT-64" transform="translate(244.53125 0)"/>
      <use xlink:href="#ArialMT-6f" transform="translate(300.146484 0)"/>
      <use xlink:href="#ArialMT-20" transform="translate(355.761719 0)"/>
      <use xlink:href="#ArialMT-64" transform="translate(383.544922 0)"/>
      <use xlink:href="#ArialMT-69" transform="translate(439.160156 0)"/>
      <use xlink:href="#ArialMT-61" transform="translate(461.376953 0)"/>
     </g>
    </g>
   </g>
   <g id="matplotlib.axis_2">
    <g id="ytick_1">
     <g id="line2d_1">
      <path d="M 67.91625 342.212178 
L 1067.04 342.212178 
" clip-path="url(#p34d926e92d)" style="fill: none; stroke: #cccccc; stroke-linecap: round"/>
     </g>
     <g id="text_26">
      <!-- 20000 -->
      <g style="fill: #262626" transform="translate(27.831094 346.148975) scale(0.11 -0.11)">
       <use xlink:href="#ArialMT-32"/>
       <use xlink:href="#ArialMT-30" transform="translate(55.615234 0)"/>
       <use xlink:href="#ArialMT-30" transform="translate(111.230469 0)"/>
       <use xlink:href="#ArialMT-30" transform="translate(166.845703 0)"/>
       <use xlink:href="#ArialMT-30" transform="translate(222.460938 0)"/>
      </g>
     </g>
    </g>
    <g id="ytick_2">
     <g id="line2d_2">
      <path d="M 67.91625 273.917584 
L 1067.04 273.917584 
" clip-path="url(#p34d926e92d)" style="fill: none; stroke: #cccccc; stroke-linecap: round"/>
     </g>
     <g id="text_27">
      <!-- 25000 -->
      <g style="fill: #262626" transform="translate(27.831094 277.854381) scale(0.11 -0.11)">
       <use xlink:href="#ArialMT-32"/>
       <use xlink:href="#ArialMT-35" transform="translate(55.615234 0)"/>
       <use xlink:href="#ArialMT-30" transform="translate(111.230469 0)"/>
       <use xlink:href="#ArialMT-30" transform="translate(166.845703 0)"/>
       <use xlink:href="#ArialMT-30" transform="translate(222.460938 0)"/>
      </g>
     </g>
    </g>
    <g id="ytick_3">
     <g id="line2d_3">
      <path d="M 67.91625 205.62299 
L 1067.04 205.62299 
" clip-path="url(#p34d926e92d)" style="fill: none; stroke: #cccccc; stroke-linecap: round"/>
     </g>
     <g id="text_28">
      <!-- 30000 -->
      <g style="fill: #262626" transform="translate(27.831094 209.559787) scale(0.11 -0.11)">
       <use xlink:href="#ArialMT-33"/>
       <use xlink:href="#ArialMT-30" transform="translate(55.615234 0)"/>
       <use xlink:href="#ArialMT-30" transform="translate(111.230469 0)"/>
       <use xlink:href="#ArialMT-30" transform="translate(166.845703 0)"/>
       <use xlink:href="#ArialMT-30" transform="translate(222.460938 0)"/>
      </g>
     </g>
    </g>
    <g id="ytick_4">
     <g id="line2d_4">
      <path d="M 67.91625 137.328396 
L 1067.04 137.328396 
" clip-path="url(#p34d926e92d)" style="fill: none; stroke: #cccccc; stroke-linecap: round"/>
     </g>
     <g id="text_29">
      <!-- 35000 -->
      <g style="fill: #262626" transform="translate(27.831094 141.265193) scale(0.11 -0.11)">
       <use xlink:href="#ArialMT-33"/>
       <use xlink:href="#ArialMT-35" transform="translate(55.615234 0)"/>
       <use xlink:href="#ArialMT-30" transform="translate(111.230469 0)"/>
       <use xlink:href="#ArialMT-30" transform="translate(166.845703 0)"/>
       <use xlink:href="#ArialMT-30" transform="translate(222.460938 0)"/>
      </g>
     </g>
    </g>
    <g id="ytick_5">
     <g id="line2d_5">
      <path d="M 67.91625 69.033803 
L 1067.04 69.033803 
" clip-path="url(#p34d926e92d)" style="fill: none; stroke: #cccccc; stroke-linecap: round"/>
     </g>
     <g id="text_30">
      <!-- 40000 -->
      <g style="fill: #262626" transform="translate(27.831094 72.970599) scale(0.11 -0.11)">
       <use xlink:href="#ArialMT-34"/>
       <use xlink:href="#ArialMT-30" transform="translate(55.615234 0)"/>
       <use xlink:href="#ArialMT-30" transform="translate(111.230469 0)"/>
       <use xlink:href="#ArialMT-30" transform="translate(166.845703 0)"/>
       <use xlink:href="#ArialMT-30" transform="translate(222.460938 0)"/>
      </g>
     </g>
    </g>
    <g id="text_31">
     <!-- Carga total real -->
     <g style="fill: #262626" transform="translate(21.305469 253.088437) rotate(-90) scale(0.12 -0.12)">
      <defs>
       <path id="ArialMT-43" d="M 3763 1606 
L 4369 1453 
Q 4178 706 3683 314 
Q 3188 -78 2472 -78 
Q 1731 -78 1267 223 
Q 803 525 561 1097 
Q 319 1669 319 2325 
Q 319 3041 592 3573 
Q 866 4106 1370 4382 
Q 1875 4659 2481 4659 
Q 3169 4659 3637 4309 
Q 4106 3959 4291 3325 
L 3694 3184 
Q 3534 3684 3231 3912 
Q 2928 4141 2469 4141 
Q 1941 4141 1586 3887 
Q 1231 3634 1087 3207 
Q 944 2781 944 2328 
Q 944 1744 1114 1308 
Q 1284 872 1643 656 
Q 2003 441 2422 441 
Q 2931 441 3284 734 
Q 3638 1028 3763 1606 
z
" transform="scale(0.015625)"/>
       <path id="ArialMT-67" d="M 319 -275 
L 866 -356 
Q 900 -609 1056 -725 
Q 1266 -881 1628 -881 
Q 2019 -881 2231 -725 
Q 2444 -569 2519 -288 
Q 2563 -116 2559 434 
Q 2191 0 1641 0 
Q 956 0 581 494 
Q 206 988 206 1678 
Q 206 2153 378 2554 
Q 550 2956 876 3175 
Q 1203 3394 1644 3394 
Q 2231 3394 2613 2919 
L 2613 3319 
L 3131 3319 
L 3131 450 
Q 3131 -325 2973 -648 
Q 2816 -972 2473 -1159 
Q 2131 -1347 1631 -1347 
Q 1038 -1347 672 -1080 
Q 306 -813 319 -275 
z
M 784 1719 
Q 784 1066 1043 766 
Q 1303 466 1694 466 
Q 2081 466 2343 764 
Q 2606 1063 2606 1700 
Q 2606 2309 2336 2618 
Q 2066 2928 1684 2928 
Q 1309 2928 1046 2623 
Q 784 2319 784 1719 
z
" transform="scale(0.015625)"/>
       <path id="ArialMT-74" d="M 1650 503 
L 1731 6 
Q 1494 -44 1306 -44 
Q 1000 -44 831 53 
Q 663 150 594 308 
Q 525 466 525 972 
L 525 2881 
L 113 2881 
L 113 3319 
L 525 3319 
L 525 4141 
L 1084 4478 
L 1084 3319 
L 1650 3319 
L 1650 2881 
L 1084 2881 
L 1084 941 
Q 1084 700 1114 631 
Q 1144 563 1211 522 
Q 1278 481 1403 481 
Q 1497 481 1650 503 
z
" transform="scale(0.015625)"/>
       <path id="ArialMT-6c" d="M 409 0 
L 409 4581 
L 972 4581 
L 972 0 
L 409 0 
z
" transform="scale(0.015625)"/>
       <path id="ArialMT-65" d="M 2694 1069 
L 3275 997 
Q 3138 488 2766 206 
Q 2394 -75 1816 -75 
Q 1088 -75 661 373 
Q 234 822 234 1631 
Q 234 2469 665 2931 
Q 1097 3394 1784 3394 
Q 2450 3394 2872 2941 
Q 3294 2488 3294 1666 
Q 3294 1616 3291 1516 
L 816 1516 
Q 847 969 1125 678 
Q 1403 388 1819 388 
Q 2128 388 2347 550 
Q 2566 713 2694 1069 
z
M 847 1978 
L 2700 1978 
Q 2663 2397 2488 2606 
Q 2219 2931 1791 2931 
Q 1403 2931 1139 2672 
Q 875 2413 847 1978 
z
" transform="scale(0.015625)"/>
      </defs>
      <use xlink:href="#ArialMT-43"/>
      <use xlink:href="#ArialMT-61" transform="translate(72.216797 0)"/>
      <use xlink:href="#ArialMT-72" transform="translate(127.832031 0)"/>
      <use xlink:href="#ArialMT-67" transform="translate(161.132812 0)"/>
      <use xlink:href="#ArialMT-61" transform="translate(216.748047 0)"/>
      <use xlink:href="#ArialMT-20" transform="translate(272.363281 0)"/>
      <use xlink:href="#ArialMT-74" transform="translate(300.146484 0)"/>
      <use xlink:href="#ArialMT-6f" transform="translate(327.929688 0)"/>
      <use xlink:href="#ArialMT-74" transform="translate(383.544922 0)"/>
      <use xlink:href="#ArialMT-61" transform="translate(411.328125 0)"/>
      <use xlink:href="#ArialMT-6c" transform="translate(466.943359 0)"/>
      <use xlink:href="#ArialMT-20" transform="translate(489.160156 0)"/>
      <use xlink:href="#ArialMT-72" transform="translate(516.943359 0)"/>
      <use xlink:href="#ArialMT-65" transform="translate(550.244141 0)"/>
      <use xlink:href="#ArialMT-61" transform="translate(605.859375 0)"/>
      <use xlink:href="#ArialMT-6c" transform="translate(661.474609 0)"/>
     </g>
    </g>
   </g>
   <g id="patch_3">
    <path d="M 74.160773 304.759423 
L 103.301883 304.759423 
L 103.301883 270.202358 
L 74.160773 270.202358 
L 74.160773 304.759423 
z
" clip-path="url(#p34d926e92d)" style="fill: #5875a4; stroke: #4c4c4c; stroke-linejoin: miter"/>
   </g>
   <g id="line2d_6">
    <path d="M 88.731328 304.759423 
L 88.731328 349.615312 
" clip-path="url(#p34d926e92d)" style="fill: none; stroke: #4c4c4c"/>
   </g>
   <g id="line2d_7">
    <path d="M 88.731328 270.202358 
L 88.731328 222.546391 
" clip-path="url(#p34d926e92d)" style="fill: none; stroke: #4c4c4c"/>
   </g>
   <g id="line2d_8">
    <path d="M 81.446051 349.615312 
L 96.016605 349.615312 
" clip-path="url(#p34d926e92d)" style="fill: none; stroke: #4c4c4c; stroke-linecap: round"/>
   </g>
   <g id="line2d_9">
    <path d="M 81.446051 222.546391 
L 96.016605 222.546391 
" clip-path="url(#p34d926e92d)" style="fill: none; stroke: #4c4c4c; stroke-linecap: round"/>
   </g>
   <g id="line2d_10"/>
   <g id="patch_4">
    <path d="M 115.79093 313.692356 
L 144.932039 313.692356 
L 144.932039 283.711029 
L 115.79093 283.711029 
L 115.79093 313.692356 
z
" clip-path="url(#p34d926e92d)" style="fill: #5875a4; stroke: #4c4c4c; stroke-linejoin: miter"/>
   </g>
   <g id="line2d_11">
    <path d="M 130.361484 313.692356 
L 130.361484 356.868198 
" clip-path="url(#p34d926e92d)" style="fill: none; stroke: #4c4c4c"/>
   </g>
   <g id="line2d_12">
    <path d="M 130.361484 283.711029 
L 130.361484 240.944954 
" clip-path="url(#p34d926e92d)" style="fill: none; stroke: #4c4c4c"/>
   </g>
   <g id="line2d_13">
    <path d="M 123.076207 356.868198 
L 137.646762 356.868198 
" clip-path="url(#p34d926e92d)" style="fill: none; stroke: #4c4c4c; stroke-linecap: round"/>
   </g>
   <g id="line2d_14">
    <path d="M 123.076207 240.944954 
L 137.646762 240.944954 
" clip-path="url(#p34d926e92d)" style="fill: none; stroke: #4c4c4c; stroke-linecap: round"/>
   </g>
   <g id="line2d_15"/>
   <g id="patch_5">
    <path d="M 157.421086 318.527613 
L 186.562195 318.527613 
L 186.562195 289.119961 
L 157.421086 289.119961 
L 157.421086 318.527613 
z
" clip-path="url(#p34d926e92d)" style="fill: #5875a4; stroke: #4c4c4c; stroke-linejoin: miter"/>
   </g>
   <g id="line2d_16">
    <path d="M 171.991641 318.527613 
L 171.991641 361.785409 
" clip-path="url(#p34d926e92d)" style="fill: none; stroke: #4c4c4c"/>
   </g>
   <g id="line2d_17">
    <path d="M 171.991641 289.119961 
L 171.991641 246.29925 
" clip-path="url(#p34d926e92d)" style="fill: none; stroke: #4c4c4c"/>
   </g>
   <g id="line2d_18">
    <path d="M 164.706363 361.785409 
L 179.276918 361.785409 
" clip-path="url(#p34d926e92d)" style="fill: none; stroke: #4c4c4c; stroke-linecap: round"/>
   </g>
   <g id="line2d_19">
    <path d="M 164.706363 246.29925 
L 179.276918 246.29925 
" clip-path="url(#p34d926e92d)" style="fill: none; stroke: #4c4c4c; stroke-linecap: round"/>
   </g>
   <g id="line2d_20"/>
   <g id="patch_6">
    <path d="M 199.051242 318.131504 
L 228.192352 318.131504 
L 228.192352 288.717023 
L 199.051242 288.717023 
L 199.051242 318.131504 
z
" clip-path="url(#p34d926e92d)" style="fill: #5875a4; stroke: #4c4c4c; stroke-linejoin: miter"/>
   </g>
   <g id="line2d_21">
    <path d="M 213.621797 318.131504 
L 213.621797 362.167858 
" clip-path="url(#p34d926e92d)" style="fill: none; stroke: #4c4c4c"/>
   </g>
   <g id="line2d_22">
    <path d="M 213.621797 288.717023 
L 213.621797 244.605545 
" clip-path="url(#p34d926e92d)" style="fill: none; stroke: #4c4c4c"/>
   </g>
   <g id="line2d_23">
    <path d="M 206.33652 362.167858 
L 220.907074 362.167858 
" clip-path="url(#p34d926e92d)" style="fill: none; stroke: #4c4c4c; stroke-linecap: round"/>
   </g>
   <g id="line2d_24">
    <path d="M 206.33652 244.605545 
L 220.907074 244.605545 
" clip-path="url(#p34d926e92d)" style="fill: none; stroke: #4c4c4c; stroke-linecap: round"/>
   </g>
   <g id="line2d_25">
    <defs>
     <path id="m14c0ce5a73" d="M 0 3 
C 0.795609 3 1.55874 2.683901 2.12132 2.12132 
C 2.683901 1.55874 3 0.795609 3 0 
C 3 -0.795609 2.683901 -1.55874 2.12132 -2.12132 
C 1.55874 -2.683901 0.795609 -3 0 -3 
C -0.795609 -3 -1.55874 -2.683901 -2.12132 -2.12132 
C -2.683901 -1.55874 -3 -0.795609 -3 0 
C -3 0.795609 -2.683901 1.55874 -2.12132 2.12132 
C -1.55874 2.683901 -0.795609 3 0 3 
z
" style="stroke: #4c4c4c"/>
    </defs>
    <g clip-path="url(#p34d926e92d)">
     <use xlink:href="#m14c0ce5a73" x="213.621797" y="367.098728" style="fill-opacity: 0; stroke: #4c4c4c"/>
     <use xlink:href="#m14c0ce5a73" x="213.621797" y="365.295751" style="fill-opacity: 0; stroke: #4c4c4c"/>
     <use xlink:href="#m14c0ce5a73" x="213.621797" y="364.722076" style="fill-opacity: 0; stroke: #4c4c4c"/>
     <use xlink:href="#m14c0ce5a73" x="213.621797" y="362.536649" style="fill-opacity: 0; stroke: #4c4c4c"/>
     <use xlink:href="#m14c0ce5a73" x="213.621797" y="365.719177" style="fill-opacity: 0; stroke: #4c4c4c"/>
     <use xlink:href="#m14c0ce5a73" x="213.621797" y="362.40006" style="fill-opacity: 0; stroke: #4c4c4c"/>
    </g>
   </g>
   <g id="patch_7">
    <path d="M 240.681398 310.154696 
L 269.822508 310.154696 
L 269.822508 269.464777 
L 240.681398 269.464777 
L 240.681398 310.154696 
z
" clip-path="url(#p34d926e92d)" style="fill: #5875a4; stroke: #4c4c4c; stroke-linejoin: miter"/>
   </g>
   <g id="line2d_26">
    <path d="M 255.251953 310.154696 
L 255.251953 368.97 
" clip-path="url(#p34d926e92d)" style="fill: none; stroke: #4c4c4c"/>
   </g>
   <g id="line2d_27">
    <path d="M 255.251953 269.464777 
L 255.251953 211.578279 
" clip-path="url(#p34d926e92d)" style="fill: none; stroke: #4c4c4c"/>
   </g>
   <g id="line2d_28">
    <path d="M 247.966676 368.97 
L 262.53723 368.97 
" clip-path="url(#p34d926e92d)" style="fill: none; stroke: #4c4c4c; stroke-linecap: round"/>
   </g>
   <g id="line2d_29">
    <path d="M 247.966676 211.578279 
L 262.53723 211.578279 
" clip-path="url(#p34d926e92d)" style="fill: none; stroke: #4c4c4c; stroke-linecap: round"/>
   </g>
   <g id="line2d_30"/>
   <g id="patch_8">
    <path d="M 282.311555 296.758711 
L 311.452664 296.758711 
L 311.452664 232.729115 
L 282.311555 232.729115 
L 282.311555 296.758711 
z
" clip-path="url(#p34d926e92d)" style="fill: #5875a4; stroke: #4c4c4c; stroke-linejoin: miter"/>
   </g>
   <g id="line2d_31">
    <path d="M 296.882109 296.758711 
L 296.882109 366.333829 
" clip-path="url(#p34d926e92d)" style="fill: none; stroke: #4c4c4c"/>
   </g>
   <g id="line2d_32">
    <path d="M 296.882109 232.729115 
L 296.882109 141.808522 
" clip-path="url(#p34d926e92d)" style="fill: none; stroke: #4c4c4c"/>
   </g>
   <g id="line2d_33">
    <path d="M 289.596832 366.333829 
L 304.167387 366.333829 
" clip-path="url(#p34d926e92d)" style="fill: none; stroke: #4c4c4c; stroke-linecap: round"/>
   </g>
   <g id="line2d_34">
    <path d="M 289.596832 141.808522 
L 304.167387 141.808522 
" clip-path="url(#p34d926e92d)" style="fill: none; stroke: #4c4c4c; stroke-linecap: round"/>
   </g>
   <g id="line2d_35"/>
   <g id="patch_9">
    <path d="M 323.941711 279.073826 
L 353.08282 279.073826 
L 353.08282 192.592382 
L 323.941711 192.592382 
L 323.941711 279.073826 
z
" clip-path="url(#p34d926e92d)" style="fill: #5875a4; stroke: #4c4c4c; stroke-linejoin: miter"/>
   </g>
   <g id="line2d_36">
    <path d="M 338.512266 279.073826 
L 338.512266 361.3893 
" clip-path="url(#p34d926e92d)" style="fill: none; stroke: #4c4c4c"/>
   </g>
   <g id="line2d_37">
    <path d="M 338.512266 192.592382 
L 338.512266 98.591703 
" clip-path="url(#p34d926e92d)" style="fill: none; stroke: #4c4c4c"/>
   </g>
   <g id="line2d_38">
    <path d="M 331.226988 361.3893 
L 345.797543 361.3893 
" clip-path="url(#p34d926e92d)" style="fill: none; stroke: #4c4c4c; stroke-linecap: round"/>
   </g>
   <g id="line2d_39">
    <path d="M 331.226988 98.591703 
L 345.797543 98.591703 
" clip-path="url(#p34d926e92d)" style="fill: none; stroke: #4c4c4c; stroke-linecap: round"/>
   </g>
   <g id="line2d_40"/>
   <g id="patch_10">
    <path d="M 365.571867 252.172586 
L 394.712977 252.172586 
L 394.712977 165.165273 
L 365.571867 165.165273 
L 365.571867 252.172586 
z
" clip-path="url(#p34d926e92d)" style="fill: #5875a4; stroke: #4c4c4c; stroke-linejoin: miter"/>
   </g>
   <g id="line2d_41">
    <path d="M 380.142422 252.172586 
L 380.142422 362.140541 
" clip-path="url(#p34d926e92d)" style="fill: none; stroke: #4c4c4c"/>
   </g>
   <g id="line2d_42">
    <path d="M 380.142422 165.165273 
L 380.142422 79.264333 
" clip-path="url(#p34d926e92d)" style="fill: none; stroke: #4c4c4c"/>
   </g>
   <g id="line2d_43">
    <path d="M 372.857145 362.140541 
L 387.427699 362.140541 
" clip-path="url(#p34d926e92d)" style="fill: none; stroke: #4c4c4c; stroke-linecap: round"/>
   </g>
   <g id="line2d_44">
    <path d="M 372.857145 79.264333 
L 387.427699 79.264333 
" clip-path="url(#p34d926e92d)" style="fill: none; stroke: #4c4c4c; stroke-linecap: round"/>
   </g>
   <g id="line2d_45"/>
   <g id="patch_11">
    <path d="M 407.202023 226.480159 
L 436.343133 226.480159 
L 436.343133 150.000458 
L 407.202023 150.000458 
L 407.202023 226.480159 
z
" clip-path="url(#p34d926e92d)" style="fill: #5875a4; stroke: #4c4c4c; stroke-linejoin: miter"/>
   </g>
   <g id="line2d_46">
    <path d="M 421.772578 226.480159 
L 421.772578 338.961355 
" clip-path="url(#p34d926e92d)" style="fill: none; stroke: #4c4c4c"/>
   </g>
   <g id="line2d_47">
    <path d="M 421.772578 150.000458 
L 421.772578 70.058221 
" clip-path="url(#p34d926e92d)" style="fill: none; stroke: #4c4c4c"/>
   </g>
   <g id="line2d_48">
    <path d="M 414.487301 338.961355 
L 429.057855 338.961355 
" clip-path="url(#p34d926e92d)" style="fill: none; stroke: #4c4c4c; stroke-linecap: round"/>
   </g>
   <g id="line2d_49">
    <path d="M 414.487301 70.058221 
L 429.057855 70.058221 
" clip-path="url(#p34d926e92d)" style="fill: none; stroke: #4c4c4c; stroke-linecap: round"/>
   </g>
   <g id="line2d_50">
    <g clip-path="url(#p34d926e92d)">
     <use xlink:href="#m14c0ce5a73" x="421.772578" y="343.427822" style="fill-opacity: 0; stroke: #4c4c4c"/>
     <use xlink:href="#m14c0ce5a73" x="421.772578" y="356.663314" style="fill-opacity: 0; stroke: #4c4c4c"/>
     <use xlink:href="#m14c0ce5a73" x="421.772578" y="348.181126" style="fill-opacity: 0; stroke: #4c4c4c"/>
    </g>
   </g>
   <g id="patch_12">
    <path d="M 448.83218 212.377326 
L 477.973289 212.377326 
L 477.973289 143.314418 
L 448.83218 143.314418 
L 448.83218 212.377326 
z
" clip-path="url(#p34d926e92d)" style="fill: #5875a4; stroke: #4c4c4c; stroke-linejoin: miter"/>
   </g>
   <g id="line2d_51">
    <path d="M 463.402734 212.377326 
L 463.402734 314.880682 
" clip-path="url(#p34d926e92d)" style="fill: none; stroke: #4c4c4c"/>
   </g>
   <g id="line2d_52">
    <path d="M 463.402734 143.314418 
L 463.402734 68.951849 
" clip-path="url(#p34d926e92d)" style="fill: none; stroke: #4c4c4c"/>
   </g>
   <g id="line2d_53">
    <path d="M 456.117457 314.880682 
L 470.688012 314.880682 
" clip-path="url(#p34d926e92d)" style="fill: none; stroke: #4c4c4c; stroke-linecap: round"/>
   </g>
   <g id="line2d_54">
    <path d="M 456.117457 68.951849 
L 470.688012 68.951849 
" clip-path="url(#p34d926e92d)" style="fill: none; stroke: #4c4c4c; stroke-linecap: round"/>
   </g>
   <g id="line2d_55">
    <g clip-path="url(#p34d926e92d)">
     <use xlink:href="#m14c0ce5a73" x="463.402734" y="316.301209" style="fill-opacity: 0; stroke: #4c4c4c"/>
     <use xlink:href="#m14c0ce5a73" x="463.402734" y="335.601261" style="fill-opacity: 0; stroke: #4c4c4c"/>
     <use xlink:href="#m14c0ce5a73" x="463.402734" y="327.692747" style="fill-opacity: 0; stroke: #4c4c4c"/>
    </g>
   </g>
   <g id="patch_13">
    <path d="M 490.462336 207.52158 
L 519.603445 207.52158 
L 519.603445 139.541141 
L 490.462336 139.541141 
L 490.462336 207.52158 
z
" clip-path="url(#p34d926e92d)" style="fill: #5875a4; stroke: #4c4c4c; stroke-linejoin: miter"/>
   </g>
   <g id="line2d_56">
    <path d="M 505.032891 207.52158 
L 505.032891 308.775145 
" clip-path="url(#p34d926e92d)" style="fill: none; stroke: #4c4c4c"/>
   </g>
   <g id="line2d_57">
    <path d="M 505.032891 139.541141 
L 505.032891 65.004422 
" clip-path="url(#p34d926e92d)" style="fill: none; stroke: #4c4c4c"/>
   </g>
   <g id="line2d_58">
    <path d="M 497.747613 308.775145 
L 512.318168 308.775145 
" clip-path="url(#p34d926e92d)" style="fill: none; stroke: #4c4c4c; stroke-linecap: round"/>
   </g>
   <g id="line2d_59">
    <path d="M 497.747613 65.004422 
L 512.318168 65.004422 
" clip-path="url(#p34d926e92d)" style="fill: none; stroke: #4c4c4c; stroke-linecap: round"/>
   </g>
   <g id="line2d_60">
    <g clip-path="url(#p34d926e92d)">
     <use xlink:href="#m14c0ce5a73" x="505.032891" y="317.55783" style="fill-opacity: 0; stroke: #4c4c4c"/>
     <use xlink:href="#m14c0ce5a73" x="505.032891" y="342.703899" style="fill-opacity: 0; stroke: #4c4c4c"/>
    </g>
   </g>
   <g id="patch_14">
    <path d="M 532.092492 206.736192 
L 561.233602 206.736192 
L 561.233602 139.322599 
L 532.092492 139.322599 
L 532.092492 206.736192 
z
" clip-path="url(#p34d926e92d)" style="fill: #5875a4; stroke: #4c4c4c; stroke-linejoin: miter"/>
   </g>
   <g id="line2d_61">
    <path d="M 546.663047 206.736192 
L 546.663047 306.603377 
" clip-path="url(#p34d926e92d)" style="fill: none; stroke: #4c4c4c"/>
   </g>
   <g id="line2d_62">
    <path d="M 546.663047 139.322599 
L 546.663047 67.066918 
" clip-path="url(#p34d926e92d)" style="fill: none; stroke: #4c4c4c"/>
   </g>
   <g id="line2d_63">
    <path d="M 539.37777 306.603377 
L 553.948324 306.603377 
" clip-path="url(#p34d926e92d)" style="fill: none; stroke: #4c4c4c; stroke-linecap: round"/>
   </g>
   <g id="line2d_64">
    <path d="M 539.37777 67.066918 
L 553.948324 67.066918 
" clip-path="url(#p34d926e92d)" style="fill: none; stroke: #4c4c4c; stroke-linecap: round"/>
   </g>
   <g id="line2d_65"/>
   <g id="patch_15">
    <path d="M 573.722648 209.474805 
L 602.863758 209.474805 
L 602.863758 145.510089 
L 573.722648 145.510089 
L 573.722648 209.474805 
z
" clip-path="url(#p34d926e92d)" style="fill: #5875a4; stroke: #4c4c4c; stroke-linejoin: miter"/>
   </g>
   <g id="line2d_66">
    <path d="M 588.293203 209.474805 
L 588.293203 301.686166 
" clip-path="url(#p34d926e92d)" style="fill: none; stroke: #4c4c4c"/>
   </g>
   <g id="line2d_67">
    <path d="M 588.293203 145.510089 
L 588.293203 68.145973 
" clip-path="url(#p34d926e92d)" style="fill: none; stroke: #4c4c4c"/>
   </g>
   <g id="line2d_68">
    <path d="M 581.007926 301.686166 
L 595.57848 301.686166 
" clip-path="url(#p34d926e92d)" style="fill: none; stroke: #4c4c4c; stroke-linecap: round"/>
   </g>
   <g id="line2d_69">
    <path d="M 581.007926 68.145973 
L 595.57848 68.145973 
" clip-path="url(#p34d926e92d)" style="fill: none; stroke: #4c4c4c; stroke-linecap: round"/>
   </g>
   <g id="line2d_70"/>
   <g id="patch_16">
    <path d="M 615.352805 218.817506 
L 644.493914 218.817506 
L 644.493914 158.513379 
L 615.352805 158.513379 
L 615.352805 218.817506 
z
" clip-path="url(#p34d926e92d)" style="fill: #5875a4; stroke: #4c4c4c; stroke-linejoin: miter"/>
   </g>
   <g id="line2d_71">
    <path d="M 629.923359 218.817506 
L 629.923359 304.732105 
" clip-path="url(#p34d926e92d)" style="fill: none; stroke: #4c4c4c"/>
   </g>
   <g id="line2d_72">
    <path d="M 629.923359 158.513379 
L 629.923359 73.718812 
" clip-path="url(#p34d926e92d)" style="fill: none; stroke: #4c4c4c"/>
   </g>
   <g id="line2d_73">
    <path d="M 622.638082 304.732105 
L 637.208637 304.732105 
" clip-path="url(#p34d926e92d)" style="fill: none; stroke: #4c4c4c; stroke-linecap: round"/>
   </g>
   <g id="line2d_74">
    <path d="M 622.638082 73.718812 
L 637.208637 73.718812 
" clip-path="url(#p34d926e92d)" style="fill: none; stroke: #4c4c4c; stroke-linecap: round"/>
   </g>
   <g id="line2d_75">
    <g clip-path="url(#p34d926e92d)">
     <use xlink:href="#m14c0ce5a73" x="629.923359" y="310.304944" style="fill-opacity: 0; stroke: #4c4c4c"/>
     <use xlink:href="#m14c0ce5a73" x="629.923359" y="315.905101" style="fill-opacity: 0; stroke: #4c4c4c"/>
     <use xlink:href="#m14c0ce5a73" x="629.923359" y="316.28755" style="fill-opacity: 0; stroke: #4c4c4c"/>
    </g>
   </g>
   <g id="patch_17">
    <path d="M 656.982961 229.799277 
L 686.12407 229.799277 
L 686.12407 163.956459 
L 656.982961 163.956459 
L 656.982961 229.799277 
z
" clip-path="url(#p34d926e92d)" style="fill: #5875a4; stroke: #4c4c4c; stroke-linejoin: miter"/>
   </g>
   <g id="line2d_76">
    <path d="M 671.553516 229.799277 
L 671.553516 328.280081 
" clip-path="url(#p34d926e92d)" style="fill: none; stroke: #4c4c4c"/>
   </g>
   <g id="line2d_77">
    <path d="M 671.553516 163.956459 
L 671.553516 72.803664 
" clip-path="url(#p34d926e92d)" style="fill: none; stroke: #4c4c4c"/>
   </g>
   <g id="line2d_78">
    <path d="M 664.268238 328.280081 
L 678.838793 328.280081 
" clip-path="url(#p34d926e92d)" style="fill: none; stroke: #4c4c4c; stroke-linecap: round"/>
   </g>
   <g id="line2d_79">
    <path d="M 664.268238 72.803664 
L 678.838793 72.803664 
" clip-path="url(#p34d926e92d)" style="fill: none; stroke: #4c4c4c; stroke-linecap: round"/>
   </g>
   <g id="line2d_80"/>
   <g id="patch_18">
    <path d="M 698.613117 234.873565 
L 727.754227 234.873565 
L 727.754227 165.219909 
L 698.613117 165.219909 
L 698.613117 234.873565 
z
" clip-path="url(#p34d926e92d)" style="fill: #5875a4; stroke: #4c4c4c; stroke-linejoin: miter"/>
   </g>
   <g id="line2d_81">
    <path d="M 713.183672 234.873565 
L 713.183672 333.934873 
" clip-path="url(#p34d926e92d)" style="fill: none; stroke: #4c4c4c"/>
   </g>
   <g id="line2d_82">
    <path d="M 713.183672 165.219909 
L 713.183672 75.726673 
" clip-path="url(#p34d926e92d)" style="fill: none; stroke: #4c4c4c"/>
   </g>
   <g id="line2d_83">
    <path d="M 705.898395 333.934873 
L 720.468949 333.934873 
" clip-path="url(#p34d926e92d)" style="fill: none; stroke: #4c4c4c; stroke-linecap: round"/>
   </g>
   <g id="line2d_84">
    <path d="M 705.898395 75.726673 
L 720.468949 75.726673 
" clip-path="url(#p34d926e92d)" style="fill: none; stroke: #4c4c4c; stroke-linecap: round"/>
   </g>
   <g id="line2d_85"/>
   <g id="patch_19">
    <path d="M 740.243273 230.44466 
L 769.384383 230.44466 
L 769.384383 163.444249 
L 740.243273 163.444249 
L 740.243273 230.44466 
z
" clip-path="url(#p34d926e92d)" style="fill: #5875a4; stroke: #4c4c4c; stroke-linejoin: miter"/>
   </g>
   <g id="line2d_86">
    <path d="M 754.813828 230.44466 
L 754.813828 328.252763 
" clip-path="url(#p34d926e92d)" style="fill: none; stroke: #4c4c4c"/>
   </g>
   <g id="line2d_87">
    <path d="M 754.813828 163.444249 
L 754.813828 86.722102 
" clip-path="url(#p34d926e92d)" style="fill: none; stroke: #4c4c4c"/>
   </g>
   <g id="line2d_88">
    <path d="M 747.528551 328.252763 
L 762.099105 328.252763 
" clip-path="url(#p34d926e92d)" style="fill: none; stroke: #4c4c4c; stroke-linecap: round"/>
   </g>
   <g id="line2d_89">
    <path d="M 747.528551 86.722102 
L 762.099105 86.722102 
" clip-path="url(#p34d926e92d)" style="fill: none; stroke: #4c4c4c; stroke-linecap: round"/>
   </g>
   <g id="line2d_90"/>
   <g id="patch_20">
    <path d="M 781.87343 223.458124 
L 811.014539 223.458124 
L 811.014539 156.307464 
L 781.87343 156.307464 
L 781.87343 223.458124 
z
" clip-path="url(#p34d926e92d)" style="fill: #5875a4; stroke: #4c4c4c; stroke-linejoin: miter"/>
   </g>
   <g id="line2d_91">
    <path d="M 796.443984 223.458124 
L 796.443984 323.731661 
" clip-path="url(#p34d926e92d)" style="fill: none; stroke: #4c4c4c"/>
   </g>
   <g id="line2d_92">
    <path d="M 796.443984 156.307464 
L 796.443984 64.854173 
" clip-path="url(#p34d926e92d)" style="fill: none; stroke: #4c4c4c"/>
   </g>
   <g id="line2d_93">
    <path d="M 789.158707 323.731661 
L 803.729262 323.731661 
" clip-path="url(#p34d926e92d)" style="fill: none; stroke: #4c4c4c; stroke-linecap: round"/>
   </g>
   <g id="line2d_94">
    <path d="M 789.158707 64.854173 
L 803.729262 64.854173 
" clip-path="url(#p34d926e92d)" style="fill: none; stroke: #4c4c4c; stroke-linecap: round"/>
   </g>
   <g id="line2d_95">
    <g clip-path="url(#p34d926e92d)">
     <use xlink:href="#m14c0ce5a73" x="796.443984" y="327.856654" style="fill-opacity: 0; stroke: #4c4c4c"/>
     <use xlink:href="#m14c0ce5a73" x="796.443984" y="361.116122" style="fill-opacity: 0; stroke: #4c4c4c"/>
     <use xlink:href="#m14c0ce5a73" x="796.443984" y="324.482902" style="fill-opacity: 0; stroke: #4c4c4c"/>
    </g>
   </g>
   <g id="patch_21">
    <path d="M 823.503586 214.685683 
L 852.644695 214.685683 
L 852.644695 149.484834 
L 823.503586 149.484834 
L 823.503586 214.685683 
z
" clip-path="url(#p34d926e92d)" style="fill: #5875a4; stroke: #4c4c4c; stroke-linejoin: miter"/>
   </g>
   <g id="line2d_96">
    <path d="M 838.074141 214.685683 
L 838.074141 307.013144 
" clip-path="url(#p34d926e92d)" style="fill: none; stroke: #4c4c4c"/>
   </g>
   <g id="line2d_97">
    <path d="M 838.074141 149.484834 
L 838.074141 56.208078 
" clip-path="url(#p34d926e92d)" style="fill: none; stroke: #4c4c4c"/>
   </g>
   <g id="line2d_98">
    <path d="M 830.788863 307.013144 
L 845.359418 307.013144 
" clip-path="url(#p34d926e92d)" style="fill: none; stroke: #4c4c4c; stroke-linecap: round"/>
   </g>
   <g id="line2d_99">
    <path d="M 830.788863 56.208078 
L 845.359418 56.208078 
" clip-path="url(#p34d926e92d)" style="fill: none; stroke: #4c4c4c; stroke-linecap: round"/>
   </g>
   <g id="line2d_100">
    <g clip-path="url(#p34d926e92d)">
     <use xlink:href="#m14c0ce5a73" x="838.074141" y="314.238712" style="fill-opacity: 0; stroke: #4c4c4c"/>
     <use xlink:href="#m14c0ce5a73" x="838.074141" y="320.439862" style="fill-opacity: 0; stroke: #4c4c4c"/>
     <use xlink:href="#m14c0ce5a73" x="838.074141" y="318.227117" style="fill-opacity: 0; stroke: #4c4c4c"/>
    </g>
   </g>
   <g id="patch_22">
    <path d="M 865.133742 202.822912 
L 894.274852 202.822912 
L 894.274852 146.531093 
L 865.133742 146.531093 
L 865.133742 202.822912 
z
" clip-path="url(#p34d926e92d)" style="fill: #5875a4; stroke: #4c4c4c; stroke-linejoin: miter"/>
   </g>
   <g id="line2d_101">
    <path d="M 879.704297 202.822912 
L 879.704297 284.216409 
" clip-path="url(#p34d926e92d)" style="fill: none; stroke: #4c4c4c"/>
   </g>
   <g id="line2d_102">
    <path d="M 879.704297 146.531093 
L 879.704297 66.206406 
" clip-path="url(#p34d926e92d)" style="fill: none; stroke: #4c4c4c"/>
   </g>
   <g id="line2d_103">
    <path d="M 872.41902 284.216409 
L 886.989574 284.216409 
" clip-path="url(#p34d926e92d)" style="fill: none; stroke: #4c4c4c; stroke-linecap: round"/>
   </g>
   <g id="line2d_104">
    <path d="M 872.41902 66.206406 
L 886.989574 66.206406 
" clip-path="url(#p34d926e92d)" style="fill: none; stroke: #4c4c4c; stroke-linecap: round"/>
   </g>
   <g id="line2d_105">
    <g clip-path="url(#p34d926e92d)">
     <use xlink:href="#m14c0ce5a73" x="879.704297" y="303.174988" style="fill-opacity: 0; stroke: #4c4c4c"/>
     <use xlink:href="#m14c0ce5a73" x="879.704297" y="297.451901" style="fill-opacity: 0; stroke: #4c4c4c"/>
     <use xlink:href="#m14c0ce5a73" x="879.704297" y="302.205205" style="fill-opacity: 0; stroke: #4c4c4c"/>
     <use xlink:href="#m14c0ce5a73" x="879.704297" y="288.300426" style="fill-opacity: 0; stroke: #4c4c4c"/>
     <use xlink:href="#m14c0ce5a73" x="879.704297" y="55.17" style="fill-opacity: 0; stroke: #4c4c4c"/>
     <use xlink:href="#m14c0ce5a73" x="879.704297" y="56.740776" style="fill-opacity: 0; stroke: #4c4c4c"/>
    </g>
   </g>
   <g id="patch_23">
    <path d="M 906.763898 217.75211 
L 935.905008 217.75211 
L 935.905008 159.046077 
L 906.763898 159.046077 
L 906.763898 217.75211 
z
" clip-path="url(#p34d926e92d)" style="fill: #5875a4; stroke: #4c4c4c; stroke-linejoin: miter"/>
   </g>
   <g id="line2d_106">
    <path d="M 921.334453 217.75211 
L 921.334453 282.481726 
" clip-path="url(#p34d926e92d)" style="fill: none; stroke: #4c4c4c"/>
   </g>
   <g id="line2d_107">
    <path d="M 921.334453 159.046077 
L 921.334453 72.639757 
" clip-path="url(#p34d926e92d)" style="fill: none; stroke: #4c4c4c"/>
   </g>
   <g id="line2d_108">
    <path d="M 914.049176 282.481726 
L 928.61973 282.481726 
" clip-path="url(#p34d926e92d)" style="fill: none; stroke: #4c4c4c; stroke-linecap: round"/>
   </g>
   <g id="line2d_109">
    <path d="M 914.049176 72.639757 
L 928.61973 72.639757 
" clip-path="url(#p34d926e92d)" style="fill: none; stroke: #4c4c4c; stroke-linecap: round"/>
   </g>
   <g id="line2d_110">
    <g clip-path="url(#p34d926e92d)">
     <use xlink:href="#m14c0ce5a73" x="921.334453" y="70.672873" style="fill-opacity: 0; stroke: #4c4c4c"/>
    </g>
   </g>
   <g id="patch_24">
    <path d="M 948.394055 247.234886 
L 977.535164 247.234886 
L 977.535164 188.56983 
L 948.394055 188.56983 
L 948.394055 247.234886 
z
" clip-path="url(#p34d926e92d)" style="fill: #5875a4; stroke: #4c4c4c; stroke-linejoin: miter"/>
   </g>
   <g id="line2d_111">
    <path d="M 962.964609 247.234886 
L 962.964609 299.36415 
" clip-path="url(#p34d926e92d)" style="fill: none; stroke: #4c4c4c"/>
   </g>
   <g id="line2d_112">
    <path d="M 962.964609 188.56983 
L 962.964609 108.781256 
" clip-path="url(#p34d926e92d)" style="fill: none; stroke: #4c4c4c"/>
   </g>
   <g id="line2d_113">
    <path d="M 955.679332 299.36415 
L 970.249887 299.36415 
" clip-path="url(#p34d926e92d)" style="fill: none; stroke: #4c4c4c; stroke-linecap: round"/>
   </g>
   <g id="line2d_114">
    <path d="M 955.679332 108.781256 
L 970.249887 108.781256 
" clip-path="url(#p34d926e92d)" style="fill: none; stroke: #4c4c4c; stroke-linecap: round"/>
   </g>
   <g id="line2d_115"/>
   <g id="patch_25">
    <path d="M 990.024211 268.508652 
L 1019.16532 268.508652 
L 1019.16532 220.347305 
L 990.024211 220.347305 
L 990.024211 268.508652 
z
" clip-path="url(#p34d926e92d)" style="fill: #5875a4; stroke: #4c4c4c; stroke-linejoin: miter"/>
   </g>
   <g id="line2d_116">
    <path d="M 1004.594766 268.508652 
L 1004.594766 316.478775 
" clip-path="url(#p34d926e92d)" style="fill: none; stroke: #4c4c4c"/>
   </g>
   <g id="line2d_117">
    <path d="M 1004.594766 220.347305 
L 1004.594766 157.885069 
" clip-path="url(#p34d926e92d)" style="fill: none; stroke: #4c4c4c"/>
   </g>
   <g id="line2d_118">
    <path d="M 997.309488 316.478775 
L 1011.880043 316.478775 
" clip-path="url(#p34d926e92d)" style="fill: none; stroke: #4c4c4c; stroke-linecap: round"/>
   </g>
   <g id="line2d_119">
    <path d="M 997.309488 157.885069 
L 1011.880043 157.885069 
" clip-path="url(#p34d926e92d)" style="fill: none; stroke: #4c4c4c; stroke-linecap: round"/>
   </g>
   <g id="line2d_120"/>
   <g id="patch_26">
    <path d="M 1031.654367 289.393139 
L 1060.795477 289.393139 
L 1060.795477 248.19784 
L 1031.654367 248.19784 
L 1031.654367 289.393139 
z
" clip-path="url(#p34d926e92d)" style="fill: #5875a4; stroke: #4c4c4c; stroke-linejoin: miter"/>
   </g>
   <g id="line2d_121">
    <path d="M 1046.224922 289.393139 
L 1046.224922 338.046208 
" clip-path="url(#p34d926e92d)" style="fill: none; stroke: #4c4c4c"/>
   </g>
   <g id="line2d_122">
    <path d="M 1046.224922 248.19784 
L 1046.224922 192.947514 
" clip-path="url(#p34d926e92d)" style="fill: none; stroke: #4c4c4c"/>
   </g>
   <g id="line2d_123">
    <path d="M 1038.939645 338.046208 
L 1053.510199 338.046208 
" clip-path="url(#p34d926e92d)" style="fill: none; stroke: #4c4c4c; stroke-linecap: round"/>
   </g>
   <g id="line2d_124">
    <path d="M 1038.939645 192.947514 
L 1053.510199 192.947514 
" clip-path="url(#p34d926e92d)" style="fill: none; stroke: #4c4c4c; stroke-linecap: round"/>
   </g>
   <g id="line2d_125"/>
   <g id="line2d_126">
    <path d="M 74.160773 289.802907 
L 103.301883 289.802907 
" clip-path="url(#p34d926e92d)" style="fill: none; stroke: #4c4c4c"/>
   </g>
   <g id="line2d_127">
    <path d="M 115.79093 299.336832 
L 144.932039 299.336832 
" clip-path="url(#p34d926e92d)" style="fill: none; stroke: #4c4c4c"/>
   </g>
   <g id="line2d_128">
    <path d="M 157.421086 303.475484 
L 186.562195 303.475484 
" clip-path="url(#p34d926e92d)" style="fill: none; stroke: #4c4c4c"/>
   </g>
   <g id="line2d_129">
    <path d="M 199.051242 301.597383 
L 228.192352 301.597383 
" clip-path="url(#p34d926e92d)" style="fill: none; stroke: #4c4c4c"/>
   </g>
   <g id="line2d_130">
    <path d="M 240.681398 286.237929 
L 269.822508 286.237929 
" clip-path="url(#p34d926e92d)" style="fill: none; stroke: #4c4c4c"/>
   </g>
   <g id="line2d_131">
    <path d="M 282.311555 252.848702 
L 311.452664 252.848702 
" clip-path="url(#p34d926e92d)" style="fill: none; stroke: #4c4c4c"/>
   </g>
   <g id="line2d_132">
    <path d="M 323.941711 215.628148 
L 353.08282 215.628148 
" clip-path="url(#p34d926e92d)" style="fill: none; stroke: #4c4c4c"/>
   </g>
   <g id="line2d_133">
    <path d="M 365.571867 194.88708 
L 394.712977 194.88708 
" clip-path="url(#p34d926e92d)" style="fill: none; stroke: #4c4c4c"/>
   </g>
   <g id="line2d_134">
    <path d="M 407.202023 185.134612 
L 436.343133 185.134612 
" clip-path="url(#p34d926e92d)" style="fill: none; stroke: #4c4c4c"/>
   </g>
   <g id="line2d_135">
    <path d="M 448.83218 178.933463 
L 477.973289 178.933463 
" clip-path="url(#p34d926e92d)" style="fill: none; stroke: #4c4c4c"/>
   </g>
   <g id="line2d_136">
    <path d="M 490.462336 173.53819 
L 519.603445 173.53819 
" clip-path="url(#p34d926e92d)" style="fill: none; stroke: #4c4c4c"/>
   </g>
   <g id="line2d_137">
    <path d="M 532.092492 174.057229 
L 561.233602 174.057229 
" clip-path="url(#p34d926e92d)" style="fill: none; stroke: #4c4c4c"/>
   </g>
   <g id="line2d_138">
    <path d="M 573.722648 183.659449 
L 602.863758 183.659449 
" clip-path="url(#p34d926e92d)" style="fill: none; stroke: #4c4c4c"/>
   </g>
   <g id="line2d_139">
    <path d="M 615.352805 193.971933 
L 644.493914 193.971933 
" clip-path="url(#p34d926e92d)" style="fill: none; stroke: #4c4c4c"/>
   </g>
   <g id="line2d_140">
    <path d="M 656.982961 200.214059 
L 686.12407 200.214059 
" clip-path="url(#p34d926e92d)" style="fill: none; stroke: #4c4c4c"/>
   </g>
   <g id="line2d_141">
    <path d="M 698.613117 202.413144 
L 727.754227 202.413144 
" clip-path="url(#p34d926e92d)" style="fill: none; stroke: #4c4c4c"/>
   </g>
   <g id="line2d_142">
    <path d="M 740.243273 201.170183 
L 769.384383 201.170183 
" clip-path="url(#p34d926e92d)" style="fill: none; stroke: #4c4c4c"/>
   </g>
   <g id="line2d_143">
    <path d="M 781.87343 194.25194 
L 811.014539 194.25194 
" clip-path="url(#p34d926e92d)" style="fill: none; stroke: #4c4c4c"/>
   </g>
   <g id="line2d_144">
    <path d="M 823.503586 181.446704 
L 852.644695 181.446704 
" clip-path="url(#p34d926e92d)" style="fill: none; stroke: #4c4c4c"/>
   </g>
   <g id="line2d_145">
    <path d="M 865.133742 177.342199 
L 894.274852 177.342199 
" clip-path="url(#p34d926e92d)" style="fill: none; stroke: #4c4c4c"/>
   </g>
   <g id="line2d_146">
    <path d="M 906.763898 193.029467 
L 935.905008 193.029467 
" clip-path="url(#p34d926e92d)" style="fill: none; stroke: #4c4c4c"/>
   </g>
   <g id="line2d_147">
    <path d="M 948.394055 220.709266 
L 977.535164 220.709266 
" clip-path="url(#p34d926e92d)" style="fill: none; stroke: #4c4c4c"/>
   </g>
   <g id="line2d_148">
    <path d="M 990.024211 247.009514 
L 1019.16532 247.009514 
" clip-path="url(#p34d926e92d)" style="fill: none; stroke: #4c4c4c"/>
   </g>
   <g id="line2d_149">
    <path d="M 1031.654367 270.898963 
L 1060.795477 270.898963 
" clip-path="url(#p34d926e92d)" style="fill: none; stroke: #4c4c4c"/>
   </g>
   <g id="patch_27">
    <path d="M 67.91625 384.66 
L 67.91625 39.48 
" style="fill: none; stroke: #cccccc; stroke-width: 1.25; stroke-linejoin: miter; stroke-linecap: square"/>
   </g>
   <g id="patch_28">
    <path d="M 1067.04 384.66 
L 1067.04 39.48 
" style="fill: none; stroke: #cccccc; stroke-width: 1.25; stroke-linejoin: miter; stroke-linecap: square"/>
   </g>
   <g id="patch_29">
    <path d="M 67.91625 384.66 
L 1067.04 384.66 
" style="fill: none; stroke: #cccccc; stroke-width: 1.25; stroke-linejoin: miter; stroke-linecap: square"/>
   </g>
   <g id="patch_30">
    <path d="M 67.91625 39.48 
L 1067.04 39.48 
" style="fill: none; stroke: #cccccc; stroke-width: 1.25; stroke-linejoin: miter; stroke-linecap: square"/>
   </g>
   <g id="text_32">
    <!-- Demanda de Energia por Hora do Dia -->
    <g style="fill: #262626" transform="translate(433.186875 24.48) scale(0.16 -0.16)">
     <defs>
      <path id="ArialMT-44" d="M 494 0 
L 494 4581 
L 2072 4581 
Q 2606 4581 2888 4516 
Q 3281 4425 3559 4188 
Q 3922 3881 4101 3404 
Q 4281 2928 4281 2316 
Q 4281 1794 4159 1391 
Q 4038 988 3847 723 
Q 3656 459 3429 307 
Q 3203 156 2883 78 
Q 2563 0 2147 0 
L 494 0 
z
M 1100 541 
L 2078 541 
Q 2531 541 2789 625 
Q 3047 709 3200 863 
Q 3416 1078 3536 1442 
Q 3656 1806 3656 2325 
Q 3656 3044 3420 3430 
Q 3184 3816 2847 3947 
Q 2603 4041 2063 4041 
L 1100 4041 
L 1100 541 
z
" transform="scale(0.015625)"/>
      <path id="ArialMT-6d" d="M 422 0 
L 422 3319 
L 925 3319 
L 925 2853 
Q 1081 3097 1340 3245 
Q 1600 3394 1931 3394 
Q 2300 3394 2536 3241 
Q 2772 3088 2869 2813 
Q 3263 3394 3894 3394 
Q 4388 3394 4653 3120 
Q 4919 2847 4919 2278 
L 4919 0 
L 4359 0 
L 4359 2091 
Q 4359 2428 4304 2576 
Q 4250 2725 4106 2815 
Q 3963 2906 3769 2906 
Q 3419 2906 3187 2673 
Q 2956 2441 2956 1928 
L 2956 0 
L 2394 0 
L 2394 2156 
Q 2394 2531 2256 2718 
Q 2119 2906 1806 2906 
Q 1569 2906 1367 2781 
Q 1166 2656 1075 2415 
Q 984 2175 984 1722 
L 984 0 
L 422 0 
z
" transform="scale(0.015625)"/>
      <path id="ArialMT-6e" d="M 422 0 
L 422 3319 
L 928 3319 
L 928 2847 
Q 1294 3394 1984 3394 
Q 2284 3394 2536 3286 
Q 2788 3178 2913 3003 
Q 3038 2828 3088 2588 
Q 3119 2431 3119 2041 
L 3119 0 
L 2556 0 
L 2556 2019 
Q 2556 2363 2490 2533 
Q 2425 2703 2258 2804 
Q 2091 2906 1866 2906 
Q 1506 2906 1245 2678 
Q 984 2450 984 1813 
L 984 0 
L 422 0 
z
" transform="scale(0.015625)"/>
      <path id="ArialMT-45" d="M 506 0 
L 506 4581 
L 3819 4581 
L 3819 4041 
L 1113 4041 
L 1113 2638 
L 3647 2638 
L 3647 2100 
L 1113 2100 
L 1113 541 
L 3925 541 
L 3925 0 
L 506 0 
z
" transform="scale(0.015625)"/>
      <path id="ArialMT-70" d="M 422 -1272 
L 422 3319 
L 934 3319 
L 934 2888 
Q 1116 3141 1344 3267 
Q 1572 3394 1897 3394 
Q 2322 3394 2647 3175 
Q 2972 2956 3137 2557 
Q 3303 2159 3303 1684 
Q 3303 1175 3120 767 
Q 2938 359 2589 142 
Q 2241 -75 1856 -75 
Q 1575 -75 1351 44 
Q 1128 163 984 344 
L 984 -1272 
L 422 -1272 
z
M 931 1641 
Q 931 1000 1190 694 
Q 1450 388 1819 388 
Q 2194 388 2461 705 
Q 2728 1022 2728 1688 
Q 2728 2322 2467 2637 
Q 2206 2953 1844 2953 
Q 1484 2953 1207 2617 
Q 931 2281 931 1641 
z
" transform="scale(0.015625)"/>
     </defs>
     <use xlink:href="#ArialMT-44"/>
     <use xlink:href="#ArialMT-65" transform="translate(72.216797 0)"/>
     <use xlink:href="#ArialMT-6d" transform="translate(127.832031 0)"/>
     <use xlink:href="#ArialMT-61" transform="translate(211.132812 0)"/>
     <use xlink:href="#ArialMT-6e" transform="translate(266.748047 0)"/>
     <use xlink:href="#ArialMT-64" transform="translate(322.363281 0)"/>
     <use xlink:href="#ArialMT-61" transform="translate(377.978516 0)"/>
     <use xlink:href="#ArialMT-20" transform="translate(433.59375 0)"/>
     <use xlink:href="#ArialMT-64" transform="translate(461.376953 0)"/>
     <use xlink:href="#ArialMT-65" transform="translate(516.992188 0)"/>
     <use xlink:href="#ArialMT-20" transform="translate(572.607422 0)"/>
     <use xlink:href="#ArialMT-45" transform="translate(600.390625 0)"/>
     <use xlink:href="#ArialMT-6e" transform="translate(667.089844 0)"/>
     <use xlink:href="#ArialMT-65" transform="translate(722.705078 0)"/>
     <use xlink:href="#ArialMT-72" transform="translate(778.320312 0)"/>
     <use xlink:href="#ArialMT-67" transform="translate(811.621094 0)"/>
     <use xlink:href="#ArialMT-69" transform="translate(867.236328 0)"/>
     <use xlink:href="#ArialMT-61" transform="translate(889.453125 0)"/>
     <use xlink:href="#ArialMT-20" transform="translate(945.068359 0)"/>
     <use xlink:href="#ArialMT-70" transform="translate(972.851562 0)"/>
     <use xlink:href="#ArialMT-6f" transform="translate(1028.466797 0)"/>
     <use xlink:href="#ArialMT-72" transform="translate(1084.082031 0)"/>
     <use xlink:href="#ArialMT-20" transform="translate(1117.382812 0)"/>
     <use xlink:href="#ArialMT-48" transform="translate(1145.166016 0)"/>
     <use xlink:href="#ArialMT-6f" transform="translate(1217.382812 0)"/>
     <use xlink:href="#ArialMT-72" transform="translate(1272.998047 0)"/>
     <use xlink:href="#ArialMT-61" transform="translate(1306.298828 0)"/>
     <use xlink:href="#ArialMT-20" transform="translate(1361.914062 0)"/>
     <use xlink:href="#ArialMT-64" transform="translate(1389.697266 0)"/>
     <use xlink:href="#ArialMT-6f" transform="translate(1445.3125 0)"/>
     <use xlink:href="#ArialMT-20" transform="translate(1500.927734 0)"/>
     <use xlink:href="#ArialMT-44" transform="translate(1528.710938 0)"/>
     <use xlink:href="#ArialMT-69" transform="translate(1600.927734 0)"/>
     <use xlink:href="#ArialMT-61" transform="translate(1623.144531 0)"/>
    </g>
   </g>
  </g>
 </g>
 <defs>
  <clipPath id="p34d926e92d">
   <rect x="67.91625" y="39.48" width="999.12375" height="345.18"/>
  </clipPath>
 </defs>
</svg>
