<?xml version="1.0" encoding="utf-8" standalone="no"?>
<!DOCTYPE svg PUBLIC "-//W3C//DTD SVG 1.1//EN"
  "http://www.w3.org/Graphics/SVG/1.1/DTD/svg11.dtd">
<svg xmlns:xlink="http://www.w3.org/1999/xlink" width="864pt" height="432pt" viewBox="0 0 864 432" xmlns="http://www.w3.org/2000/svg" version="1.1">
 <metadata>
  <rdf:RDF xmlns:dc="http://purl.org/dc/elements/1.1/" xmlns:cc="http://creativecommons.org/ns#" xmlns:rdf="http://www.w3.org/1999/02/22-rdf-syntax-ns#">
   <cc:Work>
    <dc:type rdf:resource="http://purl.org/dc/dcmitype/StillImage"/>
    <dc:date>2026-04-23T21:09:04.718002</dc:date>
    <dc:format>image/svg+xml</dc:format>
    <dc:creator>
     <cc:Agent>
      <dc:title>Matplotlib v3.10.8, https://matplotlib.org/</dc:title>
     </cc:Agent>
    </dc:creator>
   </cc:Work>
  </rdf:RDF>
 </metadata>
 <defs>
  <style type="text/css">*{stroke-linejoin: round; stroke-linecap: butt}</style>
 </defs>
 <g id="figure_1">
  <g id="patch_1">
   <path d="M 0 432 
L 864 432 
L 864 0 
L 0 0 
z
" style="fill: #ffffff"/>
  </g>
  <g id="axes_1">
   <g id="patch_2">
    <path d="M 58.68 384.4575 
L 851.04 384.4575 
L 851.04 29.76 
L 58.68 29.76 
z
" style="fill: #ffffff"/>
   </g>
   <g id="matplotlib.axis_1">
    <g id="xtick_1">
     <g id="text_1">
      <!-- Inverno -->
      <g style="fill: #262626" transform="translate(139.381641 401.831094) scale(0.11 -0.11)">
       <defs>
        <path id="ArialMT-49" d="M 597 0 
L 597 4581 
L 1203 4581 
L 1203 0 
L 597 0 
z
" transform="scale(0.015625)"/>
        <path id="ArialMT-6e" d="M 422 0 
L 422 3319 
L 928 3319 
L 928 2847 
Q 1294 3394 1984 3394 
Q 2284 3394 2536 3286 
Q 2788 3178 2913 3003 
Q 3038 2828 3088 2588 
Q 3119 2431 3119 2041 
L 3119 0 
L 2556 0 
L 2556 2019 
Q 2556 2363 2490 2533 
Q 2425 2703 2258 2804 
Q 2091 2906 1866 2906 
Q 1506 2906 1245 2678 
Q 984 2450 984 1813 
L 984 0 
L 422 0 
z
" transform="scale(0.015625)"/>
        <path id="ArialMT-76" d="M 1344 0 
L 81 3319 
L 675 3319 
L 1388 1331 
Q 1503 1009 1600 663 
Q 1675 925 1809 1294 
L 2547 3319 
L 3125 3319 
L 1869 0 
L 1344 0 
z
" transform="scale(0.015625)"/>
        <path id="ArialMT-65" d="M 2694 1069 
L 3275 997 
Q 3138 488 2766 206 
Q 2394 -75 1816 -75 
Q 1088 -75 661 373 
Q 234 822 234 1631 
Q 234 2469 665 2931 
Q 1097 3394 1784 3394 
Q 2450 3394 2872 2941 
Q 3294 2488 3294 1666 
Q 3294 1616 3291 1516 
L 816 1516 
Q 847 969 1125 678 
Q 1403 388 1819 388 
Q 2128 388 2347 550 
Q 2566 713 2694 1069 
z
M 847 1978 
L 2700 1978 
Q 2663 2397 2488 2606 
Q 2219 2931 1791 2931 
Q 1403 2931 1139 2672 
Q 875 2413 847 1978 
z
" transform="scale(0.015625)"/>
        <path id="ArialMT-72" d="M 416 0 
L 416 3319 
L 922 3319 
L 922 2816 
Q 1116 3169 1280 3281 
Q 1444 3394 1641 3394 
Q 1925 3394 2219 3213 
L 2025 2691 
Q 1819 2813 1613 2813 
Q 1428 2813 1281 2702 
Q 1134 2591 1072 2394 
Q 978 2094 978 1738 
L 978 0 
L 416 0 
z
" transform="scale(0.015625)"/>
        <path id="ArialMT-6f" d="M 213 1659 
Q 213 2581 725 3025 
Q 1153 3394 1769 3394 
Q 2453 3394 2887 2945 
Q 3322 2497 3322 1706 
Q 3322 1066 3130 698 
Q 2938 331 2570 128 
Q 2203 -75 1769 -75 
Q 1072 -75 642 372 
Q 213 819 213 1659 
z
M 791 1659 
Q 791 1022 1069 705 
Q 1347 388 1769 388 
Q 2188 388 2466 706 
Q 2744 1025 2744 1678 
Q 2744 2294 2464 2611 
Q 2184 2928 1769 2928 
Q 1347 2928 1069 2612 
Q 791 2297 791 1659 
z
" transform="scale(0.015625)"/>
       </defs>
       <use xlink:href="#ArialMT-49"/>
       <use xlink:href="#ArialMT-6e" transform="translate(27.783203 0)"/>
       <use xlink:href="#ArialMT-76" transform="translate(83.398438 0)"/>
       <use xlink:href="#ArialMT-65" transform="translate(133.398438 0)"/>
       <use xlink:href="#ArialMT-72" transform="translate(189.013672 0)"/>
       <use xlink:href="#ArialMT-6e" transform="translate(222.314453 0)"/>
       <use xlink:href="#ArialMT-6f" transform="translate(277.929688 0)"/>
      </g>
     </g>
    </g>
    <g id="xtick_2">
     <g id="text_2">
      <!-- Primavera -->
      <g style="fill: #262626" transform="translate(330.754766 401.831094) scale(0.11 -0.11)">
       <defs>
        <path id="ArialMT-50" d="M 494 0 
L 494 4581 
L 2222 4581 
Q 2678 4581 2919 4538 
Q 3256 4481 3484 4323 
Q 3713 4166 3852 3881 
Q 3991 3597 3991 3256 
Q 3991 2672 3619 2267 
Q 3247 1863 2275 1863 
L 1100 1863 
L 1100 0 
L 494 0 
z
M 1100 2403 
L 2284 2403 
Q 2872 2403 3119 2622 
Q 3366 2841 3366 3238 
Q 3366 3525 3220 3729 
Q 3075 3934 2838 4000 
Q 2684 4041 2272 4041 
L 1100 4041 
L 1100 2403 
z
" transform="scale(0.015625)"/>
        <path id="ArialMT-69" d="M 425 3934 
L 425 4581 
L 988 4581 
L 988 3934 
L 425 3934 
z
M 425 0 
L 425 3319 
L 988 3319 
L 988 0 
L 425 0 
z
" transform="scale(0.015625)"/>
        <path id="ArialMT-6d" d="M 422 0 
L 422 3319 
L 925 3319 
L 925 2853 
Q 1081 3097 1340 3245 
Q 1600 3394 1931 3394 
Q 2300 3394 2536 3241 
Q 2772 3088 2869 2813 
Q 3263 3394 3894 3394 
Q 4388 3394 4653 3120 
Q 4919 2847 4919 2278 
L 4919 0 
L 4359 0 
L 4359 2091 
Q 4359 2428 4304 2576 
Q 4250 2725 4106 2815 
Q 3963 2906 3769 2906 
Q 3419 2906 3187 2673 
Q 2956 2441 2956 1928 
L 2956 0 
L 2394 0 
L 2394 2156 
Q 2394 2531 2256 2718 
Q 2119 2906 1806 2906 
Q 1569 2906 1367 2781 
Q 1166 2656 1075 2415 
Q 984 2175 984 1722 
L 984 0 
L 422 0 
z
" transform="scale(0.015625)"/>
        <path id="ArialMT-61" d="M 2588 409 
Q 2275 144 1986 34 
Q 1697 -75 1366 -75 
Q 819 -75 525 192 
Q 231 459 231 875 
Q 231 1119 342 1320 
Q 453 1522 633 1644 
Q 813 1766 1038 1828 
Q 1203 1872 1538 1913 
Q 2219 1994 2541 2106 
Q 2544 2222 2544 2253 
Q 2544 2597 2384 2738 
Q 2169 2928 1744 2928 
Q 1347 2928 1158 2789 
Q 969 2650 878 2297 
L 328 2372 
Q 403 2725 575 2942 
Q 747 3159 1072 3276 
Q 1397 3394 1825 3394 
Q 2250 3394 2515 3294 
Q 2781 3194 2906 3042 
Q 3031 2891 3081 2659 
Q 3109 2516 3109 2141 
L 3109 1391 
Q 3109 606 3145 398 
Q 3181 191 3288 0 
L 2700 0 
Q 2613 175 2588 409 
z
M 2541 1666 
Q 2234 1541 1622 1453 
Q 1275 1403 1131 1340 
Q 988 1278 909 1158 
Q 831 1038 831 891 
Q 831 666 1001 516 
Q 1172 366 1500 366 
Q 1825 366 2078 508 
Q 2331 650 2450 897 
Q 2541 1088 2541 1459 
L 2541 1666 
z
" transform="scale(0.015625)"/>
       </defs>
       <use xlink:href="#ArialMT-50"/>
       <use xlink:href="#ArialMT-72" transform="translate(66.699219 0)"/>
       <use xlink:href="#ArialMT-69" transform="translate(100 0)"/>
       <use xlink:href="#ArialMT-6d" transform="translate(122.216797 0)"/>
       <use xlink:href="#ArialMT-61" transform="translate(205.517578 0)"/>
       <use xlink:href="#ArialMT-76" transform="translate(261.132812 0)"/>
       <use xlink:href="#ArialMT-65" transform="translate(311.132812 0)"/>
       <use xlink:href="#ArialMT-72" transform="translate(366.748047 0)"/>
       <use xlink:href="#ArialMT-61" transform="translate(400.048828 0)"/>
      </g>
     </g>
    </g>
    <g id="xtick_3">
     <g id="text_3">
      <!-- Verão -->
      <g style="fill: #262626" transform="translate(539.531953 401.831094) scale(0.11 -0.11)">
       <defs>
        <path id="ArialMT-56" d="M 1803 0 
L 28 4581 
L 684 4581 
L 1875 1253 
Q 2019 853 2116 503 
Q 2222 878 2363 1253 
L 3600 4581 
L 4219 4581 
L 2425 0 
L 1803 0 
z
" transform="scale(0.015625)"/>
        <path id="ArialMT-e3" d="M 2588 409 
Q 2275 144 1986 34 
Q 1697 -75 1366 -75 
Q 819 -75 525 192 
Q 231 459 231 875 
Q 231 1119 342 1320 
Q 453 1522 633 1644 
Q 813 1766 1038 1828 
Q 1203 1872 1538 1913 
Q 2219 1994 2541 2106 
Q 2544 2222 2544 2253 
Q 2544 2597 2384 2738 
Q 2169 2928 1744 2928 
Q 1347 2928 1158 2789 
Q 969 2650 878 2297 
L 328 2372 
Q 403 2725 575 2942 
Q 747 3159 1072 3276 
Q 1397 3394 1825 3394 
Q 2250 3394 2515 3294 
Q 2781 3194 2906 3042 
Q 3031 2891 3081 2659 
Q 3109 2516 3109 2141 
L 3109 1391 
Q 3109 606 3145 398 
Q 3181 191 3288 0 
L 2700 0 
Q 2613 175 2588 409 
z
M 2541 1666 
Q 2234 1541 1622 1453 
Q 1275 1403 1131 1340 
Q 988 1278 909 1158 
Q 831 1038 831 891 
Q 831 666 1001 516 
Q 1172 366 1500 366 
Q 1825 366 2078 508 
Q 2331 650 2450 897 
Q 2541 1088 2541 1459 
L 2541 1666 
z
M 716 3809 
Q 713 4134 894 4328 
Q 1072 4522 1350 4522 
Q 1544 4522 1878 4353 
Q 2063 4259 2172 4259 
Q 2272 4259 2325 4314 
Q 2378 4369 2400 4531 
L 2806 4531 
Q 2797 4175 2626 3997 
Q 2456 3819 2194 3819 
Q 1997 3819 1675 3994 
Q 1466 4106 1369 4106 
Q 1263 4106 1197 4031 
Q 1128 3956 1131 3809 
L 716 3809 
z
" transform="scale(0.015625)"/>
       </defs>
       <use xlink:href="#ArialMT-56"/>
       <use xlink:href="#ArialMT-65" transform="translate(61.199219 0)"/>
       <use xlink:href="#ArialMT-72" transform="translate(116.814453 0)"/>
       <use xlink:href="#ArialMT-e3" transform="translate(150.115234 0)"/>
       <use xlink:href="#ArialMT-6f" transform="translate(205.730469 0)"/>
      </g>
     </g>
    </g>
    <g id="xtick_4">
     <g id="text_4">
      <!-- Outono -->
      <g style="fill: #262626" transform="translate(733.955 401.831094) scale(0.11 -0.11)">
       <defs>
        <path id="ArialMT-4f" d="M 309 2231 
Q 309 3372 921 4017 
Q 1534 4663 2503 4663 
Q 3138 4663 3647 4359 
Q 4156 4056 4423 3514 
Q 4691 2972 4691 2284 
Q 4691 1588 4409 1038 
Q 4128 488 3612 205 
Q 3097 -78 2500 -78 
Q 1853 -78 1343 234 
Q 834 547 571 1087 
Q 309 1628 309 2231 
z
M 934 2222 
Q 934 1394 1379 917 
Q 1825 441 2497 441 
Q 3181 441 3623 922 
Q 4066 1403 4066 2288 
Q 4066 2847 3877 3264 
Q 3688 3681 3323 3911 
Q 2959 4141 2506 4141 
Q 1863 4141 1398 3698 
Q 934 3256 934 2222 
z
" transform="scale(0.015625)"/>
        <path id="ArialMT-75" d="M 2597 0 
L 2597 488 
Q 2209 -75 1544 -75 
Q 1250 -75 995 37 
Q 741 150 617 320 
Q 494 491 444 738 
Q 409 903 409 1263 
L 409 3319 
L 972 3319 
L 972 1478 
Q 972 1038 1006 884 
Q 1059 663 1231 536 
Q 1403 409 1656 409 
Q 1909 409 2131 539 
Q 2353 669 2445 892 
Q 2538 1116 2538 1541 
L 2538 3319 
L 3100 3319 
L 3100 0 
L 2597 0 
z
" transform="scale(0.015625)"/>
        <path id="ArialMT-74" d="M 1650 503 
L 1731 6 
Q 1494 -44 1306 -44 
Q 1000 -44 831 53 
Q 663 150 594 308 
Q 525 466 525 972 
L 525 2881 
L 113 2881 
L 113 3319 
L 525 3319 
L 525 4141 
L 1084 4478 
L 1084 3319 
L 1650 3319 
L 1650 2881 
L 1084 2881 
L 1084 941 
Q 1084 700 1114 631 
Q 1144 563 1211 522 
Q 1278 481 1403 481 
Q 1497 481 1650 503 
z
" transform="scale(0.015625)"/>
       </defs>
       <use xlink:href="#ArialMT-4f"/>
       <use xlink:href="#ArialMT-75" transform="translate(77.783203 0)"/>
       <use xlink:href="#ArialMT-74" transform="translate(133.398438 0)"/>
       <use xlink:href="#ArialMT-6f" transform="translate(161.181641 0)"/>
       <use xlink:href="#ArialMT-6e" transform="translate(216.796875 0)"/>
       <use xlink:href="#ArialMT-6f" transform="translate(272.412109 0)"/>
      </g>
     </g>
    </g>
    <g id="text_5">
     <!-- Estação -->
     <g style="fill: #262626" transform="translate(433.18125 416.606719) scale(0.12 -0.12)">
      <defs>
       <path id="ArialMT-45" d="M 506 0 
L 506 4581 
L 3819 4581 
L 3819 4041 
L 1113 4041 
L 1113 2638 
L 3647 2638 
L 3647 2100 
L 1113 2100 
L 1113 541 
L 3925 541 
L 3925 0 
L 506 0 
z
" transform="scale(0.015625)"/>
       <path id="ArialMT-73" d="M 197 991 
L 753 1078 
Q 800 744 1014 566 
Q 1228 388 1613 388 
Q 2000 388 2187 545 
Q 2375 703 2375 916 
Q 2375 1106 2209 1216 
Q 2094 1291 1634 1406 
Q 1016 1563 777 1677 
Q 538 1791 414 1992 
Q 291 2194 291 2438 
Q 291 2659 392 2848 
Q 494 3038 669 3163 
Q 800 3259 1026 3326 
Q 1253 3394 1513 3394 
Q 1903 3394 2198 3281 
Q 2494 3169 2634 2976 
Q 2775 2784 2828 2463 
L 2278 2388 
Q 2241 2644 2061 2787 
Q 1881 2931 1553 2931 
Q 1166 2931 1000 2803 
Q 834 2675 834 2503 
Q 834 2394 903 2306 
Q 972 2216 1119 2156 
Q 1203 2125 1616 2013 
Q 2213 1853 2448 1751 
Q 2684 1650 2818 1456 
Q 2953 1263 2953 975 
Q 2953 694 2789 445 
Q 2625 197 2315 61 
Q 2006 -75 1616 -75 
Q 969 -75 630 194 
Q 291 463 197 991 
z
" transform="scale(0.015625)"/>
       <path id="ArialMT-e7" d="M 2588 1216 
L 3141 1144 
Q 3050 572 2676 248 
Q 2303 -75 1759 -75 
Q 1078 -75 664 370 
Q 250 816 250 1647 
Q 250 2184 428 2587 
Q 606 2991 970 3192 
Q 1334 3394 1763 3394 
Q 2303 3394 2647 3120 
Q 2991 2847 3088 2344 
L 2541 2259 
Q 2463 2594 2264 2762 
Q 2066 2931 1784 2931 
Q 1359 2931 1093 2626 
Q 828 2322 828 1663 
Q 828 994 1084 691 
Q 1341 388 1753 388 
Q 2084 388 2306 591 
Q 2528 794 2588 1216 
z
M 1284 -418 
L 1447 135 
L 1866 135 
L 1763 -200 
Q 2028 -231 2162 -363 
Q 2297 -496 2297 -659 
Q 2297 -893 2072 -1073 
Q 1847 -1253 1394 -1253 
Q 1138 -1253 944 -1215 
L 978 -850 
Q 1178 -862 1272 -862 
Q 1566 -862 1684 -781 
Q 1775 -718 1775 -628 
Q 1775 -571 1739 -527 
Q 1703 -484 1606 -452 
Q 1509 -421 1284 -418 
z
" transform="scale(0.015625)"/>
      </defs>
      <use xlink:href="#ArialMT-45"/>
      <use xlink:href="#ArialMT-73" transform="translate(66.699219 0)"/>
      <use xlink:href="#ArialMT-74" transform="translate(116.699219 0)"/>
      <use xlink:href="#ArialMT-61" transform="translate(144.482422 0)"/>
      <use xlink:href="#ArialMT-e7" transform="translate(200.097656 0)"/>
      <use xlink:href="#ArialMT-e3" transform="translate(250.097656 0)"/>
      <use xlink:href="#ArialMT-6f" transform="translate(305.712891 0)"/>
     </g>
    </g>
   </g>
   <g id="matplotlib.axis_2">
    <g id="ytick_1">
     <g id="line2d_1">
      <path d="M 58.68 368.334886 
L 851.04 368.334886 
" clip-path="url(#p4fd607d3c4)" style="fill: none; stroke: #cccccc; stroke-linecap: round"/>
     </g>
     <g id="text_6">
      <!-- 0.0 -->
      <g style="fill: #262626" transform="translate(33.89 372.271683) scale(0.11 -0.11)">
       <defs>
        <path id="ArialMT-30" d="M 266 2259 
Q 266 3072 433 3567 
Q 600 4063 929 4331 
Q 1259 4600 1759 4600 
Q 2128 4600 2406 4451 
Q 2684 4303 2865 4023 
Q 3047 3744 3150 3342 
Q 3253 2941 3253 2259 
Q 3253 1453 3087 958 
Q 2922 463 2592 192 
Q 2263 -78 1759 -78 
Q 1097 -78 719 397 
Q 266 969 266 2259 
z
M 844 2259 
Q 844 1131 1108 757 
Q 1372 384 1759 384 
Q 2147 384 2411 759 
Q 2675 1134 2675 2259 
Q 2675 3391 2411 3762 
Q 2147 4134 1753 4134 
Q 1366 4134 1134 3806 
Q 844 3388 844 2259 
z
" transform="scale(0.015625)"/>
        <path id="ArialMT-2e" d="M 581 0 
L 581 641 
L 1222 641 
L 1222 0 
L 581 0 
z
" transform="scale(0.015625)"/>
       </defs>
       <use xlink:href="#ArialMT-30"/>
       <use xlink:href="#ArialMT-2e" transform="translate(55.615234 0)"/>
       <use xlink:href="#ArialMT-30" transform="translate(83.398438 0)"/>
      </g>
     </g>
    </g>
    <g id="ytick_2">
     <g id="line2d_2">
      <path d="M 58.68 323.549848 
L 851.04 323.549848 
" clip-path="url(#p4fd607d3c4)" style="fill: none; stroke: #cccccc; stroke-linecap: round"/>
     </g>
     <g id="text_7">
      <!-- 2.5 -->
      <g style="fill: #262626" transform="translate(33.89 327.486645) scale(0.11 -0.11)">
       <defs>
        <path id="ArialMT-32" d="M 3222 541 
L 3222 0 
L 194 0 
Q 188 203 259 391 
Q 375 700 629 1000 
Q 884 1300 1366 1694 
Q 2113 2306 2375 2664 
Q 2638 3022 2638 3341 
Q 2638 3675 2398 3904 
Q 2159 4134 1775 4134 
Q 1369 4134 1125 3890 
Q 881 3647 878 3216 
L 300 3275 
Q 359 3922 746 4261 
Q 1134 4600 1788 4600 
Q 2447 4600 2831 4234 
Q 3216 3869 3216 3328 
Q 3216 3053 3103 2787 
Q 2991 2522 2730 2228 
Q 2469 1934 1863 1422 
Q 1356 997 1212 845 
Q 1069 694 975 541 
L 3222 541 
z
" transform="scale(0.015625)"/>
        <path id="ArialMT-35" d="M 266 1200 
L 856 1250 
Q 922 819 1161 601 
Q 1400 384 1738 384 
Q 2144 384 2425 690 
Q 2706 997 2706 1503 
Q 2706 1984 2436 2262 
Q 2166 2541 1728 2541 
Q 1456 2541 1237 2417 
Q 1019 2294 894 2097 
L 366 2166 
L 809 4519 
L 3088 4519 
L 3088 3981 
L 1259 3981 
L 1013 2750 
Q 1425 3038 1878 3038 
Q 2478 3038 2890 2622 
Q 3303 2206 3303 1553 
Q 3303 931 2941 478 
Q 2500 -78 1738 -78 
Q 1113 -78 717 272 
Q 322 622 266 1200 
z
" transform="scale(0.015625)"/>
       </defs>
       <use xlink:href="#ArialMT-32"/>
       <use xlink:href="#ArialMT-2e" transform="translate(55.615234 0)"/>
       <use xlink:href="#ArialMT-35" transform="translate(83.398438 0)"/>
      </g>
     </g>
    </g>
    <g id="ytick_3">
     <g id="line2d_3">
      <path d="M 58.68 278.764811 
L 851.04 278.764811 
" clip-path="url(#p4fd607d3c4)" style="fill: none; stroke: #cccccc; stroke-linecap: round"/>
     </g>
     <g id="text_8">
      <!-- 5.0 -->
      <g style="fill: #262626" transform="translate(33.89 282.701607) scale(0.11 -0.11)">
       <use xlink:href="#ArialMT-35"/>
       <use xlink:href="#ArialMT-2e" transform="translate(55.615234 0)"/>
       <use xlink:href="#ArialMT-30" transform="translate(83.398438 0)"/>
      </g>
     </g>
    </g>
    <g id="ytick_4">
     <g id="line2d_4">
      <path d="M 58.68 233.979773 
L 851.04 233.979773 
" clip-path="url(#p4fd607d3c4)" style="fill: none; stroke: #cccccc; stroke-linecap: round"/>
     </g>
     <g id="text_9">
      <!-- 7.5 -->
      <g style="fill: #262626" transform="translate(33.89 237.91657) scale(0.11 -0.11)">
       <defs>
        <path id="ArialMT-37" d="M 303 3981 
L 303 4522 
L 3269 4522 
L 3269 4084 
Q 2831 3619 2401 2847 
Q 1972 2075 1738 1259 
Q 1569 684 1522 0 
L 944 0 
Q 953 541 1156 1306 
Q 1359 2072 1739 2783 
Q 2119 3494 2547 3981 
L 303 3981 
z
" transform="scale(0.015625)"/>
       </defs>
       <use xlink:href="#ArialMT-37"/>
       <use xlink:href="#ArialMT-2e" transform="translate(55.615234 0)"/>
       <use xlink:href="#ArialMT-35" transform="translate(83.398438 0)"/>
      </g>
     </g>
    </g>
    <g id="ytick_5">
     <g id="line2d_5">
      <path d="M 58.68 189.194735 
L 851.04 189.194735 
" clip-path="url(#p4fd607d3c4)" style="fill: none; stroke: #cccccc; stroke-linecap: round"/>
     </g>
     <g id="text_10">
      <!-- 10.0 -->
      <g style="fill: #262626" transform="translate(27.772969 193.131532) scale(0.11 -0.11)">
       <defs>
        <path id="ArialMT-31" d="M 2384 0 
L 1822 0 
L 1822 3584 
Q 1619 3391 1289 3197 
Q 959 3003 697 2906 
L 697 3450 
Q 1169 3672 1522 3987 
Q 1875 4303 2022 4600 
L 2384 4600 
L 2384 0 
z
" transform="scale(0.015625)"/>
       </defs>
       <use xlink:href="#ArialMT-31"/>
       <use xlink:href="#ArialMT-30" transform="translate(55.615234 0)"/>
       <use xlink:href="#ArialMT-2e" transform="translate(111.230469 0)"/>
       <use xlink:href="#ArialMT-30" transform="translate(139.013672 0)"/>
      </g>
     </g>
    </g>
    <g id="ytick_6">
     <g id="line2d_6">
      <path d="M 58.68 144.409697 
L 851.04 144.409697 
" clip-path="url(#p4fd607d3c4)" style="fill: none; stroke: #cccccc; stroke-linecap: round"/>
     </g>
     <g id="text_11">
      <!-- 12.5 -->
      <g style="fill: #262626" transform="translate(27.772969 148.346494) scale(0.11 -0.11)">
       <use xlink:href="#ArialMT-31"/>
       <use xlink:href="#ArialMT-32" transform="translate(55.615234 0)"/>
       <use xlink:href="#ArialMT-2e" transform="translate(111.230469 0)"/>
       <use xlink:href="#ArialMT-35" transform="translate(139.013672 0)"/>
      </g>
     </g>
    </g>
    <g id="ytick_7">
     <g id="line2d_7">
      <path d="M 58.68 99.624659 
L 851.04 99.624659 
" clip-path="url(#p4fd607d3c4)" style="fill: none; stroke: #cccccc; stroke-linecap: round"/>
     </g>
     <g id="text_12">
      <!-- 15.0 -->
      <g style="fill: #262626" transform="translate(27.772969 103.561456) scale(0.11 -0.11)">
       <use xlink:href="#ArialMT-31"/>
       <use xlink:href="#ArialMT-35" transform="translate(55.615234 0)"/>
       <use xlink:href="#ArialMT-2e" transform="translate(111.230469 0)"/>
       <use xlink:href="#ArialMT-30" transform="translate(139.013672 0)"/>
      </g>
     </g>
    </g>
    <g id="ytick_8">
     <g id="line2d_8">
      <path d="M 58.68 54.839621 
L 851.04 54.839621 
" clip-path="url(#p4fd607d3c4)" style="fill: none; stroke: #cccccc; stroke-linecap: round"/>
     </g>
     <g id="text_13">
      <!-- 17.5 -->
      <g style="fill: #262626" transform="translate(27.772969 58.776418) scale(0.11 -0.11)">
       <use xlink:href="#ArialMT-31"/>
       <use xlink:href="#ArialMT-37" transform="translate(55.615234 0)"/>
       <use xlink:href="#ArialMT-2e" transform="translate(111.230469 0)"/>
       <use xlink:href="#ArialMT-35" transform="translate(139.013672 0)"/>
      </g>
     </g>
    </g>
    <g id="text_14">
     <!-- Velocidade do vento -->
     <g style="fill: #262626" transform="translate(21.387969 261.15) rotate(-90) scale(0.12 -0.12)">
      <defs>
       <path id="ArialMT-6c" d="M 409 0 
L 409 4581 
L 972 4581 
L 972 0 
L 409 0 
z
" transform="scale(0.015625)"/>
       <path id="ArialMT-63" d="M 2588 1216 
L 3141 1144 
Q 3050 572 2676 248 
Q 2303 -75 1759 -75 
Q 1078 -75 664 370 
Q 250 816 250 1647 
Q 250 2184 428 2587 
Q 606 2991 970 3192 
Q 1334 3394 1763 3394 
Q 2303 3394 2647 3120 
Q 2991 2847 3088 2344 
L 2541 2259 
Q 2463 2594 2264 2762 
Q 2066 2931 1784 2931 
Q 1359 2931 1093 2626 
Q 828 2322 828 1663 
Q 828 994 1084 691 
Q 1341 388 1753 388 
Q 2084 388 2306 591 
Q 2528 794 2588 1216 
z
" transform="scale(0.015625)"/>
       <path id="ArialMT-64" d="M 2575 0 
L 2575 419 
Q 2259 -75 1647 -75 
Q 1250 -75 917 144 
Q 584 363 401 755 
Q 219 1147 219 1656 
Q 219 2153 384 2558 
Q 550 2963 881 3178 
Q 1213 3394 1622 3394 
Q 1922 3394 2156 3267 
Q 2391 3141 2538 2938 
L 2538 4581 
L 3097 4581 
L 3097 0 
L 2575 0 
z
M 797 1656 
Q 797 1019 1065 703 
Q 1334 388 1700 388 
Q 2069 388 2326 689 
Q 2584 991 2584 1609 
Q 2584 2291 2321 2609 
Q 2059 2928 1675 2928 
Q 1300 2928 1048 2622 
Q 797 2316 797 1656 
z
" transform="scale(0.015625)"/>
       <path id="ArialMT-20" transform="scale(0.015625)"/>
      </defs>
      <use xlink:href="#ArialMT-56"/>
      <use xlink:href="#ArialMT-65" transform="translate(61.199219 0)"/>
      <use xlink:href="#ArialMT-6c" transform="translate(116.814453 0)"/>
      <use xlink:href="#ArialMT-6f" transform="translate(139.03125 0)"/>
      <use xlink:href="#ArialMT-63" transform="translate(194.646484 0)"/>
      <use xlink:href="#ArialMT-69" transform="translate(244.646484 0)"/>
      <use xlink:href="#ArialMT-64" transform="translate(266.863281 0)"/>
      <use xlink:href="#ArialMT-61" transform="translate(322.478516 0)"/>
      <use xlink:href="#ArialMT-64" transform="translate(378.09375 0)"/>
      <use xlink:href="#ArialMT-65" transform="translate(433.708984 0)"/>
      <use xlink:href="#ArialMT-20" transform="translate(489.324219 0)"/>
      <use xlink:href="#ArialMT-64" transform="translate(517.107422 0)"/>
      <use xlink:href="#ArialMT-6f" transform="translate(572.722656 0)"/>
      <use xlink:href="#ArialMT-20" transform="translate(628.337891 0)"/>
      <use xlink:href="#ArialMT-76" transform="translate(656.121094 0)"/>
      <use xlink:href="#ArialMT-65" transform="translate(706.121094 0)"/>
      <use xlink:href="#ArialMT-6e" transform="translate(761.736328 0)"/>
      <use xlink:href="#ArialMT-74" transform="translate(817.351562 0)"/>
      <use xlink:href="#ArialMT-6f" transform="translate(845.134766 0)"/>
     </g>
    </g>
   </g>
   <g id="FillBetweenPolyCollection_1">
    <defs>
     <path id="m5cd4cd5461" d="M 172.282479 -63.665114 
L 143.167521 -63.665114 
L 141.708236 -66.922207 
L 138.054161 -70.179301 
L 128.769954 -73.436395 
L 115.160862 -76.693488 
L 104.531992 -79.950582 
L 104.201674 -83.207676 
L 113.816003 -86.464769 
L 125.47941 -89.721863 
L 131.872992 -92.978957 
L 132.649513 -96.23605 
L 132.682118 -99.493144 
L 135.6853 -102.750238 
L 140.690419 -106.007331 
L 144.288745 -109.264425 
L 144.920736 -112.521519 
L 144.226541 -115.778612 
L 144.691777 -119.035706 
L 146.815137 -122.2928 
L 148.926339 -125.549893 
L 149.420366 -128.806987 
L 148.586031 -132.064081 
L 148.093913 -135.321174 
L 148.995483 -138.578268 
L 150.61009 -141.835362 
L 151.468345 -145.092455 
L 151.045753 -148.349549 
L 150.273556 -151.606643 
L 150.37604 -154.863736 
L 151.463041 -158.12083 
L 152.489723 -161.377924 
L 152.531517 -164.635017 
L 151.827674 -167.892111 
L 151.445257 -171.149205 
L 152.033475 -174.406298 
L 153.129439 -177.663392 
L 153.766709 -180.920486 
L 153.584654 -184.177579 
L 153.156665 -187.434673 
L 153.264866 -190.691767 
L 154.025194 -193.94886 
L 154.844719 -197.205954 
L 155.155313 -200.463048 
L 155.007515 -203.720141 
L 154.910367 -206.977235 
L 155.210063 -210.234329 
L 155.74375 -213.491422 
L 156.101163 -216.748516 
L 156.11081 -220.00561 
L 155.988801 -223.262703 
L 156.049813 -226.519797 
L 156.359231 -229.77689 
L 156.709133 -233.033984 
L 156.886876 -236.291078 
L 156.891603 -239.548171 
L 156.884801 -242.805265 
L 156.986919 -246.062359 
L 157.16379 -249.319452 
L 157.300419 -252.576546 
L 157.34082 -255.83364 
L 157.332295 -259.090733 
L 157.352792 -262.347827 
L 157.424278 -265.604921 
L 157.504688 -268.862014 
L 157.54803 -272.119108 
L 157.553095 -275.376202 
L 157.553885 -278.633295 
L 157.576925 -281.890389 
L 157.617264 -285.147483 
L 157.652559 -288.404576 
L 157.669995 -291.66167 
L 157.67505 -294.918764 
L 157.679816 -298.175857 
L 157.689403 -301.432951 
L 157.70006 -304.690045 
L 157.706602 -307.947138 
L 157.708478 -311.204232 
L 157.708965 -314.461326 
L 157.710645 -317.718419 
L 157.7129 -320.975513 
L 157.713532 -324.232607 
L 157.711934 -327.4897 
L 157.7101 -330.746794 
L 157.710577 -334.003888 
L 157.713875 -337.260981 
L 157.718284 -340.518075 
L 157.721841 -343.775169 
L 157.723844 -347.032262 
L 157.724671 -350.289356 
L 157.724927 -353.54645 
L 157.724987 -356.803543 
L 157.724994 -360.060637 
L 157.724969 -363.317731 
L 157.72484 -366.574824 
L 157.724364 -369.831918 
L 157.723028 -373.089012 
L 157.720249 -376.346105 
L 157.716096 -379.603199 
L 157.712019 -382.860293 
L 157.710282 -386.117386 
L 157.739718 -386.117386 
L 157.739718 -386.117386 
L 157.737981 -382.860293 
L 157.733904 -379.603199 
L 157.729751 -376.346105 
L 157.726972 -373.089012 
L 157.725636 -369.831918 
L 157.72516 -366.574824 
L 157.725031 -363.317731 
L 157.725006 -360.060637 
L 157.725013 -356.803543 
L 157.725073 -353.54645 
L 157.725329 -350.289356 
L 157.726156 -347.032262 
L 157.728159 -343.775169 
L 157.731716 -340.518075 
L 157.736125 -337.260981 
L 157.739423 -334.003888 
L 157.7399 -330.746794 
L 157.738066 -327.4897 
L 157.736468 -324.232607 
L 157.7371 -320.975513 
L 157.739355 -317.718419 
L 157.741035 -314.461326 
L 157.741522 -311.204232 
L 157.743398 -307.947138 
L 157.74994 -304.690045 
L 157.760597 -301.432951 
L 157.770184 -298.175857 
L 157.77495 -294.918764 
L 157.780005 -291.66167 
L 157.797441 -288.404576 
L 157.832736 -285.147483 
L 157.873075 -281.890389 
L 157.896115 -278.633295 
L 157.896905 -275.376202 
L 157.90197 -272.119108 
L 157.945312 -268.862014 
L 158.025722 -265.604921 
L 158.097208 -262.347827 
L 158.117705 -259.090733 
L 158.10918 -255.83364 
L 158.149581 -252.576546 
L 158.28621 -249.319452 
L 158.463081 -246.062359 
L 158.565199 -242.805265 
L 158.558397 -239.548171 
L 158.563124 -236.291078 
L 158.740867 -233.033984 
L 159.090769 -229.77689 
L 159.400187 -226.519797 
L 159.461199 -223.262703 
L 159.33919 -220.00561 
L 159.348837 -216.748516 
L 159.70625 -213.491422 
L 160.239937 -210.234329 
L 160.539633 -206.977235 
L 160.442485 -203.720141 
L 160.294687 -200.463048 
L 160.605281 -197.205954 
L 161.424806 -193.94886 
L 162.185134 -190.691767 
L 162.293335 -187.434673 
L 161.865346 -184.177579 
L 161.683291 -180.920486 
L 162.320561 -177.663392 
L 163.416525 -174.406298 
L 164.004743 -171.149205 
L 163.622326 -167.892111 
L 162.918483 -164.635017 
L 162.960277 -161.377924 
L 163.986959 -158.12083 
L 165.07396 -154.863736 
L 165.176444 -151.606643 
L 164.404247 -148.349549 
L 163.981655 -145.092455 
L 164.83991 -141.835362 
L 166.454517 -138.578268 
L 167.356087 -135.321174 
L 166.863969 -132.064081 
L 166.029634 -128.806987 
L 166.523661 -125.549893 
L 168.634863 -122.2928 
L 170.758223 -119.035706 
L 171.223459 -115.778612 
L 170.529264 -112.521519 
L 171.161255 -109.264425 
L 174.759581 -106.007331 
L 179.7647 -102.750238 
L 182.767882 -99.493144 
L 182.800487 -96.23605 
L 183.577008 -92.978957 
L 189.97059 -89.721863 
L 201.633997 -86.464769 
L 211.248326 -83.207676 
L 210.918008 -79.950582 
L 200.289138 -76.693488 
L 186.680046 -73.436395 
L 177.395839 -70.179301 
L 173.741764 -66.922207 
L 172.282479 -63.665114 
z
" style="stroke: #4c4c4c; stroke-width: 1.25"/>
    </defs>
    <g clip-path="url(#p4fd607d3c4)">
     <use xlink:href="#m5cd4cd5461" x="0" y="432" style="fill: #5875a4; stroke: #4c4c4c; stroke-width: 1.25"/>
    </g>
   </g>
   <g id="FillBetweenPolyCollection_2">
    <defs>
     <path id="m3c6b2f5ec6" d="M 363.019454 -63.665114 
L 348.610546 -63.665114 
L 347.831086 -66.741258 
L 345.608464 -69.817402 
L 339.655913 -72.893546 
L 330.094464 -75.96969 
L 321.03922 -79.045834 
L 317.933273 -82.121978 
L 322.136118 -85.198122 
L 328.909665 -88.274266 
L 331.828818 -91.35041 
L 328.994026 -94.426554 
L 324.532239 -97.502698 
L 324.078138 -100.578842 
L 329.00349 -103.654986 
L 335.397965 -106.73113 
L 338.492351 -109.807274 
L 337.356669 -112.883418 
L 335.205887 -115.959562 
L 335.645829 -119.035706 
L 338.982635 -122.11185 
L 342.281799 -125.187994 
L 342.736546 -128.264138 
L 340.575982 -131.340282 
L 338.673006 -134.416426 
L 339.489926 -137.49257 
L 342.600938 -140.568714 
L 345.352311 -143.644858 
L 345.7264 -146.721002 
L 344.260531 -149.797146 
L 343.24856 -152.87329 
L 344.285883 -155.949434 
L 346.745804 -159.025578 
L 348.663026 -162.101722 
L 348.842755 -165.177866 
L 347.91874 -168.25401 
L 347.493416 -171.330154 
L 348.438438 -174.406298 
L 350.124763 -177.482442 
L 351.254497 -180.558586 
L 351.233648 -183.63473 
L 350.64855 -186.710874 
L 350.533815 -189.787018 
L 351.303872 -192.863162 
L 352.441032 -195.939306 
L 353.150679 -199.01545 
L 353.168949 -202.091594 
L 352.911492 -205.167738 
L 352.953941 -208.243882 
L 353.452574 -211.320026 
L 354.07285 -214.39617 
L 354.408756 -217.472314 
L 354.385961 -220.548458 
L 354.267984 -223.624602 
L 354.344938 -226.700746 
L 354.657936 -229.77689 
L 355.016061 -232.853035 
L 355.227975 -235.929179 
L 355.271852 -239.005323 
L 355.263434 -242.081467 
L 355.311297 -245.157611 
L 355.420281 -248.233755 
L 355.517735 -251.309899 
L 355.54683 -254.386043 
L 355.522416 -257.462187 
L 355.506196 -260.538331 
L 355.541394 -263.614475 
L 355.616725 -266.690619 
L 355.68928 -269.766763 
L 355.730147 -272.842907 
L 355.742861 -275.919051 
L 355.74765 -278.995195 
L 355.758123 -282.071339 
L 355.772817 -285.147483 
L 355.783184 -288.223627 
L 355.785134 -291.299771 
L 355.782538 -294.375915 
L 355.78174 -297.452059 
L 355.784218 -300.528203 
L 355.784942 -303.604347 
L 355.778086 -306.680491 
L 355.764495 -309.756635 
L 355.753005 -312.832779 
L 355.752966 -315.908923 
L 355.765152 -318.985067 
L 355.781356 -322.061211 
L 355.792762 -325.137355 
L 355.797063 -328.213499 
L 355.797908 -331.289643 
L 355.799674 -334.365787 
L 355.803657 -337.441931 
L 355.808348 -340.518075 
L 355.811931 -343.594219 
L 355.813826 -346.670363 
L 355.814319 -349.746507 
L 355.813487 -352.822651 
L 355.810606 -355.898795 
L 355.804609 -358.974939 
L 355.795754 -362.051083 
L 355.787139 -365.127227 
L 355.783483 -368.203371 
L 355.846517 -368.203371 
L 355.846517 -368.203371 
L 355.842861 -365.127227 
L 355.834246 -362.051083 
L 355.825391 -358.974939 
L 355.819394 -355.898795 
L 355.816513 -352.822651 
L 355.815681 -349.746507 
L 355.816174 -346.670363 
L 355.818069 -343.594219 
L 355.821652 -340.518075 
L 355.826343 -337.441931 
L 355.830326 -334.365787 
L 355.832092 -331.289643 
L 355.832937 -328.213499 
L 355.837238 -325.137355 
L 355.848644 -322.061211 
L 355.864848 -318.985067 
L 355.877034 -315.908923 
L 355.876995 -312.832779 
L 355.865505 -309.756635 
L 355.851914 -306.680491 
L 355.845058 -303.604347 
L 355.845782 -300.528203 
L 355.84826 -297.452059 
L 355.847462 -294.375915 
L 355.844866 -291.299771 
L 355.846816 -288.223627 
L 355.857183 -285.147483 
L 355.871877 -282.071339 
L 355.88235 -278.995195 
L 355.887139 -275.919051 
L 355.899853 -272.842907 
L 355.94072 -269.766763 
L 356.013275 -266.690619 
L 356.088606 -263.614475 
L 356.123804 -260.538331 
L 356.107584 -257.462187 
L 356.08317 -254.386043 
L 356.112265 -251.309899 
L 356.209719 -248.233755 
L 356.318703 -245.157611 
L 356.366566 -242.081467 
L 356.358148 -239.005323 
L 356.402025 -235.929179 
L 356.613939 -232.853035 
L 356.972064 -229.77689 
L 357.285062 -226.700746 
L 357.362016 -223.624602 
L 357.244039 -220.548458 
L 357.221244 -217.472314 
L 357.55715 -214.39617 
L 358.177426 -211.320026 
L 358.676059 -208.243882 
L 358.718508 -205.167738 
L 358.461051 -202.091594 
L 358.479321 -199.01545 
L 359.188968 -195.939306 
L 360.326128 -192.863162 
L 361.096185 -189.787018 
L 360.98145 -186.710874 
L 360.396352 -183.63473 
L 360.375503 -180.558586 
L 361.505237 -177.482442 
L 363.191562 -174.406298 
L 364.136584 -171.330154 
L 363.71126 -168.25401 
L 362.787245 -165.177866 
L 362.966974 -162.101722 
L 364.884196 -159.025578 
L 367.344117 -155.949434 
L 368.38144 -152.87329 
L 367.369469 -149.797146 
L 365.9036 -146.721002 
L 366.277689 -143.644858 
L 369.029062 -140.568714 
L 372.140074 -137.49257 
L 372.956994 -134.416426 
L 371.054018 -131.340282 
L 368.893454 -128.264138 
L 369.348201 -125.187994 
L 372.647365 -122.11185 
L 375.984171 -119.035706 
L 376.424113 -115.959562 
L 374.273331 -112.883418 
L 373.137649 -109.807274 
L 376.232035 -106.73113 
L 382.62651 -103.654986 
L 387.551862 -100.578842 
L 387.097761 -97.502698 
L 382.635974 -94.426554 
L 379.801182 -91.35041 
L 382.720335 -88.274266 
L 389.493882 -85.198122 
L 393.696727 -82.121978 
L 390.59078 -79.045834 
L 381.535536 -75.96969 
L 371.974087 -72.893546 
L 366.021536 -69.817402 
L 363.798914 -66.741258 
L 363.019454 -63.665114 
z
" style="stroke: #4c4c4c; stroke-width: 1.25"/>
    </defs>
    <g clip-path="url(#p4fd607d3c4)">
     <use xlink:href="#m3c6b2f5ec6" x="0" y="432" style="fill: #5875a4; stroke: #4c4c4c; stroke-width: 1.25"/>
    </g>
   </g>
   <g id="FillBetweenPolyCollection_3">
    <defs>
     <path id="md8e6a3d385" d="M 563.912245 -63.665114 
L 543.897755 -63.665114 
L 544.87938 -66.379358 
L 546.281147 -69.093603 
L 543.988832 -71.807848 
L 534.531587 -74.522093 
L 519.127037 -77.236337 
L 505.887787 -79.950582 
L 504.346341 -82.664827 
L 515.315832 -85.379071 
L 529.152575 -88.093316 
L 534.86256 -90.807561 
L 528.66431 -93.521806 
L 516.017063 -96.23605 
L 507.88508 -98.950295 
L 511.73767 -101.66454 
L 524.448602 -104.378784 
L 536.0005 -107.093029 
L 538.991705 -109.807274 
L 533.438805 -112.521519 
L 525.622166 -115.235763 
L 523.227948 -117.950008 
L 528.844086 -120.664253 
L 537.963038 -123.378497 
L 544.052913 -126.092742 
L 544.158705 -128.806987 
L 540.085995 -131.521232 
L 536.436723 -134.235476 
L 536.9833 -136.949721 
L 541.467399 -139.663966 
L 546.270887 -142.378211 
L 548.073531 -145.092455 
L 546.278569 -147.8067 
L 542.993176 -150.520945 
L 541.395831 -153.235189 
L 543.103309 -155.949434 
L 546.792628 -158.663679 
L 549.820699 -161.377924 
L 550.675963 -164.092168 
L 549.710045 -166.806413 
L 548.437777 -169.520658 
L 548.316363 -172.234902 
L 549.597427 -174.949147 
L 551.29779 -177.663392 
L 552.313631 -180.377637 
L 552.303066 -183.091881 
L 551.69906 -185.806126 
L 551.263891 -188.520371 
L 551.492997 -191.234615 
L 552.235459 -193.94886 
L 552.942441 -196.663105 
L 553.218976 -199.37735 
L 553.06664 -202.091594 
L 552.777177 -204.805839 
L 552.686911 -207.520084 
L 552.911653 -210.234329 
L 553.27814 -212.948573 
L 553.532711 -215.662818 
L 553.562652 -218.377063 
L 553.434938 -221.091307 
L 553.314416 -223.805552 
L 553.334271 -226.519797 
L 553.490116 -229.234042 
L 553.667431 -231.948286 
L 553.765772 -234.662531 
L 553.769157 -237.376776 
L 553.726923 -240.09102 
L 553.703783 -242.805265 
L 553.731854 -245.51951 
L 553.792175 -248.233755 
L 553.844004 -250.947999 
L 553.864672 -253.662244 
L 553.859186 -256.376489 
L 553.847124 -259.090733 
L 553.846087 -261.804978 
L 553.859436 -264.519223 
L 553.876675 -267.233468 
L 553.885595 -269.947712 
L 553.882199 -272.661957 
L 553.87192 -275.376202 
L 553.865061 -278.090447 
L 553.868585 -280.804691 
L 553.8803 -283.518936 
L 553.892563 -286.233181 
L 553.900353 -288.947425 
L 553.903711 -291.66167 
L 553.904735 -294.375915 
L 553.90496 -297.09016 
L 553.904995 -299.804404 
L 553.905 -302.518649 
L 553.905 -305.232894 
L 553.905 -307.947138 
L 553.904999 -310.661383 
L 553.904987 -313.375628 
L 553.904907 -316.089873 
L 553.904519 -318.804117 
L 553.903159 -321.518362 
L 553.89977 -324.232607 
L 553.893974 -326.946851 
L 553.887752 -329.661096 
L 553.884978 -332.375341 
L 553.925022 -332.375341 
L 553.925022 -332.375341 
L 553.922248 -329.661096 
L 553.916026 -326.946851 
L 553.91023 -324.232607 
L 553.906841 -321.518362 
L 553.905481 -318.804117 
L 553.905093 -316.089873 
L 553.905013 -313.375628 
L 553.905001 -310.661383 
L 553.905 -307.947138 
L 553.905 -305.232894 
L 553.905 -302.518649 
L 553.905005 -299.804404 
L 553.90504 -297.09016 
L 553.905265 -294.375915 
L 553.906289 -291.66167 
L 553.909647 -288.947425 
L 553.917437 -286.233181 
L 553.9297 -283.518936 
L 553.941415 -280.804691 
L 553.944939 -278.090447 
L 553.93808 -275.376202 
L 553.927801 -272.661957 
L 553.924405 -269.947712 
L 553.933325 -267.233468 
L 553.950564 -264.519223 
L 553.963913 -261.804978 
L 553.962876 -259.090733 
L 553.950814 -256.376489 
L 553.945328 -253.662244 
L 553.965996 -250.947999 
L 554.017825 -248.233755 
L 554.078146 -245.51951 
L 554.106217 -242.805265 
L 554.083077 -240.09102 
L 554.040843 -237.376776 
L 554.044228 -234.662531 
L 554.142569 -231.948286 
L 554.319884 -229.234042 
L 554.475729 -226.519797 
L 554.495584 -223.805552 
L 554.375062 -221.091307 
L 554.247348 -218.377063 
L 554.277289 -215.662818 
L 554.53186 -212.948573 
L 554.898347 -210.234329 
L 555.123089 -207.520084 
L 555.032823 -204.805839 
L 554.74336 -202.091594 
L 554.591024 -199.37735 
L 554.867559 -196.663105 
L 555.574541 -193.94886 
L 556.317003 -191.234615 
L 556.546109 -188.520371 
L 556.11094 -185.806126 
L 555.506934 -183.091881 
L 555.496369 -180.377637 
L 556.51221 -177.663392 
L 558.212573 -174.949147 
L 559.493637 -172.234902 
L 559.372223 -169.520658 
L 558.099955 -166.806413 
L 557.134037 -164.092168 
L 557.989301 -161.377924 
L 561.017372 -158.663679 
L 564.706691 -155.949434 
L 566.414169 -153.235189 
L 564.816824 -150.520945 
L 561.531431 -147.8067 
L 559.736469 -145.092455 
L 561.539113 -142.378211 
L 566.342601 -139.663966 
L 570.8267 -136.949721 
L 571.373277 -134.235476 
L 567.724005 -131.521232 
L 563.651295 -128.806987 
L 563.757087 -126.092742 
L 569.846962 -123.378497 
L 578.965914 -120.664253 
L 584.582052 -117.950008 
L 582.187834 -115.235763 
L 574.371195 -112.521519 
L 568.818295 -109.807274 
L 571.8095 -107.093029 
L 583.361398 -104.378784 
L 596.07233 -101.66454 
L 599.92492 -98.950295 
L 591.792937 -96.23605 
L 579.14569 -93.521806 
L 572.94744 -90.807561 
L 578.657425 -88.093316 
L 592.494168 -85.379071 
L 603.463659 -82.664827 
L 601.922213 -79.950582 
L 588.682963 -77.236337 
L 573.278413 -74.522093 
L 563.821168 -71.807848 
L 561.528853 -69.093603 
L 562.93062 -66.379358 
L 563.912245 -63.665114 
z
" style="stroke: #4c4c4c; stroke-width: 1.25"/>
    </defs>
    <g clip-path="url(#p4fd607d3c4)">
     <use xlink:href="#md8e6a3d385" x="0" y="432" style="fill: #5875a4; stroke: #4c4c4c; stroke-width: 1.25"/>
    </g>
   </g>
   <g id="FillBetweenPolyCollection_4">
    <defs>
     <path id="m1a7160d6e4" d="M 770.905181 -63.665114 
L 733.084819 -63.665114 
L 735.194714 -66.017459 
L 739.568972 -68.369804 
L 741.318583 -70.72215 
L 735.227242 -73.074495 
L 718.455942 -75.426841 
L 694.545877 -77.779186 
L 675.141384 -80.131532 
L 672.759 -82.483877 
L 688.9757 -84.836222 
L 712.538107 -87.188568 
L 729.796565 -89.540913 
L 734.066113 -91.893259 
L 726.646887 -94.245604 
L 714.458281 -96.59795 
L 706.893191 -98.950295 
L 709.988617 -101.30264 
L 721.713915 -103.654986 
L 734.492984 -106.007331 
L 741.974201 -108.359677 
L 742.429122 -110.712022 
L 737.912431 -113.064368 
L 732.628663 -115.416713 
L 730.879141 -117.769058 
L 734.185589 -120.121404 
L 740.266777 -122.473749 
L 745.411994 -124.826095 
L 747.355754 -127.17844 
L 746.006724 -129.530786 
L 742.89395 -131.883131 
L 740.435026 -134.235476 
L 740.564251 -136.587822 
L 743.24964 -138.940167 
L 746.665494 -141.292513 
L 748.884326 -143.644858 
L 749.089148 -145.997203 
L 747.616785 -148.349549 
L 745.640393 -150.701894 
L 744.640583 -153.05424 
L 745.410883 -155.406585 
L 747.418755 -157.758931 
L 749.3849 -160.111276 
L 750.359016 -162.463621 
L 750.151472 -164.815967 
L 749.180149 -167.168312 
L 748.229054 -169.520658 
L 748.044227 -171.873003 
L 748.792084 -174.225349 
L 749.959386 -176.577694 
L 750.863061 -178.930039 
L 751.145249 -181.282385 
L 750.846616 -183.63473 
L 750.284077 -185.987076 
L 749.901615 -188.339421 
L 750.006292 -190.691767 
L 750.533777 -193.044112 
L 751.139897 -195.396457 
L 751.515898 -197.748803 
L 751.565577 -200.101148 
L 751.373922 -202.453494 
L 751.12938 -204.805839 
L 751.032913 -207.158184 
L 751.167712 -209.51053 
L 751.442146 -211.862875 
L 751.689719 -214.215221 
L 751.804636 -216.567566 
L 751.779469 -218.919912 
L 751.67445 -221.272257 
L 751.582233 -223.624602 
L 751.579126 -225.976948 
L 751.671814 -228.329293 
L 751.800421 -230.681639 
L 751.899993 -233.033984 
L 751.946502 -235.38633 
L 751.95172 -237.738675 
L 751.93942 -240.09102 
L 751.930757 -242.443366 
L 751.936304 -244.795711 
L 751.952438 -247.148057 
L 751.966474 -249.500402 
L 751.966053 -251.852748 
L 751.945317 -254.205093 
L 751.909333 -256.557438 
L 751.876235 -258.909784 
L 751.867615 -261.262129 
L 751.889735 -263.614475 
L 751.927422 -265.96682 
L 751.959104 -268.319166 
L 751.973353 -270.671511 
L 751.971262 -273.023856 
L 751.961007 -275.376202 
L 751.952944 -277.728547 
L 751.954283 -280.080893 
L 751.964486 -282.433238 
L 751.97682 -284.785583 
L 751.984736 -287.137929 
L 751.985864 -289.490274 
L 751.981697 -291.84262 
L 751.976128 -294.194965 
L 751.973608 -296.547311 
L 752.016392 -296.547311 
L 752.016392 -296.547311 
L 752.013872 -294.194965 
L 752.008303 -291.84262 
L 752.004136 -289.490274 
L 752.005264 -287.137929 
L 752.01318 -284.785583 
L 752.025514 -282.433238 
L 752.035717 -280.080893 
L 752.037056 -277.728547 
L 752.028993 -275.376202 
L 752.018738 -273.023856 
L 752.016647 -270.671511 
L 752.030896 -268.319166 
L 752.062578 -265.96682 
L 752.100265 -263.614475 
L 752.122385 -261.262129 
L 752.113765 -258.909784 
L 752.080667 -256.557438 
L 752.044683 -254.205093 
L 752.023947 -251.852748 
L 752.023526 -249.500402 
L 752.037562 -247.148057 
L 752.053696 -244.795711 
L 752.059243 -242.443366 
L 752.05058 -240.09102 
L 752.03828 -237.738675 
L 752.043498 -235.38633 
L 752.090007 -233.033984 
L 752.189579 -230.681639 
L 752.318186 -228.329293 
L 752.410874 -225.976948 
L 752.407767 -223.624602 
L 752.31555 -221.272257 
L 752.210531 -218.919912 
L 752.185364 -216.567566 
L 752.300281 -214.215221 
L 752.547854 -211.862875 
L 752.822288 -209.51053 
L 752.957087 -207.158184 
L 752.86062 -204.805839 
L 752.616078 -202.453494 
L 752.424423 -200.101148 
L 752.474102 -197.748803 
L 752.850103 -195.396457 
L 753.456223 -193.044112 
L 753.983708 -190.691767 
L 754.088385 -188.339421 
L 753.705923 -185.987076 
L 753.143384 -183.63473 
L 752.844751 -181.282385 
L 753.126939 -178.930039 
L 754.030614 -176.577694 
L 755.197916 -174.225349 
L 755.945773 -171.873003 
L 755.760946 -169.520658 
L 754.809851 -167.168312 
L 753.838528 -164.815967 
L 753.630984 -162.463621 
L 754.6051 -160.111276 
L 756.571245 -157.758931 
L 758.579117 -155.406585 
L 759.349417 -153.05424 
L 758.349607 -150.701894 
L 756.373215 -148.349549 
L 754.900852 -145.997203 
L 755.105674 -143.644858 
L 757.324506 -141.292513 
L 760.74036 -138.940167 
L 763.425749 -136.587822 
L 763.554974 -134.235476 
L 761.09605 -131.883131 
L 757.983276 -129.530786 
L 756.634246 -127.17844 
L 758.578006 -124.826095 
L 763.723223 -122.473749 
L 769.804411 -120.121404 
L 773.110859 -117.769058 
L 771.361337 -115.416713 
L 766.077569 -113.064368 
L 761.560878 -110.712022 
L 762.015799 -108.359677 
L 769.497016 -106.007331 
L 782.276085 -103.654986 
L 794.001383 -101.30264 
L 797.096809 -98.950295 
L 789.531719 -96.59795 
L 777.343113 -94.245604 
L 769.923887 -91.893259 
L 774.193435 -89.540913 
L 791.451893 -87.188568 
L 815.0143 -84.836222 
L 831.231 -82.483877 
L 828.848616 -80.131532 
L 809.444123 -77.779186 
L 785.534058 -75.426841 
L 768.762758 -73.074495 
L 762.671417 -70.72215 
L 764.421028 -68.369804 
L 768.795286 -66.017459 
L 770.905181 -63.665114 
z
" style="stroke: #4c4c4c; stroke-width: 1.25"/>
    </defs>
    <g clip-path="url(#p4fd607d3c4)">
     <use xlink:href="#m1a7160d6e4" x="0" y="432" style="fill: #5875a4; stroke: #4c4c4c; stroke-width: 1.25"/>
    </g>
   </g>
   <g id="line2d_9">
    <path d="M 104.366833 350.420871 
L 211.083167 350.420871 
" clip-path="url(#p4fd607d3c4)" style="fill: none; stroke-dasharray: 1.5625,0.9375; stroke-dashoffset: 0; stroke: #4c4c4c; stroke-width: 1.25"/>
   </g>
   <g id="line2d_10">
    <path d="M 132.682118 332.506856 
L 182.767882 332.506856 
" clip-path="url(#p4fd607d3c4)" style="fill: none; stroke-dasharray: 3.125,1.25; stroke-dashoffset: 0; stroke: #4c4c4c; stroke-width: 1.25"/>
   </g>
   <g id="line2d_11">
    <path d="M 144.459159 314.592841 
L 170.990841 314.592841 
" clip-path="url(#p4fd607d3c4)" style="fill: none; stroke-dasharray: 1.5625,0.9375; stroke-dashoffset: 0; stroke: #4c4c4c; stroke-width: 1.25"/>
   </g>
   <g id="line2d_12">
    <path d="M 318.481381 350.420871 
L 393.148619 350.420871 
" clip-path="url(#p4fd607d3c4)" style="fill: none; stroke-dasharray: 1.5625,0.9375; stroke-dashoffset: 0; stroke: #4c4c4c; stroke-width: 1.25"/>
   </g>
   <g id="line2d_13">
    <path d="M 324.238409 332.506856 
L 387.391591 332.506856 
" clip-path="url(#p4fd607d3c4)" style="fill: none; stroke-dasharray: 3.125,1.25; stroke-dashoffset: 0; stroke: #4c4c4c; stroke-width: 1.25"/>
   </g>
   <g id="line2d_14">
    <path d="M 338.913277 296.678826 
L 372.716723 296.678826 
" clip-path="url(#p4fd607d3c4)" style="fill: none; stroke-dasharray: 1.5625,0.9375; stroke-dashoffset: 0; stroke: #4c4c4c; stroke-width: 1.25"/>
   </g>
   <g id="line2d_15">
    <path d="M 504.96292 350.420871 
L 602.84708 350.420871 
" clip-path="url(#p4fd607d3c4)" style="fill: none; stroke-dasharray: 1.5625,0.9375; stroke-dashoffset: 0; stroke: #4c4c4c; stroke-width: 1.25"/>
   </g>
   <g id="line2d_16">
    <path d="M 508.655598 332.506856 
L 599.154402 332.506856 
" clip-path="url(#p4fd607d3c4)" style="fill: none; stroke-dasharray: 3.125,1.25; stroke-dashoffset: 0; stroke: #4c4c4c; stroke-width: 1.25"/>
   </g>
   <g id="line2d_17">
    <path d="M 523.706791 314.592841 
L 584.103209 314.592841 
" clip-path="url(#p4fd607d3c4)" style="fill: none; stroke-dasharray: 1.5625,0.9375; stroke-dashoffset: 0; stroke: #4c4c4c; stroke-width: 1.25"/>
   </g>
   <g id="line2d_18">
    <path d="M 673.675302 350.420871 
L 830.314698 350.420871 
" clip-path="url(#p4fd607d3c4)" style="fill: none; stroke-dasharray: 1.5625,0.9375; stroke-dashoffset: 0; stroke: #4c4c4c; stroke-width: 1.25"/>
   </g>
   <g id="line2d_19">
    <path d="M 673.675302 350.420871 
L 830.314698 350.420871 
" clip-path="url(#p4fd607d3c4)" style="fill: none; stroke-dasharray: 3.125,1.25; stroke-dashoffset: 0; stroke: #4c4c4c; stroke-width: 1.25"/>
   </g>
   <g id="line2d_20">
    <path d="M 707.60752 332.506856 
L 796.38248 332.506856 
" clip-path="url(#p4fd607d3c4)" style="fill: none; stroke-dasharray: 1.5625,0.9375; stroke-dashoffset: 0; stroke: #4c4c4c; stroke-width: 1.25"/>
   </g>
   <g id="patch_3">
    <path d="M 58.68 384.4575 
L 58.68 29.76 
" style="fill: none; stroke: #cccccc; stroke-width: 1.25; stroke-linejoin: miter; stroke-linecap: square"/>
   </g>
   <g id="patch_4">
    <path d="M 851.04 384.4575 
L 851.04 29.76 
" style="fill: none; stroke: #cccccc; stroke-width: 1.25; stroke-linejoin: miter; stroke-linecap: square"/>
   </g>
   <g id="patch_5">
    <path d="M 58.68 384.4575 
L 851.04 384.4575 
" style="fill: none; stroke: #cccccc; stroke-width: 1.25; stroke-linejoin: miter; stroke-linecap: square"/>
   </g>
   <g id="patch_6">
    <path d="M 58.68 29.76 
L 851.04 29.76 
" style="fill: none; stroke: #cccccc; stroke-width: 1.25; stroke-linejoin: miter; stroke-linecap: square"/>
   </g>
   <g id="text_15">
    <!-- Velocidade do Vento por Estação do Ano - Madrid -->
    <g style="fill: #262626" transform="translate(289.336172 23.76) scale(0.15 -0.15)">
     <defs>
      <path id="ArialMT-70" d="M 422 -1272 
L 422 3319 
L 934 3319 
L 934 2888 
Q 1116 3141 1344 3267 
Q 1572 3394 1897 3394 
Q 2322 3394 2647 3175 
Q 2972 2956 3137 2557 
Q 3303 2159 3303 1684 
Q 3303 1175 3120 767 
Q 2938 359 2589 142 
Q 2241 -75 1856 -75 
Q 1575 -75 1351 44 
Q 1128 163 984 344 
L 984 -1272 
L 422 -1272 
z
M 931 1641 
Q 931 1000 1190 694 
Q 1450 388 1819 388 
Q 2194 388 2461 705 
Q 2728 1022 2728 1688 
Q 2728 2322 2467 2637 
Q 2206 2953 1844 2953 
Q 1484 2953 1207 2617 
Q 931 2281 931 1641 
z
" transform="scale(0.015625)"/>
      <path id="ArialMT-41" d="M -9 0 
L 1750 4581 
L 2403 4581 
L 4278 0 
L 3588 0 
L 3053 1388 
L 1138 1388 
L 634 0 
L -9 0 
z
M 1313 1881 
L 2866 1881 
L 2388 3150 
Q 2169 3728 2063 4100 
Q 1975 3659 1816 3225 
L 1313 1881 
z
" transform="scale(0.015625)"/>
      <path id="ArialMT-2d" d="M 203 1375 
L 203 1941 
L 1931 1941 
L 1931 1375 
L 203 1375 
z
" transform="scale(0.015625)"/>
      <path id="ArialMT-4d" d="M 475 0 
L 475 4581 
L 1388 4581 
L 2472 1338 
Q 2622 884 2691 659 
Q 2769 909 2934 1394 
L 4031 4581 
L 4847 4581 
L 4847 0 
L 4263 0 
L 4263 3834 
L 2931 0 
L 2384 0 
L 1059 3900 
L 1059 0 
L 475 0 
z
" transform="scale(0.015625)"/>
     </defs>
     <use xlink:href="#ArialMT-56"/>
     <use xlink:href="#ArialMT-65" transform="translate(61.199219 0)"/>
     <use xlink:href="#ArialMT-6c" transform="translate(116.814453 0)"/>
     <use xlink:href="#ArialMT-6f" transform="translate(139.03125 0)"/>
     <use xlink:href="#ArialMT-63" transform="translate(194.646484 0)"/>
     <use xlink:href="#ArialMT-69" transform="translate(244.646484 0)"/>
     <use xlink:href="#ArialMT-64" transform="translate(266.863281 0)"/>
     <use xlink:href="#ArialMT-61" transform="translate(322.478516 0)"/>
     <use xlink:href="#ArialMT-64" transform="translate(378.09375 0)"/>
     <use xlink:href="#ArialMT-65" transform="translate(433.708984 0)"/>
     <use xlink:href="#ArialMT-20" transform="translate(489.324219 0)"/>
     <use xlink:href="#ArialMT-64" transform="translate(517.107422 0)"/>
     <use xlink:href="#ArialMT-6f" transform="translate(572.722656 0)"/>
     <use xlink:href="#ArialMT-20" transform="translate(628.337891 0)"/>
     <use xlink:href="#ArialMT-56" transform="translate(656.121094 0)"/>
     <use xlink:href="#ArialMT-65" transform="translate(717.320312 0)"/>
     <use xlink:href="#ArialMT-6e" transform="translate(772.935547 0)"/>
     <use xlink:href="#ArialMT-74" transform="translate(828.550781 0)"/>
     <use xlink:href="#ArialMT-6f" transform="translate(856.333984 0)"/>
     <use xlink:href="#ArialMT-20" transform="translate(911.949219 0)"/>
     <use xlink:href="#ArialMT-70" transform="translate(939.732422 0)"/>
     <use xlink:href="#ArialMT-6f" transform="translate(995.347656 0)"/>
     <use xlink:href="#ArialMT-72" transform="translate(1050.962891 0)"/>
     <use xlink:href="#ArialMT-20" transform="translate(1084.263672 0)"/>
     <use xlink:href="#ArialMT-45" transform="translate(1112.046875 0)"/>
     <use xlink:href="#ArialMT-73" transform="translate(1178.746094 0)"/>
     <use xlink:href="#ArialMT-74" transform="translate(1228.746094 0)"/>
     <use xlink:href="#ArialMT-61" transform="translate(1256.529297 0)"/>
     <use xlink:href="#ArialMT-e7" transform="translate(1312.144531 0)"/>
     <use xlink:href="#ArialMT-e3" transform="translate(1362.144531 0)"/>
     <use xlink:href="#ArialMT-6f" transform="translate(1417.759766 0)"/>
     <use xlink:href="#ArialMT-20" transform="translate(1473.375 0)"/>
     <use xlink:href="#ArialMT-64" transform="translate(1501.158203 0)"/>
     <use xlink:href="#ArialMT-6f" transform="translate(1556.773438 0)"/>
     <use xlink:href="#ArialMT-20" transform="translate(1612.388672 0)"/>
     <use xlink:href="#ArialMT-41" transform="translate(1634.671875 0)"/>
     <use xlink:href="#ArialMT-6e" transform="translate(1701.371094 0)"/>
     <use xlink:href="#ArialMT-6f" transform="translate(1756.986328 0)"/>
     <use xlink:href="#ArialMT-20" transform="translate(1812.601562 0)"/>
     <use xlink:href="#ArialMT-2d" transform="translate(1840.384766 0)"/>
     <use xlink:href="#ArialMT-20" transform="translate(1873.685547 0)"/>
     <use xlink:href="#ArialMT-4d" transform="translate(1901.46875 0)"/>
     <use xlink:href="#ArialMT-61" transform="translate(1984.769531 0)"/>
     <use xlink:href="#ArialMT-64" transform="translate(2040.384766 0)"/>
     <use xlink:href="#ArialMT-72" transform="translate(2096 0)"/>
     <use xlink:href="#ArialMT-69" transform="translate(2129.300781 0)"/>
     <use xlink:href="#ArialMT-64" transform="translate(2151.517578 0)"/>
    </g>
   </g>
  </g>
 </g>
 <defs>
  <clipPath id="p4fd607d3c4">
   <rect x="58.68" y="29.76" width="792.36" height="354.6975"/>
  </clipPath>
 </defs>
</svg>
